%TF.GenerationSoftware,KiCad,Pcbnew,6.0.7+dfsg-1~bpo11+1*%
%TF.CreationDate,2022-10-26T04:05:08+08:00*%
%TF.ProjectId,MiniDelay v1.0 - Front,4d696e69-4465-46c6-9179-2076312e3020,rev?*%
%TF.SameCoordinates,Original*%
%TF.FileFunction,Drillmap*%
%TF.FilePolarity,Positive*%
%FSLAX45Y45*%
G04 Gerber Fmt 4.5, Leading zero omitted, Abs format (unit mm)*
G04 Created by KiCad (PCBNEW 6.0.7+dfsg-1~bpo11+1) date 2022-10-26 04:05:08*
%MOMM*%
%LPD*%
G01*
G04 APERTURE LIST*
%ADD10C,0.100000*%
%ADD11C,0.200000*%
G04 APERTURE END LIST*
D10*
X10000000Y-4000000D02*
X12000000Y-4000000D01*
X10000000Y-16850000D02*
X10000000Y-4000000D01*
X10650000Y-13850000D02*
G75*
G03*
X10650000Y-13850000I-150000J0D01*
G01*
X12000000Y-16850000D02*
X10000000Y-16850000D01*
X12000000Y-4000000D02*
X12000000Y-16850000D01*
D11*
X10252619Y-17165476D02*
X10252619Y-16965476D01*
X10300238Y-16965476D01*
X10328810Y-16975000D01*
X10347857Y-16994048D01*
X10357381Y-17013095D01*
X10366905Y-17051190D01*
X10366905Y-17079762D01*
X10357381Y-17117857D01*
X10347857Y-17136905D01*
X10328810Y-17155952D01*
X10300238Y-17165476D01*
X10252619Y-17165476D01*
X10452619Y-17165476D02*
X10452619Y-17032143D01*
X10452619Y-17070238D02*
X10462143Y-17051190D01*
X10471667Y-17041667D01*
X10490714Y-17032143D01*
X10509762Y-17032143D01*
X10576429Y-17165476D02*
X10576429Y-17032143D01*
X10576429Y-16965476D02*
X10566905Y-16975000D01*
X10576429Y-16984524D01*
X10585952Y-16975000D01*
X10576429Y-16965476D01*
X10576429Y-16984524D01*
X10700238Y-17165476D02*
X10681190Y-17155952D01*
X10671667Y-17136905D01*
X10671667Y-16965476D01*
X10805000Y-17165476D02*
X10785952Y-17155952D01*
X10776429Y-17136905D01*
X10776429Y-16965476D01*
X11033571Y-17165476D02*
X11033571Y-16965476D01*
X11100238Y-17108333D01*
X11166905Y-16965476D01*
X11166905Y-17165476D01*
X11347857Y-17165476D02*
X11347857Y-17060714D01*
X11338333Y-17041667D01*
X11319286Y-17032143D01*
X11281190Y-17032143D01*
X11262143Y-17041667D01*
X11347857Y-17155952D02*
X11328809Y-17165476D01*
X11281190Y-17165476D01*
X11262143Y-17155952D01*
X11252619Y-17136905D01*
X11252619Y-17117857D01*
X11262143Y-17098810D01*
X11281190Y-17089286D01*
X11328809Y-17089286D01*
X11347857Y-17079762D01*
X11443095Y-17032143D02*
X11443095Y-17232143D01*
X11443095Y-17041667D02*
X11462143Y-17032143D01*
X11500238Y-17032143D01*
X11519286Y-17041667D01*
X11528809Y-17051190D01*
X11538333Y-17070238D01*
X11538333Y-17127381D01*
X11528809Y-17146429D01*
X11519286Y-17155952D01*
X11500238Y-17165476D01*
X11462143Y-17165476D01*
X11443095Y-17155952D01*
X11624048Y-17146429D02*
X11633571Y-17155952D01*
X11624048Y-17165476D01*
X11614524Y-17155952D01*
X11624048Y-17146429D01*
X11624048Y-17165476D01*
X11624048Y-17041667D02*
X11633571Y-17051190D01*
X11624048Y-17060714D01*
X11614524Y-17051190D01*
X11624048Y-17041667D01*
X11624048Y-17060714D01*
M02*
