%TF.GenerationSoftware,KiCad,Pcbnew,6.0.7+dfsg-1~bpo11+1*%
%TF.CreationDate,2022-10-24T23:46:05+08:00*%
%TF.ProjectId,MiniDelay,4d696e69-4465-46c6-9179-2e6b69636164,rev?*%
%TF.SameCoordinates,Original*%
%TF.FileFunction,Copper,L2,Bot*%
%TF.FilePolarity,Positive*%
%FSLAX46Y46*%
G04 Gerber Fmt 4.6, Leading zero omitted, Abs format (unit mm)*
G04 Created by KiCad (PCBNEW 6.0.7+dfsg-1~bpo11+1) date 2022-10-24 23:46:05*
%MOMM*%
%LPD*%
G01*
G04 APERTURE LIST*
G04 Aperture macros list*
%AMRoundRect*
0 Rectangle with rounded corners*
0 $1 Rounding radius*
0 $2 $3 $4 $5 $6 $7 $8 $9 X,Y pos of 4 corners*
0 Add a 4 corners polygon primitive as box body*
4,1,4,$2,$3,$4,$5,$6,$7,$8,$9,$2,$3,0*
0 Add four circle primitives for the rounded corners*
1,1,$1+$1,$2,$3*
1,1,$1+$1,$4,$5*
1,1,$1+$1,$6,$7*
1,1,$1+$1,$8,$9*
0 Add four rect primitives between the rounded corners*
20,1,$1+$1,$2,$3,$4,$5,0*
20,1,$1+$1,$4,$5,$6,$7,0*
20,1,$1+$1,$6,$7,$8,$9,0*
20,1,$1+$1,$8,$9,$2,$3,0*%
G04 Aperture macros list end*
%TA.AperFunction,ComponentPad*%
%ADD10R,1.930000X1.830000*%
%TD*%
%TA.AperFunction,ComponentPad*%
%ADD11C,2.130000*%
%TD*%
%TA.AperFunction,ComponentPad*%
%ADD12O,2.720000X3.240000*%
%TD*%
%TA.AperFunction,ComponentPad*%
%ADD13R,1.800000X1.800000*%
%TD*%
%TA.AperFunction,ComponentPad*%
%ADD14C,1.800000*%
%TD*%
%TA.AperFunction,SMDPad,CuDef*%
%ADD15RoundRect,0.237500X-0.237500X0.250000X-0.237500X-0.250000X0.237500X-0.250000X0.237500X0.250000X0*%
%TD*%
%TA.AperFunction,SMDPad,CuDef*%
%ADD16RoundRect,0.237500X-0.237500X0.300000X-0.237500X-0.300000X0.237500X-0.300000X0.237500X0.300000X0*%
%TD*%
%TA.AperFunction,SMDPad,CuDef*%
%ADD17RoundRect,0.237500X-0.300000X-0.237500X0.300000X-0.237500X0.300000X0.237500X-0.300000X0.237500X0*%
%TD*%
%TA.AperFunction,SMDPad,CuDef*%
%ADD18RoundRect,0.237500X0.237500X-0.250000X0.237500X0.250000X-0.237500X0.250000X-0.237500X-0.250000X0*%
%TD*%
%TA.AperFunction,ComponentPad*%
%ADD19R,2.000000X1.905000*%
%TD*%
%TA.AperFunction,ComponentPad*%
%ADD20O,2.000000X1.905000*%
%TD*%
%TA.AperFunction,SMDPad,CuDef*%
%ADD21RoundRect,0.237500X0.237500X-0.300000X0.237500X0.300000X-0.237500X0.300000X-0.237500X-0.300000X0*%
%TD*%
%TA.AperFunction,ComponentPad*%
%ADD22RoundRect,0.250000X-0.600000X-0.600000X0.600000X-0.600000X0.600000X0.600000X-0.600000X0.600000X0*%
%TD*%
%TA.AperFunction,ComponentPad*%
%ADD23C,1.700000*%
%TD*%
%TA.AperFunction,SMDPad,CuDef*%
%ADD24RoundRect,0.250000X0.550000X-1.050000X0.550000X1.050000X-0.550000X1.050000X-0.550000X-1.050000X0*%
%TD*%
%TA.AperFunction,SMDPad,CuDef*%
%ADD25RoundRect,0.150000X0.650000X0.150000X-0.650000X0.150000X-0.650000X-0.150000X0.650000X-0.150000X0*%
%TD*%
%TA.AperFunction,SMDPad,CuDef*%
%ADD26RoundRect,0.250000X-0.550000X1.050000X-0.550000X-1.050000X0.550000X-1.050000X0.550000X1.050000X0*%
%TD*%
%TA.AperFunction,SMDPad,CuDef*%
%ADD27RoundRect,0.150000X0.825000X0.150000X-0.825000X0.150000X-0.825000X-0.150000X0.825000X-0.150000X0*%
%TD*%
G04 APERTURE END LIST*
D10*
%TO.P,AudioOut1,S*%
%TO.N,GND*%
X125850000Y-143700000D03*
D11*
%TO.P,AudioOut1,T*%
%TO.N,Net-(AudioOut1-PadT)*%
X125850000Y-155100000D03*
%TO.P,AudioOut1,TN*%
%TO.N,unconnected-(AudioOut1-PadTN)*%
X125850000Y-146800000D03*
%TD*%
D10*
%TO.P,AudioIn1,S*%
%TO.N,GND*%
X115800000Y-143700000D03*
D11*
%TO.P,AudioIn1,T*%
%TO.N,Net-(AudioIn1-PadT)*%
X115800000Y-155100000D03*
%TO.P,AudioIn1,TN*%
%TO.N,unconnected-(AudioIn1-PadTN)*%
X115800000Y-146800000D03*
%TD*%
D12*
%TO.P,LEVEL1,*%
%TO.N,*%
X125700000Y-111825000D03*
X116100000Y-111825000D03*
D13*
%TO.P,LEVEL1,1,1*%
%TO.N,GND*%
X118400000Y-119325000D03*
D14*
%TO.P,LEVEL1,2,2*%
%TO.N,WET_OUT*%
X120900000Y-119325000D03*
%TO.P,LEVEL1,3,3*%
%TO.N,Net-(LEVEL1-Pad3)*%
X123400000Y-119325000D03*
%TD*%
D12*
%TO.P,TIME1,*%
%TO.N,*%
X125700000Y-62500000D03*
X116100000Y-62500000D03*
D13*
%TO.P,TIME1,1,1*%
%TO.N,GND*%
X118400000Y-70000000D03*
D14*
%TO.P,TIME1,2,2*%
%TO.N,Net-(R5-Pad2)*%
X120900000Y-70000000D03*
%TO.P,TIME1,3,3*%
X123400000Y-70000000D03*
%TD*%
D12*
%TO.P,REPEATS1,*%
%TO.N,*%
X116100000Y-86200000D03*
X125700000Y-86200000D03*
D13*
%TO.P,REPEATS1,1,1*%
%TO.N,GND*%
X118400000Y-93700000D03*
D14*
%TO.P,REPEATS1,2,2*%
%TO.N,REPEATS*%
X120900000Y-93700000D03*
%TO.P,REPEATS1,3,3*%
%TO.N,Net-(LEVEL1-Pad3)*%
X123400000Y-93700000D03*
%TD*%
D15*
%TO.P,R14,1*%
%TO.N,Net-(C19-Pad2)*%
X140550000Y-101412500D03*
%TO.P,R14,2*%
%TO.N,Net-(C10-Pad2)*%
X140550000Y-103237500D03*
%TD*%
D16*
%TO.P,C22,1*%
%TO.N,Net-(C22-Pad1)*%
X141800000Y-79737500D03*
%TO.P,C22,2*%
%TO.N,Net-(C22-Pad2)*%
X141800000Y-81462500D03*
%TD*%
D15*
%TO.P,R3,1*%
%TO.N,DRY_OUT*%
X120265000Y-150897500D03*
%TO.P,R3,2*%
%TO.N,Net-(C6-Pad2)*%
X120265000Y-152722500D03*
%TD*%
D16*
%TO.P,C19,1*%
%TO.N,GND*%
X142075000Y-98037500D03*
%TO.P,C19,2*%
%TO.N,Net-(C19-Pad2)*%
X142075000Y-99762500D03*
%TD*%
D15*
%TO.P,R17,1*%
%TO.N,DRY_OUT*%
X118735000Y-150887500D03*
%TO.P,R17,2*%
%TO.N,Net-(C22-Pad2)*%
X118735000Y-152712500D03*
%TD*%
D13*
%TO.P,D1,1,K*%
%TO.N,GND*%
X114650000Y-139350000D03*
D14*
%TO.P,D1,2,A*%
%TO.N,Net-(D1-Pad2)*%
X117190000Y-139350000D03*
%TD*%
D17*
%TO.P,C4,1*%
%TO.N,GND*%
X140112500Y-83475000D03*
%TO.P,C4,2*%
%TO.N,-12V*%
X141837500Y-83475000D03*
%TD*%
D18*
%TO.P,R19,1*%
%TO.N,GND*%
X140400000Y-87312500D03*
%TO.P,R19,2*%
%TO.N,Net-(R19-Pad2)*%
X140400000Y-85487500D03*
%TD*%
D15*
%TO.P,R6,1*%
%TO.N,REPEATS*%
X124835000Y-150917500D03*
%TO.P,R6,2*%
%TO.N,Net-(C6-Pad2)*%
X124835000Y-152742500D03*
%TD*%
D16*
%TO.P,C6,1*%
%TO.N,Net-(C6-Pad1)*%
X151000000Y-79737500D03*
%TO.P,C6,2*%
%TO.N,Net-(C6-Pad2)*%
X151000000Y-81462500D03*
%TD*%
D19*
%TO.P,U3,1,IN*%
%TO.N,+12V*%
X117255000Y-128490000D03*
D20*
%TO.P,U3,2,GND*%
%TO.N,GND*%
X117255000Y-125950000D03*
%TO.P,U3,3,OUT*%
%TO.N,+5V*%
X117255000Y-123410000D03*
%TD*%
D21*
%TO.P,C10,1*%
%TO.N,Net-(C10-Pad1)*%
X114050000Y-92925000D03*
%TO.P,C10,2*%
%TO.N,Net-(C10-Pad2)*%
X114050000Y-91200000D03*
%TD*%
%TO.P,C13,1*%
%TO.N,Net-(C13-Pad1)*%
X143600000Y-106562500D03*
%TO.P,C13,2*%
%TO.N,Net-(C13-Pad2)*%
X143600000Y-104837500D03*
%TD*%
D18*
%TO.P,R5,1*%
%TO.N,Net-(R5-Pad1)*%
X154250000Y-106025000D03*
%TO.P,R5,2*%
%TO.N,Net-(R5-Pad2)*%
X154250000Y-104200000D03*
%TD*%
D16*
%TO.P,C20,1*%
%TO.N,Net-(C20-Pad1)*%
X148100000Y-72937500D03*
%TO.P,C20,2*%
%TO.N,GND*%
X148100000Y-74662500D03*
%TD*%
D18*
%TO.P,R11,1*%
%TO.N,Net-(C6-Pad1)*%
X121875000Y-146375000D03*
%TO.P,R11,2*%
%TO.N,Net-(C12-Pad2)*%
X121875000Y-144550000D03*
%TD*%
D21*
%TO.P,C3,1*%
%TO.N,+12V*%
X114920000Y-128490000D03*
%TO.P,C3,2*%
%TO.N,GND*%
X114920000Y-126765000D03*
%TD*%
D22*
%TO.P,J1,1,Pin_1*%
%TO.N,-12V*%
X124447500Y-136480000D03*
D23*
%TO.P,J1,2,Pin_2*%
X126987500Y-136480000D03*
%TO.P,J1,3,Pin_3*%
%TO.N,GND*%
X124447500Y-133940000D03*
%TO.P,J1,4,Pin_4*%
X126987500Y-133940000D03*
%TO.P,J1,5,Pin_5*%
X124447500Y-131400000D03*
%TO.P,J1,6,Pin_6*%
X126987500Y-131400000D03*
%TO.P,J1,7,Pin_7*%
X124447500Y-128860000D03*
%TO.P,J1,8,Pin_8*%
X126987500Y-128860000D03*
%TO.P,J1,9,Pin_9*%
%TO.N,+12V*%
X124447500Y-126320000D03*
%TO.P,J1,10,Pin_10*%
X126987500Y-126320000D03*
%TD*%
D15*
%TO.P,R10,1*%
%TO.N,Net-(C16-Pad2)*%
X118900000Y-107787500D03*
%TO.P,R10,2*%
%TO.N,Net-(C11-Pad2)*%
X118900000Y-109612500D03*
%TD*%
D21*
%TO.P,C11,1*%
%TO.N,Net-(C11-Pad1)*%
X143600000Y-103187500D03*
%TO.P,C11,2*%
%TO.N,Net-(C11-Pad2)*%
X143600000Y-101462500D03*
%TD*%
D18*
%TO.P,R2,1*%
%TO.N,Net-(D1-Pad2)*%
X120325000Y-146387500D03*
%TO.P,R2,2*%
%TO.N,+12V*%
X120325000Y-144562500D03*
%TD*%
D15*
%TO.P,R18,1*%
%TO.N,WET_OUT*%
X121795000Y-150907500D03*
%TO.P,R18,2*%
%TO.N,Net-(C22-Pad2)*%
X121795000Y-152732500D03*
%TD*%
D16*
%TO.P,C5,1*%
%TO.N,DRY_OUT*%
X117205000Y-150937500D03*
%TO.P,C5,2*%
%TO.N,Net-(AudioIn1-PadT)*%
X117205000Y-152662500D03*
%TD*%
D18*
%TO.P,R4,1*%
%TO.N,Net-(C6-Pad2)*%
X123315000Y-152732500D03*
%TO.P,R4,2*%
%TO.N,Net-(C6-Pad1)*%
X123315000Y-150907500D03*
%TD*%
%TO.P,R21,1*%
%TO.N,Net-(C22-Pad2)*%
X140300000Y-81512500D03*
%TO.P,R21,2*%
%TO.N,Net-(C22-Pad1)*%
X140300000Y-79687500D03*
%TD*%
D15*
%TO.P,R1,1*%
%TO.N,GND*%
X115675000Y-150887500D03*
%TO.P,R1,2*%
%TO.N,Net-(AudioIn1-PadT)*%
X115675000Y-152712500D03*
%TD*%
D18*
%TO.P,R9,1*%
%TO.N,Net-(AudioOut1-PadT)*%
X126350000Y-152762500D03*
%TO.P,R9,2*%
%TO.N,Net-(C22-Pad1)*%
X126350000Y-150937500D03*
%TD*%
D15*
%TO.P,R20,1*%
%TO.N,Net-(R19-Pad2)*%
X141900000Y-85487500D03*
%TO.P,R20,2*%
%TO.N,Net-(LEVEL1-Pad3)*%
X141900000Y-87312500D03*
%TD*%
D21*
%TO.P,C21,1*%
%TO.N,Net-(C19-Pad2)*%
X140555000Y-99762500D03*
%TO.P,C21,2*%
%TO.N,Net-(C21-Pad2)*%
X140555000Y-98037500D03*
%TD*%
D16*
%TO.P,C9,1*%
%TO.N,GND*%
X157350000Y-104237500D03*
%TO.P,C9,2*%
%TO.N,Net-(C9-Pad2)*%
X157350000Y-105962500D03*
%TD*%
D15*
%TO.P,R16,1*%
%TO.N,GND*%
X112525000Y-91162500D03*
%TO.P,R16,2*%
%TO.N,Net-(C21-Pad2)*%
X112525000Y-92987500D03*
%TD*%
D24*
%TO.P,C7,1*%
%TO.N,Net-(C7-Pad1)*%
X127925000Y-93450000D03*
%TO.P,C7,2*%
%TO.N,GND*%
X127925000Y-89850000D03*
%TD*%
D18*
%TO.P,R7,1*%
%TO.N,Net-(C16-Pad2)*%
X142075000Y-103237500D03*
%TO.P,R7,2*%
%TO.N,Net-(C10-Pad2)*%
X142075000Y-101412500D03*
%TD*%
D16*
%TO.P,C8,1*%
%TO.N,GND*%
X155800000Y-104250000D03*
%TO.P,C8,2*%
%TO.N,Net-(C8-Pad2)*%
X155800000Y-105975000D03*
%TD*%
D15*
%TO.P,R12,1*%
%TO.N,Net-(C20-Pad1)*%
X146575000Y-72875000D03*
%TO.P,R12,2*%
%TO.N,Net-(C15-Pad2)*%
X146575000Y-74700000D03*
%TD*%
D25*
%TO.P,U2,1,VCC*%
%TO.N,+5V*%
X152250000Y-97555000D03*
%TO.P,U2,2,REF*%
%TO.N,Net-(C7-Pad1)*%
X152250000Y-98825000D03*
%TO.P,U2,3,AGND*%
%TO.N,GND*%
X152250000Y-100095000D03*
%TO.P,U2,4,DGND*%
X152250000Y-101365000D03*
%TO.P,U2,5,CLK_O*%
%TO.N,unconnected-(U2-Pad5)*%
X152250000Y-102635000D03*
%TO.P,U2,6,VCO*%
%TO.N,Net-(R5-Pad1)*%
X152250000Y-103905000D03*
%TO.P,U2,7,CC1*%
%TO.N,Net-(C8-Pad2)*%
X152250000Y-105175000D03*
%TO.P,U2,8,CC0*%
%TO.N,Net-(C9-Pad2)*%
X152250000Y-106445000D03*
%TO.P,U2,9,OP1-OUT*%
%TO.N,Net-(C13-Pad1)*%
X145750000Y-106445000D03*
%TO.P,U2,10,OP1-IN*%
%TO.N,Net-(C13-Pad2)*%
X145750000Y-105175000D03*
%TO.P,U2,11,OP2-IN*%
%TO.N,Net-(C11-Pad1)*%
X145750000Y-103905000D03*
%TO.P,U2,12,OP2-OUT*%
%TO.N,Net-(C11-Pad2)*%
X145750000Y-102635000D03*
%TO.P,U2,13,LPF2-IN*%
%TO.N,Net-(C10-Pad1)*%
X145750000Y-101365000D03*
%TO.P,U2,14,LPF2-OUT*%
%TO.N,Net-(C10-Pad2)*%
X145750000Y-100095000D03*
%TO.P,U2,15,LPF1-OUT*%
%TO.N,Net-(C15-Pad1)*%
X145750000Y-98825000D03*
%TO.P,U2,16,LPF1-IN*%
%TO.N,Net-(C15-Pad2)*%
X145750000Y-97555000D03*
%TD*%
D26*
%TO.P,C18,1*%
%TO.N,Net-(C18-Pad1)*%
X153300000Y-73500000D03*
%TO.P,C18,2*%
%TO.N,Net-(C18-Pad2)*%
X153300000Y-77100000D03*
%TD*%
D27*
%TO.P,U1,1*%
%TO.N,Net-(C6-Pad1)*%
X148875000Y-79665000D03*
%TO.P,U1,2,-*%
%TO.N,Net-(C6-Pad2)*%
X148875000Y-80935000D03*
%TO.P,U1,3,+*%
%TO.N,GND*%
X148875000Y-82205000D03*
%TO.P,U1,4,V+*%
%TO.N,+12V*%
X148875000Y-83475000D03*
%TO.P,U1,5,+*%
%TO.N,Net-(C12-Pad2)*%
X148875000Y-84745000D03*
%TO.P,U1,6,-*%
%TO.N,Net-(C18-Pad2)*%
X148875000Y-86015000D03*
%TO.P,U1,7*%
X148875000Y-87285000D03*
%TO.P,U1,8*%
%TO.N,Net-(LEVEL1-Pad3)*%
X143925000Y-87285000D03*
%TO.P,U1,9,-*%
%TO.N,Net-(R19-Pad2)*%
X143925000Y-86015000D03*
%TO.P,U1,10,+*%
%TO.N,Net-(C21-Pad2)*%
X143925000Y-84745000D03*
%TO.P,U1,11,V-*%
%TO.N,-12V*%
X143925000Y-83475000D03*
%TO.P,U1,12,+*%
%TO.N,GND*%
X143925000Y-82205000D03*
%TO.P,U1,13,-*%
%TO.N,Net-(C22-Pad2)*%
X143925000Y-80935000D03*
%TO.P,U1,14*%
%TO.N,Net-(C22-Pad1)*%
X143925000Y-79665000D03*
%TD*%
D21*
%TO.P,C12,1*%
%TO.N,GND*%
X123475000Y-146325000D03*
%TO.P,C12,2*%
%TO.N,Net-(C12-Pad2)*%
X123475000Y-144600000D03*
%TD*%
D16*
%TO.P,C17,1*%
%TO.N,+5V*%
X154240000Y-97377500D03*
%TO.P,C17,2*%
%TO.N,GND*%
X154240000Y-99102500D03*
%TD*%
%TO.P,C16,1*%
%TO.N,GND*%
X122100000Y-107837500D03*
%TO.P,C16,2*%
%TO.N,Net-(C16-Pad2)*%
X122100000Y-109562500D03*
%TD*%
%TO.P,C15,1*%
%TO.N,Net-(C15-Pad1)*%
X145000000Y-72937500D03*
%TO.P,C15,2*%
%TO.N,Net-(C15-Pad2)*%
X145000000Y-74662500D03*
%TD*%
D15*
%TO.P,R15,1*%
%TO.N,Net-(C18-Pad1)*%
X149700000Y-72887500D03*
%TO.P,R15,2*%
%TO.N,Net-(C20-Pad1)*%
X149700000Y-74712500D03*
%TD*%
D16*
%TO.P,C14,1*%
%TO.N,+12V*%
X151000000Y-83137500D03*
%TO.P,C14,2*%
%TO.N,GND*%
X151000000Y-84862500D03*
%TD*%
D18*
%TO.P,R8,1*%
%TO.N,Net-(C16-Pad2)*%
X120500000Y-109612500D03*
%TO.P,R8,2*%
%TO.N,Net-(C10-Pad1)*%
X120500000Y-107787500D03*
%TD*%
%TO.P,R13,1*%
%TO.N,Net-(C20-Pad1)*%
X143400000Y-74712500D03*
%TO.P,R13,2*%
%TO.N,Net-(C15-Pad1)*%
X143400000Y-72887500D03*
%TD*%
M02*
