<?xml version="1.0" standalone="no"?>
 <!DOCTYPE svg PUBLIC "-//W3C//DTD SVG 1.1//EN" 
 "http://www.w3.org/Graphics/SVG/1.1/DTD/svg11.dtd"> 
<svg
  xmlns:svg="http://www.w3.org/2000/svg"
  xmlns="http://www.w3.org/2000/svg"
  xmlns:xlink="http://www.w3.org/1999/xlink"
  version="1.1"
  width="29.700220cm" height="21.000720cm" viewBox="0 0 297002200 210007200">
<title>SVG Picture created as MiniDelay-F_Silkscreen.svg date 2022/10/24 23:46:42 </title>
  <desc>Picture generated by PCBNEW </desc>
<g style="fill:#000000; fill-opacity:1.000000;stroke:#000000; stroke-opacity:1.000000;
stroke-linecap:round; stroke-linejoin:round;"
 transform="translate(0 0) scale(1 1)">
</g>
<g style="fill:#000000; fill-opacity:0.0; 
stroke:#000000; stroke-width:0.000000; stroke-opacity:1; 
stroke-linecap:round; stroke-linejoin:round;">
</g>
<g style="fill:#000000; fill-opacity:0.0; 
stroke:#000000; stroke-width:150000.000000; stroke-opacity:1; 
stroke-linecap:round; stroke-linejoin:round;">
<text x="119975000.000000" y="130061000.000000"
textLength="2152381.000000" font-size="1333333.000000" lengthAdjust="spacingAndGlyphs"
text-anchor="middle" opacity="0">C2</text>
<g class="stroked-text"><desc>C2</desc>
<path d="M119808333 129918142
L119760714 129965761
L119617857 130013380
L119522619 130013380
L119379761 129965761
L119284523 129870523
L119236904 129775285
L119189285 129584809
L119189285 129441952
L119236904 129251476
L119284523 129156238
L119379761 129061000
L119522619 129013380
L119617857 129013380
L119760714 129061000
L119808333 129108619
" />
<path d="M120189285 129108619
L120236904 129061000
L120332142 129013380
L120570238 129013380
L120665476 129061000
L120713095 129108619
L120760714 129203857
L120760714 129299095
L120713095 129441952
L120141666 130013380
L120760714 130013380
" />
</g><text x="125850000.000000" y="141950000.000000"
textLength="7718810.000000" font-size="1333333.000000" lengthAdjust="spacingAndGlyphs"
text-anchor="middle" opacity="0">AudioOut1</text>
<g class="stroked-text"><desc>AudioOut1</desc>
<path d="M122278571 141616666
L122754761 141616666
" />
<path d="M122183333 141902380
L122516666 140902380
L122850000 141902380
" />
<path d="M123611904 141235714
L123611904 141902380
" />
<path d="M123183333 141235714
L123183333 141759523
L123230952 141854761
L123326190 141902380
L123469047 141902380
L123564285 141854761
L123611904 141807142
" />
<path d="M124516666 141902380
L124516666 140902380
" />
<path d="M124516666 141854761
L124421428 141902380
L124230952 141902380
L124135714 141854761
L124088095 141807142
L124040476 141711904
L124040476 141426190
L124088095 141330952
L124135714 141283333
L124230952 141235714
L124421428 141235714
L124516666 141283333
" />
<path d="M124992857 141902380
L124992857 141235714
" />
<path d="M124992857 140902380
L124945238 140950000
L124992857 140997619
L125040476 140950000
L124992857 140902380
L124992857 140997619
" />
<path d="M125611904 141902380
L125516666 141854761
L125469047 141807142
L125421428 141711904
L125421428 141426190
L125469047 141330952
L125516666 141283333
L125611904 141235714
L125754761 141235714
L125850000 141283333
L125897619 141330952
L125945238 141426190
L125945238 141711904
L125897619 141807142
L125850000 141854761
L125754761 141902380
L125611904 141902380
" />
<path d="M126564285 140902380
L126754761 140902380
L126850000 140950000
L126945238 141045238
L126992857 141235714
L126992857 141569047
L126945238 141759523
L126850000 141854761
L126754761 141902380
L126564285 141902380
L126469047 141854761
L126373809 141759523
L126326190 141569047
L126326190 141235714
L126373809 141045238
L126469047 140950000
L126564285 140902380
" />
<path d="M127850000 141235714
L127850000 141902380
" />
<path d="M127421428 141235714
L127421428 141759523
L127469047 141854761
L127564285 141902380
L127707142 141902380
L127802380 141854761
L127850000 141807142
" />
<path d="M128183333 141235714
L128564285 141235714
" />
<path d="M128326190 140902380
L128326190 141759523
L128373809 141854761
L128469047 141902380
L128564285 141902380
" />
<path d="M129421428 141902380
L128850000 141902380
" />
<path d="M129135714 141902380
L129135714 140902380
L129040476 141045238
L128945238 141140476
L128850000 141188095
" />
</g><text x="125850000.000000" y="158200000.000000"
textLength="14861667.000000" font-size="1333333.000000" lengthAdjust="spacingAndGlyphs"
text-anchor="middle" opacity="0">AudioJack2_SwitchT</text>
<g class="stroked-text"><desc>AudioJack2_SwitchT</desc>
<path d="M118707142 157866666
L119183333 157866666
" />
<path d="M118611904 158152380
L118945238 157152380
L119278571 158152380
" />
<path d="M120040476 157485714
L120040476 158152380
" />
<path d="M119611904 157485714
L119611904 158009523
L119659523 158104761
L119754761 158152380
L119897619 158152380
L119992857 158104761
L120040476 158057142
" />
<path d="M120945238 158152380
L120945238 157152380
" />
<path d="M120945238 158104761
L120850000 158152380
L120659523 158152380
L120564285 158104761
L120516666 158057142
L120469047 157961904
L120469047 157676190
L120516666 157580952
L120564285 157533333
L120659523 157485714
L120850000 157485714
L120945238 157533333
" />
<path d="M121421428 158152380
L121421428 157485714
" />
<path d="M121421428 157152380
L121373809 157200000
L121421428 157247619
L121469047 157200000
L121421428 157152380
L121421428 157247619
" />
<path d="M122040476 158152380
L121945238 158104761
L121897619 158057142
L121850000 157961904
L121850000 157676190
L121897619 157580952
L121945238 157533333
L122040476 157485714
L122183333 157485714
L122278571 157533333
L122326190 157580952
L122373809 157676190
L122373809 157961904
L122326190 158057142
L122278571 158104761
L122183333 158152380
L122040476 158152380
" />
<path d="M123088095 157152380
L123088095 157866666
L123040476 158009523
L122945238 158104761
L122802380 158152380
L122707142 158152380
" />
<path d="M123992857 158152380
L123992857 157628571
L123945238 157533333
L123850000 157485714
L123659523 157485714
L123564285 157533333
" />
<path d="M123992857 158104761
L123897619 158152380
L123659523 158152380
L123564285 158104761
L123516666 158009523
L123516666 157914285
L123564285 157819047
L123659523 157771428
L123897619 157771428
L123992857 157723809
" />
<path d="M124897619 158104761
L124802380 158152380
L124611904 158152380
L124516666 158104761
L124469047 158057142
L124421428 157961904
L124421428 157676190
L124469047 157580952
L124516666 157533333
L124611904 157485714
L124802380 157485714
L124897619 157533333
" />
<path d="M125326190 158152380
L125326190 157152380
" />
<path d="M125421428 157771428
L125707142 158152380
" />
<path d="M125707142 157485714
L125326190 157866666
" />
<path d="M126088095 157247619
L126135714 157200000
L126230952 157152380
L126469047 157152380
L126564285 157200000
L126611904 157247619
L126659523 157342857
L126659523 157438095
L126611904 157580952
L126040476 158152380
L126659523 158152380
" />
<path d="M126850000 158247619
L127611904 158247619
" />
<path d="M127802380 158104761
L127945238 158152380
L128183333 158152380
L128278571 158104761
L128326190 158057142
L128373809 157961904
L128373809 157866666
L128326190 157771428
L128278571 157723809
L128183333 157676190
L127992857 157628571
L127897619 157580952
L127850000 157533333
L127802380 157438095
L127802380 157342857
L127850000 157247619
L127897619 157200000
L127992857 157152380
L128230952 157152380
L128373809 157200000
" />
<path d="M128707142 157485714
L128897619 158152380
L129088095 157676190
L129278571 158152380
L129469047 157485714
" />
<path d="M129850000 158152380
L129850000 157485714
" />
<path d="M129850000 157152380
L129802380 157200000
L129850000 157247619
L129897619 157200000
L129850000 157152380
L129850000 157247619
" />
<path d="M130183333 157485714
L130564285 157485714
" />
<path d="M130326190 157152380
L130326190 158009523
L130373809 158104761
L130469047 158152380
L130564285 158152380
" />
<path d="M131326190 158104761
L131230952 158152380
L131040476 158152380
L130945238 158104761
L130897619 158057142
L130850000 157961904
L130850000 157676190
L130897619 157580952
L130945238 157533333
L131040476 157485714
L131230952 157485714
L131326190 157533333
" />
<path d="M131754761 158152380
L131754761 157152380
" />
<path d="M132183333 158152380
L132183333 157628571
L132135714 157533333
L132040476 157485714
L131897619 157485714
L131802380 157533333
L131754761 157580952
" />
<path d="M132516666 157152380
L133088095 157152380
" />
<path d="M132802380 158152380
L132802380 157152380
" />
</g><text x="115800000.000000" y="141950000.000000"
textLength="6575952.000000" font-size="1333333.000000" lengthAdjust="spacingAndGlyphs"
text-anchor="middle" opacity="0">AudioIn1</text>
<g class="stroked-text"><desc>AudioIn1</desc>
<path d="M112800000 141616666
L113276190 141616666
" />
<path d="M112704761 141902380
L113038095 140902380
L113371428 141902380
" />
<path d="M114133333 141235714
L114133333 141902380
" />
<path d="M113704761 141235714
L113704761 141759523
L113752380 141854761
L113847619 141902380
L113990476 141902380
L114085714 141854761
L114133333 141807142
" />
<path d="M115038095 141902380
L115038095 140902380
" />
<path d="M115038095 141854761
L114942857 141902380
L114752380 141902380
L114657142 141854761
L114609523 141807142
L114561904 141711904
L114561904 141426190
L114609523 141330952
L114657142 141283333
L114752380 141235714
L114942857 141235714
L115038095 141283333
" />
<path d="M115514285 141902380
L115514285 141235714
" />
<path d="M115514285 140902380
L115466666 140950000
L115514285 140997619
L115561904 140950000
L115514285 140902380
L115514285 140997619
" />
<path d="M116133333 141902380
L116038095 141854761
L115990476 141807142
L115942857 141711904
L115942857 141426190
L115990476 141330952
L116038095 141283333
L116133333 141235714
L116276190 141235714
L116371428 141283333
L116419047 141330952
L116466666 141426190
L116466666 141711904
L116419047 141807142
L116371428 141854761
L116276190 141902380
L116133333 141902380
" />
<path d="M116895238 141902380
L116895238 140902380
" />
<path d="M117371428 141235714
L117371428 141902380
" />
<path d="M117371428 141330952
L117419047 141283333
L117514285 141235714
L117657142 141235714
L117752380 141283333
L117800000 141378571
L117800000 141902380
" />
<path d="M118800000 141902380
L118228571 141902380
" />
<path d="M118514285 141902380
L118514285 140902380
L118419047 141045238
L118323809 141140476
L118228571 141188095
" />
</g><text x="115800000.000000" y="158200000.000000"
textLength="14861667.000000" font-size="1333333.000000" lengthAdjust="spacingAndGlyphs"
text-anchor="middle" opacity="0">AudioJack2_SwitchT</text>
<g class="stroked-text"><desc>AudioJack2_SwitchT</desc>
<path d="M108657142 157866666
L109133333 157866666
" />
<path d="M108561904 158152380
L108895238 157152380
L109228571 158152380
" />
<path d="M109990476 157485714
L109990476 158152380
" />
<path d="M109561904 157485714
L109561904 158009523
L109609523 158104761
L109704761 158152380
L109847619 158152380
L109942857 158104761
L109990476 158057142
" />
<path d="M110895238 158152380
L110895238 157152380
" />
<path d="M110895238 158104761
L110800000 158152380
L110609523 158152380
L110514285 158104761
L110466666 158057142
L110419047 157961904
L110419047 157676190
L110466666 157580952
L110514285 157533333
L110609523 157485714
L110800000 157485714
L110895238 157533333
" />
<path d="M111371428 158152380
L111371428 157485714
" />
<path d="M111371428 157152380
L111323809 157200000
L111371428 157247619
L111419047 157200000
L111371428 157152380
L111371428 157247619
" />
<path d="M111990476 158152380
L111895238 158104761
L111847619 158057142
L111800000 157961904
L111800000 157676190
L111847619 157580952
L111895238 157533333
L111990476 157485714
L112133333 157485714
L112228571 157533333
L112276190 157580952
L112323809 157676190
L112323809 157961904
L112276190 158057142
L112228571 158104761
L112133333 158152380
L111990476 158152380
" />
<path d="M113038095 157152380
L113038095 157866666
L112990476 158009523
L112895238 158104761
L112752380 158152380
L112657142 158152380
" />
<path d="M113942857 158152380
L113942857 157628571
L113895238 157533333
L113800000 157485714
L113609523 157485714
L113514285 157533333
" />
<path d="M113942857 158104761
L113847619 158152380
L113609523 158152380
L113514285 158104761
L113466666 158009523
L113466666 157914285
L113514285 157819047
L113609523 157771428
L113847619 157771428
L113942857 157723809
" />
<path d="M114847619 158104761
L114752380 158152380
L114561904 158152380
L114466666 158104761
L114419047 158057142
L114371428 157961904
L114371428 157676190
L114419047 157580952
L114466666 157533333
L114561904 157485714
L114752380 157485714
L114847619 157533333
" />
<path d="M115276190 158152380
L115276190 157152380
" />
<path d="M115371428 157771428
L115657142 158152380
" />
<path d="M115657142 157485714
L115276190 157866666
" />
<path d="M116038095 157247619
L116085714 157200000
L116180952 157152380
L116419047 157152380
L116514285 157200000
L116561904 157247619
L116609523 157342857
L116609523 157438095
L116561904 157580952
L115990476 158152380
L116609523 158152380
" />
<path d="M116800000 158247619
L117561904 158247619
" />
<path d="M117752380 158104761
L117895238 158152380
L118133333 158152380
L118228571 158104761
L118276190 158057142
L118323809 157961904
L118323809 157866666
L118276190 157771428
L118228571 157723809
L118133333 157676190
L117942857 157628571
L117847619 157580952
L117800000 157533333
L117752380 157438095
L117752380 157342857
L117800000 157247619
L117847619 157200000
L117942857 157152380
L118180952 157152380
L118323809 157200000
" />
<path d="M118657142 157485714
L118847619 158152380
L119038095 157676190
L119228571 158152380
L119419047 157485714
" />
<path d="M119800000 158152380
L119800000 157485714
" />
<path d="M119800000 157152380
L119752380 157200000
L119800000 157247619
L119847619 157200000
L119800000 157152380
L119800000 157247619
" />
<path d="M120133333 157485714
L120514285 157485714
" />
<path d="M120276190 157152380
L120276190 158009523
L120323809 158104761
L120419047 158152380
L120514285 158152380
" />
<path d="M121276190 158104761
L121180952 158152380
L120990476 158152380
L120895238 158104761
L120847619 158057142
L120800000 157961904
L120800000 157676190
L120847619 157580952
L120895238 157533333
L120990476 157485714
L121180952 157485714
L121276190 157533333
" />
<path d="M121704761 158152380
L121704761 157152380
" />
<path d="M122133333 158152380
L122133333 157628571
L122085714 157533333
L121990476 157485714
L121847619 157485714
L121752380 157533333
L121704761 157580952
" />
<path d="M122466666 157152380
L123038095 157152380
" />
<path d="M122752380 158152380
L122752380 157152380
" />
</g><g transform="rotate(-90.000000 113400000.000000 111825000.000000)">
<text x="113400000.000000" y="112325000.000000"
textLength="5433095.000000" font-size="1333333.000000" lengthAdjust="spacingAndGlyphs"
text-anchor="middle" opacity="0">LEVEL1</text>
</g>
<g class="stroked-text"><desc>LEVEL1</desc>
<path d="M113852380 113729761
L113852380 114205952
L112852380 114205952
" />
<path d="M113328571 113396428
L113328571 113063095
" />
<path d="M113852380 112920238
L113852380 113396428
L112852380 113396428
L112852380 112920238
" />
<path d="M112852380 112634523
L113852380 112301190
L112852380 111967857
" />
<path d="M113328571 111634523
L113328571 111301190
" />
<path d="M113852380 111158333
L113852380 111634523
L112852380 111634523
L112852380 111158333
" />
<path d="M113852380 110253571
L113852380 110729761
L112852380 110729761
" />
<path d="M113852380 109396428
L113852380 109967857
" />
<path d="M113852380 109682142
L112852380 109682142
L112995238 109777380
L113090476 109872619
L113138095 109967857
" />
</g><text x="115100000.000000" y="138164000.000000"
textLength="2147381.000000" font-size="1333333.000000" lengthAdjust="spacingAndGlyphs"
text-anchor="middle" opacity="0">C1</text>
<g class="stroked-text"><desc>C1</desc>
<path d="M114933333 138021142
L114885714 138068761
L114742857 138116380
L114647619 138116380
L114504761 138068761
L114409523 137973523
L114361904 137878285
L114314285 137687809
L114314285 137544952
L114361904 137354476
L114409523 137259238
L114504761 137164000
L114647619 137116380
L114742857 137116380
L114885714 137164000
L114933333 137211619
" />
<path d="M115885714 138116380
L115314285 138116380
" />
<path d="M115600000 138116380
L115600000 137116380
L115504761 137259238
L115409523 137354476
L115314285 137402095
" />
</g><g transform="rotate(-90.000000 113400000.000000 62500000.000000)">
<text x="113400000.000000" y="63000000.000000"
textLength="4433095.000000" font-size="1333333.000000" lengthAdjust="spacingAndGlyphs"
text-anchor="middle" opacity="0">TIME1</text>
</g>
<g class="stroked-text"><desc>TIME1</desc>
<path d="M112852380 64523809
L112852380 63952380
" />
<path d="M113852380 64238095
L112852380 64238095
" />
<path d="M113852380 63619047
L112852380 63619047
" />
<path d="M113852380 63142857
L112852380 63142857
L113566666 62809523
L112852380 62476190
L113852380 62476190
" />
<path d="M113328571 62000000
L113328571 61666666
" />
<path d="M113852380 61523809
L113852380 62000000
L112852380 62000000
L112852380 61523809
" />
<path d="M113852380 60571428
L113852380 61142857
" />
<path d="M113852380 60857142
L112852380 60857142
L112995238 60952380
L113090476 61047619
L113138095 61142857
" />
</g><g transform="rotate(-90.000000 113725000.000000 84500000.000000)">
<text x="113725000.000000" y="85000000.000000"
textLength="7528333.000000" font-size="1333333.000000" lengthAdjust="spacingAndGlyphs"
text-anchor="middle" opacity="0">REPEATS1</text>
</g>
<g class="stroked-text"><desc>REPEATS1</desc>
<path d="M114177380 87357142
L113701190 87690476
" />
<path d="M114177380 87928571
L113177380 87928571
L113177380 87547619
L113225000 87452380
L113272619 87404761
L113367857 87357142
L113510714 87357142
L113605952 87404761
L113653571 87452380
L113701190 87547619
L113701190 87928571
" />
<path d="M113653571 86928571
L113653571 86595238
" />
<path d="M114177380 86452380
L114177380 86928571
L113177380 86928571
L113177380 86452380
" />
<path d="M114177380 86023809
L113177380 86023809
L113177380 85642857
L113225000 85547619
L113272619 85500000
L113367857 85452380
L113510714 85452380
L113605952 85500000
L113653571 85547619
L113701190 85642857
L113701190 86023809
" />
<path d="M113653571 85023809
L113653571 84690476
" />
<path d="M114177380 84547619
L114177380 85023809
L113177380 85023809
L113177380 84547619
" />
<path d="M113891666 84166666
L113891666 83690476
" />
<path d="M114177380 84261904
L113177380 83928571
L114177380 83595238
" />
<path d="M113177380 83404761
L113177380 82833333
" />
<path d="M114177380 83119047
L113177380 83119047
" />
<path d="M114129761 82547619
L114177380 82404761
L114177380 82166666
L114129761 82071428
L114082142 82023809
L113986904 81976190
L113891666 81976190
L113796428 82023809
L113748809 82071428
L113701190 82166666
L113653571 82357142
L113605952 82452380
L113558333 82500000
L113463095 82547619
L113367857 82547619
L113272619 82500000
L113225000 82452380
L113177380 82357142
L113177380 82119047
L113225000 81976190
" />
<path d="M114177380 81023809
L114177380 81595238
" />
<path d="M114177380 81309523
L113177380 81309523
L113320238 81404761
L113415476 81500000
L113463095 81595238
" />
</g></g>
<g style="fill:#000000; fill-opacity:0.0; 
stroke:#000000; stroke-width:120000.000000; stroke-opacity:1; 
stroke-linecap:round; stroke-linejoin:round;">
<path d="M121170563 131365000
L121035000 131365000
" />
<path d="M118779437 131365000
L118915000 131365000
" />
<path d="M117715000 132429437
L117715000 135885000
" />
<path d="M121535000 130625000
L121535000 131125000
" />
<path d="M118779437 131365000
L117715000 132429437
" />
<path d="M121785000 130875000
L121285000 130875000
" />
<path d="M122235000 132429437
L122235000 135885000
" />
<path d="M121170563 131365000
L122235000 132429437
" />
<path d="M122235000 135885000
L121035000 135885000
" />
<path d="M117715000 135885000
L118915000 135885000
" />
<path d="M125500000 145680000
L121350000 145680000
" />
<path d="M130350000 156180000
L126350000 156180000
" />
<path d="M130350000 145680000
L130350000 156180000
" />
<path d="M130350000 145680000
L126200000 145680000
" />
<path d="M125350000 156180000
L121350000 156180000
" />
<path d="M124790000 142700000
L124790000 143500000
" />
<path d="M124790000 142700000
L125650000 142700000
" />
<path d="M121350000 145680000
L121350000 156180000
" />
<circle cx="125850000.000000" cy="150180000.000000" r="1800000.000000" /> 
<path d="M111300000 145680000
L111300000 156180000
" />
<path d="M114740000 142700000
L115600000 142700000
" />
<path d="M115300000 156180000
L111300000 156180000
" />
<path d="M120300000 156180000
L116300000 156180000
" />
<path d="M120300000 145680000
L120300000 156180000
" />
<path d="M114740000 142700000
L114740000 143500000
" />
<path d="M115450000 145680000
L111300000 145680000
" />
<path d="M120300000 145680000
L116150000 145680000
" />
<circle cx="115800000.000000" cy="150180000.000000" r="1800000.000000" /> 
<path d="M122560000 118445000
L121730000 118445000
" />
<path d="M117210000 118445000
L116030000 118445000
" />
<path d="M125770000 109915000
L125770000 106855000
" />
<path d="M125770000 106855000
L116030000 106855000
" />
<path d="M125770000 118445000
L124280000 118445000
" />
<path d="M120110000 118445000
L119580000 118445000
" />
<path d="M116030000 109915000
L116030000 106855000
" />
<path d="M116020000 118445000
L116020000 113725000
" />
<path d="M125770000 118445000
L125770000 113725000
" />
<path d="M112840000 132404437
L112840000 135860000
" />
<path d="M113904437 131340000
L112840000 132404437
" />
<path d="M113904437 131340000
L114040000 131340000
" />
<path d="M116295563 131340000
L116160000 131340000
" />
<path d="M116910000 130850000
L116410000 130850000
" />
<path d="M117360000 132404437
L117360000 135860000
" />
<path d="M116660000 130600000
L116660000 131100000
" />
<path d="M116295563 131340000
L117360000 132404437
" />
<path d="M117360000 135860000
L116160000 135860000
" />
<path d="M112840000 135860000
L114040000 135860000
" />
<path d="M122560000 69120000
L121730000 69120000
" />
<path d="M117210000 69120000
L116030000 69120000
" />
<path d="M125770000 69120000
L124280000 69120000
" />
<path d="M116030000 60590000
L116030000 57530000
" />
<path d="M116020000 69120000
L116020000 64400000
" />
<path d="M120110000 69120000
L119580000 69120000
" />
<path d="M125770000 69120000
L125770000 64400000
" />
<path d="M125770000 60590000
L125770000 57530000
" />
<path d="M125770000 57530000
L116030000 57530000
" />
<path d="M116020000 92820000
L116020000 88100000
" />
<path d="M117210000 92820000
L116030000 92820000
" />
<path d="M125770000 84290000
L125770000 81230000
" />
<path d="M120110000 92820000
L119580000 92820000
" />
<path d="M122560000 92820000
L121730000 92820000
" />
<path d="M116030000 84290000
L116030000 81230000
" />
<path d="M125770000 92820000
L124280000 92820000
" />
<path d="M125770000 92820000
L125770000 88100000
" />
<path d="M125770000 81230000
L116030000 81230000
" />
<g >
</g>
<g >
</g>
<g >
</g>
<g >
</g>
<g >
</g>
<g >
</g>
<g >
</g>
<g >
</g>
<g >
</g>
<g >
</g>
<g >
</g>
<g >
</g>
<g >
</g>
<g >
</g>
<g >
</g>
<g >
</g>
<g >
</g>
<g >
</g>
<g >
</g>
<g >
</g>
<g >
</g>
<g >
</g>
<g >
</g>
<g >
</g>
<g >
</g>
<g >
</g>
<g >
</g>
<g >
</g>
<g >
</g>
<g >
</g>
<g >
</g>
<g >
</g>
<g >
</g>
<g >
</g>
<g >
</g>
<g >
</g>
<g >
</g>
<g >
</g>
<g >
</g>
<g >
</g>
<g >
</g>
<g >
</g>
<g >
</g>
<g >
</g>
<g >
</g>
<g >
</g>
<g >
</g>
<g >
</g>
<g >
</g>
<g >
</g>
<g >
</g>
<g >
</g>
<g >
</g>
<g >
</g>
<g >
</g>
<g >
</g>
</g> 
</svg>
