%TF.GenerationSoftware,KiCad,Pcbnew,6.0.7+dfsg-1~bpo11+1*%
%TF.CreationDate,2022-10-24T23:46:05+08:00*%
%TF.ProjectId,MiniDelay,4d696e69-4465-46c6-9179-2e6b69636164,rev?*%
%TF.SameCoordinates,Original*%
%TF.FileFunction,Copper,L1,Top*%
%TF.FilePolarity,Positive*%
%FSLAX46Y46*%
G04 Gerber Fmt 4.6, Leading zero omitted, Abs format (unit mm)*
G04 Created by KiCad (PCBNEW 6.0.7+dfsg-1~bpo11+1) date 2022-10-24 23:46:05*
%MOMM*%
%LPD*%
G01*
G04 APERTURE LIST*
G04 Aperture macros list*
%AMRoundRect*
0 Rectangle with rounded corners*
0 $1 Rounding radius*
0 $2 $3 $4 $5 $6 $7 $8 $9 X,Y pos of 4 corners*
0 Add a 4 corners polygon primitive as box body*
4,1,4,$2,$3,$4,$5,$6,$7,$8,$9,$2,$3,0*
0 Add four circle primitives for the rounded corners*
1,1,$1+$1,$2,$3*
1,1,$1+$1,$4,$5*
1,1,$1+$1,$6,$7*
1,1,$1+$1,$8,$9*
0 Add four rect primitives between the rounded corners*
20,1,$1+$1,$2,$3,$4,$5,0*
20,1,$1+$1,$4,$5,$6,$7,0*
20,1,$1+$1,$6,$7,$8,$9,0*
20,1,$1+$1,$8,$9,$2,$3,0*%
G04 Aperture macros list end*
%TA.AperFunction,SMDPad,CuDef*%
%ADD10RoundRect,0.250000X-0.550000X1.050000X-0.550000X-1.050000X0.550000X-1.050000X0.550000X1.050000X0*%
%TD*%
%TA.AperFunction,ComponentPad*%
%ADD11R,1.930000X1.830000*%
%TD*%
%TA.AperFunction,ComponentPad*%
%ADD12C,2.130000*%
%TD*%
%TA.AperFunction,ComponentPad*%
%ADD13O,2.720000X3.240000*%
%TD*%
%TA.AperFunction,ComponentPad*%
%ADD14R,1.800000X1.800000*%
%TD*%
%TA.AperFunction,ComponentPad*%
%ADD15C,1.800000*%
%TD*%
%TA.AperFunction,ComponentPad*%
%ADD16R,2.000000X1.905000*%
%TD*%
%TA.AperFunction,ComponentPad*%
%ADD17O,2.000000X1.905000*%
%TD*%
%TA.AperFunction,ComponentPad*%
%ADD18RoundRect,0.250000X-0.600000X-0.600000X0.600000X-0.600000X0.600000X0.600000X-0.600000X0.600000X0*%
%TD*%
%TA.AperFunction,ComponentPad*%
%ADD19C,1.700000*%
%TD*%
G04 APERTURE END LIST*
D10*
%TO.P,C2,1*%
%TO.N,GND*%
X119975000Y-131825000D03*
%TO.P,C2,2*%
%TO.N,-12V*%
X119975000Y-135425000D03*
%TD*%
D11*
%TO.P,AudioOut1,S*%
%TO.N,GND*%
X125850000Y-143700000D03*
D12*
%TO.P,AudioOut1,T*%
%TO.N,Net-(AudioOut1-PadT)*%
X125850000Y-155100000D03*
%TO.P,AudioOut1,TN*%
%TO.N,unconnected-(AudioOut1-PadTN)*%
X125850000Y-146800000D03*
%TD*%
D11*
%TO.P,AudioIn1,S*%
%TO.N,GND*%
X115800000Y-143700000D03*
D12*
%TO.P,AudioIn1,T*%
%TO.N,Net-(AudioIn1-PadT)*%
X115800000Y-155100000D03*
%TO.P,AudioIn1,TN*%
%TO.N,unconnected-(AudioIn1-PadTN)*%
X115800000Y-146800000D03*
%TD*%
D13*
%TO.P,LEVEL1,*%
%TO.N,*%
X125700000Y-111825000D03*
X116100000Y-111825000D03*
D14*
%TO.P,LEVEL1,1,1*%
%TO.N,GND*%
X118400000Y-119325000D03*
D15*
%TO.P,LEVEL1,2,2*%
%TO.N,WET_OUT*%
X120900000Y-119325000D03*
%TO.P,LEVEL1,3,3*%
%TO.N,Net-(LEVEL1-Pad3)*%
X123400000Y-119325000D03*
%TD*%
D10*
%TO.P,C1,1*%
%TO.N,+12V*%
X115100000Y-131800000D03*
%TO.P,C1,2*%
%TO.N,GND*%
X115100000Y-135400000D03*
%TD*%
D13*
%TO.P,TIME1,*%
%TO.N,*%
X125700000Y-62500000D03*
X116100000Y-62500000D03*
D14*
%TO.P,TIME1,1,1*%
%TO.N,GND*%
X118400000Y-70000000D03*
D15*
%TO.P,TIME1,2,2*%
%TO.N,Net-(R5-Pad2)*%
X120900000Y-70000000D03*
%TO.P,TIME1,3,3*%
X123400000Y-70000000D03*
%TD*%
D13*
%TO.P,REPEATS1,*%
%TO.N,*%
X116100000Y-86200000D03*
X125700000Y-86200000D03*
D14*
%TO.P,REPEATS1,1,1*%
%TO.N,GND*%
X118400000Y-93700000D03*
D15*
%TO.P,REPEATS1,2,2*%
%TO.N,REPEATS*%
X120900000Y-93700000D03*
%TO.P,REPEATS1,3,3*%
%TO.N,Net-(LEVEL1-Pad3)*%
X123400000Y-93700000D03*
%TD*%
D14*
%TO.P,D1,1,K*%
%TO.N,GND*%
X114650000Y-139350000D03*
D15*
%TO.P,D1,2,A*%
%TO.N,Net-(D1-Pad2)*%
X117190000Y-139350000D03*
%TD*%
D16*
%TO.P,U3,1,IN*%
%TO.N,+12V*%
X117255000Y-128490000D03*
D17*
%TO.P,U3,2,GND*%
%TO.N,GND*%
X117255000Y-125950000D03*
%TO.P,U3,3,OUT*%
%TO.N,+5V*%
X117255000Y-123410000D03*
%TD*%
D18*
%TO.P,J1,1,Pin_1*%
%TO.N,-12V*%
X124447500Y-136480000D03*
D19*
%TO.P,J1,2,Pin_2*%
X126987500Y-136480000D03*
%TO.P,J1,3,Pin_3*%
%TO.N,GND*%
X124447500Y-133940000D03*
%TO.P,J1,4,Pin_4*%
X126987500Y-133940000D03*
%TO.P,J1,5,Pin_5*%
X124447500Y-131400000D03*
%TO.P,J1,6,Pin_6*%
X126987500Y-131400000D03*
%TO.P,J1,7,Pin_7*%
X124447500Y-128860000D03*
%TO.P,J1,8,Pin_8*%
X126987500Y-128860000D03*
%TO.P,J1,9,Pin_9*%
%TO.N,+12V*%
X124447500Y-126320000D03*
%TO.P,J1,10,Pin_10*%
X126987500Y-126320000D03*
%TD*%
M02*
