<?xml version="1.0" standalone="no"?>
 <!DOCTYPE svg PUBLIC "-//W3C//DTD SVG 1.1//EN" 
 "http://www.w3.org/Graphics/SVG/1.1/DTD/svg11.dtd"> 
<svg
  xmlns:svg="http://www.w3.org/2000/svg"
  xmlns="http://www.w3.org/2000/svg"
  xmlns:xlink="http://www.w3.org/1999/xlink"
  version="1.1"
  width="29.700220cm" height="21.000720cm" viewBox="0 0 297002200 210007200">
<title>SVG Picture created as MiniDelay-F_Paste.svg date 2022/10/24 23:46:42 </title>
  <desc>Picture generated by PCBNEW </desc>
<g style="fill:#000000; fill-opacity:1.000000;stroke:#000000; stroke-opacity:1.000000;
stroke-linecap:round; stroke-linejoin:round;"
 transform="translate(0 0) scale(1 1)">
</g>
<g style="fill:#000000; fill-opacity:0.0; 
stroke:#000000; stroke-width:0.000000; stroke-opacity:1; 
stroke-linecap:round; stroke-linejoin:round;">
<g >
</g>
<g style="fill:#000000; fill-opacity:0.0; 
stroke:#000000; stroke-width:1.000000; stroke-opacity:1; 
stroke-linecap:round; stroke-linejoin:round;">
</g>
<g style="fill:#000000; fill-opacity:1.0; 
stroke:#000000; stroke-width:1.000000; stroke-opacity:1; 
stroke-linecap:round; stroke-linejoin:round;">
<path style="fill:#000000; fill-opacity:1.0; 
stroke:#000000; stroke-width:1.000000; stroke-opacity:1; 
stroke-linecap:round; stroke-linejoin:round;fill-rule:evenodd;"
d="M 120525000.000000,130525000.000000
120620671.000000,130544030.000000
120701777.000000,130598223.000000
120755970.000000,130679329.000000
120775000.000000,130775000.000000
120775000.000000,132875000.000000
120755970.000000,132970671.000000
120701777.000000,133051777.000000
120620671.000000,133105970.000000
120525000.000000,133125000.000000
119425000.000000,133125000.000000
119329329.000000,133105970.000000
119248223.000000,133051777.000000
119194030.000000,132970671.000000
119175000.000000,132875000.000000
119175000.000000,130775000.000000
119194030.000000,130679329.000000
119248223.000000,130598223.000000
119329329.000000,130544030.000000
119425000.000000,130525000.000000
Z" /> 
<path style="fill:#000000; fill-opacity:1.0; 
stroke:#000000; stroke-width:1.000000; stroke-opacity:1; 
stroke-linecap:round; stroke-linejoin:round;fill-rule:evenodd;"
d="M 120525000.000000,134125000.000000
120620671.000000,134144030.000000
120701777.000000,134198223.000000
120755970.000000,134279329.000000
120775000.000000,134375000.000000
120775000.000000,136475000.000000
120755970.000000,136570671.000000
120701777.000000,136651777.000000
120620671.000000,136705970.000000
120525000.000000,136725000.000000
119425000.000000,136725000.000000
119329329.000000,136705970.000000
119248223.000000,136651777.000000
119194030.000000,136570671.000000
119175000.000000,136475000.000000
119175000.000000,134375000.000000
119194030.000000,134279329.000000
119248223.000000,134198223.000000
119329329.000000,134144030.000000
119425000.000000,134125000.000000
Z" /> 
</g>
<g >
</g>
<g >
</g>
<g >
</g>
<g >
</g>
<g style="fill:#000000; fill-opacity:1.0; 
stroke:#000000; stroke-width:1.000000; stroke-opacity:1; 
stroke-linecap:round; stroke-linejoin:round;">
<path style="fill:#000000; fill-opacity:1.0; 
stroke:#000000; stroke-width:1.000000; stroke-opacity:1; 
stroke-linecap:round; stroke-linejoin:round;fill-rule:evenodd;"
d="M 115650000.000000,130500000.000000
115745671.000000,130519030.000000
115826777.000000,130573223.000000
115880970.000000,130654329.000000
115900000.000000,130750000.000000
115900000.000000,132850000.000000
115880970.000000,132945671.000000
115826777.000000,133026777.000000
115745671.000000,133080970.000000
115650000.000000,133100000.000000
114550000.000000,133100000.000000
114454329.000000,133080970.000000
114373223.000000,133026777.000000
114319030.000000,132945671.000000
114300000.000000,132850000.000000
114300000.000000,130750000.000000
114319030.000000,130654329.000000
114373223.000000,130573223.000000
114454329.000000,130519030.000000
114550000.000000,130500000.000000
Z" /> 
<path style="fill:#000000; fill-opacity:1.0; 
stroke:#000000; stroke-width:1.000000; stroke-opacity:1; 
stroke-linecap:round; stroke-linejoin:round;fill-rule:evenodd;"
d="M 115650000.000000,134100000.000000
115745671.000000,134119030.000000
115826777.000000,134173223.000000
115880970.000000,134254329.000000
115900000.000000,134350000.000000
115900000.000000,136450000.000000
115880970.000000,136545671.000000
115826777.000000,136626777.000000
115745671.000000,136680970.000000
115650000.000000,136700000.000000
114550000.000000,136700000.000000
114454329.000000,136680970.000000
114373223.000000,136626777.000000
114319030.000000,136545671.000000
114300000.000000,136450000.000000
114300000.000000,134350000.000000
114319030.000000,134254329.000000
114373223.000000,134173223.000000
114454329.000000,134119030.000000
114550000.000000,134100000.000000
Z" /> 
</g>
<g >
</g>
<g >
</g>
<g >
</g>
<g >
</g>
<g >
</g>
<g >
</g>
<g >
</g>
<g >
</g>
<g >
</g>
<g >
</g>
<g >
</g>
<g >
</g>
<g >
</g>
<g >
</g>
<g >
</g>
<g >
</g>
<g >
</g>
<g >
</g>
<g >
</g>
<g >
</g>
<g >
</g>
<g >
</g>
<g >
</g>
<g >
</g>
<g >
</g>
<g >
</g>
<g >
</g>
<g >
</g>
<g >
</g>
<g >
</g>
<g >
</g>
<g >
</g>
<g >
</g>
<g >
</g>
<g >
</g>
<g >
</g>
<g >
</g>
<g >
</g>
<g >
</g>
<g >
</g>
<g >
</g>
<g >
</g>
<g >
</g>
<g >
</g>
<g >
</g>
<g >
</g>
<g >
</g>
<g >
</g>
<g >
</g>
<g >
</g>
<g >
</g>
</g> 
</svg>
