%TF.GenerationSoftware,KiCad,Pcbnew,6.0.7+dfsg-1~bpo11+1*%
%TF.CreationDate,2022-10-24T23:46:05+08:00*%
%TF.ProjectId,MiniDelay,4d696e69-4465-46c6-9179-2e6b69636164,rev?*%
%TF.SameCoordinates,Original*%
%TF.FileFunction,Legend,Top*%
%TF.FilePolarity,Positive*%
%FSLAX46Y46*%
G04 Gerber Fmt 4.6, Leading zero omitted, Abs format (unit mm)*
G04 Created by KiCad (PCBNEW 6.0.7+dfsg-1~bpo11+1) date 2022-10-24 23:46:05*
%MOMM*%
%LPD*%
G01*
G04 APERTURE LIST*
%ADD10C,0.150000*%
%ADD11C,0.120000*%
G04 APERTURE END LIST*
D10*
%TO.C,C2*%
X119808333Y-129918142D02*
X119760714Y-129965761D01*
X119617857Y-130013380D01*
X119522619Y-130013380D01*
X119379761Y-129965761D01*
X119284523Y-129870523D01*
X119236904Y-129775285D01*
X119189285Y-129584809D01*
X119189285Y-129441952D01*
X119236904Y-129251476D01*
X119284523Y-129156238D01*
X119379761Y-129061000D01*
X119522619Y-129013380D01*
X119617857Y-129013380D01*
X119760714Y-129061000D01*
X119808333Y-129108619D01*
X120189285Y-129108619D02*
X120236904Y-129061000D01*
X120332142Y-129013380D01*
X120570238Y-129013380D01*
X120665476Y-129061000D01*
X120713095Y-129108619D01*
X120760714Y-129203857D01*
X120760714Y-129299095D01*
X120713095Y-129441952D01*
X120141666Y-130013380D01*
X120760714Y-130013380D01*
%TO.C,AudioOut1*%
X122278571Y-141616666D02*
X122754761Y-141616666D01*
X122183333Y-141902380D02*
X122516666Y-140902380D01*
X122850000Y-141902380D01*
X123611904Y-141235714D02*
X123611904Y-141902380D01*
X123183333Y-141235714D02*
X123183333Y-141759523D01*
X123230952Y-141854761D01*
X123326190Y-141902380D01*
X123469047Y-141902380D01*
X123564285Y-141854761D01*
X123611904Y-141807142D01*
X124516666Y-141902380D02*
X124516666Y-140902380D01*
X124516666Y-141854761D02*
X124421428Y-141902380D01*
X124230952Y-141902380D01*
X124135714Y-141854761D01*
X124088095Y-141807142D01*
X124040476Y-141711904D01*
X124040476Y-141426190D01*
X124088095Y-141330952D01*
X124135714Y-141283333D01*
X124230952Y-141235714D01*
X124421428Y-141235714D01*
X124516666Y-141283333D01*
X124992857Y-141902380D02*
X124992857Y-141235714D01*
X124992857Y-140902380D02*
X124945238Y-140950000D01*
X124992857Y-140997619D01*
X125040476Y-140950000D01*
X124992857Y-140902380D01*
X124992857Y-140997619D01*
X125611904Y-141902380D02*
X125516666Y-141854761D01*
X125469047Y-141807142D01*
X125421428Y-141711904D01*
X125421428Y-141426190D01*
X125469047Y-141330952D01*
X125516666Y-141283333D01*
X125611904Y-141235714D01*
X125754761Y-141235714D01*
X125850000Y-141283333D01*
X125897619Y-141330952D01*
X125945238Y-141426190D01*
X125945238Y-141711904D01*
X125897619Y-141807142D01*
X125850000Y-141854761D01*
X125754761Y-141902380D01*
X125611904Y-141902380D01*
X126564285Y-140902380D02*
X126754761Y-140902380D01*
X126850000Y-140950000D01*
X126945238Y-141045238D01*
X126992857Y-141235714D01*
X126992857Y-141569047D01*
X126945238Y-141759523D01*
X126850000Y-141854761D01*
X126754761Y-141902380D01*
X126564285Y-141902380D01*
X126469047Y-141854761D01*
X126373809Y-141759523D01*
X126326190Y-141569047D01*
X126326190Y-141235714D01*
X126373809Y-141045238D01*
X126469047Y-140950000D01*
X126564285Y-140902380D01*
X127850000Y-141235714D02*
X127850000Y-141902380D01*
X127421428Y-141235714D02*
X127421428Y-141759523D01*
X127469047Y-141854761D01*
X127564285Y-141902380D01*
X127707142Y-141902380D01*
X127802380Y-141854761D01*
X127850000Y-141807142D01*
X128183333Y-141235714D02*
X128564285Y-141235714D01*
X128326190Y-140902380D02*
X128326190Y-141759523D01*
X128373809Y-141854761D01*
X128469047Y-141902380D01*
X128564285Y-141902380D01*
X129421428Y-141902380D02*
X128850000Y-141902380D01*
X129135714Y-141902380D02*
X129135714Y-140902380D01*
X129040476Y-141045238D01*
X128945238Y-141140476D01*
X128850000Y-141188095D01*
X118707142Y-157866666D02*
X119183333Y-157866666D01*
X118611904Y-158152380D02*
X118945238Y-157152380D01*
X119278571Y-158152380D01*
X120040476Y-157485714D02*
X120040476Y-158152380D01*
X119611904Y-157485714D02*
X119611904Y-158009523D01*
X119659523Y-158104761D01*
X119754761Y-158152380D01*
X119897619Y-158152380D01*
X119992857Y-158104761D01*
X120040476Y-158057142D01*
X120945238Y-158152380D02*
X120945238Y-157152380D01*
X120945238Y-158104761D02*
X120850000Y-158152380D01*
X120659523Y-158152380D01*
X120564285Y-158104761D01*
X120516666Y-158057142D01*
X120469047Y-157961904D01*
X120469047Y-157676190D01*
X120516666Y-157580952D01*
X120564285Y-157533333D01*
X120659523Y-157485714D01*
X120850000Y-157485714D01*
X120945238Y-157533333D01*
X121421428Y-158152380D02*
X121421428Y-157485714D01*
X121421428Y-157152380D02*
X121373809Y-157200000D01*
X121421428Y-157247619D01*
X121469047Y-157200000D01*
X121421428Y-157152380D01*
X121421428Y-157247619D01*
X122040476Y-158152380D02*
X121945238Y-158104761D01*
X121897619Y-158057142D01*
X121850000Y-157961904D01*
X121850000Y-157676190D01*
X121897619Y-157580952D01*
X121945238Y-157533333D01*
X122040476Y-157485714D01*
X122183333Y-157485714D01*
X122278571Y-157533333D01*
X122326190Y-157580952D01*
X122373809Y-157676190D01*
X122373809Y-157961904D01*
X122326190Y-158057142D01*
X122278571Y-158104761D01*
X122183333Y-158152380D01*
X122040476Y-158152380D01*
X123088095Y-157152380D02*
X123088095Y-157866666D01*
X123040476Y-158009523D01*
X122945238Y-158104761D01*
X122802380Y-158152380D01*
X122707142Y-158152380D01*
X123992857Y-158152380D02*
X123992857Y-157628571D01*
X123945238Y-157533333D01*
X123850000Y-157485714D01*
X123659523Y-157485714D01*
X123564285Y-157533333D01*
X123992857Y-158104761D02*
X123897619Y-158152380D01*
X123659523Y-158152380D01*
X123564285Y-158104761D01*
X123516666Y-158009523D01*
X123516666Y-157914285D01*
X123564285Y-157819047D01*
X123659523Y-157771428D01*
X123897619Y-157771428D01*
X123992857Y-157723809D01*
X124897619Y-158104761D02*
X124802380Y-158152380D01*
X124611904Y-158152380D01*
X124516666Y-158104761D01*
X124469047Y-158057142D01*
X124421428Y-157961904D01*
X124421428Y-157676190D01*
X124469047Y-157580952D01*
X124516666Y-157533333D01*
X124611904Y-157485714D01*
X124802380Y-157485714D01*
X124897619Y-157533333D01*
X125326190Y-158152380D02*
X125326190Y-157152380D01*
X125421428Y-157771428D02*
X125707142Y-158152380D01*
X125707142Y-157485714D02*
X125326190Y-157866666D01*
X126088095Y-157247619D02*
X126135714Y-157200000D01*
X126230952Y-157152380D01*
X126469047Y-157152380D01*
X126564285Y-157200000D01*
X126611904Y-157247619D01*
X126659523Y-157342857D01*
X126659523Y-157438095D01*
X126611904Y-157580952D01*
X126040476Y-158152380D01*
X126659523Y-158152380D01*
X126850000Y-158247619D02*
X127611904Y-158247619D01*
X127802380Y-158104761D02*
X127945238Y-158152380D01*
X128183333Y-158152380D01*
X128278571Y-158104761D01*
X128326190Y-158057142D01*
X128373809Y-157961904D01*
X128373809Y-157866666D01*
X128326190Y-157771428D01*
X128278571Y-157723809D01*
X128183333Y-157676190D01*
X127992857Y-157628571D01*
X127897619Y-157580952D01*
X127850000Y-157533333D01*
X127802380Y-157438095D01*
X127802380Y-157342857D01*
X127850000Y-157247619D01*
X127897619Y-157200000D01*
X127992857Y-157152380D01*
X128230952Y-157152380D01*
X128373809Y-157200000D01*
X128707142Y-157485714D02*
X128897619Y-158152380D01*
X129088095Y-157676190D01*
X129278571Y-158152380D01*
X129469047Y-157485714D01*
X129850000Y-158152380D02*
X129850000Y-157485714D01*
X129850000Y-157152380D02*
X129802380Y-157200000D01*
X129850000Y-157247619D01*
X129897619Y-157200000D01*
X129850000Y-157152380D01*
X129850000Y-157247619D01*
X130183333Y-157485714D02*
X130564285Y-157485714D01*
X130326190Y-157152380D02*
X130326190Y-158009523D01*
X130373809Y-158104761D01*
X130469047Y-158152380D01*
X130564285Y-158152380D01*
X131326190Y-158104761D02*
X131230952Y-158152380D01*
X131040476Y-158152380D01*
X130945238Y-158104761D01*
X130897619Y-158057142D01*
X130850000Y-157961904D01*
X130850000Y-157676190D01*
X130897619Y-157580952D01*
X130945238Y-157533333D01*
X131040476Y-157485714D01*
X131230952Y-157485714D01*
X131326190Y-157533333D01*
X131754761Y-158152380D02*
X131754761Y-157152380D01*
X132183333Y-158152380D02*
X132183333Y-157628571D01*
X132135714Y-157533333D01*
X132040476Y-157485714D01*
X131897619Y-157485714D01*
X131802380Y-157533333D01*
X131754761Y-157580952D01*
X132516666Y-157152380D02*
X133088095Y-157152380D01*
X132802380Y-158152380D02*
X132802380Y-157152380D01*
%TO.C,AudioIn1*%
X112800000Y-141616666D02*
X113276190Y-141616666D01*
X112704761Y-141902380D02*
X113038095Y-140902380D01*
X113371428Y-141902380D01*
X114133333Y-141235714D02*
X114133333Y-141902380D01*
X113704761Y-141235714D02*
X113704761Y-141759523D01*
X113752380Y-141854761D01*
X113847619Y-141902380D01*
X113990476Y-141902380D01*
X114085714Y-141854761D01*
X114133333Y-141807142D01*
X115038095Y-141902380D02*
X115038095Y-140902380D01*
X115038095Y-141854761D02*
X114942857Y-141902380D01*
X114752380Y-141902380D01*
X114657142Y-141854761D01*
X114609523Y-141807142D01*
X114561904Y-141711904D01*
X114561904Y-141426190D01*
X114609523Y-141330952D01*
X114657142Y-141283333D01*
X114752380Y-141235714D01*
X114942857Y-141235714D01*
X115038095Y-141283333D01*
X115514285Y-141902380D02*
X115514285Y-141235714D01*
X115514285Y-140902380D02*
X115466666Y-140950000D01*
X115514285Y-140997619D01*
X115561904Y-140950000D01*
X115514285Y-140902380D01*
X115514285Y-140997619D01*
X116133333Y-141902380D02*
X116038095Y-141854761D01*
X115990476Y-141807142D01*
X115942857Y-141711904D01*
X115942857Y-141426190D01*
X115990476Y-141330952D01*
X116038095Y-141283333D01*
X116133333Y-141235714D01*
X116276190Y-141235714D01*
X116371428Y-141283333D01*
X116419047Y-141330952D01*
X116466666Y-141426190D01*
X116466666Y-141711904D01*
X116419047Y-141807142D01*
X116371428Y-141854761D01*
X116276190Y-141902380D01*
X116133333Y-141902380D01*
X116895238Y-141902380D02*
X116895238Y-140902380D01*
X117371428Y-141235714D02*
X117371428Y-141902380D01*
X117371428Y-141330952D02*
X117419047Y-141283333D01*
X117514285Y-141235714D01*
X117657142Y-141235714D01*
X117752380Y-141283333D01*
X117800000Y-141378571D01*
X117800000Y-141902380D01*
X118800000Y-141902380D02*
X118228571Y-141902380D01*
X118514285Y-141902380D02*
X118514285Y-140902380D01*
X118419047Y-141045238D01*
X118323809Y-141140476D01*
X118228571Y-141188095D01*
X108657142Y-157866666D02*
X109133333Y-157866666D01*
X108561904Y-158152380D02*
X108895238Y-157152380D01*
X109228571Y-158152380D01*
X109990476Y-157485714D02*
X109990476Y-158152380D01*
X109561904Y-157485714D02*
X109561904Y-158009523D01*
X109609523Y-158104761D01*
X109704761Y-158152380D01*
X109847619Y-158152380D01*
X109942857Y-158104761D01*
X109990476Y-158057142D01*
X110895238Y-158152380D02*
X110895238Y-157152380D01*
X110895238Y-158104761D02*
X110800000Y-158152380D01*
X110609523Y-158152380D01*
X110514285Y-158104761D01*
X110466666Y-158057142D01*
X110419047Y-157961904D01*
X110419047Y-157676190D01*
X110466666Y-157580952D01*
X110514285Y-157533333D01*
X110609523Y-157485714D01*
X110800000Y-157485714D01*
X110895238Y-157533333D01*
X111371428Y-158152380D02*
X111371428Y-157485714D01*
X111371428Y-157152380D02*
X111323809Y-157200000D01*
X111371428Y-157247619D01*
X111419047Y-157200000D01*
X111371428Y-157152380D01*
X111371428Y-157247619D01*
X111990476Y-158152380D02*
X111895238Y-158104761D01*
X111847619Y-158057142D01*
X111800000Y-157961904D01*
X111800000Y-157676190D01*
X111847619Y-157580952D01*
X111895238Y-157533333D01*
X111990476Y-157485714D01*
X112133333Y-157485714D01*
X112228571Y-157533333D01*
X112276190Y-157580952D01*
X112323809Y-157676190D01*
X112323809Y-157961904D01*
X112276190Y-158057142D01*
X112228571Y-158104761D01*
X112133333Y-158152380D01*
X111990476Y-158152380D01*
X113038095Y-157152380D02*
X113038095Y-157866666D01*
X112990476Y-158009523D01*
X112895238Y-158104761D01*
X112752380Y-158152380D01*
X112657142Y-158152380D01*
X113942857Y-158152380D02*
X113942857Y-157628571D01*
X113895238Y-157533333D01*
X113800000Y-157485714D01*
X113609523Y-157485714D01*
X113514285Y-157533333D01*
X113942857Y-158104761D02*
X113847619Y-158152380D01*
X113609523Y-158152380D01*
X113514285Y-158104761D01*
X113466666Y-158009523D01*
X113466666Y-157914285D01*
X113514285Y-157819047D01*
X113609523Y-157771428D01*
X113847619Y-157771428D01*
X113942857Y-157723809D01*
X114847619Y-158104761D02*
X114752380Y-158152380D01*
X114561904Y-158152380D01*
X114466666Y-158104761D01*
X114419047Y-158057142D01*
X114371428Y-157961904D01*
X114371428Y-157676190D01*
X114419047Y-157580952D01*
X114466666Y-157533333D01*
X114561904Y-157485714D01*
X114752380Y-157485714D01*
X114847619Y-157533333D01*
X115276190Y-158152380D02*
X115276190Y-157152380D01*
X115371428Y-157771428D02*
X115657142Y-158152380D01*
X115657142Y-157485714D02*
X115276190Y-157866666D01*
X116038095Y-157247619D02*
X116085714Y-157200000D01*
X116180952Y-157152380D01*
X116419047Y-157152380D01*
X116514285Y-157200000D01*
X116561904Y-157247619D01*
X116609523Y-157342857D01*
X116609523Y-157438095D01*
X116561904Y-157580952D01*
X115990476Y-158152380D01*
X116609523Y-158152380D01*
X116800000Y-158247619D02*
X117561904Y-158247619D01*
X117752380Y-158104761D02*
X117895238Y-158152380D01*
X118133333Y-158152380D01*
X118228571Y-158104761D01*
X118276190Y-158057142D01*
X118323809Y-157961904D01*
X118323809Y-157866666D01*
X118276190Y-157771428D01*
X118228571Y-157723809D01*
X118133333Y-157676190D01*
X117942857Y-157628571D01*
X117847619Y-157580952D01*
X117800000Y-157533333D01*
X117752380Y-157438095D01*
X117752380Y-157342857D01*
X117800000Y-157247619D01*
X117847619Y-157200000D01*
X117942857Y-157152380D01*
X118180952Y-157152380D01*
X118323809Y-157200000D01*
X118657142Y-157485714D02*
X118847619Y-158152380D01*
X119038095Y-157676190D01*
X119228571Y-158152380D01*
X119419047Y-157485714D01*
X119800000Y-158152380D02*
X119800000Y-157485714D01*
X119800000Y-157152380D02*
X119752380Y-157200000D01*
X119800000Y-157247619D01*
X119847619Y-157200000D01*
X119800000Y-157152380D01*
X119800000Y-157247619D01*
X120133333Y-157485714D02*
X120514285Y-157485714D01*
X120276190Y-157152380D02*
X120276190Y-158009523D01*
X120323809Y-158104761D01*
X120419047Y-158152380D01*
X120514285Y-158152380D01*
X121276190Y-158104761D02*
X121180952Y-158152380D01*
X120990476Y-158152380D01*
X120895238Y-158104761D01*
X120847619Y-158057142D01*
X120800000Y-157961904D01*
X120800000Y-157676190D01*
X120847619Y-157580952D01*
X120895238Y-157533333D01*
X120990476Y-157485714D01*
X121180952Y-157485714D01*
X121276190Y-157533333D01*
X121704761Y-158152380D02*
X121704761Y-157152380D01*
X122133333Y-158152380D02*
X122133333Y-157628571D01*
X122085714Y-157533333D01*
X121990476Y-157485714D01*
X121847619Y-157485714D01*
X121752380Y-157533333D01*
X121704761Y-157580952D01*
X122466666Y-157152380D02*
X123038095Y-157152380D01*
X122752380Y-158152380D02*
X122752380Y-157152380D01*
%TO.C,LEVEL1*%
X113852380Y-113729761D02*
X113852380Y-114205952D01*
X112852380Y-114205952D01*
X113328571Y-113396428D02*
X113328571Y-113063095D01*
X113852380Y-112920238D02*
X113852380Y-113396428D01*
X112852380Y-113396428D01*
X112852380Y-112920238D01*
X112852380Y-112634523D02*
X113852380Y-112301190D01*
X112852380Y-111967857D01*
X113328571Y-111634523D02*
X113328571Y-111301190D01*
X113852380Y-111158333D02*
X113852380Y-111634523D01*
X112852380Y-111634523D01*
X112852380Y-111158333D01*
X113852380Y-110253571D02*
X113852380Y-110729761D01*
X112852380Y-110729761D01*
X113852380Y-109396428D02*
X113852380Y-109967857D01*
X113852380Y-109682142D02*
X112852380Y-109682142D01*
X112995238Y-109777380D01*
X113090476Y-109872619D01*
X113138095Y-109967857D01*
%TO.C,C1*%
X114933333Y-138021142D02*
X114885714Y-138068761D01*
X114742857Y-138116380D01*
X114647619Y-138116380D01*
X114504761Y-138068761D01*
X114409523Y-137973523D01*
X114361904Y-137878285D01*
X114314285Y-137687809D01*
X114314285Y-137544952D01*
X114361904Y-137354476D01*
X114409523Y-137259238D01*
X114504761Y-137164000D01*
X114647619Y-137116380D01*
X114742857Y-137116380D01*
X114885714Y-137164000D01*
X114933333Y-137211619D01*
X115885714Y-138116380D02*
X115314285Y-138116380D01*
X115600000Y-138116380D02*
X115600000Y-137116380D01*
X115504761Y-137259238D01*
X115409523Y-137354476D01*
X115314285Y-137402095D01*
%TO.C,TIME1*%
X112852380Y-64523809D02*
X112852380Y-63952380D01*
X113852380Y-64238095D02*
X112852380Y-64238095D01*
X113852380Y-63619047D02*
X112852380Y-63619047D01*
X113852380Y-63142857D02*
X112852380Y-63142857D01*
X113566666Y-62809523D01*
X112852380Y-62476190D01*
X113852380Y-62476190D01*
X113328571Y-62000000D02*
X113328571Y-61666666D01*
X113852380Y-61523809D02*
X113852380Y-62000000D01*
X112852380Y-62000000D01*
X112852380Y-61523809D01*
X113852380Y-60571428D02*
X113852380Y-61142857D01*
X113852380Y-60857142D02*
X112852380Y-60857142D01*
X112995238Y-60952380D01*
X113090476Y-61047619D01*
X113138095Y-61142857D01*
%TO.C,REPEATS1*%
X114177380Y-87357142D02*
X113701190Y-87690476D01*
X114177380Y-87928571D02*
X113177380Y-87928571D01*
X113177380Y-87547619D01*
X113225000Y-87452380D01*
X113272619Y-87404761D01*
X113367857Y-87357142D01*
X113510714Y-87357142D01*
X113605952Y-87404761D01*
X113653571Y-87452380D01*
X113701190Y-87547619D01*
X113701190Y-87928571D01*
X113653571Y-86928571D02*
X113653571Y-86595238D01*
X114177380Y-86452380D02*
X114177380Y-86928571D01*
X113177380Y-86928571D01*
X113177380Y-86452380D01*
X114177380Y-86023809D02*
X113177380Y-86023809D01*
X113177380Y-85642857D01*
X113225000Y-85547619D01*
X113272619Y-85500000D01*
X113367857Y-85452380D01*
X113510714Y-85452380D01*
X113605952Y-85500000D01*
X113653571Y-85547619D01*
X113701190Y-85642857D01*
X113701190Y-86023809D01*
X113653571Y-85023809D02*
X113653571Y-84690476D01*
X114177380Y-84547619D02*
X114177380Y-85023809D01*
X113177380Y-85023809D01*
X113177380Y-84547619D01*
X113891666Y-84166666D02*
X113891666Y-83690476D01*
X114177380Y-84261904D02*
X113177380Y-83928571D01*
X114177380Y-83595238D01*
X113177380Y-83404761D02*
X113177380Y-82833333D01*
X114177380Y-83119047D02*
X113177380Y-83119047D01*
X114129761Y-82547619D02*
X114177380Y-82404761D01*
X114177380Y-82166666D01*
X114129761Y-82071428D01*
X114082142Y-82023809D01*
X113986904Y-81976190D01*
X113891666Y-81976190D01*
X113796428Y-82023809D01*
X113748809Y-82071428D01*
X113701190Y-82166666D01*
X113653571Y-82357142D01*
X113605952Y-82452380D01*
X113558333Y-82500000D01*
X113463095Y-82547619D01*
X113367857Y-82547619D01*
X113272619Y-82500000D01*
X113225000Y-82452380D01*
X113177380Y-82357142D01*
X113177380Y-82119047D01*
X113225000Y-81976190D01*
X114177380Y-81023809D02*
X114177380Y-81595238D01*
X114177380Y-81309523D02*
X113177380Y-81309523D01*
X113320238Y-81404761D01*
X113415476Y-81500000D01*
X113463095Y-81595238D01*
D11*
%TO.C,C2*%
X121170563Y-131365000D02*
X121035000Y-131365000D01*
X118779437Y-131365000D02*
X118915000Y-131365000D01*
X117715000Y-132429437D02*
X117715000Y-135885000D01*
X121535000Y-130625000D02*
X121535000Y-131125000D01*
X118779437Y-131365000D02*
X117715000Y-132429437D01*
X121785000Y-130875000D02*
X121285000Y-130875000D01*
X122235000Y-132429437D02*
X122235000Y-135885000D01*
X121170563Y-131365000D02*
X122235000Y-132429437D01*
X122235000Y-135885000D02*
X121035000Y-135885000D01*
X117715000Y-135885000D02*
X118915000Y-135885000D01*
%TO.C,AudioOut1*%
X125500000Y-145680000D02*
X121350000Y-145680000D01*
X130350000Y-156180000D02*
X126350000Y-156180000D01*
X130350000Y-145680000D02*
X130350000Y-156180000D01*
X130350000Y-145680000D02*
X126200000Y-145680000D01*
X125350000Y-156180000D02*
X121350000Y-156180000D01*
X124790000Y-142700000D02*
X124790000Y-143500000D01*
X124790000Y-142700000D02*
X125650000Y-142700000D01*
X121350000Y-145680000D02*
X121350000Y-156180000D01*
X127650000Y-150180000D02*
G75*
G03*
X127650000Y-150180000I-1800000J0D01*
G01*
%TO.C,AudioIn1*%
X111300000Y-145680000D02*
X111300000Y-156180000D01*
X114740000Y-142700000D02*
X115600000Y-142700000D01*
X115300000Y-156180000D02*
X111300000Y-156180000D01*
X120300000Y-156180000D02*
X116300000Y-156180000D01*
X120300000Y-145680000D02*
X120300000Y-156180000D01*
X114740000Y-142700000D02*
X114740000Y-143500000D01*
X115450000Y-145680000D02*
X111300000Y-145680000D01*
X120300000Y-145680000D02*
X116150000Y-145680000D01*
X117600000Y-150180000D02*
G75*
G03*
X117600000Y-150180000I-1800000J0D01*
G01*
%TO.C,LEVEL1*%
X122560000Y-118445000D02*
X121730000Y-118445000D01*
X117210000Y-118445000D02*
X116030000Y-118445000D01*
X125770000Y-109915000D02*
X125770000Y-106855000D01*
X125770000Y-106855000D02*
X116030000Y-106855000D01*
X125770000Y-118445000D02*
X124280000Y-118445000D01*
X120110000Y-118445000D02*
X119580000Y-118445000D01*
X116030000Y-109915000D02*
X116030000Y-106855000D01*
X116020000Y-118445000D02*
X116020000Y-113725000D01*
X125770000Y-118445000D02*
X125770000Y-113725000D01*
%TO.C,C1*%
X112840000Y-132404437D02*
X112840000Y-135860000D01*
X113904437Y-131340000D02*
X112840000Y-132404437D01*
X113904437Y-131340000D02*
X114040000Y-131340000D01*
X116295563Y-131340000D02*
X116160000Y-131340000D01*
X116910000Y-130850000D02*
X116410000Y-130850000D01*
X117360000Y-132404437D02*
X117360000Y-135860000D01*
X116660000Y-130600000D02*
X116660000Y-131100000D01*
X116295563Y-131340000D02*
X117360000Y-132404437D01*
X117360000Y-135860000D02*
X116160000Y-135860000D01*
X112840000Y-135860000D02*
X114040000Y-135860000D01*
%TO.C,TIME1*%
X122560000Y-69120000D02*
X121730000Y-69120000D01*
X117210000Y-69120000D02*
X116030000Y-69120000D01*
X125770000Y-69120000D02*
X124280000Y-69120000D01*
X116030000Y-60590000D02*
X116030000Y-57530000D01*
X116020000Y-69120000D02*
X116020000Y-64400000D01*
X120110000Y-69120000D02*
X119580000Y-69120000D01*
X125770000Y-69120000D02*
X125770000Y-64400000D01*
X125770000Y-60590000D02*
X125770000Y-57530000D01*
X125770000Y-57530000D02*
X116030000Y-57530000D01*
%TO.C,REPEATS1*%
X116020000Y-92820000D02*
X116020000Y-88100000D01*
X117210000Y-92820000D02*
X116030000Y-92820000D01*
X125770000Y-84290000D02*
X125770000Y-81230000D01*
X120110000Y-92820000D02*
X119580000Y-92820000D01*
X122560000Y-92820000D02*
X121730000Y-92820000D01*
X116030000Y-84290000D02*
X116030000Y-81230000D01*
X125770000Y-92820000D02*
X124280000Y-92820000D01*
X125770000Y-92820000D02*
X125770000Y-88100000D01*
X125770000Y-81230000D02*
X116030000Y-81230000D01*
%TD*%
M02*
