%TF.GenerationSoftware,KiCad,Pcbnew,6.0.7+dfsg-1~bpo11+1*%
%TF.CreationDate,2022-10-24T23:46:05+08:00*%
%TF.ProjectId,MiniDelay,4d696e69-4465-46c6-9179-2e6b69636164,rev?*%
%TF.SameCoordinates,Original*%
%TF.FileFunction,Paste,Bot*%
%TF.FilePolarity,Positive*%
%FSLAX46Y46*%
G04 Gerber Fmt 4.6, Leading zero omitted, Abs format (unit mm)*
G04 Created by KiCad (PCBNEW 6.0.7+dfsg-1~bpo11+1) date 2022-10-24 23:46:05*
%MOMM*%
%LPD*%
G01*
G04 APERTURE LIST*
G04 Aperture macros list*
%AMRoundRect*
0 Rectangle with rounded corners*
0 $1 Rounding radius*
0 $2 $3 $4 $5 $6 $7 $8 $9 X,Y pos of 4 corners*
0 Add a 4 corners polygon primitive as box body*
4,1,4,$2,$3,$4,$5,$6,$7,$8,$9,$2,$3,0*
0 Add four circle primitives for the rounded corners*
1,1,$1+$1,$2,$3*
1,1,$1+$1,$4,$5*
1,1,$1+$1,$6,$7*
1,1,$1+$1,$8,$9*
0 Add four rect primitives between the rounded corners*
20,1,$1+$1,$2,$3,$4,$5,0*
20,1,$1+$1,$4,$5,$6,$7,0*
20,1,$1+$1,$6,$7,$8,$9,0*
20,1,$1+$1,$8,$9,$2,$3,0*%
G04 Aperture macros list end*
%ADD10RoundRect,0.237500X-0.237500X0.250000X-0.237500X-0.250000X0.237500X-0.250000X0.237500X0.250000X0*%
%ADD11RoundRect,0.237500X-0.237500X0.300000X-0.237500X-0.300000X0.237500X-0.300000X0.237500X0.300000X0*%
%ADD12RoundRect,0.237500X-0.300000X-0.237500X0.300000X-0.237500X0.300000X0.237500X-0.300000X0.237500X0*%
%ADD13RoundRect,0.237500X0.237500X-0.250000X0.237500X0.250000X-0.237500X0.250000X-0.237500X-0.250000X0*%
%ADD14RoundRect,0.237500X0.237500X-0.300000X0.237500X0.300000X-0.237500X0.300000X-0.237500X-0.300000X0*%
%ADD15RoundRect,0.250000X0.550000X-1.050000X0.550000X1.050000X-0.550000X1.050000X-0.550000X-1.050000X0*%
%ADD16RoundRect,0.150000X0.650000X0.150000X-0.650000X0.150000X-0.650000X-0.150000X0.650000X-0.150000X0*%
%ADD17RoundRect,0.250000X-0.550000X1.050000X-0.550000X-1.050000X0.550000X-1.050000X0.550000X1.050000X0*%
%ADD18RoundRect,0.150000X0.825000X0.150000X-0.825000X0.150000X-0.825000X-0.150000X0.825000X-0.150000X0*%
G04 APERTURE END LIST*
D10*
%TO.C,R14*%
X140550000Y-101412500D03*
X140550000Y-103237500D03*
%TD*%
D11*
%TO.C,C22*%
X141800000Y-79737500D03*
X141800000Y-81462500D03*
%TD*%
D10*
%TO.C,R3*%
X120265000Y-150897500D03*
X120265000Y-152722500D03*
%TD*%
D11*
%TO.C,C19*%
X142075000Y-98037500D03*
X142075000Y-99762500D03*
%TD*%
D10*
%TO.C,R17*%
X118735000Y-150887500D03*
X118735000Y-152712500D03*
%TD*%
D12*
%TO.C,C4*%
X140112500Y-83475000D03*
X141837500Y-83475000D03*
%TD*%
D13*
%TO.C,R19*%
X140400000Y-87312500D03*
X140400000Y-85487500D03*
%TD*%
D10*
%TO.C,R6*%
X124835000Y-150917500D03*
X124835000Y-152742500D03*
%TD*%
D11*
%TO.C,C6*%
X151000000Y-79737500D03*
X151000000Y-81462500D03*
%TD*%
D14*
%TO.C,C10*%
X114050000Y-92925000D03*
X114050000Y-91200000D03*
%TD*%
%TO.C,C13*%
X143600000Y-106562500D03*
X143600000Y-104837500D03*
%TD*%
D13*
%TO.C,R5*%
X154250000Y-106025000D03*
X154250000Y-104200000D03*
%TD*%
D11*
%TO.C,C20*%
X148100000Y-72937500D03*
X148100000Y-74662500D03*
%TD*%
D13*
%TO.C,R11*%
X121875000Y-146375000D03*
X121875000Y-144550000D03*
%TD*%
D14*
%TO.C,C3*%
X114920000Y-128490000D03*
X114920000Y-126765000D03*
%TD*%
D10*
%TO.C,R10*%
X118900000Y-107787500D03*
X118900000Y-109612500D03*
%TD*%
D14*
%TO.C,C11*%
X143600000Y-103187500D03*
X143600000Y-101462500D03*
%TD*%
D13*
%TO.C,R2*%
X120325000Y-146387500D03*
X120325000Y-144562500D03*
%TD*%
D10*
%TO.C,R18*%
X121795000Y-150907500D03*
X121795000Y-152732500D03*
%TD*%
D11*
%TO.C,C5*%
X117205000Y-150937500D03*
X117205000Y-152662500D03*
%TD*%
D13*
%TO.C,R4*%
X123315000Y-152732500D03*
X123315000Y-150907500D03*
%TD*%
%TO.C,R21*%
X140300000Y-81512500D03*
X140300000Y-79687500D03*
%TD*%
D10*
%TO.C,R1*%
X115675000Y-150887500D03*
X115675000Y-152712500D03*
%TD*%
D13*
%TO.C,R9*%
X126350000Y-152762500D03*
X126350000Y-150937500D03*
%TD*%
D10*
%TO.C,R20*%
X141900000Y-85487500D03*
X141900000Y-87312500D03*
%TD*%
D14*
%TO.C,C21*%
X140555000Y-99762500D03*
X140555000Y-98037500D03*
%TD*%
D11*
%TO.C,C9*%
X157350000Y-104237500D03*
X157350000Y-105962500D03*
%TD*%
D10*
%TO.C,R16*%
X112525000Y-91162500D03*
X112525000Y-92987500D03*
%TD*%
D15*
%TO.C,C7*%
X127925000Y-93450000D03*
X127925000Y-89850000D03*
%TD*%
D13*
%TO.C,R7*%
X142075000Y-103237500D03*
X142075000Y-101412500D03*
%TD*%
D11*
%TO.C,C8*%
X155800000Y-104250000D03*
X155800000Y-105975000D03*
%TD*%
D10*
%TO.C,R12*%
X146575000Y-72875000D03*
X146575000Y-74700000D03*
%TD*%
D16*
%TO.C,U2*%
X152250000Y-97555000D03*
X152250000Y-98825000D03*
X152250000Y-100095000D03*
X152250000Y-101365000D03*
X152250000Y-102635000D03*
X152250000Y-103905000D03*
X152250000Y-105175000D03*
X152250000Y-106445000D03*
X145750000Y-106445000D03*
X145750000Y-105175000D03*
X145750000Y-103905000D03*
X145750000Y-102635000D03*
X145750000Y-101365000D03*
X145750000Y-100095000D03*
X145750000Y-98825000D03*
X145750000Y-97555000D03*
%TD*%
D17*
%TO.C,C18*%
X153300000Y-73500000D03*
X153300000Y-77100000D03*
%TD*%
D18*
%TO.C,U1*%
X148875000Y-79665000D03*
X148875000Y-80935000D03*
X148875000Y-82205000D03*
X148875000Y-83475000D03*
X148875000Y-84745000D03*
X148875000Y-86015000D03*
X148875000Y-87285000D03*
X143925000Y-87285000D03*
X143925000Y-86015000D03*
X143925000Y-84745000D03*
X143925000Y-83475000D03*
X143925000Y-82205000D03*
X143925000Y-80935000D03*
X143925000Y-79665000D03*
%TD*%
D14*
%TO.C,C12*%
X123475000Y-146325000D03*
X123475000Y-144600000D03*
%TD*%
D11*
%TO.C,C17*%
X154240000Y-97377500D03*
X154240000Y-99102500D03*
%TD*%
%TO.C,C16*%
X122100000Y-107837500D03*
X122100000Y-109562500D03*
%TD*%
%TO.C,C15*%
X145000000Y-72937500D03*
X145000000Y-74662500D03*
%TD*%
D10*
%TO.C,R15*%
X149700000Y-72887500D03*
X149700000Y-74712500D03*
%TD*%
D11*
%TO.C,C14*%
X151000000Y-83137500D03*
X151000000Y-84862500D03*
%TD*%
D13*
%TO.C,R8*%
X120500000Y-109612500D03*
X120500000Y-107787500D03*
%TD*%
%TO.C,R13*%
X143400000Y-74712500D03*
X143400000Y-72887500D03*
%TD*%
M02*
