<?xml version="1.0" standalone="no"?>
 <!DOCTYPE svg PUBLIC "-//W3C//DTD SVG 1.1//EN" 
 "http://www.w3.org/Graphics/SVG/1.1/DTD/svg11.dtd"> 
<svg
  xmlns:svg="http://www.w3.org/2000/svg"
  xmlns="http://www.w3.org/2000/svg"
  xmlns:xlink="http://www.w3.org/1999/xlink"
  version="1.1"
  width="29.700220cm" height="21.000720cm" viewBox="0 0 297002200 210007200">
<title>SVG Picture created as MiniDelay-B_Silkscreen.svg date 2022/10/24 23:46:42 </title>
  <desc>Picture generated by PCBNEW </desc>
<g style="fill:#000000; fill-opacity:1.000000;stroke:#000000; stroke-opacity:1.000000;
stroke-linecap:round; stroke-linejoin:round;"
 transform="translate(0 0) scale(1 1)">
</g>
<g style="fill:#000000; fill-opacity:0.0; 
stroke:#000000; stroke-width:0.000000; stroke-opacity:1; 
stroke-linecap:round; stroke-linejoin:round;">
</g>
<g style="fill:#000000; fill-opacity:0.0; 
stroke:#000000; stroke-width:150000.000000; stroke-opacity:1; 
stroke-linecap:round; stroke-linejoin:round;">
<g transform="rotate(-90.000000 140550000.000000 105450000.000000)">
<text x="140550000.000000" y="105950000.000000"
transform="scale(-1 1) translate(-281100000.000000 0)"
textLength="2709762.000000" font-size="1333333.000000" lengthAdjust="spacingAndGlyphs"
text-anchor="middle" opacity="0">R14</text>
</g>
<g class="stroked-text"><desc>R14</desc>
<path d="M141002380 104807142
L140526190 104473809
" />
<path d="M141002380 104235714
L140002380 104235714
L140002380 104616666
L140050000 104711904
L140097619 104759523
L140192857 104807142
L140335714 104807142
L140430952 104759523
L140478571 104711904
L140526190 104616666
L140526190 104235714
" />
<path d="M141002380 105759523
L141002380 105188095
" />
<path d="M141002380 105473809
L140002380 105473809
L140145238 105378571
L140240476 105283333
L140288095 105188095
" />
<path d="M140335714 106616666
L141002380 106616666
" />
<path d="M139954761 106378571
L140669047 106140476
L140669047 106759523
" />
</g><g transform="rotate(-90.000000 141800000.000000 77560000.000000)">
<text x="141800000.000000" y="78060000.000000"
transform="scale(-1 1) translate(-283600000.000000 0)"
textLength="2709762.000000" font-size="1333333.000000" lengthAdjust="spacingAndGlyphs"
text-anchor="middle" opacity="0">C22</text>
</g>
<g class="stroked-text"><desc>C22</desc>
<path d="M142157142 76917142
L142204761 76869523
L142252380 76726666
L142252380 76631428
L142204761 76488571
L142109523 76393333
L142014285 76345714
L141823809 76298095
L141680952 76298095
L141490476 76345714
L141395238 76393333
L141300000 76488571
L141252380 76631428
L141252380 76726666
L141300000 76869523
L141347619 76917142
" />
<path d="M141347619 77298095
L141300000 77345714
L141252380 77440952
L141252380 77679047
L141300000 77774285
L141347619 77821904
L141442857 77869523
L141538095 77869523
L141680952 77821904
L142252380 77250476
L142252380 77869523
" />
<path d="M141347619 78250476
L141300000 78298095
L141252380 78393333
L141252380 78631428
L141300000 78726666
L141347619 78774285
L141442857 78821904
L141538095 78821904
L141680952 78774285
L142252380 78202857
L142252380 78821904
" />
</g><g transform="rotate(-90.000000 120285000.000000 149310000.000000)">
<text x="120285000.000000" y="149810000.000000"
transform="scale(-1 1) translate(-240570000.000000 0)"
textLength="1757381.000000" font-size="1333333.000000" lengthAdjust="spacingAndGlyphs"
text-anchor="middle" opacity="0">R3</text>
</g>
<g class="stroked-text"><desc>R3</desc>
<path d="M120737380 149143333
L120261190 148810000
" />
<path d="M120737380 148571904
L119737380 148571904
L119737380 148952857
L119785000 149048095
L119832619 149095714
L119927857 149143333
L120070714 149143333
L120165952 149095714
L120213571 149048095
L120261190 148952857
L120261190 148571904
" />
<path d="M119737380 149476666
L119737380 150095714
L120118333 149762380
L120118333 149905238
L120165952 150000476
L120213571 150048095
L120308809 150095714
L120546904 150095714
L120642142 150048095
L120689761 150000476
L120737380 149905238
L120737380 149619523
L120689761 149524285
L120642142 149476666
" />
</g><g transform="rotate(-90.000000 142075000.000000 95850000.000000)">
<text x="142075000.000000" y="96350000.000000"
transform="scale(-1 1) translate(-284150000.000000 0)"
textLength="2709762.000000" font-size="1333333.000000" lengthAdjust="spacingAndGlyphs"
text-anchor="middle" opacity="0">C19</text>
</g>
<g class="stroked-text"><desc>C19</desc>
<path d="M142432142 95207142
L142479761 95159523
L142527380 95016666
L142527380 94921428
L142479761 94778571
L142384523 94683333
L142289285 94635714
L142098809 94588095
L141955952 94588095
L141765476 94635714
L141670238 94683333
L141575000 94778571
L141527380 94921428
L141527380 95016666
L141575000 95159523
L141622619 95207142
" />
<path d="M142527380 96159523
L142527380 95588095
" />
<path d="M142527380 95873809
L141527380 95873809
L141670238 95778571
L141765476 95683333
L141813095 95588095
" />
<path d="M142527380 96635714
L142527380 96826190
L142479761 96921428
L142432142 96969047
L142289285 97064285
L142098809 97111904
L141717857 97111904
L141622619 97064285
L141575000 97016666
L141527380 96921428
L141527380 96730952
L141575000 96635714
L141622619 96588095
L141717857 96540476
L141955952 96540476
L142051190 96588095
L142098809 96635714
L142146428 96730952
L142146428 96921428
L142098809 97016666
L142051190 97064285
L141955952 97111904
" />
</g><g transform="rotate(-90.000000 118745000.000000 149100000.000000)">
<text x="118745000.000000" y="149600000.000000"
transform="scale(-1 1) translate(-237490000.000000 0)"
textLength="2709762.000000" font-size="1333333.000000" lengthAdjust="spacingAndGlyphs"
text-anchor="middle" opacity="0">R17</text>
</g>
<g class="stroked-text"><desc>R17</desc>
<path d="M119197380 148457142
L118721190 148123809
" />
<path d="M119197380 147885714
L118197380 147885714
L118197380 148266666
L118245000 148361904
L118292619 148409523
L118387857 148457142
L118530714 148457142
L118625952 148409523
L118673571 148361904
L118721190 148266666
L118721190 147885714
" />
<path d="M119197380 149409523
L119197380 148838095
" />
<path d="M119197380 149123809
L118197380 149123809
L118340238 149028571
L118435476 148933333
L118483095 148838095
" />
<path d="M118197380 149742857
L118197380 150409523
L119197380 149980952
" />
</g><text x="115920000.000000" y="142810000.000000"
transform="scale(-1 1) translate(-231840000.000000 0)"
textLength="1757381.000000" font-size="1333333.000000" lengthAdjust="spacingAndGlyphs"
text-anchor="middle" opacity="0">D1</text>
<g class="stroked-text"><desc>D1</desc>
<path d="M116658095 142762380
L116658095 141762380
L116420000 141762380
L116277142 141810000
L116181904 141905238
L116134285 142000476
L116086666 142190952
L116086666 142333809
L116134285 142524285
L116181904 142619523
L116277142 142714761
L116420000 142762380
L116658095 142762380
" />
<path d="M115134285 142762380
L115705714 142762380
" />
<path d="M115420000 142762380
L115420000 141762380
L115515238 141905238
L115610476 142000476
L115705714 142048095
" />
</g><text x="138355000.000000" y="83965000.000000"
transform="scale(-1 1) translate(-276710000.000000 0)"
textLength="1757381.000000" font-size="1333333.000000" lengthAdjust="spacingAndGlyphs"
text-anchor="middle" opacity="0">C4</text>
<g class="stroked-text"><desc>C4</desc>
<path d="M138521666 83822142
L138569285 83869761
L138712142 83917380
L138807380 83917380
L138950238 83869761
L139045476 83774523
L139093095 83679285
L139140714 83488809
L139140714 83345952
L139093095 83155476
L139045476 83060238
L138950238 82965000
L138807380 82917380
L138712142 82917380
L138569285 82965000
L138521666 83012619
" />
<path d="M137664523 83250714
L137664523 83917380
" />
<path d="M137902619 82869761
L138140714 83584047
L137521666 83584047
" />
</g><g transform="rotate(-90.000000 140400000.000000 89407500.000000)">
<text x="140400000.000000" y="89907500.000000"
transform="scale(-1 1) translate(-280800000.000000 0)"
textLength="2709762.000000" font-size="1333333.000000" lengthAdjust="spacingAndGlyphs"
text-anchor="middle" opacity="0">R19</text>
</g>
<g class="stroked-text"><desc>R19</desc>
<path d="M140852380 88764642
L140376190 88431309
" />
<path d="M140852380 88193214
L139852380 88193214
L139852380 88574166
L139900000 88669404
L139947619 88717023
L140042857 88764642
L140185714 88764642
L140280952 88717023
L140328571 88669404
L140376190 88574166
L140376190 88193214
" />
<path d="M140852380 89717023
L140852380 89145595
" />
<path d="M140852380 89431309
L139852380 89431309
L139995238 89336071
L140090476 89240833
L140138095 89145595
" />
<path d="M140852380 90193214
L140852380 90383690
L140804761 90478928
L140757142 90526547
L140614285 90621785
L140423809 90669404
L140042857 90669404
L139947619 90621785
L139900000 90574166
L139852380 90478928
L139852380 90288452
L139900000 90193214
L139947619 90145595
L140042857 90097976
L140280952 90097976
L140376190 90145595
L140423809 90193214
L140471428 90288452
L140471428 90478928
L140423809 90574166
L140376190 90621785
L140280952 90669404
" />
</g><g transform="rotate(-90.000000 124875000.000000 149200000.000000)">
<text x="124875000.000000" y="149700000.000000"
transform="scale(-1 1) translate(-249750000.000000 0)"
textLength="1757381.000000" font-size="1333333.000000" lengthAdjust="spacingAndGlyphs"
text-anchor="middle" opacity="0">R6</text>
</g>
<g class="stroked-text"><desc>R6</desc>
<path d="M125327380 149033333
L124851190 148700000
" />
<path d="M125327380 148461904
L124327380 148461904
L124327380 148842857
L124375000 148938095
L124422619 148985714
L124517857 149033333
L124660714 149033333
L124755952 148985714
L124803571 148938095
L124851190 148842857
L124851190 148461904
" />
<path d="M124327380 149890476
L124327380 149700000
L124375000 149604761
L124422619 149557142
L124565476 149461904
L124755952 149414285
L125136904 149414285
L125232142 149461904
L125279761 149509523
L125327380 149604761
L125327380 149795238
L125279761 149890476
L125232142 149938095
L125136904 149985714
L124898809 149985714
L124803571 149938095
L124755952 149890476
L124708333 149795238
L124708333 149604761
L124755952 149509523
L124803571 149461904
L124898809 149414285
" />
</g><g transform="rotate(-90.000000 152554000.000000 80506000.000000)">
<text x="152554000.000000" y="81006000.000000"
transform="scale(-1 1) translate(-305108000.000000 0)"
textLength="1757381.000000" font-size="1333333.000000" lengthAdjust="spacingAndGlyphs"
text-anchor="middle" opacity="0">C6</text>
</g>
<g class="stroked-text"><desc>C6</desc>
<path d="M152911142 80339333
L152958761 80291714
L153006380 80148857
L153006380 80053619
L152958761 79910761
L152863523 79815523
L152768285 79767904
L152577809 79720285
L152434952 79720285
L152244476 79767904
L152149238 79815523
L152054000 79910761
L152006380 80053619
L152006380 80148857
L152054000 80291714
L152101619 80339333
" />
<path d="M152006380 81196476
L152006380 81006000
L152054000 80910761
L152101619 80863142
L152244476 80767904
L152434952 80720285
L152815904 80720285
L152911142 80767904
L152958761 80815523
L153006380 80910761
L153006380 81101238
L152958761 81196476
L152911142 81244095
L152815904 81291714
L152577809 81291714
L152482571 81244095
L152434952 81196476
L152387333 81101238
L152387333 80910761
L152434952 80815523
L152482571 80767904
L152577809 80720285
" />
</g><g transform="rotate(-90.000000 121525000.000000 125950000.000000)">
<text x="121525000.000000" y="126450000.000000"
transform="scale(-1 1) translate(-243050000.000000 0)"
textLength="1805000.000000" font-size="1333333.000000" lengthAdjust="spacingAndGlyphs"
text-anchor="middle" opacity="0">U3</text>
</g>
<g class="stroked-text"><desc>U3</desc>
<path d="M120977380 125188095
L121786904 125188095
L121882142 125235714
L121929761 125283333
L121977380 125378571
L121977380 125569047
L121929761 125664285
L121882142 125711904
L121786904 125759523
L120977380 125759523
" />
<path d="M120977380 126140476
L120977380 126759523
L121358333 126426190
L121358333 126569047
L121405952 126664285
L121453571 126711904
L121548809 126759523
L121786904 126759523
L121882142 126711904
L121929761 126664285
L121977380 126569047
L121977380 126283333
L121929761 126188095
L121882142 126140476
" />
</g><g transform="rotate(-90.000000 114050000.000000 88962500.000000)">
<text x="114050000.000000" y="89462500.000000"
transform="scale(-1 1) translate(-228100000.000000 0)"
textLength="2709762.000000" font-size="1333333.000000" lengthAdjust="spacingAndGlyphs"
text-anchor="middle" opacity="0">C10</text>
</g>
<g class="stroked-text"><desc>C10</desc>
<path d="M114407142 88319642
L114454761 88272023
L114502380 88129166
L114502380 88033928
L114454761 87891071
L114359523 87795833
L114264285 87748214
L114073809 87700595
L113930952 87700595
L113740476 87748214
L113645238 87795833
L113550000 87891071
L113502380 88033928
L113502380 88129166
L113550000 88272023
L113597619 88319642
" />
<path d="M114502380 89272023
L114502380 88700595
" />
<path d="M114502380 88986309
L113502380 88986309
L113645238 88891071
L113740476 88795833
L113788095 88700595
" />
<path d="M113502380 89891071
L113502380 89986309
L113550000 90081547
L113597619 90129166
L113692857 90176785
L113883333 90224404
L114121428 90224404
L114311904 90176785
L114407142 90129166
L114454761 90081547
L114502380 89986309
L114502380 89891071
L114454761 89795833
L114407142 89748214
L114311904 89700595
L114121428 89652976
L113883333 89652976
L113692857 89700595
L113597619 89748214
L113550000 89795833
L113502380 89891071
" />
</g><g transform="rotate(-90.000000 143225000.000000 108850000.000000)">
<text x="143225000.000000" y="109350000.000000"
transform="scale(-1 1) translate(-286450000.000000 0)"
textLength="2709762.000000" font-size="1333333.000000" lengthAdjust="spacingAndGlyphs"
text-anchor="middle" opacity="0">C13</text>
</g>
<g class="stroked-text"><desc>C13</desc>
<path d="M143582142 108207142
L143629761 108159523
L143677380 108016666
L143677380 107921428
L143629761 107778571
L143534523 107683333
L143439285 107635714
L143248809 107588095
L143105952 107588095
L142915476 107635714
L142820238 107683333
L142725000 107778571
L142677380 107921428
L142677380 108016666
L142725000 108159523
L142772619 108207142
" />
<path d="M143677380 109159523
L143677380 108588095
" />
<path d="M143677380 108873809
L142677380 108873809
L142820238 108778571
L142915476 108683333
L142963095 108588095
" />
<path d="M142677380 109492857
L142677380 110111904
L143058333 109778571
L143058333 109921428
L143105952 110016666
L143153571 110064285
L143248809 110111904
L143486904 110111904
L143582142 110064285
L143629761 110016666
L143677380 109921428
L143677380 109635714
L143629761 109540476
L143582142 109492857
" />
</g><g transform="rotate(-90.000000 154250000.000000 102712500.000000)">
<text x="154250000.000000" y="103212500.000000"
transform="scale(-1 1) translate(-308500000.000000 0)"
textLength="1757381.000000" font-size="1333333.000000" lengthAdjust="spacingAndGlyphs"
text-anchor="middle" opacity="0">R5</text>
</g>
<g class="stroked-text"><desc>R5</desc>
<path d="M154702380 102545833
L154226190 102212500
" />
<path d="M154702380 101974404
L153702380 101974404
L153702380 102355357
L153750000 102450595
L153797619 102498214
L153892857 102545833
L154035714 102545833
L154130952 102498214
L154178571 102450595
L154226190 102355357
L154226190 101974404
" />
<path d="M153702380 103450595
L153702380 102974404
L154178571 102926785
L154130952 102974404
L154083333 103069642
L154083333 103307738
L154130952 103402976
L154178571 103450595
L154273809 103498214
L154511904 103498214
L154607142 103450595
L154654761 103402976
L154702380 103307738
L154702380 103069642
L154654761 102974404
L154607142 102926785
" />
</g><g transform="rotate(-90.000000 148100000.000000 70700000.000000)">
<text x="148100000.000000" y="71200000.000000"
transform="scale(-1 1) translate(-296200000.000000 0)"
textLength="2709762.000000" font-size="1333333.000000" lengthAdjust="spacingAndGlyphs"
text-anchor="middle" opacity="0">C20</text>
</g>
<g class="stroked-text"><desc>C20</desc>
<path d="M148457142 70057142
L148504761 70009523
L148552380 69866666
L148552380 69771428
L148504761 69628571
L148409523 69533333
L148314285 69485714
L148123809 69438095
L147980952 69438095
L147790476 69485714
L147695238 69533333
L147600000 69628571
L147552380 69771428
L147552380 69866666
L147600000 70009523
L147647619 70057142
" />
<path d="M147647619 70438095
L147600000 70485714
L147552380 70580952
L147552380 70819047
L147600000 70914285
L147647619 70961904
L147742857 71009523
L147838095 71009523
L147980952 70961904
L148552380 70390476
L148552380 71009523
" />
<path d="M147552380 71628571
L147552380 71723809
L147600000 71819047
L147647619 71866666
L147742857 71914285
L147933333 71961904
L148171428 71961904
L148361904 71914285
L148457142 71866666
L148504761 71819047
L148552380 71723809
L148552380 71628571
L148504761 71533333
L148457142 71485714
L148361904 71438095
L148171428 71390476
L147933333 71390476
L147742857 71438095
L147647619 71485714
L147600000 71533333
L147552380 71628571
" />
</g><g transform="rotate(-90.000000 121900000.000000 142450000.000000)">
<text x="121900000.000000" y="142950000.000000"
transform="scale(-1 1) translate(-243800000.000000 0)"
textLength="2709762.000000" font-size="1333333.000000" lengthAdjust="spacingAndGlyphs"
text-anchor="middle" opacity="0">R11</text>
</g>
<g class="stroked-text"><desc>R11</desc>
<path d="M122352380 141807142
L121876190 141473809
" />
<path d="M122352380 141235714
L121352380 141235714
L121352380 141616666
L121400000 141711904
L121447619 141759523
L121542857 141807142
L121685714 141807142
L121780952 141759523
L121828571 141711904
L121876190 141616666
L121876190 141235714
" />
<path d="M122352380 142759523
L122352380 142188095
" />
<path d="M122352380 142473809
L121352380 142473809
L121495238 142378571
L121590476 142283333
L121638095 142188095
" />
<path d="M122352380 143711904
L122352380 143140476
" />
<path d="M122352380 143426190
L121352380 143426190
L121495238 143330952
L121590476 143235714
L121638095 143140476
" />
</g><g transform="rotate(-90.000000 114930000.000000 125052500.000000)">
<text x="114930000.000000" y="125552500.000000"
transform="scale(-1 1) translate(-229860000.000000 0)"
textLength="1757381.000000" font-size="1333333.000000" lengthAdjust="spacingAndGlyphs"
text-anchor="middle" opacity="0">C3</text>
</g>
<g class="stroked-text"><desc>C3</desc>
<path d="M115287142 124885833
L115334761 124838214
L115382380 124695357
L115382380 124600119
L115334761 124457261
L115239523 124362023
L115144285 124314404
L114953809 124266785
L114810952 124266785
L114620476 124314404
L114525238 124362023
L114430000 124457261
L114382380 124600119
L114382380 124695357
L114430000 124838214
L114477619 124885833
" />
<path d="M114382380 125219166
L114382380 125838214
L114763333 125504880
L114763333 125647738
L114810952 125742976
L114858571 125790595
L114953809 125838214
L115191904 125838214
L115287142 125790595
L115334761 125742976
L115382380 125647738
L115382380 125362023
L115334761 125266785
L115287142 125219166
" />
</g><text x="125717500.000000" y="143080000.000000"
transform="scale(-1 1) translate(-251435000.000000 0)"
textLength="1519286.000000" font-size="1333333.000000" lengthAdjust="spacingAndGlyphs"
text-anchor="middle" opacity="0">J1</text>
<g class="stroked-text"><desc>J1</desc>
<path d="M126050833 142032380
L126050833 142746666
L126098452 142889523
L126193690 142984761
L126336547 143032380
L126431785 143032380
" />
<path d="M125050833 143032380
L125622261 143032380
" />
<path d="M125336547 143032380
L125336547 142032380
L125431785 142175238
L125527023 142270476
L125622261 142318095
" />
</g><g transform="rotate(-90.000000 118900000.000000 111700000.000000)">
<text x="118900000.000000" y="112200000.000000"
transform="scale(-1 1) translate(-237800000.000000 0)"
textLength="2709762.000000" font-size="1333333.000000" lengthAdjust="spacingAndGlyphs"
text-anchor="middle" opacity="0">R10</text>
</g>
<g class="stroked-text"><desc>R10</desc>
<path d="M119352380 111057142
L118876190 110723809
" />
<path d="M119352380 110485714
L118352380 110485714
L118352380 110866666
L118400000 110961904
L118447619 111009523
L118542857 111057142
L118685714 111057142
L118780952 111009523
L118828571 110961904
L118876190 110866666
L118876190 110485714
" />
<path d="M119352380 112009523
L119352380 111438095
" />
<path d="M119352380 111723809
L118352380 111723809
L118495238 111628571
L118590476 111533333
L118638095 111438095
" />
<path d="M118352380 112628571
L118352380 112723809
L118400000 112819047
L118447619 112866666
L118542857 112914285
L118733333 112961904
L118971428 112961904
L119161904 112914285
L119257142 112866666
L119304761 112819047
L119352380 112723809
L119352380 112628571
L119304761 112533333
L119257142 112485714
L119161904 112438095
L118971428 112390476
L118733333 112390476
L118542857 112438095
L118447619 112485714
L118400000 112533333
L118352380 112628571
" />
</g><g transform="rotate(-90.000000 143825000.000000 99300000.000000)">
<text x="143825000.000000" y="99800000.000000"
transform="scale(-1 1) translate(-287650000.000000 0)"
textLength="2709762.000000" font-size="1333333.000000" lengthAdjust="spacingAndGlyphs"
text-anchor="middle" opacity="0">C11</text>
</g>
<g class="stroked-text"><desc>C11</desc>
<path d="M144182142 98657142
L144229761 98609523
L144277380 98466666
L144277380 98371428
L144229761 98228571
L144134523 98133333
L144039285 98085714
L143848809 98038095
L143705952 98038095
L143515476 98085714
L143420238 98133333
L143325000 98228571
L143277380 98371428
L143277380 98466666
L143325000 98609523
L143372619 98657142
" />
<path d="M144277380 99609523
L144277380 99038095
" />
<path d="M144277380 99323809
L143277380 99323809
L143420238 99228571
L143515476 99133333
L143563095 99038095
" />
<path d="M144277380 100561904
L144277380 99990476
" />
<path d="M144277380 100276190
L143277380 100276190
L143420238 100180952
L143515476 100085714
L143563095 99990476
" />
</g><g transform="rotate(-90.000000 120300000.000000 142775000.000000)">
<text x="120300000.000000" y="143275000.000000"
transform="scale(-1 1) translate(-240600000.000000 0)"
textLength="1757381.000000" font-size="1333333.000000" lengthAdjust="spacingAndGlyphs"
text-anchor="middle" opacity="0">R2</text>
</g>
<g class="stroked-text"><desc>R2</desc>
<path d="M120752380 142608333
L120276190 142275000
" />
<path d="M120752380 142036904
L119752380 142036904
L119752380 142417857
L119800000 142513095
L119847619 142560714
L119942857 142608333
L120085714 142608333
L120180952 142560714
L120228571 142513095
L120276190 142417857
L120276190 142036904
" />
<path d="M119847619 142989285
L119800000 143036904
L119752380 143132142
L119752380 143370238
L119800000 143465476
L119847619 143513095
L119942857 143560714
L120038095 143560714
L120180952 143513095
L120752380 142941666
L120752380 143560714
" />
</g><g transform="rotate(-90.000000 121695000.000000 148632500.000000)">
<text x="121695000.000000" y="149132500.000000"
transform="scale(-1 1) translate(-243390000.000000 0)"
textLength="2709762.000000" font-size="1333333.000000" lengthAdjust="spacingAndGlyphs"
text-anchor="middle" opacity="0">R18</text>
</g>
<g class="stroked-text"><desc>R18</desc>
<path d="M122147380 147989642
L121671190 147656309
" />
<path d="M122147380 147418214
L121147380 147418214
L121147380 147799166
L121195000 147894404
L121242619 147942023
L121337857 147989642
L121480714 147989642
L121575952 147942023
L121623571 147894404
L121671190 147799166
L121671190 147418214
" />
<path d="M122147380 148942023
L122147380 148370595
" />
<path d="M122147380 148656309
L121147380 148656309
L121290238 148561071
L121385476 148465833
L121433095 148370595
" />
<path d="M121575952 149513452
L121528333 149418214
L121480714 149370595
L121385476 149322976
L121337857 149322976
L121242619 149370595
L121195000 149418214
L121147380 149513452
L121147380 149703928
L121195000 149799166
L121242619 149846785
L121337857 149894404
L121385476 149894404
L121480714 149846785
L121528333 149799166
L121575952 149703928
L121575952 149513452
L121623571 149418214
L121671190 149370595
L121766428 149322976
L121956904 149322976
L122052142 149370595
L122099761 149418214
L122147380 149513452
L122147380 149703928
L122099761 149799166
L122052142 149846785
L121956904 149894404
L121766428 149894404
L121671190 149846785
L121623571 149799166
L121575952 149703928
" />
</g><g transform="rotate(-90.000000 117225000.000000 149238000.000000)">
<text x="117225000.000000" y="149738000.000000"
transform="scale(-1 1) translate(-234450000.000000 0)"
textLength="1757381.000000" font-size="1333333.000000" lengthAdjust="spacingAndGlyphs"
text-anchor="middle" opacity="0">C5</text>
</g>
<g class="stroked-text"><desc>C5</desc>
<path d="M117582142 149071333
L117629761 149023714
L117677380 148880857
L117677380 148785619
L117629761 148642761
L117534523 148547523
L117439285 148499904
L117248809 148452285
L117105952 148452285
L116915476 148499904
L116820238 148547523
L116725000 148642761
L116677380 148785619
L116677380 148880857
L116725000 149023714
L116772619 149071333
" />
<path d="M116677380 149976095
L116677380 149499904
L117153571 149452285
L117105952 149499904
L117058333 149595142
L117058333 149833238
L117105952 149928476
L117153571 149976095
L117248809 150023714
L117486904 150023714
L117582142 149976095
L117629761 149928476
L117677380 149833238
L117677380 149595142
L117629761 149499904
L117582142 149452285
" />
</g><g transform="rotate(-90.000000 123315000.000000 149240000.000000)">
<text x="123315000.000000" y="149740000.000000"
transform="scale(-1 1) translate(-246630000.000000 0)"
textLength="1757381.000000" font-size="1333333.000000" lengthAdjust="spacingAndGlyphs"
text-anchor="middle" opacity="0">R4</text>
</g>
<g class="stroked-text"><desc>R4</desc>
<path d="M123767380 149073333
L123291190 148740000
" />
<path d="M123767380 148501904
L122767380 148501904
L122767380 148882857
L122815000 148978095
L122862619 149025714
L122957857 149073333
L123100714 149073333
L123195952 149025714
L123243571 148978095
L123291190 148882857
L123291190 148501904
" />
<path d="M123100714 149930476
L123767380 149930476
" />
<path d="M122719761 149692380
L123434047 149454285
L123434047 150073333
" />
</g><g transform="rotate(-90.000000 140300000.000000 77590000.000000)">
<text x="140300000.000000" y="78090000.000000"
transform="scale(-1 1) translate(-280600000.000000 0)"
textLength="2709762.000000" font-size="1333333.000000" lengthAdjust="spacingAndGlyphs"
text-anchor="middle" opacity="0">R21</text>
</g>
<g class="stroked-text"><desc>R21</desc>
<path d="M140752380 76947142
L140276190 76613809
" />
<path d="M140752380 76375714
L139752380 76375714
L139752380 76756666
L139800000 76851904
L139847619 76899523
L139942857 76947142
L140085714 76947142
L140180952 76899523
L140228571 76851904
L140276190 76756666
L140276190 76375714
" />
<path d="M139847619 77328095
L139800000 77375714
L139752380 77470952
L139752380 77709047
L139800000 77804285
L139847619 77851904
L139942857 77899523
L140038095 77899523
L140180952 77851904
L140752380 77280476
L140752380 77899523
" />
<path d="M140752380 78851904
L140752380 78280476
" />
<path d="M140752380 78566190
L139752380 78566190
L139895238 78470952
L139990476 78375714
L140038095 78280476
" />
</g><g transform="rotate(-90.000000 115665000.000000 149220000.000000)">
<text x="115665000.000000" y="149720000.000000"
transform="scale(-1 1) translate(-231330000.000000 0)"
textLength="1757381.000000" font-size="1333333.000000" lengthAdjust="spacingAndGlyphs"
text-anchor="middle" opacity="0">R1</text>
</g>
<g class="stroked-text"><desc>R1</desc>
<path d="M116117380 149053333
L115641190 148720000
" />
<path d="M116117380 148481904
L115117380 148481904
L115117380 148862857
L115165000 148958095
L115212619 149005714
L115307857 149053333
L115450714 149053333
L115545952 149005714
L115593571 148958095
L115641190 148862857
L115641190 148481904
" />
<path d="M116117380 150005714
L116117380 149434285
" />
<path d="M116117380 149720000
L115117380 149720000
L115260238 149624761
L115355476 149529523
L115403095 149434285
" />
</g><g transform="rotate(-90.000000 126330000.000000 149300000.000000)">
<text x="126330000.000000" y="149800000.000000"
transform="scale(-1 1) translate(-252660000.000000 0)"
textLength="1757381.000000" font-size="1333333.000000" lengthAdjust="spacingAndGlyphs"
text-anchor="middle" opacity="0">R9</text>
</g>
<g class="stroked-text"><desc>R9</desc>
<path d="M126782380 149133333
L126306190 148800000
" />
<path d="M126782380 148561904
L125782380 148561904
L125782380 148942857
L125830000 149038095
L125877619 149085714
L125972857 149133333
L126115714 149133333
L126210952 149085714
L126258571 149038095
L126306190 148942857
L126306190 148561904
" />
<path d="M126782380 149609523
L126782380 149800000
L126734761 149895238
L126687142 149942857
L126544285 150038095
L126353809 150085714
L125972857 150085714
L125877619 150038095
L125830000 149990476
L125782380 149895238
L125782380 149704761
L125830000 149609523
L125877619 149561904
L125972857 149514285
L126210952 149514285
L126306190 149561904
L126353809 149609523
L126401428 149704761
L126401428 149895238
L126353809 149990476
L126306190 150038095
L126210952 150085714
" />
</g><g transform="rotate(-90.000000 141910000.000000 83372500.000000)">
<text x="141910000.000000" y="83872500.000000"
transform="scale(-1 1) translate(-283820000.000000 0)"
textLength="2709762.000000" font-size="1333333.000000" lengthAdjust="spacingAndGlyphs"
text-anchor="middle" opacity="0">R20</text>
</g>
<g class="stroked-text"><desc>R20</desc>
<path d="M142362380 82729642
L141886190 82396309
" />
<path d="M142362380 82158214
L141362380 82158214
L141362380 82539166
L141410000 82634404
L141457619 82682023
L141552857 82729642
L141695714 82729642
L141790952 82682023
L141838571 82634404
L141886190 82539166
L141886190 82158214
" />
<path d="M141457619 83110595
L141410000 83158214
L141362380 83253452
L141362380 83491547
L141410000 83586785
L141457619 83634404
L141552857 83682023
L141648095 83682023
L141790952 83634404
L142362380 83062976
L142362380 83682023
" />
<path d="M141362380 84301071
L141362380 84396309
L141410000 84491547
L141457619 84539166
L141552857 84586785
L141743333 84634404
L141981428 84634404
L142171904 84586785
L142267142 84539166
L142314761 84491547
L142362380 84396309
L142362380 84301071
L142314761 84205833
L142267142 84158214
L142171904 84110595
L141981428 84062976
L141743333 84062976
L141552857 84110595
L141457619 84158214
L141410000 84205833
L141362380 84301071
" />
</g><g transform="rotate(-90.000000 140555000.000000 95950000.000000)">
<text x="140555000.000000" y="96450000.000000"
transform="scale(-1 1) translate(-281110000.000000 0)"
textLength="2709762.000000" font-size="1333333.000000" lengthAdjust="spacingAndGlyphs"
text-anchor="middle" opacity="0">C21</text>
</g>
<g class="stroked-text"><desc>C21</desc>
<path d="M140912142 95307142
L140959761 95259523
L141007380 95116666
L141007380 95021428
L140959761 94878571
L140864523 94783333
L140769285 94735714
L140578809 94688095
L140435952 94688095
L140245476 94735714
L140150238 94783333
L140055000 94878571
L140007380 95021428
L140007380 95116666
L140055000 95259523
L140102619 95307142
" />
<path d="M140102619 95688095
L140055000 95735714
L140007380 95830952
L140007380 96069047
L140055000 96164285
L140102619 96211904
L140197857 96259523
L140293095 96259523
L140435952 96211904
L141007380 95640476
L141007380 96259523
" />
<path d="M141007380 97211904
L141007380 96640476
" />
<path d="M141007380 96926190
L140007380 96926190
L140150238 96830952
L140245476 96735714
L140293095 96640476
" />
</g><g transform="rotate(-90.000000 157350000.000000 102700000.000000)">
<text x="157350000.000000" y="103200000.000000"
transform="scale(-1 1) translate(-314700000.000000 0)"
textLength="1757381.000000" font-size="1333333.000000" lengthAdjust="spacingAndGlyphs"
text-anchor="middle" opacity="0">C9</text>
</g>
<g class="stroked-text"><desc>C9</desc>
<path d="M157707142 102533333
L157754761 102485714
L157802380 102342857
L157802380 102247619
L157754761 102104761
L157659523 102009523
L157564285 101961904
L157373809 101914285
L157230952 101914285
L157040476 101961904
L156945238 102009523
L156850000 102104761
L156802380 102247619
L156802380 102342857
L156850000 102485714
L156897619 102533333
" />
<path d="M157802380 103009523
L157802380 103200000
L157754761 103295238
L157707142 103342857
L157564285 103438095
L157373809 103485714
L156992857 103485714
L156897619 103438095
L156850000 103390476
L156802380 103295238
L156802380 103104761
L156850000 103009523
L156897619 102961904
L156992857 102914285
L157230952 102914285
L157326190 102961904
L157373809 103009523
L157421428 103104761
L157421428 103295238
L157373809 103390476
L157326190 103438095
L157230952 103485714
" />
</g><g transform="rotate(-90.000000 112500000.000000 88975000.000000)">
<text x="112500000.000000" y="89475000.000000"
transform="scale(-1 1) translate(-225000000.000000 0)"
textLength="2709762.000000" font-size="1333333.000000" lengthAdjust="spacingAndGlyphs"
text-anchor="middle" opacity="0">R16</text>
</g>
<g class="stroked-text"><desc>R16</desc>
<path d="M112952380 88332142
L112476190 87998809
" />
<path d="M112952380 87760714
L111952380 87760714
L111952380 88141666
L112000000 88236904
L112047619 88284523
L112142857 88332142
L112285714 88332142
L112380952 88284523
L112428571 88236904
L112476190 88141666
L112476190 87760714
" />
<path d="M112952380 89284523
L112952380 88713095
" />
<path d="M112952380 88998809
L111952380 88998809
L112095238 88903571
L112190476 88808333
L112238095 88713095
" />
<path d="M111952380 90141666
L111952380 89951190
L112000000 89855952
L112047619 89808333
L112190476 89713095
L112380952 89665476
L112761904 89665476
L112857142 89713095
L112904761 89760714
L112952380 89855952
L112952380 90046428
L112904761 90141666
L112857142 90189285
L112761904 90236904
L112523809 90236904
L112428571 90189285
L112380952 90141666
L112333333 90046428
L112333333 89855952
L112380952 89760714
L112428571 89713095
L112523809 89665476
" />
</g><g transform="rotate(-90.000000 128030000.000000 87240000.000000)">
<text x="128030000.000000" y="87740000.000000"
transform="scale(-1 1) translate(-256060000.000000 0)"
textLength="1757381.000000" font-size="1333333.000000" lengthAdjust="spacingAndGlyphs"
text-anchor="middle" opacity="0">C7</text>
</g>
<g class="stroked-text"><desc>C7</desc>
<path d="M128387142 87073333
L128434761 87025714
L128482380 86882857
L128482380 86787619
L128434761 86644761
L128339523 86549523
L128244285 86501904
L128053809 86454285
L127910952 86454285
L127720476 86501904
L127625238 86549523
L127530000 86644761
L127482380 86787619
L127482380 86882857
L127530000 87025714
L127577619 87073333
" />
<path d="M127482380 87406666
L127482380 88073333
L128482380 87644761
" />
</g><g transform="rotate(-90.000000 142075000.000000 104975000.000000)">
<text x="142075000.000000" y="105475000.000000"
transform="scale(-1 1) translate(-284150000.000000 0)"
textLength="1757381.000000" font-size="1333333.000000" lengthAdjust="spacingAndGlyphs"
text-anchor="middle" opacity="0">R7</text>
</g>
<g class="stroked-text"><desc>R7</desc>
<path d="M142527380 104808333
L142051190 104475000
" />
<path d="M142527380 104236904
L141527380 104236904
L141527380 104617857
L141575000 104713095
L141622619 104760714
L141717857 104808333
L141860714 104808333
L141955952 104760714
L142003571 104713095
L142051190 104617857
L142051190 104236904
" />
<path d="M141527380 105141666
L141527380 105808333
L142527380 105379761
" />
</g><g transform="rotate(-90.000000 155800000.000000 102712500.000000)">
<text x="155800000.000000" y="103212500.000000"
transform="scale(-1 1) translate(-311600000.000000 0)"
textLength="1757381.000000" font-size="1333333.000000" lengthAdjust="spacingAndGlyphs"
text-anchor="middle" opacity="0">C8</text>
</g>
<g class="stroked-text"><desc>C8</desc>
<path d="M156157142 102545833
L156204761 102498214
L156252380 102355357
L156252380 102260119
L156204761 102117261
L156109523 102022023
L156014285 101974404
L155823809 101926785
L155680952 101926785
L155490476 101974404
L155395238 102022023
L155300000 102117261
L155252380 102260119
L155252380 102355357
L155300000 102498214
L155347619 102545833
" />
<path d="M155680952 103117261
L155633333 103022023
L155585714 102974404
L155490476 102926785
L155442857 102926785
L155347619 102974404
L155300000 103022023
L155252380 103117261
L155252380 103307738
L155300000 103402976
L155347619 103450595
L155442857 103498214
L155490476 103498214
L155585714 103450595
L155633333 103402976
L155680952 103307738
L155680952 103117261
L155728571 103022023
L155776190 102974404
L155871428 102926785
L156061904 102926785
L156157142 102974404
L156204761 103022023
L156252380 103117261
L156252380 103307738
L156204761 103402976
L156157142 103450595
L156061904 103498214
L155871428 103498214
L155776190 103450595
L155728571 103402976
L155680952 103307738
" />
</g><g transform="rotate(-90.000000 146575000.000000 70687500.000000)">
<text x="146575000.000000" y="71187500.000000"
transform="scale(-1 1) translate(-293150000.000000 0)"
textLength="2709762.000000" font-size="1333333.000000" lengthAdjust="spacingAndGlyphs"
text-anchor="middle" opacity="0">R12</text>
</g>
<g class="stroked-text"><desc>R12</desc>
<path d="M147027380 70044642
L146551190 69711309
" />
<path d="M147027380 69473214
L146027380 69473214
L146027380 69854166
L146075000 69949404
L146122619 69997023
L146217857 70044642
L146360714 70044642
L146455952 69997023
L146503571 69949404
L146551190 69854166
L146551190 69473214
" />
<path d="M147027380 70997023
L147027380 70425595
" />
<path d="M147027380 70711309
L146027380 70711309
L146170238 70616071
L146265476 70520833
L146313095 70425595
" />
<path d="M146122619 71377976
L146075000 71425595
L146027380 71520833
L146027380 71758928
L146075000 71854166
L146122619 71901785
L146217857 71949404
L146313095 71949404
L146455952 71901785
L147027380 71330357
L147027380 71949404
" />
</g><text x="149000000.000000" y="96400000.000000"
transform="scale(-1 1) translate(-298000000.000000 0)"
textLength="1805000.000000" font-size="1333333.000000" lengthAdjust="spacingAndGlyphs"
text-anchor="middle" opacity="0">U2</text>
<g class="stroked-text"><desc>U2</desc>
<path d="M149761904 95352380
L149761904 96161904
L149714285 96257142
L149666666 96304761
L149571428 96352380
L149380952 96352380
L149285714 96304761
L149238095 96257142
L149190476 96161904
L149190476 95352380
" />
<path d="M148761904 95447619
L148714285 95400000
L148619047 95352380
L148380952 95352380
L148285714 95400000
L148238095 95447619
L148190476 95542857
L148190476 95638095
L148238095 95780952
L148809523 96352380
L148190476 96352380
" />
</g><g transform="rotate(-90.000000 153316000.000000 70346000.000000)">
<text x="153316000.000000" y="70846000.000000"
transform="scale(-1 1) translate(-306632000.000000 0)"
textLength="2709762.000000" font-size="1333333.000000" lengthAdjust="spacingAndGlyphs"
text-anchor="middle" opacity="0">C18</text>
</g>
<g class="stroked-text"><desc>C18</desc>
<path d="M153673142 69703142
L153720761 69655523
L153768380 69512666
L153768380 69417428
L153720761 69274571
L153625523 69179333
L153530285 69131714
L153339809 69084095
L153196952 69084095
L153006476 69131714
L152911238 69179333
L152816000 69274571
L152768380 69417428
L152768380 69512666
L152816000 69655523
L152863619 69703142
" />
<path d="M153768380 70655523
L153768380 70084095
" />
<path d="M153768380 70369809
L152768380 70369809
L152911238 70274571
L153006476 70179333
L153054095 70084095
" />
<path d="M153196952 71226952
L153149333 71131714
L153101714 71084095
L153006476 71036476
L152958857 71036476
L152863619 71084095
L152816000 71131714
L152768380 71226952
L152768380 71417428
L152816000 71512666
L152863619 71560285
L152958857 71607904
L153006476 71607904
L153101714 71560285
L153149333 71512666
L153196952 71417428
L153196952 71226952
L153244571 71131714
L153292190 71084095
L153387428 71036476
L153577904 71036476
L153673142 71084095
L153720761 71131714
L153768380 71226952
L153768380 71417428
L153720761 71512666
L153673142 71560285
L153577904 71607904
L153387428 71607904
L153292190 71560285
L153244571 71512666
L153196952 71417428
" />
</g><text x="146400000.000000" y="78695000.000000"
transform="scale(-1 1) translate(-292800000.000000 0)"
textLength="1805000.000000" font-size="1333333.000000" lengthAdjust="spacingAndGlyphs"
text-anchor="middle" opacity="0">U1</text>
<g class="stroked-text"><desc>U1</desc>
<path d="M147161904 77647380
L147161904 78456904
L147114285 78552142
L147066666 78599761
L146971428 78647380
L146780952 78647380
L146685714 78599761
L146638095 78552142
L146590476 78456904
L146590476 77647380
" />
<path d="M145590476 78647380
L146161904 78647380
" />
<path d="M145876190 78647380
L145876190 77647380
L145971428 77790238
L146066666 77885476
L146161904 77933095
" />
</g><g transform="rotate(-90.000000 123400000.000000 142400000.000000)">
<text x="123400000.000000" y="142900000.000000"
transform="scale(-1 1) translate(-246800000.000000 0)"
textLength="2709762.000000" font-size="1333333.000000" lengthAdjust="spacingAndGlyphs"
text-anchor="middle" opacity="0">C12</text>
</g>
<g class="stroked-text"><desc>C12</desc>
<path d="M123757142 141757142
L123804761 141709523
L123852380 141566666
L123852380 141471428
L123804761 141328571
L123709523 141233333
L123614285 141185714
L123423809 141138095
L123280952 141138095
L123090476 141185714
L122995238 141233333
L122900000 141328571
L122852380 141471428
L122852380 141566666
L122900000 141709523
L122947619 141757142
" />
<path d="M123852380 142709523
L123852380 142138095
" />
<path d="M123852380 142423809
L122852380 142423809
L122995238 142328571
L123090476 142233333
L123138095 142138095
" />
<path d="M122947619 143090476
L122900000 143138095
L122852380 143233333
L122852380 143471428
L122900000 143566666
L122947619 143614285
L123042857 143661904
L123138095 143661904
L123280952 143614285
L123852380 143042857
L123852380 143661904
" />
</g><g transform="rotate(-90.000000 155730000.000000 98220000.000000)">
<text x="155730000.000000" y="98720000.000000"
transform="scale(-1 1) translate(-311460000.000000 0)"
textLength="2709762.000000" font-size="1333333.000000" lengthAdjust="spacingAndGlyphs"
text-anchor="middle" opacity="0">C17</text>
</g>
<g class="stroked-text"><desc>C17</desc>
<path d="M156087142 97577142
L156134761 97529523
L156182380 97386666
L156182380 97291428
L156134761 97148571
L156039523 97053333
L155944285 97005714
L155753809 96958095
L155610952 96958095
L155420476 97005714
L155325238 97053333
L155230000 97148571
L155182380 97291428
L155182380 97386666
L155230000 97529523
L155277619 97577142
" />
<path d="M156182380 98529523
L156182380 97958095
" />
<path d="M156182380 98243809
L155182380 98243809
L155325238 98148571
L155420476 98053333
L155468095 97958095
" />
<path d="M155182380 98862857
L155182380 99529523
L156182380 99100952
" />
</g><g transform="rotate(-90.000000 122100000.000000 111800000.000000)">
<text x="122100000.000000" y="112300000.000000"
transform="scale(-1 1) translate(-244200000.000000 0)"
textLength="2709762.000000" font-size="1333333.000000" lengthAdjust="spacingAndGlyphs"
text-anchor="middle" opacity="0">C16</text>
</g>
<g class="stroked-text"><desc>C16</desc>
<path d="M122457142 111157142
L122504761 111109523
L122552380 110966666
L122552380 110871428
L122504761 110728571
L122409523 110633333
L122314285 110585714
L122123809 110538095
L121980952 110538095
L121790476 110585714
L121695238 110633333
L121600000 110728571
L121552380 110871428
L121552380 110966666
L121600000 111109523
L121647619 111157142
" />
<path d="M122552380 112109523
L122552380 111538095
" />
<path d="M122552380 111823809
L121552380 111823809
L121695238 111728571
L121790476 111633333
L121838095 111538095
" />
<path d="M121552380 112966666
L121552380 112776190
L121600000 112680952
L121647619 112633333
L121790476 112538095
L121980952 112490476
L122361904 112490476
L122457142 112538095
L122504761 112585714
L122552380 112680952
L122552380 112871428
L122504761 112966666
L122457142 113014285
L122361904 113061904
L122123809 113061904
L122028571 113014285
L121980952 112966666
L121933333 112871428
L121933333 112680952
L121980952 112585714
L122028571 112538095
L122123809 112490476
" />
</g><g transform="rotate(-90.000000 145000000.000000 70700000.000000)">
<text x="145000000.000000" y="71200000.000000"
transform="scale(-1 1) translate(-290000000.000000 0)"
textLength="2709762.000000" font-size="1333333.000000" lengthAdjust="spacingAndGlyphs"
text-anchor="middle" opacity="0">C15</text>
</g>
<g class="stroked-text"><desc>C15</desc>
<path d="M145357142 70057142
L145404761 70009523
L145452380 69866666
L145452380 69771428
L145404761 69628571
L145309523 69533333
L145214285 69485714
L145023809 69438095
L144880952 69438095
L144690476 69485714
L144595238 69533333
L144500000 69628571
L144452380 69771428
L144452380 69866666
L144500000 70009523
L144547619 70057142
" />
<path d="M145452380 71009523
L145452380 70438095
" />
<path d="M145452380 70723809
L144452380 70723809
L144595238 70628571
L144690476 70533333
L144738095 70438095
" />
<path d="M144452380 71914285
L144452380 71438095
L144928571 71390476
L144880952 71438095
L144833333 71533333
L144833333 71771428
L144880952 71866666
L144928571 71914285
L145023809 71961904
L145261904 71961904
L145357142 71914285
L145404761 71866666
L145452380 71771428
L145452380 71533333
L145404761 71438095
L145357142 71390476
" />
</g><g transform="rotate(-90.000000 149730000.000000 70700000.000000)">
<text x="149730000.000000" y="71200000.000000"
transform="scale(-1 1) translate(-299460000.000000 0)"
textLength="2709762.000000" font-size="1333333.000000" lengthAdjust="spacingAndGlyphs"
text-anchor="middle" opacity="0">R15</text>
</g>
<g class="stroked-text"><desc>R15</desc>
<path d="M150182380 70057142
L149706190 69723809
" />
<path d="M150182380 69485714
L149182380 69485714
L149182380 69866666
L149230000 69961904
L149277619 70009523
L149372857 70057142
L149515714 70057142
L149610952 70009523
L149658571 69961904
L149706190 69866666
L149706190 69485714
" />
<path d="M150182380 71009523
L150182380 70438095
" />
<path d="M150182380 70723809
L149182380 70723809
L149325238 70628571
L149420476 70533333
L149468095 70438095
" />
<path d="M149182380 71914285
L149182380 71438095
L149658571 71390476
L149610952 71438095
L149563333 71533333
L149563333 71771428
L149610952 71866666
L149658571 71914285
L149753809 71961904
L149991904 71961904
L150087142 71914285
L150134761 71866666
L150182380 71771428
L150182380 71533333
L150134761 71438095
L150087142 71390476
" />
</g><g transform="rotate(-90.000000 152524000.000000 84000000.000000)">
<text x="152524000.000000" y="84500000.000000"
transform="scale(-1 1) translate(-305048000.000000 0)"
textLength="2709762.000000" font-size="1333333.000000" lengthAdjust="spacingAndGlyphs"
text-anchor="middle" opacity="0">C14</text>
</g>
<g class="stroked-text"><desc>C14</desc>
<path d="M152881142 83357142
L152928761 83309523
L152976380 83166666
L152976380 83071428
L152928761 82928571
L152833523 82833333
L152738285 82785714
L152547809 82738095
L152404952 82738095
L152214476 82785714
L152119238 82833333
L152024000 82928571
L151976380 83071428
L151976380 83166666
L152024000 83309523
L152071619 83357142
" />
<path d="M152976380 84309523
L152976380 83738095
" />
<path d="M152976380 84023809
L151976380 84023809
L152119238 83928571
L152214476 83833333
L152262095 83738095
" />
<path d="M152309714 85166666
L152976380 85166666
" />
<path d="M151928761 84928571
L152643047 84690476
L152643047 85309523
" />
</g><g transform="rotate(-90.000000 120500000.000000 111300000.000000)">
<text x="120500000.000000" y="111800000.000000"
transform="scale(-1 1) translate(-241000000.000000 0)"
textLength="1757381.000000" font-size="1333333.000000" lengthAdjust="spacingAndGlyphs"
text-anchor="middle" opacity="0">R8</text>
</g>
<g class="stroked-text"><desc>R8</desc>
<path d="M120952380 111133333
L120476190 110800000
" />
<path d="M120952380 110561904
L119952380 110561904
L119952380 110942857
L120000000 111038095
L120047619 111085714
L120142857 111133333
L120285714 111133333
L120380952 111085714
L120428571 111038095
L120476190 110942857
L120476190 110561904
" />
<path d="M120380952 111704761
L120333333 111609523
L120285714 111561904
L120190476 111514285
L120142857 111514285
L120047619 111561904
L120000000 111609523
L119952380 111704761
L119952380 111895238
L120000000 111990476
L120047619 112038095
L120142857 112085714
L120190476 112085714
L120285714 112038095
L120333333 111990476
L120380952 111895238
L120380952 111704761
L120428571 111609523
L120476190 111561904
L120571428 111514285
L120761904 111514285
L120857142 111561904
L120904761 111609523
L120952380 111704761
L120952380 111895238
L120904761 111990476
L120857142 112038095
L120761904 112085714
L120571428 112085714
L120476190 112038095
L120428571 111990476
L120380952 111895238
" />
</g><g transform="rotate(-90.000000 143400000.000000 70700000.000000)">
<text x="143400000.000000" y="71200000.000000"
transform="scale(-1 1) translate(-286800000.000000 0)"
textLength="2709762.000000" font-size="1333333.000000" lengthAdjust="spacingAndGlyphs"
text-anchor="middle" opacity="0">R13</text>
</g>
<g class="stroked-text"><desc>R13</desc>
<path d="M143852380 70057142
L143376190 69723809
" />
<path d="M143852380 69485714
L142852380 69485714
L142852380 69866666
L142900000 69961904
L142947619 70009523
L143042857 70057142
L143185714 70057142
L143280952 70009523
L143328571 69961904
L143376190 69866666
L143376190 69485714
" />
<path d="M143852380 71009523
L143852380 70438095
" />
<path d="M143852380 70723809
L142852380 70723809
L142995238 70628571
L143090476 70533333
L143138095 70438095
" />
<path d="M142852380 71342857
L142852380 71961904
L143233333 71628571
L143233333 71771428
L143280952 71866666
L143328571 71914285
L143423809 71961904
L143661904 71961904
L143757142 71914285
L143804761 71866666
L143852380 71771428
L143852380 71485714
L143804761 71390476
L143757142 71342857
" />
</g></g>
<g style="fill:#000000; fill-opacity:0.0; 
stroke:#000000; stroke-width:120000.000000; stroke-opacity:1; 
stroke-linecap:round; stroke-linejoin:round;">
<path d="M141072500 102070276
L141072500 102579724
" />
<path d="M140027500 102070276
L140027500 102579724
" />
<path d="M142310000 80453733
L142310000 80746267
" />
<path d="M141290000 80453733
L141290000 80746267
" />
<path d="M119742500 151555276
L119742500 152064724
" />
<path d="M120787500 151555276
L120787500 152064724
" />
<path d="M142585000 98753733
L142585000 99046267
" />
<path d="M141565000 98753733
L141565000 99046267
" />
<path d="M118212500 151545276
L118212500 152054724
" />
<path d="M119257500 151545276
L119257500 152054724
" />
<path d="M114360000 138270000
L114360000 138114000
" />
<path d="M114360000 140586000
L114360000 140430000
" />
<path d="M117592335.090817 138271391.941426 A1990000.000000 1990000.000000 0.0 0 0 114359999.957900 138114483.966657" />
<path d="M116961130.087115 138270162.909646 A1500000.000000 1500000.000000 0.0 0 0 114879038.954550 138269999.952845" />
<path d="M114359999.957900 140585516.033343 A1990000.000000 1990000.000000 0.0 0 0 117592335.090817 140428608.058574" />
<path d="M114879038.954550 140430000.047155 A1500000.000000 1500000.000000 0.0 0 0 116961130.087115 140429837.090354" />
<path d="M140828733 83985000
L141121267 83985000
" />
<path d="M140828733 82965000
L141121267 82965000
" />
<path d="M139877500 86654724
L139877500 86145276
" />
<path d="M140922500 86654724
L140922500 86145276
" />
<path d="M125357500 151575276
L125357500 152084724
" />
<path d="M124312500 151575276
L124312500 152084724
" />
<path d="M151510000 80453733
L151510000 80746267
" />
<path d="M150490000 80453733
L150490000 80746267
" />
<path d="M120525000 131070000
L120525000 120830000
" />
<path d="M120525000 124099000
L119015000 124099000
" />
<path d="M119015000 131070000
L119015000 120830000
" />
<path d="M115884000 131070000
L115884000 120830000
" />
<path d="M120525000 131070000
L115884000 131070000
" />
<path d="M120525000 120830000
L115884000 120830000
" />
<path d="M120525000 127800000
L119015000 127800000
" />
<path d="M114560000 92208767
L114560000 91916233
" />
<path d="M113540000 92208767
L113540000 91916233
" />
<path d="M144110000 105846267
L144110000 105553733
" />
<path d="M143090000 105846267
L143090000 105553733
" />
<path d="M154772500 105367224
L154772500 104857776
" />
<path d="M153727500 105367224
L153727500 104857776
" />
<path d="M147590000 73653733
L147590000 73946267
" />
<path d="M148610000 73653733
L148610000 73946267
" />
<path d="M122397500 145717224
L122397500 145207776
" />
<path d="M121352500 145717224
L121352500 145207776
" />
<path d="M115430000 127773767
L115430000 127481233
" />
<path d="M114410000 127773767
L114410000 127481233
" />
<path d="M128967500 122410000
L122467500 122410000
" />
</g>
<g style="fill:#000000; fill-opacity:1.0; 
stroke:#000000; stroke-width:1.000000; stroke-opacity:1; 
stroke-linecap:round; stroke-linejoin:round;">
<circle cx="122467500.000000" cy="129350000.000000" r="60000.000000" /> 
</g>
<g style="fill:#000000; fill-opacity:1.0; 
stroke:#000000; stroke-width:120000.000000; stroke-opacity:1; 
stroke-linecap:round; stroke-linejoin:round;">
</g>
<g style="fill:#000000; fill-opacity:0.0; 
stroke:#000000; stroke-width:120000.000000; stroke-opacity:1; 
stroke-linecap:round; stroke-linejoin:round;">
<path d="M128967500 140390000
L128967500 122410000
" />
<path d="M121157500 133450000
L122467500 133450000
" />
<path d="M122467500 122410000
L122467500 129350000
" />
<path d="M121157500 141690000
L130277500 141690000
" />
<path d="M119767500 136980000
L119767500 135980000
" />
<path d="M122467500 140390000
L128967500 140390000
" />
<path d="M130277500 141690000
L130277500 121110000
" />
<path d="M121157500 121110000
L121157500 141690000
" />
<path d="M122467500 129350000
L121157500 129350000
" />
<path d="M120767500 136480000
L119767500 136980000
" />
<path d="M130277500 121110000
L121157500 121110000
" />
<path d="M122467500 133450000
L122467500 140390000
" />
<path d="M119767500 135980000
L120767500 136480000
" />
<path d="M119422500 108445276
L119422500 108954724
" />
<path d="M118377500 108445276
L118377500 108954724
" />
<path d="M144110000 102471267
L144110000 102178733
" />
<path d="M143090000 102471267
L143090000 102178733
" />
<path d="M119802500 145729724
L119802500 145220276
" />
<path d="M120847500 145729724
L120847500 145220276
" />
<path d="M122317500 151565276
L122317500 152074724
" />
<path d="M121272500 151565276
L121272500 152074724
" />
<path d="M117715000 151653733
L117715000 151946267
" />
<path d="M116695000 151653733
L116695000 151946267
" />
<path d="M123837500 152074724
L123837500 151565276
" />
<path d="M122792500 152074724
L122792500 151565276
" />
<path d="M140822500 80854724
L140822500 80345276
" />
<path d="M139777500 80854724
L139777500 80345276
" />
<path d="M115152500 151545276
L115152500 152054724
" />
<path d="M116197500 151545276
L116197500 152054724
" />
<path d="M126872500 152104724
L126872500 151595276
" />
<path d="M125827500 152104724
L125827500 151595276
" />
<path d="M142422500 86145276
L142422500 86654724
" />
<path d="M141377500 86145276
L141377500 86654724
" />
<path d="M140045000 99046267
L140045000 98753733
" />
<path d="M141065000 99046267
L141065000 98753733
" />
<path d="M157860000 104953733
L157860000 105246267
" />
<path d="M156840000 104953733
L156840000 105246267
" />
<path d="M113047500 91820276
L113047500 92329724
" />
<path d="M112002500 91820276
L112002500 92329724
" />
<path d="M126729437 93910000
L126865000 93910000
" />
<path d="M130185000 92845563
L130185000 89390000
" />
<path d="M129485000 94650000
L129485000 94150000
" />
<path d="M130185000 89390000
L128985000 89390000
" />
<path d="M129120563 93910000
L130185000 92845563
" />
<path d="M126729437 93910000
L125665000 92845563
" />
<path d="M125665000 92845563
L125665000 89390000
" />
<path d="M129735000 94400000
L129235000 94400000
" />
<path d="M125665000 89390000
L126865000 89390000
" />
<path d="M129120563 93910000
L128985000 93910000
" />
<path d="M142597500 102579724
L142597500 102070276
" />
<path d="M141552500 102579724
L141552500 102070276
" />
<path d="M155290000 104966233
L155290000 105258767
" />
<path d="M156310000 104966233
L156310000 105258767
" />
<path d="M147097500 73532776
L147097500 74042224
" />
<path d="M146052500 73532776
L146052500 74042224
" />
<path d="M151385000 96740000
L151385000 96995000
" />
<path d="M151385000 107260000
L151385000 107005000
" />
<path d="M149000000 96740000
L146615000 96740000
" />
<path d="M149000000 107260000
L151385000 107260000
" />
<path d="M151385000 96995000
L153050000 96995000
" />
<path d="M146615000 107260000
L146615000 107005000
" />
<path d="M149000000 107260000
L146615000 107260000
" />
<path d="M146615000 96740000
L146615000 96995000
" />
<path d="M149000000 96740000
L151385000 96740000
" />
<path d="M154495563 73040000
L155560000 74104437
" />
<path d="M154495563 73040000
L154360000 73040000
" />
<path d="M151040000 74104437
L151040000 77560000
" />
<path d="M151490000 72550000
L151990000 72550000
" />
<path d="M151040000 77560000
L152240000 77560000
" />
<path d="M152104437 73040000
L151040000 74104437
" />
<path d="M152104437 73040000
L152240000 73040000
" />
<path d="M151740000 72300000
L151740000 72800000
" />
<path d="M155560000 77560000
L154360000 77560000
" />
<path d="M155560000 74104437
L155560000 77560000
" />
<path d="M146400000 79040000
L144450000 79040000
" />
<path d="M146400000 87910000
L148350000 87910000
" />
<path d="M146400000 87910000
L144450000 87910000
" />
<path d="M146400000 79040000
L149850000 79040000
" />
<path d="M122965000 145608767
L122965000 145316233
" />
<path d="M123985000 145608767
L123985000 145316233
" />
<path d="M154750000 98093733
L154750000 98386267
" />
<path d="M153730000 98093733
L153730000 98386267
" />
<path d="M121590000 108553733
L121590000 108846267
" />
<path d="M122610000 108553733
L122610000 108846267
" />
<path d="M144490000 73653733
L144490000 73946267
" />
<path d="M145510000 73653733
L145510000 73946267
" />
<path d="M150222500 73545276
L150222500 74054724
" />
<path d="M149177500 73545276
L149177500 74054724
" />
<path d="M151510000 83853733
L151510000 84146267
" />
<path d="M150490000 83853733
L150490000 84146267
" />
<path d="M119977500 108954724
L119977500 108445276
" />
<path d="M121022500 108954724
L121022500 108445276
" />
<path d="M142877500 74054724
L142877500 73545276
" />
<path d="M143922500 74054724
L143922500 73545276
" />
<g >
</g>
<g >
</g>
<g >
</g>
<g >
</g>
<g >
</g>
<g >
</g>
<g >
</g>
<g >
</g>
<g >
</g>
<g >
</g>
<g >
</g>
<g >
</g>
<g >
</g>
<g >
</g>
<g >
</g>
<g >
</g>
<g >
</g>
<g >
</g>
<g >
</g>
<g >
</g>
<g >
</g>
<g >
</g>
<g >
</g>
<g >
</g>
<g >
</g>
<g >
</g>
<g >
</g>
<g >
</g>
<g >
</g>
<g >
</g>
<g >
</g>
<g >
</g>
<g >
</g>
<g >
</g>
<g >
</g>
<g >
</g>
<g >
</g>
<g >
</g>
<g >
</g>
<g >
</g>
<g >
</g>
<g >
</g>
<g >
</g>
<g >
</g>
<g >
</g>
<g >
</g>
<g >
</g>
<g >
</g>
<g >
</g>
<g >
</g>
<g >
</g>
<g >
</g>
<g >
</g>
<g >
</g>
<g >
</g>
<g >
</g>
</g> 
</svg>
