%TF.GenerationSoftware,KiCad,Pcbnew,6.0.7+dfsg-1~bpo11+1*%
%TF.CreationDate,2022-10-24T23:46:41+08:00*%
%TF.ProjectId,MiniDelay,4d696e69-4465-46c6-9179-2e6b69636164,rev?*%
%TF.SameCoordinates,Original*%
%TF.FileFunction,Drillmap*%
%TF.FilePolarity,Positive*%
%FSLAX45Y45*%
G04 Gerber Fmt 4.5, Leading zero omitted, Abs format (unit mm)*
G04 Created by KiCad (PCBNEW 6.0.7+dfsg-1~bpo11+1) date 2022-10-24 23:46:41*
%MOMM*%
%LPD*%
G01*
G04 APERTURE LIST*
%ADD10C,0.100000*%
%ADD11C,0.200000*%
G04 APERTURE END LIST*
D10*
X11100000Y-15660000D02*
X11100000Y-5660000D01*
X11100000Y-5660000D02*
X13070000Y-5660000D01*
X13070000Y-5660000D02*
X13070000Y-15660000D01*
X13070000Y-15660000D02*
X11100000Y-15660000D01*
D11*
X11352619Y-15975476D02*
X11352619Y-15775476D01*
X11400238Y-15775476D01*
X11428809Y-15785000D01*
X11447857Y-15804048D01*
X11457381Y-15823095D01*
X11466905Y-15861190D01*
X11466905Y-15889762D01*
X11457381Y-15927857D01*
X11447857Y-15946905D01*
X11428809Y-15965952D01*
X11400238Y-15975476D01*
X11352619Y-15975476D01*
X11552619Y-15975476D02*
X11552619Y-15842143D01*
X11552619Y-15880238D02*
X11562143Y-15861190D01*
X11571667Y-15851667D01*
X11590714Y-15842143D01*
X11609762Y-15842143D01*
X11676428Y-15975476D02*
X11676428Y-15842143D01*
X11676428Y-15775476D02*
X11666905Y-15785000D01*
X11676428Y-15794524D01*
X11685952Y-15785000D01*
X11676428Y-15775476D01*
X11676428Y-15794524D01*
X11800238Y-15975476D02*
X11781190Y-15965952D01*
X11771667Y-15946905D01*
X11771667Y-15775476D01*
X11905000Y-15975476D02*
X11885952Y-15965952D01*
X11876428Y-15946905D01*
X11876428Y-15775476D01*
X12133571Y-15975476D02*
X12133571Y-15775476D01*
X12200238Y-15918333D01*
X12266905Y-15775476D01*
X12266905Y-15975476D01*
X12447857Y-15975476D02*
X12447857Y-15870714D01*
X12438333Y-15851667D01*
X12419286Y-15842143D01*
X12381190Y-15842143D01*
X12362143Y-15851667D01*
X12447857Y-15965952D02*
X12428809Y-15975476D01*
X12381190Y-15975476D01*
X12362143Y-15965952D01*
X12352619Y-15946905D01*
X12352619Y-15927857D01*
X12362143Y-15908809D01*
X12381190Y-15899286D01*
X12428809Y-15899286D01*
X12447857Y-15889762D01*
X12543095Y-15842143D02*
X12543095Y-16042143D01*
X12543095Y-15851667D02*
X12562143Y-15842143D01*
X12600238Y-15842143D01*
X12619286Y-15851667D01*
X12628809Y-15861190D01*
X12638333Y-15880238D01*
X12638333Y-15937381D01*
X12628809Y-15956428D01*
X12619286Y-15965952D01*
X12600238Y-15975476D01*
X12562143Y-15975476D01*
X12543095Y-15965952D01*
X12724048Y-15956428D02*
X12733571Y-15965952D01*
X12724048Y-15975476D01*
X12714524Y-15965952D01*
X12724048Y-15956428D01*
X12724048Y-15975476D01*
X12724048Y-15851667D02*
X12733571Y-15861190D01*
X12724048Y-15870714D01*
X12714524Y-15861190D01*
X12724048Y-15851667D01*
X12724048Y-15870714D01*
M02*
