M48
; DRILL file {KiCad 6.0.7+dfsg-1~bpo11+1} date Monday, 24 October, 2022 11:46:39 PM
; FORMAT={-:-/ absolute / inch / decimal}
; #@! TF.CreationDate,2022-10-24T23:46:39+08:00
; #@! TF.GenerationSoftware,Kicad,Pcbnew,6.0.7+dfsg-1~bpo11+1
; #@! TF.FileFunction,Plated,1,2,PTH
FMAT,2
INCH
; #@! TA.AperFunction,Plated,PTH,ComponentDrill
T1C0.0354
; #@! TA.AperFunction,Plated,PTH,ComponentDrill
T2C0.0394
; #@! TA.AperFunction,Plated,PTH,ComponentDrill
T3C0.0433
; #@! TA.AperFunction,Plated,PTH,ComponentDrill
T4C0.0480
; #@! TA.AperFunction,Plated,PTH,ComponentDrill
T5C0.0559
; #@! TA.AperFunction,Plated,PTH,ComponentDrill
T6C0.0563
%
G90
G05
T1
X4.5138Y-5.4862
X4.6138Y-5.4862
T2
X4.6614Y-2.7559
X4.6614Y-3.689
X4.6614Y-4.6978
X4.7598Y-2.7559
X4.7598Y-3.689
X4.7598Y-4.6978
X4.8583Y-2.7559
X4.8583Y-3.689
X4.8583Y-4.6978
X4.8995Y-4.9732
X4.8995Y-5.0732
X4.8995Y-5.1732
X4.8995Y-5.2732
X4.8995Y-5.3732
X4.9995Y-4.9732
X4.9995Y-5.0732
X4.9995Y-5.1732
X4.9995Y-5.2732
X4.9995Y-5.3732
T3
X4.6163Y-4.8587
X4.6163Y-4.9587
X4.6163Y-5.0587
T4
X4.5591Y-5.6575
X4.9547Y-5.6575
T5
X4.5591Y-5.7795
X4.9547Y-5.7795
T6
X4.5591Y-6.1063
X4.9547Y-6.1063
T3
G00X4.5709Y-2.4843
M15
G01X4.5709Y-2.437
M16
G05
G00X4.5709Y-3.4173
M15
G01X4.5709Y-3.3701
M16
G05
G00X4.5709Y-4.4262
M15
G01X4.5709Y-4.3789
M16
G05
G00X4.9488Y-2.4843
M15
G01X4.9488Y-2.437
M16
G05
G00X4.9488Y-3.4173
M15
G01X4.9488Y-3.3701
M16
G05
G00X4.9488Y-4.4262
M15
G01X4.9488Y-4.3789
M16
G05
T0
M30
