%TF.GenerationSoftware,KiCad,Pcbnew,6.0.7+dfsg-1~bpo11+1*%
%TF.CreationDate,2022-10-26T04:05:39+08:00*%
%TF.ProjectId,MiniDelay v1.0 - Main,4d696e69-4465-46c6-9179-2076312e3020,rev?*%
%TF.SameCoordinates,Original*%
%TF.FileFunction,Copper,L1,Top*%
%TF.FilePolarity,Positive*%
%FSLAX46Y46*%
G04 Gerber Fmt 4.6, Leading zero omitted, Abs format (unit mm)*
G04 Created by KiCad (PCBNEW 6.0.7+dfsg-1~bpo11+1) date 2022-10-26 04:05:39*
%MOMM*%
%LPD*%
G01*
G04 APERTURE LIST*
G04 Aperture macros list*
%AMRoundRect*
0 Rectangle with rounded corners*
0 $1 Rounding radius*
0 $2 $3 $4 $5 $6 $7 $8 $9 X,Y pos of 4 corners*
0 Add a 4 corners polygon primitive as box body*
4,1,4,$2,$3,$4,$5,$6,$7,$8,$9,$2,$3,0*
0 Add four circle primitives for the rounded corners*
1,1,$1+$1,$2,$3*
1,1,$1+$1,$4,$5*
1,1,$1+$1,$6,$7*
1,1,$1+$1,$8,$9*
0 Add four rect primitives between the rounded corners*
20,1,$1+$1,$2,$3,$4,$5,0*
20,1,$1+$1,$4,$5,$6,$7,0*
20,1,$1+$1,$6,$7,$8,$9,0*
20,1,$1+$1,$8,$9,$2,$3,0*%
G04 Aperture macros list end*
%TA.AperFunction,ComponentPad*%
%ADD10R,1.800000X1.800000*%
%TD*%
%TA.AperFunction,ComponentPad*%
%ADD11C,1.800000*%
%TD*%
%TA.AperFunction,ComponentPad*%
%ADD12R,1.930000X1.830000*%
%TD*%
%TA.AperFunction,ComponentPad*%
%ADD13C,2.130000*%
%TD*%
%TA.AperFunction,ComponentPad*%
%ADD14O,2.720000X3.240000*%
%TD*%
%TA.AperFunction,ComponentPad*%
%ADD15RoundRect,0.250000X-0.600000X-0.600000X0.600000X-0.600000X0.600000X0.600000X-0.600000X0.600000X0*%
%TD*%
%TA.AperFunction,ComponentPad*%
%ADD16C,1.700000*%
%TD*%
%TA.AperFunction,ViaPad*%
%ADD17C,0.800000*%
%TD*%
%TA.AperFunction,ViaPad*%
%ADD18C,1.000000*%
%TD*%
%TA.AperFunction,Conductor*%
%ADD19C,0.600000*%
%TD*%
%TA.AperFunction,Conductor*%
%ADD20C,0.250000*%
%TD*%
G04 APERTURE END LIST*
D10*
%TO.P,D1,1,K*%
%TO.N,GND*%
X131200000Y-138550000D03*
D11*
%TO.P,D1,2,A*%
%TO.N,Net-(D1-Pad2)*%
X128660000Y-138550000D03*
%TD*%
D12*
%TO.P,AudioOut1,S*%
%TO.N,GND*%
X140000000Y-143170000D03*
D13*
%TO.P,AudioOut1,T*%
%TO.N,Net-(AudioOut1-PadT)*%
X140000000Y-154570000D03*
%TO.P,AudioOut1,TN*%
%TO.N,unconnected-(AudioOut1-PadTN)*%
X140000000Y-146270000D03*
%TD*%
D12*
%TO.P,AudioIn1,S*%
%TO.N,GND*%
X130000000Y-143170000D03*
D13*
%TO.P,AudioIn1,T*%
%TO.N,Net-(AudioIn1-PadT)*%
X130000000Y-154570000D03*
%TO.P,AudioIn1,TN*%
%TO.N,unconnected-(AudioIn1-PadTN)*%
X130000000Y-146270000D03*
%TD*%
D14*
%TO.P,LEVEL1,*%
%TO.N,*%
X139800000Y-104000000D03*
X130200000Y-104000000D03*
D10*
%TO.P,LEVEL1,1,1*%
%TO.N,GND*%
X132500000Y-111500000D03*
D11*
%TO.P,LEVEL1,2,2*%
%TO.N,WET_OUT*%
X135000000Y-111500000D03*
%TO.P,LEVEL1,3,3*%
%TO.N,Net-(LEVEL1-Pad3)*%
X137500000Y-111500000D03*
%TD*%
D14*
%TO.P,TIME1,*%
%TO.N,*%
X139800000Y-64000000D03*
X130200000Y-64000000D03*
D10*
%TO.P,TIME1,1,1*%
%TO.N,GND*%
X132500000Y-71500000D03*
D11*
%TO.P,TIME1,2,2*%
%TO.N,Net-(R5-Pad2)*%
X135000000Y-71500000D03*
%TO.P,TIME1,3,3*%
X137500000Y-71500000D03*
%TD*%
D14*
%TO.P,REPEATS1,*%
%TO.N,*%
X130200000Y-84000000D03*
X139800000Y-84000000D03*
D10*
%TO.P,REPEATS1,1,1*%
%TO.N,GND*%
X132500000Y-91500000D03*
D11*
%TO.P,REPEATS1,2,2*%
%TO.N,REPEATS*%
X135000000Y-91500000D03*
%TO.P,REPEATS1,3,3*%
%TO.N,Net-(LEVEL1-Pad3)*%
X137500000Y-91500000D03*
%TD*%
D15*
%TO.P,J1,1,Pin_1*%
%TO.N,-12V*%
X138997500Y-135830000D03*
D16*
%TO.P,J1,2,Pin_2*%
X141537500Y-135830000D03*
%TO.P,J1,3,Pin_3*%
%TO.N,GND*%
X138997500Y-133290000D03*
%TO.P,J1,4,Pin_4*%
X141537500Y-133290000D03*
%TO.P,J1,5,Pin_5*%
X138997500Y-130750000D03*
%TO.P,J1,6,Pin_6*%
X141537500Y-130750000D03*
%TO.P,J1,7,Pin_7*%
X138997500Y-128210000D03*
%TO.P,J1,8,Pin_8*%
X141537500Y-128210000D03*
%TO.P,J1,9,Pin_9*%
%TO.N,+12V*%
X138997500Y-125670000D03*
%TO.P,J1,10,Pin_10*%
X141537500Y-125670000D03*
%TD*%
D17*
%TO.N,GND*%
X135500000Y-76700000D03*
X133500000Y-69500000D03*
X132400000Y-67500000D03*
X130300000Y-132425000D03*
X131300000Y-69500000D03*
X132800000Y-90000000D03*
X132600000Y-88200000D03*
X132400000Y-68500000D03*
X134400000Y-88200000D03*
X137500000Y-103150000D03*
X135500000Y-75800000D03*
X131475000Y-132400000D03*
X143900000Y-97200000D03*
X131300000Y-67500000D03*
X127050000Y-96700000D03*
X132100000Y-133375000D03*
X130900000Y-133375000D03*
X132700000Y-132400000D03*
X133500000Y-88200000D03*
X129625000Y-133375000D03*
X133700000Y-90000000D03*
X126000000Y-88200000D03*
X126200000Y-150000000D03*
X126000000Y-90200000D03*
X126200000Y-151200000D03*
X126200000Y-152400000D03*
X133500000Y-67500000D03*
X143900000Y-96200000D03*
X133500000Y-68500000D03*
X131300000Y-68500000D03*
X126000000Y-91200000D03*
X134600000Y-76700000D03*
X141500000Y-90000000D03*
X133700000Y-75800000D03*
X139200000Y-90000000D03*
X132400000Y-69500000D03*
X126000000Y-87200000D03*
X139400000Y-98950000D03*
X133700000Y-76700000D03*
X134600000Y-75800000D03*
X129100000Y-132450000D03*
X126000000Y-89200000D03*
X127000000Y-98100000D03*
X131900000Y-90000000D03*
X140400000Y-90000000D03*
X127050000Y-95125000D03*
D18*
%TO.N,+12V*%
X139675000Y-97375000D03*
%TO.N,REPEATS*%
X134710000Y-105790000D03*
%TO.N,-12V*%
X134175000Y-97375000D03*
%TO.N,+5V*%
X131650000Y-75600000D03*
X128025000Y-127725000D03*
%TD*%
D19*
%TO.N,+12V*%
X142500000Y-99225000D02*
X142500000Y-124707500D01*
X141537500Y-125670000D02*
X138997500Y-125670000D01*
X139675000Y-97375000D02*
X140650000Y-97375000D01*
X142500000Y-99225000D02*
G75*
G03*
X140650000Y-97375000I-1850000J0D01*
G01*
X141537500Y-125670000D02*
G75*
G03*
X142500000Y-124707500I0J962500D01*
G01*
D20*
%TO.N,REPEATS*%
X133025000Y-96089870D02*
X133025000Y-102206193D01*
X133495134Y-94954866D02*
X134207047Y-94242953D01*
X135100000Y-92087172D02*
X135100000Y-91550000D01*
X134367659Y-105447660D02*
X134710000Y-105790000D01*
X133495157Y-94954889D02*
G75*
G03*
X133025000Y-96089870I1134943J-1135011D01*
G01*
X135099990Y-92087172D02*
G75*
G02*
X134207046Y-94242952I-3048690J-28D01*
G01*
X134367661Y-105447658D02*
G75*
G02*
X133025000Y-102206193I3241439J3241458D01*
G01*
D19*
%TO.N,-12V*%
X138550000Y-136400000D02*
X139050000Y-136400000D01*
X138084225Y-105609226D02*
X137700000Y-105225000D01*
X140400000Y-111200000D02*
X140400000Y-122206418D01*
X134175000Y-97438640D02*
X134175000Y-97375000D01*
X137700000Y-105225000D02*
X137188237Y-104713237D01*
X136200000Y-126406418D02*
X136200000Y-134050000D01*
X138084215Y-105609236D02*
G75*
G02*
X140400000Y-111200000I-5590715J-5590764D01*
G01*
X138406418Y-124200000D02*
G75*
G03*
X140400000Y-122206418I-18J1993600D01*
G01*
X138550000Y-136400000D02*
G75*
G02*
X136200000Y-134050000I0J2350000D01*
G01*
X136200000Y-126406418D02*
G75*
G02*
X138406418Y-124200000I2206400J18D01*
G01*
X134174963Y-97438640D02*
G75*
G03*
X137188238Y-104713236I10287837J40D01*
G01*
%TO.N,+5V*%
X127020000Y-84355878D02*
X127020000Y-91627452D01*
X126000000Y-94089949D02*
X126000000Y-122836218D01*
X130412563Y-78587437D02*
X128700000Y-80300000D01*
X126699985Y-92399985D02*
G75*
G03*
X127020000Y-91627452I-772585J772585D01*
G01*
X127019992Y-84355878D02*
G75*
G02*
X128700001Y-80300001I5735908J-22D01*
G01*
X128025005Y-127724995D02*
G75*
G02*
X126000000Y-122836218I4888795J4888795D01*
G01*
X130412568Y-78587442D02*
G75*
G03*
X131650000Y-75600000I-2987468J2987442D01*
G01*
X126000021Y-94089949D02*
G75*
G02*
X126700000Y-92400000I2389879J49D01*
G01*
%TD*%
%TA.AperFunction,Conductor*%
%TO.N,GND*%
G36*
X144433621Y-58028502D02*
G01*
X144480114Y-58082158D01*
X144491500Y-58134500D01*
X144491500Y-66187500D01*
X144400129Y-155274129D01*
X144380057Y-155342229D01*
X144326354Y-155388667D01*
X144274129Y-155400000D01*
X141547919Y-155400000D01*
X141479798Y-155379998D01*
X141433305Y-155326342D01*
X141423201Y-155256068D01*
X141431510Y-155225782D01*
X141499221Y-155062315D01*
X141499222Y-155062313D01*
X141501115Y-155057742D01*
X141521501Y-154972830D01*
X141557779Y-154821724D01*
X141557780Y-154821718D01*
X141558934Y-154816911D01*
X141578366Y-154570000D01*
X141558934Y-154323089D01*
X141557780Y-154318282D01*
X141557779Y-154318276D01*
X141502270Y-154087070D01*
X141501115Y-154082258D01*
X141406334Y-153853437D01*
X141276925Y-153642260D01*
X141116073Y-153453927D01*
X140927740Y-153293075D01*
X140716563Y-153163666D01*
X140711993Y-153161773D01*
X140711989Y-153161771D01*
X140492315Y-153070779D01*
X140492313Y-153070778D01*
X140487742Y-153068885D01*
X140402830Y-153048499D01*
X140251724Y-153012221D01*
X140251718Y-153012220D01*
X140246911Y-153011066D01*
X140000000Y-152991634D01*
X139753089Y-153011066D01*
X139748282Y-153012220D01*
X139748276Y-153012221D01*
X139597170Y-153048499D01*
X139512258Y-153068885D01*
X139507687Y-153070778D01*
X139507685Y-153070779D01*
X139288011Y-153161771D01*
X139288007Y-153161773D01*
X139283437Y-153163666D01*
X139072260Y-153293075D01*
X138883927Y-153453927D01*
X138723075Y-153642260D01*
X138593666Y-153853437D01*
X138498885Y-154082258D01*
X138497730Y-154087070D01*
X138442221Y-154318276D01*
X138442220Y-154318282D01*
X138441066Y-154323089D01*
X138421634Y-154570000D01*
X138441066Y-154816911D01*
X138442220Y-154821718D01*
X138442221Y-154821724D01*
X138478499Y-154972830D01*
X138498885Y-155057742D01*
X138500778Y-155062313D01*
X138500779Y-155062315D01*
X138568490Y-155225782D01*
X138576079Y-155296371D01*
X138544300Y-155359858D01*
X138483242Y-155396086D01*
X138452081Y-155400000D01*
X131547919Y-155400000D01*
X131479798Y-155379998D01*
X131433305Y-155326342D01*
X131423201Y-155256068D01*
X131431510Y-155225782D01*
X131499221Y-155062315D01*
X131499222Y-155062313D01*
X131501115Y-155057742D01*
X131521501Y-154972830D01*
X131557779Y-154821724D01*
X131557780Y-154821718D01*
X131558934Y-154816911D01*
X131578366Y-154570000D01*
X131558934Y-154323089D01*
X131557780Y-154318282D01*
X131557779Y-154318276D01*
X131502270Y-154087070D01*
X131501115Y-154082258D01*
X131406334Y-153853437D01*
X131276925Y-153642260D01*
X131116073Y-153453927D01*
X130927740Y-153293075D01*
X130716563Y-153163666D01*
X130711993Y-153161773D01*
X130711989Y-153161771D01*
X130492315Y-153070779D01*
X130492313Y-153070778D01*
X130487742Y-153068885D01*
X130402830Y-153048499D01*
X130251724Y-153012221D01*
X130251718Y-153012220D01*
X130246911Y-153011066D01*
X130000000Y-152991634D01*
X129753089Y-153011066D01*
X129748282Y-153012220D01*
X129748276Y-153012221D01*
X129597170Y-153048499D01*
X129512258Y-153068885D01*
X129507687Y-153070778D01*
X129507685Y-153070779D01*
X129288011Y-153161771D01*
X129288007Y-153161773D01*
X129283437Y-153163666D01*
X129072260Y-153293075D01*
X128883927Y-153453927D01*
X128723075Y-153642260D01*
X128593666Y-153853437D01*
X128498885Y-154082258D01*
X128497730Y-154087070D01*
X128442221Y-154318276D01*
X128442220Y-154318282D01*
X128441066Y-154323089D01*
X128421634Y-154570000D01*
X128441066Y-154816911D01*
X128442220Y-154821718D01*
X128442221Y-154821724D01*
X128478499Y-154972830D01*
X128498885Y-155057742D01*
X128500778Y-155062313D01*
X128500779Y-155062315D01*
X128568490Y-155225782D01*
X128576079Y-155296371D01*
X128544300Y-155359858D01*
X128483242Y-155396086D01*
X128452081Y-155400000D01*
X125634500Y-155400000D01*
X125566379Y-155379998D01*
X125519886Y-155326342D01*
X125508500Y-155274000D01*
X125508500Y-146270000D01*
X128421634Y-146270000D01*
X128441066Y-146516911D01*
X128442220Y-146521718D01*
X128442221Y-146521724D01*
X128478499Y-146672830D01*
X128498885Y-146757742D01*
X128593666Y-146986563D01*
X128723075Y-147197740D01*
X128883927Y-147386073D01*
X129072260Y-147546925D01*
X129283437Y-147676334D01*
X129288007Y-147678227D01*
X129288011Y-147678229D01*
X129507685Y-147769221D01*
X129512258Y-147771115D01*
X129597170Y-147791501D01*
X129748276Y-147827779D01*
X129748282Y-147827780D01*
X129753089Y-147828934D01*
X130000000Y-147848366D01*
X130246911Y-147828934D01*
X130251718Y-147827780D01*
X130251724Y-147827779D01*
X130402830Y-147791501D01*
X130487742Y-147771115D01*
X130492315Y-147769221D01*
X130711989Y-147678229D01*
X130711993Y-147678227D01*
X130716563Y-147676334D01*
X130927740Y-147546925D01*
X131116073Y-147386073D01*
X131276925Y-147197740D01*
X131406334Y-146986563D01*
X131501115Y-146757742D01*
X131521501Y-146672830D01*
X131557779Y-146521724D01*
X131557780Y-146521718D01*
X131558934Y-146516911D01*
X131578366Y-146270000D01*
X138421634Y-146270000D01*
X138441066Y-146516911D01*
X138442220Y-146521718D01*
X138442221Y-146521724D01*
X138478499Y-146672830D01*
X138498885Y-146757742D01*
X138593666Y-146986563D01*
X138723075Y-147197740D01*
X138883927Y-147386073D01*
X139072260Y-147546925D01*
X139283437Y-147676334D01*
X139288007Y-147678227D01*
X139288011Y-147678229D01*
X139507685Y-147769221D01*
X139512258Y-147771115D01*
X139597170Y-147791501D01*
X139748276Y-147827779D01*
X139748282Y-147827780D01*
X139753089Y-147828934D01*
X140000000Y-147848366D01*
X140246911Y-147828934D01*
X140251718Y-147827780D01*
X140251724Y-147827779D01*
X140402830Y-147791501D01*
X140487742Y-147771115D01*
X140492315Y-147769221D01*
X140711989Y-147678229D01*
X140711993Y-147678227D01*
X140716563Y-147676334D01*
X140927740Y-147546925D01*
X141116073Y-147386073D01*
X141276925Y-147197740D01*
X141406334Y-146986563D01*
X141501115Y-146757742D01*
X141521501Y-146672830D01*
X141557779Y-146521724D01*
X141557780Y-146521718D01*
X141558934Y-146516911D01*
X141578366Y-146270000D01*
X141558934Y-146023089D01*
X141557780Y-146018282D01*
X141557779Y-146018276D01*
X141502270Y-145787070D01*
X141501115Y-145782258D01*
X141406334Y-145553437D01*
X141276925Y-145342260D01*
X141116073Y-145153927D01*
X140927740Y-144993075D01*
X140716563Y-144863666D01*
X140648342Y-144835408D01*
X140593062Y-144790859D01*
X140570641Y-144723496D01*
X140588199Y-144654705D01*
X140640162Y-144606326D01*
X140696561Y-144592999D01*
X141009669Y-144592999D01*
X141016490Y-144592629D01*
X141067352Y-144587105D01*
X141082604Y-144583479D01*
X141203054Y-144538324D01*
X141218649Y-144529786D01*
X141320724Y-144453285D01*
X141333285Y-144440724D01*
X141409786Y-144338649D01*
X141418324Y-144323054D01*
X141463478Y-144202606D01*
X141467105Y-144187351D01*
X141472631Y-144136486D01*
X141473000Y-144129672D01*
X141473000Y-143442115D01*
X141468525Y-143426876D01*
X141467135Y-143425671D01*
X141459452Y-143424000D01*
X138545116Y-143424000D01*
X138529877Y-143428475D01*
X138528672Y-143429865D01*
X138527001Y-143437548D01*
X138527001Y-144129669D01*
X138527371Y-144136490D01*
X138532895Y-144187352D01*
X138536521Y-144202604D01*
X138581676Y-144323054D01*
X138590214Y-144338649D01*
X138666715Y-144440724D01*
X138679276Y-144453285D01*
X138781351Y-144529786D01*
X138796946Y-144538324D01*
X138917394Y-144583478D01*
X138932649Y-144587105D01*
X138983514Y-144592631D01*
X138990328Y-144593000D01*
X139303438Y-144593000D01*
X139371559Y-144613002D01*
X139418052Y-144666658D01*
X139428156Y-144736932D01*
X139398662Y-144801512D01*
X139351657Y-144835408D01*
X139323360Y-144847129D01*
X139288011Y-144861771D01*
X139288007Y-144861773D01*
X139283437Y-144863666D01*
X139072260Y-144993075D01*
X138883927Y-145153927D01*
X138723075Y-145342260D01*
X138593666Y-145553437D01*
X138498885Y-145782258D01*
X138497730Y-145787070D01*
X138442221Y-146018276D01*
X138442220Y-146018282D01*
X138441066Y-146023089D01*
X138421634Y-146270000D01*
X131578366Y-146270000D01*
X131558934Y-146023089D01*
X131557780Y-146018282D01*
X131557779Y-146018276D01*
X131502270Y-145787070D01*
X131501115Y-145782258D01*
X131406334Y-145553437D01*
X131276925Y-145342260D01*
X131116073Y-145153927D01*
X130927740Y-144993075D01*
X130716563Y-144863666D01*
X130648342Y-144835408D01*
X130593062Y-144790859D01*
X130570641Y-144723496D01*
X130588199Y-144654705D01*
X130640162Y-144606326D01*
X130696561Y-144592999D01*
X131009669Y-144592999D01*
X131016490Y-144592629D01*
X131067352Y-144587105D01*
X131082604Y-144583479D01*
X131203054Y-144538324D01*
X131218649Y-144529786D01*
X131320724Y-144453285D01*
X131333285Y-144440724D01*
X131409786Y-144338649D01*
X131418324Y-144323054D01*
X131463478Y-144202606D01*
X131467105Y-144187351D01*
X131472631Y-144136486D01*
X131473000Y-144129672D01*
X131473000Y-143442115D01*
X131468525Y-143426876D01*
X131467135Y-143425671D01*
X131459452Y-143424000D01*
X128545116Y-143424000D01*
X128529877Y-143428475D01*
X128528672Y-143429865D01*
X128527001Y-143437548D01*
X128527001Y-144129669D01*
X128527371Y-144136490D01*
X128532895Y-144187352D01*
X128536521Y-144202604D01*
X128581676Y-144323054D01*
X128590214Y-144338649D01*
X128666715Y-144440724D01*
X128679276Y-144453285D01*
X128781351Y-144529786D01*
X128796946Y-144538324D01*
X128917394Y-144583478D01*
X128932649Y-144587105D01*
X128983514Y-144592631D01*
X128990328Y-144593000D01*
X129303438Y-144593000D01*
X129371559Y-144613002D01*
X129418052Y-144666658D01*
X129428156Y-144736932D01*
X129398662Y-144801512D01*
X129351657Y-144835408D01*
X129323360Y-144847129D01*
X129288011Y-144861771D01*
X129288007Y-144861773D01*
X129283437Y-144863666D01*
X129072260Y-144993075D01*
X128883927Y-145153927D01*
X128723075Y-145342260D01*
X128593666Y-145553437D01*
X128498885Y-145782258D01*
X128497730Y-145787070D01*
X128442221Y-146018276D01*
X128442220Y-146018282D01*
X128441066Y-146023089D01*
X128421634Y-146270000D01*
X125508500Y-146270000D01*
X125508500Y-142897885D01*
X128527000Y-142897885D01*
X128531475Y-142913124D01*
X128532865Y-142914329D01*
X128540548Y-142916000D01*
X129727885Y-142916000D01*
X129743124Y-142911525D01*
X129744329Y-142910135D01*
X129746000Y-142902452D01*
X129746000Y-142897885D01*
X130254000Y-142897885D01*
X130258475Y-142913124D01*
X130259865Y-142914329D01*
X130267548Y-142916000D01*
X131454884Y-142916000D01*
X131470123Y-142911525D01*
X131471328Y-142910135D01*
X131472999Y-142902452D01*
X131472999Y-142897885D01*
X138527000Y-142897885D01*
X138531475Y-142913124D01*
X138532865Y-142914329D01*
X138540548Y-142916000D01*
X139727885Y-142916000D01*
X139743124Y-142911525D01*
X139744329Y-142910135D01*
X139746000Y-142902452D01*
X139746000Y-142897885D01*
X140254000Y-142897885D01*
X140258475Y-142913124D01*
X140259865Y-142914329D01*
X140267548Y-142916000D01*
X141454884Y-142916000D01*
X141470123Y-142911525D01*
X141471328Y-142910135D01*
X141472999Y-142902452D01*
X141472999Y-142210331D01*
X141472629Y-142203510D01*
X141467105Y-142152648D01*
X141463479Y-142137396D01*
X141418324Y-142016946D01*
X141409786Y-142001351D01*
X141333285Y-141899276D01*
X141320724Y-141886715D01*
X141218649Y-141810214D01*
X141203054Y-141801676D01*
X141082606Y-141756522D01*
X141067351Y-141752895D01*
X141016486Y-141747369D01*
X141009672Y-141747000D01*
X140272115Y-141747000D01*
X140256876Y-141751475D01*
X140255671Y-141752865D01*
X140254000Y-141760548D01*
X140254000Y-142897885D01*
X139746000Y-142897885D01*
X139746000Y-141765116D01*
X139741525Y-141749877D01*
X139740135Y-141748672D01*
X139732452Y-141747001D01*
X138990331Y-141747001D01*
X138983510Y-141747371D01*
X138932648Y-141752895D01*
X138917396Y-141756521D01*
X138796946Y-141801676D01*
X138781351Y-141810214D01*
X138679276Y-141886715D01*
X138666715Y-141899276D01*
X138590214Y-142001351D01*
X138581676Y-142016946D01*
X138536522Y-142137394D01*
X138532895Y-142152649D01*
X138527369Y-142203514D01*
X138527000Y-142210328D01*
X138527000Y-142897885D01*
X131472999Y-142897885D01*
X131472999Y-142210331D01*
X131472629Y-142203510D01*
X131467105Y-142152648D01*
X131463479Y-142137396D01*
X131418324Y-142016946D01*
X131409786Y-142001351D01*
X131333285Y-141899276D01*
X131320724Y-141886715D01*
X131218649Y-141810214D01*
X131203054Y-141801676D01*
X131082606Y-141756522D01*
X131067351Y-141752895D01*
X131016486Y-141747369D01*
X131009672Y-141747000D01*
X130272115Y-141747000D01*
X130256876Y-141751475D01*
X130255671Y-141752865D01*
X130254000Y-141760548D01*
X130254000Y-142897885D01*
X129746000Y-142897885D01*
X129746000Y-141765116D01*
X129741525Y-141749877D01*
X129740135Y-141748672D01*
X129732452Y-141747001D01*
X128990331Y-141747001D01*
X128983510Y-141747371D01*
X128932648Y-141752895D01*
X128917396Y-141756521D01*
X128796946Y-141801676D01*
X128781351Y-141810214D01*
X128679276Y-141886715D01*
X128666715Y-141899276D01*
X128590214Y-142001351D01*
X128581676Y-142016946D01*
X128536522Y-142137394D01*
X128532895Y-142152649D01*
X128527369Y-142203514D01*
X128527000Y-142210328D01*
X128527000Y-142897885D01*
X125508500Y-142897885D01*
X125508500Y-138515469D01*
X127247095Y-138515469D01*
X127260427Y-138746697D01*
X127261564Y-138751743D01*
X127261565Y-138751749D01*
X127276394Y-138817548D01*
X127311346Y-138972642D01*
X127313288Y-138977424D01*
X127313289Y-138977428D01*
X127396540Y-139182450D01*
X127398484Y-139187237D01*
X127519501Y-139384719D01*
X127671147Y-139559784D01*
X127849349Y-139707730D01*
X128049322Y-139824584D01*
X128265694Y-139907209D01*
X128270760Y-139908240D01*
X128270761Y-139908240D01*
X128323846Y-139919040D01*
X128492656Y-139953385D01*
X128623324Y-139958176D01*
X128718949Y-139961683D01*
X128718953Y-139961683D01*
X128724113Y-139961872D01*
X128729233Y-139961216D01*
X128729235Y-139961216D01*
X128828668Y-139948478D01*
X128953847Y-139932442D01*
X128958795Y-139930957D01*
X128958802Y-139930956D01*
X129170747Y-139867369D01*
X129175690Y-139865886D01*
X129256236Y-139826427D01*
X129379049Y-139766262D01*
X129379052Y-139766260D01*
X129383684Y-139763991D01*
X129572243Y-139629494D01*
X129575898Y-139625852D01*
X129575906Y-139625845D01*
X129617697Y-139584199D01*
X129680068Y-139550282D01*
X129750875Y-139555470D01*
X129807637Y-139598116D01*
X129824619Y-139629218D01*
X129846677Y-139688056D01*
X129855214Y-139703649D01*
X129931715Y-139805724D01*
X129944276Y-139818285D01*
X130046351Y-139894786D01*
X130061946Y-139903324D01*
X130182394Y-139948478D01*
X130197649Y-139952105D01*
X130248514Y-139957631D01*
X130255328Y-139958000D01*
X130927885Y-139958000D01*
X130943124Y-139953525D01*
X130944329Y-139952135D01*
X130946000Y-139944452D01*
X130946000Y-139939884D01*
X131454000Y-139939884D01*
X131458475Y-139955123D01*
X131459865Y-139956328D01*
X131467548Y-139957999D01*
X132144669Y-139957999D01*
X132151490Y-139957629D01*
X132202352Y-139952105D01*
X132217604Y-139948479D01*
X132338054Y-139903324D01*
X132353649Y-139894786D01*
X132455724Y-139818285D01*
X132468285Y-139805724D01*
X132544786Y-139703649D01*
X132553324Y-139688054D01*
X132598478Y-139567606D01*
X132602105Y-139552351D01*
X132607631Y-139501486D01*
X132608000Y-139494672D01*
X132608000Y-138822115D01*
X132603525Y-138806876D01*
X132602135Y-138805671D01*
X132594452Y-138804000D01*
X131472115Y-138804000D01*
X131456876Y-138808475D01*
X131455671Y-138809865D01*
X131454000Y-138817548D01*
X131454000Y-139939884D01*
X130946000Y-139939884D01*
X130946000Y-138277885D01*
X131454000Y-138277885D01*
X131458475Y-138293124D01*
X131459865Y-138294329D01*
X131467548Y-138296000D01*
X132589884Y-138296000D01*
X132605123Y-138291525D01*
X132606328Y-138290135D01*
X132607999Y-138282452D01*
X132607999Y-137605331D01*
X132607629Y-137598510D01*
X132602105Y-137547648D01*
X132598479Y-137532396D01*
X132553324Y-137411946D01*
X132544786Y-137396351D01*
X132468285Y-137294276D01*
X132455724Y-137281715D01*
X132353649Y-137205214D01*
X132338054Y-137196676D01*
X132217606Y-137151522D01*
X132202351Y-137147895D01*
X132151486Y-137142369D01*
X132144672Y-137142000D01*
X131472115Y-137142000D01*
X131456876Y-137146475D01*
X131455671Y-137147865D01*
X131454000Y-137155548D01*
X131454000Y-138277885D01*
X130946000Y-138277885D01*
X130946000Y-137160116D01*
X130941525Y-137144877D01*
X130940135Y-137143672D01*
X130932452Y-137142001D01*
X130255331Y-137142001D01*
X130248510Y-137142371D01*
X130197648Y-137147895D01*
X130182396Y-137151521D01*
X130061946Y-137196676D01*
X130046351Y-137205214D01*
X129944276Y-137281715D01*
X129931715Y-137294276D01*
X129855214Y-137396351D01*
X129846675Y-137411948D01*
X129825934Y-137467275D01*
X129783293Y-137524040D01*
X129716731Y-137548740D01*
X129647383Y-137533533D01*
X129624388Y-137516909D01*
X129623887Y-137516358D01*
X129561737Y-137467275D01*
X129446177Y-137376011D01*
X129446172Y-137376008D01*
X129442123Y-137372810D01*
X129437607Y-137370317D01*
X129437604Y-137370315D01*
X129243879Y-137263373D01*
X129243875Y-137263371D01*
X129239355Y-137260876D01*
X129234486Y-137259152D01*
X129234482Y-137259150D01*
X129025903Y-137185288D01*
X129025899Y-137185287D01*
X129021028Y-137183562D01*
X129015935Y-137182655D01*
X129015932Y-137182654D01*
X128798095Y-137143851D01*
X128798089Y-137143850D01*
X128793006Y-137142945D01*
X128715644Y-137142000D01*
X128566581Y-137140179D01*
X128566579Y-137140179D01*
X128561411Y-137140116D01*
X128332464Y-137175150D01*
X128112314Y-137247106D01*
X128107726Y-137249494D01*
X128107722Y-137249496D01*
X127911461Y-137351663D01*
X127906872Y-137354052D01*
X127902739Y-137357155D01*
X127902736Y-137357157D01*
X127756073Y-137467275D01*
X127721655Y-137493117D01*
X127561639Y-137660564D01*
X127431119Y-137851899D01*
X127333602Y-138061981D01*
X127271707Y-138285169D01*
X127247095Y-138515469D01*
X125508500Y-138515469D01*
X125508500Y-125776043D01*
X125528502Y-125707922D01*
X125582158Y-125661429D01*
X125652432Y-125651325D01*
X125717012Y-125680819D01*
X125752424Y-125731659D01*
X125764340Y-125763318D01*
X125775507Y-125792989D01*
X125776349Y-125794847D01*
X125776353Y-125794857D01*
X125805740Y-125859715D01*
X125984173Y-126253523D01*
X126222513Y-126699424D01*
X126489505Y-127128783D01*
X126490696Y-127130445D01*
X126490702Y-127130454D01*
X126771470Y-127522264D01*
X126784007Y-127539759D01*
X126785301Y-127541336D01*
X126785315Y-127541354D01*
X126996791Y-127799039D01*
X127024950Y-127868427D01*
X127028268Y-127907934D01*
X127082783Y-128098050D01*
X127173187Y-128273956D01*
X127296035Y-128428953D01*
X127446650Y-128557136D01*
X127619294Y-128653624D01*
X127807392Y-128714740D01*
X128003777Y-128738158D01*
X128009912Y-128737686D01*
X128009914Y-128737686D01*
X128194830Y-128723457D01*
X128194834Y-128723456D01*
X128200972Y-128722984D01*
X128391463Y-128669798D01*
X128396967Y-128667018D01*
X128396969Y-128667017D01*
X128562495Y-128583404D01*
X128562497Y-128583403D01*
X128567996Y-128580625D01*
X128723847Y-128458861D01*
X128853078Y-128309145D01*
X128950769Y-128137179D01*
X129013197Y-127949513D01*
X129037985Y-127753295D01*
X129038380Y-127725000D01*
X129019080Y-127528167D01*
X128961916Y-127338831D01*
X128869066Y-127164204D01*
X128779629Y-127054544D01*
X128747960Y-127015713D01*
X128747957Y-127015710D01*
X128744065Y-127010938D01*
X128739316Y-127007009D01*
X128596425Y-126888799D01*
X128596421Y-126888797D01*
X128591675Y-126884870D01*
X128417701Y-126790802D01*
X128250510Y-126739048D01*
X128189663Y-126697746D01*
X128070031Y-126549292D01*
X128029082Y-126498477D01*
X128023692Y-126491277D01*
X127780263Y-126140674D01*
X127775400Y-126133107D01*
X127750326Y-126090846D01*
X127557600Y-125766024D01*
X127553292Y-125758135D01*
X127514591Y-125680819D01*
X127379777Y-125411495D01*
X127362244Y-125376469D01*
X127358507Y-125368287D01*
X127278658Y-125175516D01*
X127195161Y-124973936D01*
X127192022Y-124965521D01*
X127190246Y-124960183D01*
X127057229Y-124560536D01*
X127054697Y-124551911D01*
X126963155Y-124193251D01*
X126949141Y-124138345D01*
X126947229Y-124129558D01*
X126871444Y-123709516D01*
X126870164Y-123700613D01*
X126824539Y-123276241D01*
X126823897Y-123267270D01*
X126810291Y-122886336D01*
X126811204Y-122866050D01*
X126812654Y-122854567D01*
X126812654Y-122854566D01*
X126813537Y-122847576D01*
X126811905Y-122830926D01*
X126809101Y-122802334D01*
X126808500Y-122790039D01*
X126808500Y-112444669D01*
X131092001Y-112444669D01*
X131092371Y-112451490D01*
X131097895Y-112502352D01*
X131101521Y-112517604D01*
X131146676Y-112638054D01*
X131155214Y-112653649D01*
X131231715Y-112755724D01*
X131244276Y-112768285D01*
X131346351Y-112844786D01*
X131361946Y-112853324D01*
X131482394Y-112898478D01*
X131497649Y-112902105D01*
X131548514Y-112907631D01*
X131555328Y-112908000D01*
X132227885Y-112908000D01*
X132243124Y-112903525D01*
X132244329Y-112902135D01*
X132246000Y-112894452D01*
X132246000Y-112889884D01*
X132754000Y-112889884D01*
X132758475Y-112905123D01*
X132759865Y-112906328D01*
X132767548Y-112907999D01*
X133444669Y-112907999D01*
X133451490Y-112907629D01*
X133502352Y-112902105D01*
X133517604Y-112898479D01*
X133638054Y-112853324D01*
X133653649Y-112844786D01*
X133755724Y-112768285D01*
X133768285Y-112755724D01*
X133844786Y-112653649D01*
X133853325Y-112638052D01*
X133865278Y-112606167D01*
X133907919Y-112549402D01*
X133974480Y-112524702D01*
X134043829Y-112539909D01*
X134063741Y-112553448D01*
X134189349Y-112657730D01*
X134389322Y-112774584D01*
X134605694Y-112857209D01*
X134610760Y-112858240D01*
X134610761Y-112858240D01*
X134663846Y-112869040D01*
X134832656Y-112903385D01*
X134963324Y-112908176D01*
X135058949Y-112911683D01*
X135058953Y-112911683D01*
X135064113Y-112911872D01*
X135069233Y-112911216D01*
X135069235Y-112911216D01*
X135168668Y-112898478D01*
X135293847Y-112882442D01*
X135298795Y-112880957D01*
X135298802Y-112880956D01*
X135510747Y-112817369D01*
X135515690Y-112815886D01*
X135596236Y-112776427D01*
X135719049Y-112716262D01*
X135719052Y-112716260D01*
X135723684Y-112713991D01*
X135912243Y-112579494D01*
X136076303Y-112416005D01*
X136145370Y-112319888D01*
X136201365Y-112276240D01*
X136272068Y-112269794D01*
X136335033Y-112302597D01*
X136355128Y-112327584D01*
X136356799Y-112330311D01*
X136356804Y-112330317D01*
X136359501Y-112334719D01*
X136511147Y-112509784D01*
X136689349Y-112657730D01*
X136889322Y-112774584D01*
X137105694Y-112857209D01*
X137110760Y-112858240D01*
X137110761Y-112858240D01*
X137163846Y-112869040D01*
X137332656Y-112903385D01*
X137463324Y-112908176D01*
X137558949Y-112911683D01*
X137558953Y-112911683D01*
X137564113Y-112911872D01*
X137569233Y-112911216D01*
X137569235Y-112911216D01*
X137668668Y-112898478D01*
X137793847Y-112882442D01*
X137798795Y-112880957D01*
X137798802Y-112880956D01*
X138010747Y-112817369D01*
X138015690Y-112815886D01*
X138096236Y-112776427D01*
X138219049Y-112716262D01*
X138219052Y-112716260D01*
X138223684Y-112713991D01*
X138412243Y-112579494D01*
X138576303Y-112416005D01*
X138711458Y-112227917D01*
X138814078Y-112020280D01*
X138881408Y-111798671D01*
X138911640Y-111569041D01*
X138913327Y-111500000D01*
X138907032Y-111423434D01*
X138894773Y-111274318D01*
X138894772Y-111274312D01*
X138894349Y-111269167D01*
X138837925Y-111044533D01*
X138745570Y-110832131D01*
X138619764Y-110637665D01*
X138463887Y-110466358D01*
X138459836Y-110463159D01*
X138459832Y-110463155D01*
X138286177Y-110326011D01*
X138286172Y-110326008D01*
X138282123Y-110322810D01*
X138277607Y-110320317D01*
X138277604Y-110320315D01*
X138083879Y-110213373D01*
X138083875Y-110213371D01*
X138079355Y-110210876D01*
X138074486Y-110209152D01*
X138074482Y-110209150D01*
X137865903Y-110135288D01*
X137865899Y-110135287D01*
X137861028Y-110133562D01*
X137855935Y-110132655D01*
X137855932Y-110132654D01*
X137638095Y-110093851D01*
X137638089Y-110093850D01*
X137633006Y-110092945D01*
X137555644Y-110092000D01*
X137406581Y-110090179D01*
X137406579Y-110090179D01*
X137401411Y-110090116D01*
X137172464Y-110125150D01*
X136952314Y-110197106D01*
X136947726Y-110199494D01*
X136947722Y-110199496D01*
X136751461Y-110301663D01*
X136746872Y-110304052D01*
X136742739Y-110307155D01*
X136742736Y-110307157D01*
X136565790Y-110440012D01*
X136561655Y-110443117D01*
X136401639Y-110610564D01*
X136354836Y-110679174D01*
X136299927Y-110724175D01*
X136229402Y-110732346D01*
X136165655Y-110701092D01*
X136144959Y-110676609D01*
X136122577Y-110642013D01*
X136122574Y-110642009D01*
X136119764Y-110637665D01*
X135963887Y-110466358D01*
X135959836Y-110463159D01*
X135959832Y-110463155D01*
X135786177Y-110326011D01*
X135786172Y-110326008D01*
X135782123Y-110322810D01*
X135777607Y-110320317D01*
X135777604Y-110320315D01*
X135583879Y-110213373D01*
X135583875Y-110213371D01*
X135579355Y-110210876D01*
X135574486Y-110209152D01*
X135574482Y-110209150D01*
X135365903Y-110135288D01*
X135365899Y-110135287D01*
X135361028Y-110133562D01*
X135355935Y-110132655D01*
X135355932Y-110132654D01*
X135138095Y-110093851D01*
X135138089Y-110093850D01*
X135133006Y-110092945D01*
X135055644Y-110092000D01*
X134906581Y-110090179D01*
X134906579Y-110090179D01*
X134901411Y-110090116D01*
X134672464Y-110125150D01*
X134452314Y-110197106D01*
X134447726Y-110199494D01*
X134447722Y-110199496D01*
X134251461Y-110301663D01*
X134246872Y-110304052D01*
X134242739Y-110307155D01*
X134242736Y-110307157D01*
X134065790Y-110440012D01*
X134061655Y-110443117D01*
X134061066Y-110442333D01*
X134001346Y-110470484D01*
X133930955Y-110461231D01*
X133876741Y-110415391D01*
X133863925Y-110390224D01*
X133853323Y-110361944D01*
X133844786Y-110346351D01*
X133768285Y-110244276D01*
X133755724Y-110231715D01*
X133653649Y-110155214D01*
X133638054Y-110146676D01*
X133517606Y-110101522D01*
X133502351Y-110097895D01*
X133451486Y-110092369D01*
X133444672Y-110092000D01*
X132772115Y-110092000D01*
X132756876Y-110096475D01*
X132755671Y-110097865D01*
X132754000Y-110105548D01*
X132754000Y-112889884D01*
X132246000Y-112889884D01*
X132246000Y-111772115D01*
X132241525Y-111756876D01*
X132240135Y-111755671D01*
X132232452Y-111754000D01*
X131110116Y-111754000D01*
X131094877Y-111758475D01*
X131093672Y-111759865D01*
X131092001Y-111767548D01*
X131092001Y-112444669D01*
X126808500Y-112444669D01*
X126808500Y-111227885D01*
X131092000Y-111227885D01*
X131096475Y-111243124D01*
X131097865Y-111244329D01*
X131105548Y-111246000D01*
X132227885Y-111246000D01*
X132243124Y-111241525D01*
X132244329Y-111240135D01*
X132246000Y-111232452D01*
X132246000Y-110110116D01*
X132241525Y-110094877D01*
X132240135Y-110093672D01*
X132232452Y-110092001D01*
X131555331Y-110092001D01*
X131548510Y-110092371D01*
X131497648Y-110097895D01*
X131482396Y-110101521D01*
X131361946Y-110146676D01*
X131346351Y-110155214D01*
X131244276Y-110231715D01*
X131231715Y-110244276D01*
X131155214Y-110346351D01*
X131146676Y-110361946D01*
X131101522Y-110482394D01*
X131097895Y-110497649D01*
X131092369Y-110548514D01*
X131092000Y-110555328D01*
X131092000Y-111227885D01*
X126808500Y-111227885D01*
X126808500Y-104328884D01*
X128331500Y-104328884D01*
X128331665Y-104331152D01*
X128331665Y-104331164D01*
X128339725Y-104442238D01*
X128346125Y-104530451D01*
X128347109Y-104534906D01*
X128347109Y-104534909D01*
X128400604Y-104777204D01*
X128404585Y-104795237D01*
X128500655Y-105048810D01*
X128632324Y-105285859D01*
X128796833Y-105501417D01*
X128990736Y-105690970D01*
X129209972Y-105850547D01*
X129449947Y-105976804D01*
X129454248Y-105978323D01*
X129454253Y-105978325D01*
X129573302Y-106020365D01*
X129705634Y-106067096D01*
X129803653Y-106086415D01*
X129967206Y-106118652D01*
X129967212Y-106118653D01*
X129971678Y-106119533D01*
X129976232Y-106119760D01*
X129976234Y-106119760D01*
X130237936Y-106132789D01*
X130237942Y-106132789D01*
X130242505Y-106133016D01*
X130512441Y-106107262D01*
X130516870Y-106106178D01*
X130516877Y-106106177D01*
X130676584Y-106067096D01*
X130775832Y-106042810D01*
X130831247Y-106020365D01*
X131022931Y-105942725D01*
X131022932Y-105942725D01*
X131027160Y-105941012D01*
X131261161Y-105803999D01*
X131472932Y-105634641D01*
X131594399Y-105504612D01*
X131654921Y-105439824D01*
X131654923Y-105439821D01*
X131658037Y-105436488D01*
X131812598Y-105213688D01*
X131878599Y-105081022D01*
X131931346Y-104974997D01*
X131931347Y-104974994D01*
X131933379Y-104970910D01*
X132017847Y-104713240D01*
X132064235Y-104446075D01*
X132068500Y-104360400D01*
X132068500Y-103671116D01*
X132066328Y-103641170D01*
X132054205Y-103474100D01*
X132053875Y-103469549D01*
X132052891Y-103465091D01*
X131996400Y-103209223D01*
X131996399Y-103209219D01*
X131995415Y-103204763D01*
X131928859Y-103029090D01*
X131900963Y-102955460D01*
X131900962Y-102955457D01*
X131899345Y-102951190D01*
X131767676Y-102714141D01*
X131603167Y-102498583D01*
X131409264Y-102309030D01*
X131335119Y-102255061D01*
X131267980Y-102206192D01*
X132386847Y-102206192D01*
X132387343Y-102210292D01*
X132387478Y-102212745D01*
X132387975Y-102218957D01*
X132403570Y-102615878D01*
X132403859Y-102618321D01*
X132403860Y-102618332D01*
X132426155Y-102806704D01*
X132451760Y-103023039D01*
X132531748Y-103425163D01*
X132643039Y-103819772D01*
X132784948Y-104204433D01*
X132785978Y-104206668D01*
X132785980Y-104206672D01*
X132955563Y-104574526D01*
X132955570Y-104574539D01*
X132956600Y-104576774D01*
X133156936Y-104934499D01*
X133242995Y-105063295D01*
X133378501Y-105266092D01*
X133384722Y-105275403D01*
X133638553Y-105597385D01*
X133640228Y-105599197D01*
X133640234Y-105599204D01*
X133669163Y-105630498D01*
X133700716Y-105694098D01*
X133701854Y-105730073D01*
X133696719Y-105775851D01*
X133697235Y-105781995D01*
X133710588Y-105941012D01*
X133713268Y-105972934D01*
X133714967Y-105978858D01*
X133762293Y-106143903D01*
X133767783Y-106163050D01*
X133858187Y-106338956D01*
X133981035Y-106493953D01*
X134131650Y-106622136D01*
X134304294Y-106718624D01*
X134492392Y-106779740D01*
X134688777Y-106803158D01*
X134694912Y-106802686D01*
X134694914Y-106802686D01*
X134879830Y-106788457D01*
X134879834Y-106788456D01*
X134885972Y-106787984D01*
X135076463Y-106734798D01*
X135081967Y-106732018D01*
X135081969Y-106732017D01*
X135247495Y-106648404D01*
X135247497Y-106648403D01*
X135252996Y-106645625D01*
X135408847Y-106523861D01*
X135538078Y-106374145D01*
X135635769Y-106202179D01*
X135698197Y-106014513D01*
X135722985Y-105818295D01*
X135723380Y-105790000D01*
X135704080Y-105593167D01*
X135646916Y-105403831D01*
X135554066Y-105229204D01*
X135475687Y-105133102D01*
X135432960Y-105080713D01*
X135432957Y-105080710D01*
X135429065Y-105075938D01*
X135424316Y-105072009D01*
X135281425Y-104953799D01*
X135281421Y-104953797D01*
X135276675Y-104949870D01*
X135102701Y-104855802D01*
X134913768Y-104797318D01*
X134907643Y-104796674D01*
X134907642Y-104796674D01*
X134723204Y-104777289D01*
X134723202Y-104777289D01*
X134717075Y-104776645D01*
X134682927Y-104779753D01*
X134613275Y-104766008D01*
X134571546Y-104730976D01*
X134561262Y-104717573D01*
X134376313Y-104476544D01*
X134370008Y-104467540D01*
X134190737Y-104186142D01*
X134185247Y-104176633D01*
X134031176Y-103880667D01*
X134026539Y-103870723D01*
X134023639Y-103863720D01*
X133898851Y-103562457D01*
X133895095Y-103552135D01*
X133894468Y-103550144D01*
X133794767Y-103233935D01*
X133791922Y-103223318D01*
X133788797Y-103209223D01*
X133719708Y-102897578D01*
X133717800Y-102886761D01*
X133716769Y-102878925D01*
X133674251Y-102555966D01*
X133673293Y-102545017D01*
X133660350Y-102248568D01*
X133661308Y-102226625D01*
X133662127Y-102220408D01*
X133662127Y-102220404D01*
X133663118Y-102212877D01*
X133659261Y-102177941D01*
X133658500Y-102164114D01*
X133658500Y-100890687D01*
X133678502Y-100822566D01*
X133732158Y-100776073D01*
X133802432Y-100765969D01*
X133867012Y-100795463D01*
X133904550Y-100852423D01*
X133985047Y-101104976D01*
X134207106Y-101686702D01*
X134461433Y-102255061D01*
X134747229Y-102808265D01*
X134748121Y-102809776D01*
X134748122Y-102809779D01*
X135026933Y-103282427D01*
X135063593Y-103344575D01*
X135064567Y-103346033D01*
X135064571Y-103346039D01*
X135408546Y-103860828D01*
X135409531Y-103862302D01*
X135410595Y-103863716D01*
X135410598Y-103863720D01*
X135762389Y-104331164D01*
X135783954Y-104359818D01*
X135785087Y-104361159D01*
X135785088Y-104361161D01*
X135882521Y-104476544D01*
X136185684Y-104835558D01*
X136417460Y-105080713D01*
X136586468Y-105259477D01*
X136592084Y-105266124D01*
X136592121Y-105266092D01*
X136594710Y-105269111D01*
X136597087Y-105272266D01*
X136612927Y-105288553D01*
X136643286Y-105312788D01*
X136653773Y-105322165D01*
X137470697Y-106139089D01*
X137481160Y-106150957D01*
X137500937Y-106176453D01*
X137506385Y-106180928D01*
X137525947Y-106196997D01*
X137538190Y-106208503D01*
X137854722Y-106548480D01*
X137860613Y-106555278D01*
X138172909Y-106942811D01*
X138178285Y-106949993D01*
X138462139Y-107358816D01*
X138467002Y-107366383D01*
X138720963Y-107794408D01*
X138725273Y-107802302D01*
X138948044Y-108247340D01*
X138951781Y-108255522D01*
X139142243Y-108715334D01*
X139145382Y-108723749D01*
X139275692Y-109115265D01*
X139302557Y-109195981D01*
X139305091Y-109204611D01*
X139428174Y-109686842D01*
X139430086Y-109695631D01*
X139518453Y-110185416D01*
X139519733Y-110194319D01*
X139572933Y-110689153D01*
X139573575Y-110698125D01*
X139589710Y-111149881D01*
X139588796Y-111170170D01*
X139587502Y-111180414D01*
X139586463Y-111188640D01*
X139587151Y-111195652D01*
X139590899Y-111233882D01*
X139591500Y-111246177D01*
X139591500Y-122147257D01*
X139590506Y-122163050D01*
X139586463Y-122195051D01*
X139587151Y-122202064D01*
X139588667Y-122217531D01*
X139588879Y-122239712D01*
X139577686Y-122381913D01*
X139574596Y-122401430D01*
X139535807Y-122562993D01*
X139529705Y-122581772D01*
X139466121Y-122735276D01*
X139457153Y-122752875D01*
X139370342Y-122894538D01*
X139358728Y-122910523D01*
X139250832Y-123036852D01*
X139236852Y-123050832D01*
X139110523Y-123158728D01*
X139094538Y-123170342D01*
X138952875Y-123257153D01*
X138935276Y-123266121D01*
X138781772Y-123329705D01*
X138762981Y-123335810D01*
X138601443Y-123374593D01*
X138581922Y-123377685D01*
X138520327Y-123382533D01*
X138456623Y-123387547D01*
X138437054Y-123386996D01*
X138437011Y-123387556D01*
X138433067Y-123387253D01*
X138429142Y-123386701D01*
X138418477Y-123386552D01*
X138417771Y-123386463D01*
X138417063Y-123386532D01*
X138406425Y-123386384D01*
X138402504Y-123386824D01*
X138402498Y-123386824D01*
X138393754Y-123387805D01*
X138386308Y-123388417D01*
X138090846Y-123403899D01*
X137963227Y-123424111D01*
X137781981Y-123452816D01*
X137781975Y-123452817D01*
X137778725Y-123453332D01*
X137473480Y-123535121D01*
X137178458Y-123648368D01*
X137175516Y-123649867D01*
X137067138Y-123705088D01*
X136896889Y-123791833D01*
X136631859Y-123963945D01*
X136629302Y-123966016D01*
X136629296Y-123966020D01*
X136416489Y-124138347D01*
X136386271Y-124162817D01*
X136162817Y-124386271D01*
X136160745Y-124388830D01*
X136160743Y-124388832D01*
X135980881Y-124610945D01*
X135963945Y-124631859D01*
X135791833Y-124896889D01*
X135648368Y-125178458D01*
X135594115Y-125319793D01*
X135544508Y-125449027D01*
X135535121Y-125473480D01*
X135453332Y-125778725D01*
X135403899Y-126090846D01*
X135399328Y-126178086D01*
X135389943Y-126357188D01*
X135388890Y-126368129D01*
X135387745Y-126376277D01*
X135386701Y-126383708D01*
X135386384Y-126406425D01*
X135386826Y-126410362D01*
X135390715Y-126445034D01*
X135391500Y-126459080D01*
X135391500Y-133990845D01*
X135390506Y-134006637D01*
X135386463Y-134038640D01*
X135387152Y-134045661D01*
X135387091Y-134050004D01*
X135387165Y-134050000D01*
X135404491Y-134380606D01*
X135405004Y-134383846D01*
X135405005Y-134383854D01*
X135420913Y-134484291D01*
X135456281Y-134707590D01*
X135541965Y-135027370D01*
X135660606Y-135336441D01*
X135662104Y-135339381D01*
X135801277Y-135612522D01*
X135810905Y-135631418D01*
X135991213Y-135909068D01*
X136199556Y-136166350D01*
X136433650Y-136400444D01*
X136690932Y-136608787D01*
X136693707Y-136610589D01*
X136894163Y-136740766D01*
X136968583Y-136789095D01*
X137263559Y-136939394D01*
X137572630Y-137058035D01*
X137892410Y-137143719D01*
X138065964Y-137171208D01*
X138216146Y-137194995D01*
X138216154Y-137194996D01*
X138219394Y-137195509D01*
X138503015Y-137210373D01*
X138513954Y-137211426D01*
X138523354Y-137212747D01*
X138523356Y-137212747D01*
X138527283Y-137213299D01*
X138538985Y-137213462D01*
X138546038Y-137213561D01*
X138546043Y-137213561D01*
X138550000Y-137213616D01*
X138588611Y-137209285D01*
X138602657Y-137208500D01*
X139095610Y-137208500D01*
X139174355Y-137199667D01*
X139223259Y-137194182D01*
X139223261Y-137194181D01*
X139230255Y-137193397D01*
X139235724Y-137191493D01*
X139262398Y-137188500D01*
X139647900Y-137188500D01*
X139651146Y-137188163D01*
X139651150Y-137188163D01*
X139746808Y-137178238D01*
X139746812Y-137178237D01*
X139753666Y-137177526D01*
X139760202Y-137175345D01*
X139760204Y-137175345D01*
X139914498Y-137123868D01*
X139921446Y-137121550D01*
X140071848Y-137028478D01*
X140196805Y-136903303D01*
X140289615Y-136752738D01*
X140291918Y-136745795D01*
X140294263Y-136740766D01*
X140341180Y-136687481D01*
X140409458Y-136668021D01*
X140477418Y-136688564D01*
X140503694Y-136711520D01*
X140572191Y-136790594D01*
X140583750Y-136803938D01*
X140755626Y-136946632D01*
X140948500Y-137059338D01*
X141157192Y-137139030D01*
X141162260Y-137140061D01*
X141162263Y-137140062D01*
X141238380Y-137155548D01*
X141376097Y-137183567D01*
X141381272Y-137183757D01*
X141381274Y-137183757D01*
X141594173Y-137191564D01*
X141594177Y-137191564D01*
X141599337Y-137191753D01*
X141604457Y-137191097D01*
X141604459Y-137191097D01*
X141815788Y-137164025D01*
X141815789Y-137164025D01*
X141820916Y-137163368D01*
X141825866Y-137161883D01*
X142029929Y-137100661D01*
X142029934Y-137100659D01*
X142034884Y-137099174D01*
X142235494Y-137000896D01*
X142417360Y-136871173D01*
X142575596Y-136713489D01*
X142705953Y-136532077D01*
X142804930Y-136331811D01*
X142869870Y-136118069D01*
X142899029Y-135896590D01*
X142900656Y-135830000D01*
X142882352Y-135607361D01*
X142827931Y-135390702D01*
X142738854Y-135185840D01*
X142662820Y-135068309D01*
X142620322Y-135002617D01*
X142620320Y-135002614D01*
X142617514Y-134998277D01*
X142467170Y-134833051D01*
X142463119Y-134829852D01*
X142463115Y-134829848D01*
X142295914Y-134697800D01*
X142295910Y-134697798D01*
X142291859Y-134694598D01*
X142284186Y-134690362D01*
X142250069Y-134671529D01*
X142200098Y-134621097D01*
X142185326Y-134551654D01*
X142210442Y-134485248D01*
X142237793Y-134458642D01*
X142286747Y-134423723D01*
X142295148Y-134413023D01*
X142288160Y-134399870D01*
X141550312Y-133662022D01*
X141536368Y-133654408D01*
X141534535Y-133654539D01*
X141527920Y-133658790D01*
X140784237Y-134402473D01*
X140777477Y-134414853D01*
X140782758Y-134421907D01*
X140829469Y-134449203D01*
X140878193Y-134500841D01*
X140891264Y-134570624D01*
X140864533Y-134636396D01*
X140824084Y-134669752D01*
X140811107Y-134676507D01*
X140806974Y-134679610D01*
X140806971Y-134679612D01*
X140636600Y-134807530D01*
X140632465Y-134810635D01*
X140541281Y-134906054D01*
X140498527Y-134950793D01*
X140437003Y-134986223D01*
X140366090Y-134982766D01*
X140308304Y-134941520D01*
X140293333Y-134917194D01*
X140291365Y-134912994D01*
X140289050Y-134906054D01*
X140195978Y-134755652D01*
X140070803Y-134630695D01*
X139977784Y-134573357D01*
X139926468Y-134541725D01*
X139926466Y-134541724D01*
X139920238Y-134537885D01*
X139866474Y-134520052D01*
X139845140Y-134512976D01*
X139786780Y-134472545D01*
X139776229Y-134447146D01*
X139773924Y-134448370D01*
X139748160Y-134399870D01*
X139010312Y-133662022D01*
X138996368Y-133654408D01*
X138994535Y-133654539D01*
X138987920Y-133658790D01*
X138244237Y-134402473D01*
X138221485Y-134444139D01*
X138219277Y-134454287D01*
X138169074Y-134504488D01*
X138148567Y-134513424D01*
X138073554Y-134538450D01*
X137923152Y-134631522D01*
X137917979Y-134636704D01*
X137860186Y-134694598D01*
X137798195Y-134756697D01*
X137794355Y-134762927D01*
X137794354Y-134762928D01*
X137709966Y-134899831D01*
X137705385Y-134907262D01*
X137651968Y-135068311D01*
X137611539Y-135126669D01*
X137545975Y-135153906D01*
X137476093Y-135141373D01*
X137443281Y-135117737D01*
X137391387Y-135065843D01*
X137379614Y-135052257D01*
X137339205Y-134998277D01*
X137258606Y-134890609D01*
X137248889Y-134875489D01*
X137227802Y-134836870D01*
X137152120Y-134698271D01*
X137144653Y-134681920D01*
X137141746Y-134674124D01*
X137074090Y-134492731D01*
X137069026Y-134475483D01*
X137057371Y-134421907D01*
X137026105Y-134278183D01*
X137023547Y-134260392D01*
X137012147Y-134100995D01*
X137012842Y-134080613D01*
X137012444Y-134080582D01*
X137012747Y-134076642D01*
X137013299Y-134072717D01*
X137013616Y-134050000D01*
X137009285Y-134011388D01*
X137008500Y-133997343D01*
X137008500Y-133261863D01*
X137635550Y-133261863D01*
X137647809Y-133474477D01*
X137649245Y-133484697D01*
X137696065Y-133692446D01*
X137699145Y-133702275D01*
X137779270Y-133899603D01*
X137783913Y-133908794D01*
X137863960Y-134039420D01*
X137874416Y-134048880D01*
X137883194Y-134045096D01*
X138625478Y-133302812D01*
X138631856Y-133291132D01*
X139361908Y-133291132D01*
X139362039Y-133292965D01*
X139366290Y-133299580D01*
X140107974Y-134041264D01*
X140119984Y-134047823D01*
X140131723Y-134038855D01*
X140165522Y-133991819D01*
X140166649Y-133992629D01*
X140214159Y-133948881D01*
X140284096Y-133936661D01*
X140349538Y-133964191D01*
X140377370Y-133996029D01*
X140403959Y-134039419D01*
X140414416Y-134048880D01*
X140423194Y-134045096D01*
X141165478Y-133302812D01*
X141171856Y-133291132D01*
X141901908Y-133291132D01*
X141902039Y-133292965D01*
X141906290Y-133299580D01*
X142647974Y-134041264D01*
X142659984Y-134047823D01*
X142671723Y-134038855D01*
X142702504Y-133996019D01*
X142707815Y-133987180D01*
X142802170Y-133796267D01*
X142805969Y-133786672D01*
X142867876Y-133582915D01*
X142870055Y-133572834D01*
X142898090Y-133359887D01*
X142898609Y-133353212D01*
X142900072Y-133293364D01*
X142899878Y-133286646D01*
X142882281Y-133072604D01*
X142880596Y-133062424D01*
X142828714Y-132855875D01*
X142825394Y-132846124D01*
X142740472Y-132650814D01*
X142735605Y-132641739D01*
X142670563Y-132541197D01*
X142659877Y-132531995D01*
X142650312Y-132536398D01*
X141909522Y-133277188D01*
X141901908Y-133291132D01*
X141171856Y-133291132D01*
X141173092Y-133288868D01*
X141172961Y-133287035D01*
X141168710Y-133280420D01*
X140427349Y-132539059D01*
X140415813Y-132532759D01*
X140403528Y-132542384D01*
X140370692Y-132590520D01*
X140315781Y-132635523D01*
X140245256Y-132643694D01*
X140181509Y-132612440D01*
X140160811Y-132587955D01*
X140130562Y-132541197D01*
X140119877Y-132531995D01*
X140110312Y-132536398D01*
X139369522Y-133277188D01*
X139361908Y-133291132D01*
X138631856Y-133291132D01*
X138633092Y-133288868D01*
X138632961Y-133287035D01*
X138628710Y-133280420D01*
X137887349Y-132539059D01*
X137875813Y-132532759D01*
X137863531Y-132542382D01*
X137815589Y-132612662D01*
X137810504Y-132621613D01*
X137720838Y-132814783D01*
X137717275Y-132824470D01*
X137660364Y-133029681D01*
X137658433Y-133039800D01*
X137635802Y-133251574D01*
X137635550Y-133261863D01*
X137008500Y-133261863D01*
X137008500Y-131874853D01*
X138237477Y-131874853D01*
X138242758Y-131881907D01*
X138289979Y-131909501D01*
X138338703Y-131961139D01*
X138351774Y-132030922D01*
X138325043Y-132096694D01*
X138284587Y-132130053D01*
X138275966Y-132134541D01*
X138267234Y-132140039D01*
X138247177Y-132155099D01*
X138238723Y-132166427D01*
X138245468Y-132178758D01*
X138984688Y-132917978D01*
X138998632Y-132925592D01*
X139000465Y-132925461D01*
X139007080Y-132921210D01*
X139750889Y-132177401D01*
X139757910Y-132164544D01*
X139751111Y-132155213D01*
X139747059Y-132152521D01*
X139709616Y-132131852D01*
X139659645Y-132081420D01*
X139644873Y-132011977D01*
X139669989Y-131945572D01*
X139697340Y-131918965D01*
X139746747Y-131883723D01*
X139753711Y-131874853D01*
X140777477Y-131874853D01*
X140782758Y-131881907D01*
X140829979Y-131909501D01*
X140878703Y-131961139D01*
X140891774Y-132030922D01*
X140865043Y-132096694D01*
X140824587Y-132130053D01*
X140815966Y-132134541D01*
X140807234Y-132140039D01*
X140787177Y-132155099D01*
X140778723Y-132166427D01*
X140785468Y-132178758D01*
X141524688Y-132917978D01*
X141538632Y-132925592D01*
X141540465Y-132925461D01*
X141547080Y-132921210D01*
X142290889Y-132177401D01*
X142297910Y-132164544D01*
X142291111Y-132155213D01*
X142287059Y-132152521D01*
X142249616Y-132131852D01*
X142199645Y-132081420D01*
X142184873Y-132011977D01*
X142209989Y-131945572D01*
X142237340Y-131918965D01*
X142286747Y-131883723D01*
X142295148Y-131873023D01*
X142288160Y-131859870D01*
X141550312Y-131122022D01*
X141536368Y-131114408D01*
X141534535Y-131114539D01*
X141527920Y-131118790D01*
X140784237Y-131862473D01*
X140777477Y-131874853D01*
X139753711Y-131874853D01*
X139755148Y-131873023D01*
X139748160Y-131859870D01*
X139010312Y-131122022D01*
X138996368Y-131114408D01*
X138994535Y-131114539D01*
X138987920Y-131118790D01*
X138244237Y-131862473D01*
X138237477Y-131874853D01*
X137008500Y-131874853D01*
X137008500Y-130721863D01*
X137635550Y-130721863D01*
X137647809Y-130934477D01*
X137649245Y-130944697D01*
X137696065Y-131152446D01*
X137699145Y-131162275D01*
X137779270Y-131359603D01*
X137783913Y-131368794D01*
X137863960Y-131499420D01*
X137874416Y-131508880D01*
X137883194Y-131505096D01*
X138625478Y-130762812D01*
X138631856Y-130751132D01*
X139361908Y-130751132D01*
X139362039Y-130752965D01*
X139366290Y-130759580D01*
X140107974Y-131501264D01*
X140119984Y-131507823D01*
X140131723Y-131498855D01*
X140165522Y-131451819D01*
X140166649Y-131452629D01*
X140214159Y-131408881D01*
X140284096Y-131396661D01*
X140349538Y-131424191D01*
X140377370Y-131456029D01*
X140403959Y-131499419D01*
X140414416Y-131508880D01*
X140423194Y-131505096D01*
X141165478Y-130762812D01*
X141171856Y-130751132D01*
X141901908Y-130751132D01*
X141902039Y-130752965D01*
X141906290Y-130759580D01*
X142647974Y-131501264D01*
X142659984Y-131507823D01*
X142671723Y-131498855D01*
X142702504Y-131456019D01*
X142707815Y-131447180D01*
X142802170Y-131256267D01*
X142805969Y-131246672D01*
X142867876Y-131042915D01*
X142870055Y-131032834D01*
X142898090Y-130819887D01*
X142898609Y-130813212D01*
X142900072Y-130753364D01*
X142899878Y-130746646D01*
X142882281Y-130532604D01*
X142880596Y-130522424D01*
X142828714Y-130315875D01*
X142825394Y-130306124D01*
X142740472Y-130110814D01*
X142735605Y-130101739D01*
X142670563Y-130001197D01*
X142659877Y-129991995D01*
X142650312Y-129996398D01*
X141909522Y-130737188D01*
X141901908Y-130751132D01*
X141171856Y-130751132D01*
X141173092Y-130748868D01*
X141172961Y-130747035D01*
X141168710Y-130740420D01*
X140427349Y-129999059D01*
X140415813Y-129992759D01*
X140403528Y-130002384D01*
X140370692Y-130050520D01*
X140315781Y-130095523D01*
X140245256Y-130103694D01*
X140181509Y-130072440D01*
X140160811Y-130047955D01*
X140130562Y-130001197D01*
X140119877Y-129991995D01*
X140110312Y-129996398D01*
X139369522Y-130737188D01*
X139361908Y-130751132D01*
X138631856Y-130751132D01*
X138633092Y-130748868D01*
X138632961Y-130747035D01*
X138628710Y-130740420D01*
X137887349Y-129999059D01*
X137875813Y-129992759D01*
X137863531Y-130002382D01*
X137815589Y-130072662D01*
X137810504Y-130081613D01*
X137720838Y-130274783D01*
X137717275Y-130284470D01*
X137660364Y-130489681D01*
X137658433Y-130499800D01*
X137635802Y-130711574D01*
X137635550Y-130721863D01*
X137008500Y-130721863D01*
X137008500Y-129334853D01*
X138237477Y-129334853D01*
X138242758Y-129341907D01*
X138289979Y-129369501D01*
X138338703Y-129421139D01*
X138351774Y-129490922D01*
X138325043Y-129556694D01*
X138284587Y-129590053D01*
X138275966Y-129594541D01*
X138267234Y-129600039D01*
X138247177Y-129615099D01*
X138238723Y-129626427D01*
X138245468Y-129638758D01*
X138984688Y-130377978D01*
X138998632Y-130385592D01*
X139000465Y-130385461D01*
X139007080Y-130381210D01*
X139750889Y-129637401D01*
X139757910Y-129624544D01*
X139751111Y-129615213D01*
X139747059Y-129612521D01*
X139709616Y-129591852D01*
X139659645Y-129541420D01*
X139644873Y-129471977D01*
X139669989Y-129405572D01*
X139697340Y-129378965D01*
X139746747Y-129343723D01*
X139753711Y-129334853D01*
X140777477Y-129334853D01*
X140782758Y-129341907D01*
X140829979Y-129369501D01*
X140878703Y-129421139D01*
X140891774Y-129490922D01*
X140865043Y-129556694D01*
X140824587Y-129590053D01*
X140815966Y-129594541D01*
X140807234Y-129600039D01*
X140787177Y-129615099D01*
X140778723Y-129626427D01*
X140785468Y-129638758D01*
X141524688Y-130377978D01*
X141538632Y-130385592D01*
X141540465Y-130385461D01*
X141547080Y-130381210D01*
X142290889Y-129637401D01*
X142297910Y-129624544D01*
X142291111Y-129615213D01*
X142287059Y-129612521D01*
X142249616Y-129591852D01*
X142199645Y-129541420D01*
X142184873Y-129471977D01*
X142209989Y-129405572D01*
X142237340Y-129378965D01*
X142286747Y-129343723D01*
X142295148Y-129333023D01*
X142288160Y-129319870D01*
X141550312Y-128582022D01*
X141536368Y-128574408D01*
X141534535Y-128574539D01*
X141527920Y-128578790D01*
X140784237Y-129322473D01*
X140777477Y-129334853D01*
X139753711Y-129334853D01*
X139755148Y-129333023D01*
X139748160Y-129319870D01*
X139010312Y-128582022D01*
X138996368Y-128574408D01*
X138994535Y-128574539D01*
X138987920Y-128578790D01*
X138244237Y-129322473D01*
X138237477Y-129334853D01*
X137008500Y-129334853D01*
X137008500Y-128181863D01*
X137635550Y-128181863D01*
X137647809Y-128394477D01*
X137649245Y-128404697D01*
X137696065Y-128612446D01*
X137699145Y-128622275D01*
X137779270Y-128819603D01*
X137783913Y-128828794D01*
X137863960Y-128959420D01*
X137874416Y-128968880D01*
X137883194Y-128965096D01*
X138625478Y-128222812D01*
X138631856Y-128211132D01*
X139361908Y-128211132D01*
X139362039Y-128212965D01*
X139366290Y-128219580D01*
X140107974Y-128961264D01*
X140119984Y-128967823D01*
X140131723Y-128958855D01*
X140165522Y-128911819D01*
X140166649Y-128912629D01*
X140214159Y-128868881D01*
X140284096Y-128856661D01*
X140349538Y-128884191D01*
X140377370Y-128916029D01*
X140403959Y-128959419D01*
X140414416Y-128968880D01*
X140423194Y-128965096D01*
X141165478Y-128222812D01*
X141171856Y-128211132D01*
X141901908Y-128211132D01*
X141902039Y-128212965D01*
X141906290Y-128219580D01*
X142647974Y-128961264D01*
X142659984Y-128967823D01*
X142671723Y-128958855D01*
X142702504Y-128916019D01*
X142707815Y-128907180D01*
X142802170Y-128716267D01*
X142805969Y-128706672D01*
X142867876Y-128502915D01*
X142870055Y-128492834D01*
X142898090Y-128279887D01*
X142898609Y-128273212D01*
X142900072Y-128213364D01*
X142899878Y-128206646D01*
X142882281Y-127992604D01*
X142880596Y-127982424D01*
X142828714Y-127775875D01*
X142825394Y-127766124D01*
X142740472Y-127570814D01*
X142735605Y-127561739D01*
X142670563Y-127461197D01*
X142659877Y-127451995D01*
X142650312Y-127456398D01*
X141909522Y-128197188D01*
X141901908Y-128211132D01*
X141171856Y-128211132D01*
X141173092Y-128208868D01*
X141172961Y-128207035D01*
X141168710Y-128200420D01*
X140427349Y-127459059D01*
X140415813Y-127452759D01*
X140403528Y-127462384D01*
X140370692Y-127510520D01*
X140315781Y-127555523D01*
X140245256Y-127563694D01*
X140181509Y-127532440D01*
X140160811Y-127507955D01*
X140130562Y-127461197D01*
X140119877Y-127451995D01*
X140110312Y-127456398D01*
X139369522Y-128197188D01*
X139361908Y-128211132D01*
X138631856Y-128211132D01*
X138633092Y-128208868D01*
X138632961Y-128207035D01*
X138628710Y-128200420D01*
X137887349Y-127459059D01*
X137875813Y-127452759D01*
X137863531Y-127462382D01*
X137815589Y-127532662D01*
X137810504Y-127541613D01*
X137720838Y-127734783D01*
X137717275Y-127744470D01*
X137660364Y-127949681D01*
X137658433Y-127959800D01*
X137635802Y-128171574D01*
X137635550Y-128181863D01*
X137008500Y-128181863D01*
X137008500Y-126465576D01*
X137009493Y-126449785D01*
X137012654Y-126424759D01*
X137013537Y-126417771D01*
X137012850Y-126410763D01*
X137012850Y-126410755D01*
X137011334Y-126395298D01*
X137011120Y-126373116D01*
X137011513Y-126368129D01*
X137024931Y-126197614D01*
X137028024Y-126178086D01*
X137074602Y-125984073D01*
X137080712Y-125965269D01*
X137157065Y-125780934D01*
X137166041Y-125763318D01*
X137270293Y-125593193D01*
X137281914Y-125577197D01*
X137367769Y-125476672D01*
X137411497Y-125425473D01*
X137425475Y-125411495D01*
X137441492Y-125397815D01*
X137506281Y-125368785D01*
X137576481Y-125379390D01*
X137629804Y-125426265D01*
X137649319Y-125494526D01*
X137648609Y-125507016D01*
X137641565Y-125572937D01*
X137634751Y-125636695D01*
X137635048Y-125641848D01*
X137635048Y-125641851D01*
X137643128Y-125781981D01*
X137647610Y-125859715D01*
X137648747Y-125864761D01*
X137648748Y-125864767D01*
X137668619Y-125952940D01*
X137696722Y-126077639D01*
X137734961Y-126171811D01*
X137768141Y-126253523D01*
X137780766Y-126284616D01*
X137783465Y-126289020D01*
X137886799Y-126457646D01*
X137897487Y-126475088D01*
X138043750Y-126643938D01*
X138215626Y-126786632D01*
X138289455Y-126829774D01*
X138338179Y-126881412D01*
X138351250Y-126951195D01*
X138324519Y-127016967D01*
X138284062Y-127050327D01*
X138275960Y-127054544D01*
X138267234Y-127060039D01*
X138247177Y-127075099D01*
X138238723Y-127086427D01*
X138245468Y-127098758D01*
X138984688Y-127837978D01*
X138998632Y-127845592D01*
X139000465Y-127845461D01*
X139007080Y-127841210D01*
X139750889Y-127097401D01*
X139757910Y-127084544D01*
X139751111Y-127075213D01*
X139747059Y-127072521D01*
X139710102Y-127052120D01*
X139660131Y-127001687D01*
X139645359Y-126932245D01*
X139670475Y-126865839D01*
X139697827Y-126839232D01*
X139761616Y-126793732D01*
X139877360Y-126711173D01*
X140035596Y-126553489D01*
X140038669Y-126549213D01*
X140051776Y-126530973D01*
X140107771Y-126487326D01*
X140154098Y-126478500D01*
X140382889Y-126478500D01*
X140451010Y-126498502D01*
X140478125Y-126522001D01*
X140583750Y-126643938D01*
X140755626Y-126786632D01*
X140829455Y-126829774D01*
X140878179Y-126881412D01*
X140891250Y-126951195D01*
X140864519Y-127016967D01*
X140824062Y-127050327D01*
X140815960Y-127054544D01*
X140807234Y-127060039D01*
X140787177Y-127075099D01*
X140778723Y-127086427D01*
X140785468Y-127098758D01*
X141524688Y-127837978D01*
X141538632Y-127845592D01*
X141540465Y-127845461D01*
X141547080Y-127841210D01*
X142290889Y-127097401D01*
X142297910Y-127084544D01*
X142291111Y-127075213D01*
X142287059Y-127072521D01*
X142250102Y-127052120D01*
X142200131Y-127001687D01*
X142185359Y-126932245D01*
X142210475Y-126865839D01*
X142237827Y-126839232D01*
X142301616Y-126793732D01*
X142417360Y-126711173D01*
X142575596Y-126553489D01*
X142617645Y-126494972D01*
X142702935Y-126376277D01*
X142705953Y-126372077D01*
X142710593Y-126362690D01*
X142802636Y-126176453D01*
X142802637Y-126176451D01*
X142804930Y-126171811D01*
X142835074Y-126072596D01*
X142868366Y-125963021D01*
X142868367Y-125963015D01*
X142869870Y-125958069D01*
X142877578Y-125899521D01*
X142901632Y-125840458D01*
X143028465Y-125671029D01*
X143031166Y-125667421D01*
X143152573Y-125445079D01*
X143177074Y-125379390D01*
X143239534Y-125211931D01*
X143239536Y-125211924D01*
X143241103Y-125207723D01*
X143244640Y-125191466D01*
X143280481Y-125026706D01*
X143294952Y-124960183D01*
X143309125Y-124762023D01*
X143310029Y-124753483D01*
X143312748Y-124734139D01*
X143312748Y-124734136D01*
X143313299Y-124730217D01*
X143313616Y-124707500D01*
X143309285Y-124668888D01*
X143308500Y-124654843D01*
X143308500Y-99290676D01*
X143309726Y-99273140D01*
X143312748Y-99251639D01*
X143312748Y-99251636D01*
X143313299Y-99247717D01*
X143313616Y-99225000D01*
X143313129Y-99220652D01*
X143312151Y-99211936D01*
X143311564Y-99204959D01*
X143296145Y-98930402D01*
X143295947Y-98926873D01*
X143245930Y-98632496D01*
X143163268Y-98345570D01*
X143122153Y-98246310D01*
X143050354Y-98072971D01*
X143050352Y-98072966D01*
X143049000Y-98069703D01*
X142904563Y-97808364D01*
X142731774Y-97564841D01*
X142532805Y-97342195D01*
X142310159Y-97143226D01*
X142066636Y-96970437D01*
X141805297Y-96826000D01*
X141802034Y-96824648D01*
X141802029Y-96824646D01*
X141532699Y-96713086D01*
X141532698Y-96713086D01*
X141529430Y-96711732D01*
X141242504Y-96629070D01*
X140948127Y-96579053D01*
X140874861Y-96574939D01*
X140700325Y-96565137D01*
X140689855Y-96564109D01*
X140676644Y-96562252D01*
X140676629Y-96562251D01*
X140672717Y-96561701D01*
X140661942Y-96561551D01*
X140653962Y-96561439D01*
X140653957Y-96561439D01*
X140650000Y-96561384D01*
X140616541Y-96565137D01*
X140611388Y-96565715D01*
X140597343Y-96566500D01*
X140325273Y-96566500D01*
X140257152Y-96546498D01*
X140248927Y-96540486D01*
X140246418Y-96538794D01*
X140241675Y-96534870D01*
X140067701Y-96440802D01*
X139878768Y-96382318D01*
X139872643Y-96381674D01*
X139872642Y-96381674D01*
X139688204Y-96362289D01*
X139688202Y-96362289D01*
X139682075Y-96361645D01*
X139599576Y-96369153D01*
X139491251Y-96379011D01*
X139491248Y-96379012D01*
X139485112Y-96379570D01*
X139479206Y-96381308D01*
X139479202Y-96381309D01*
X139374076Y-96412249D01*
X139295381Y-96435410D01*
X139289923Y-96438263D01*
X139289919Y-96438265D01*
X139199147Y-96485720D01*
X139120110Y-96527040D01*
X138965975Y-96650968D01*
X138838846Y-96802474D01*
X138835879Y-96807872D01*
X138835875Y-96807877D01*
X138757095Y-96951180D01*
X138743567Y-96975787D01*
X138741706Y-96981654D01*
X138741705Y-96981656D01*
X138690452Y-97143226D01*
X138683765Y-97164306D01*
X138661719Y-97360851D01*
X138678268Y-97557934D01*
X138732783Y-97748050D01*
X138823187Y-97923956D01*
X138946035Y-98078953D01*
X138950728Y-98082947D01*
X138950729Y-98082948D01*
X139086341Y-98198362D01*
X139096650Y-98207136D01*
X139269294Y-98303624D01*
X139457392Y-98364740D01*
X139653777Y-98388158D01*
X139659912Y-98387686D01*
X139659914Y-98387686D01*
X139844830Y-98373457D01*
X139844834Y-98373456D01*
X139850972Y-98372984D01*
X140041463Y-98319798D01*
X140046967Y-98317018D01*
X140046969Y-98317017D01*
X140212495Y-98233404D01*
X140212497Y-98233403D01*
X140217996Y-98230625D01*
X140244126Y-98210210D01*
X140310121Y-98184033D01*
X140321699Y-98183500D01*
X140590845Y-98183500D01*
X140606637Y-98184494D01*
X140638640Y-98188537D01*
X140651453Y-98187281D01*
X140659511Y-98186491D01*
X140682786Y-98186369D01*
X140767252Y-98193758D01*
X140819877Y-98198363D01*
X140841500Y-98202175D01*
X140958048Y-98233404D01*
X140995566Y-98243457D01*
X141016206Y-98250969D01*
X141160765Y-98318379D01*
X141179776Y-98329355D01*
X141227592Y-98362836D01*
X141310437Y-98420845D01*
X141327261Y-98434963D01*
X141440037Y-98547739D01*
X141454155Y-98564563D01*
X141545645Y-98695224D01*
X141556621Y-98714235D01*
X141615139Y-98839725D01*
X141624031Y-98858795D01*
X141631543Y-98879434D01*
X141672824Y-99033496D01*
X141676637Y-99055125D01*
X141687678Y-99181319D01*
X141687326Y-99199607D01*
X141687445Y-99199609D01*
X141687347Y-99206646D01*
X141686463Y-99213640D01*
X141687151Y-99220652D01*
X141690899Y-99258882D01*
X141691500Y-99271177D01*
X141691500Y-102810804D01*
X141671498Y-102878925D01*
X141617842Y-102925418D01*
X141547568Y-102935522D01*
X141482988Y-102906028D01*
X141455351Y-102871986D01*
X141430133Y-102826584D01*
X141367676Y-102714141D01*
X141203167Y-102498583D01*
X141009264Y-102309030D01*
X140935119Y-102255061D01*
X140793721Y-102152141D01*
X140790028Y-102149453D01*
X140550053Y-102023196D01*
X140545752Y-102021677D01*
X140545747Y-102021675D01*
X140367998Y-101958906D01*
X140294366Y-101932904D01*
X140196347Y-101913585D01*
X140032794Y-101881348D01*
X140032788Y-101881347D01*
X140028322Y-101880467D01*
X140023768Y-101880240D01*
X140023766Y-101880240D01*
X139762064Y-101867211D01*
X139762058Y-101867211D01*
X139757495Y-101866984D01*
X139487559Y-101892738D01*
X139483130Y-101893822D01*
X139483123Y-101893823D01*
X139353069Y-101925648D01*
X139224168Y-101957190D01*
X139219933Y-101958905D01*
X139219931Y-101958906D01*
X138977069Y-102057275D01*
X138972840Y-102058988D01*
X138738839Y-102196001D01*
X138527068Y-102365359D01*
X138523947Y-102368700D01*
X138399224Y-102502215D01*
X138341963Y-102563512D01*
X138187402Y-102786312D01*
X138185374Y-102790388D01*
X138185373Y-102790390D01*
X138070847Y-103020596D01*
X138066621Y-103029090D01*
X137982153Y-103286760D01*
X137981373Y-103291251D01*
X137981373Y-103291252D01*
X137972115Y-103344575D01*
X137935765Y-103553925D01*
X137931500Y-103639600D01*
X137931500Y-104006121D01*
X137911498Y-104074242D01*
X137857842Y-104120735D01*
X137787568Y-104130839D01*
X137722988Y-104101345D01*
X137713755Y-104092485D01*
X137495685Y-103860828D01*
X137370046Y-103727361D01*
X137365007Y-103721673D01*
X137320973Y-103668836D01*
X137003288Y-103287647D01*
X136998597Y-103281660D01*
X136945296Y-103209223D01*
X136663738Y-102826579D01*
X136659418Y-102820320D01*
X136653266Y-102810804D01*
X136367422Y-102368700D01*
X136352657Y-102345864D01*
X136348719Y-102339351D01*
X136248195Y-102161119D01*
X136071145Y-101847206D01*
X136067614Y-101840477D01*
X135993532Y-101688327D01*
X135820281Y-101332508D01*
X135817158Y-101325570D01*
X135600937Y-100803574D01*
X135598238Y-100796457D01*
X135413930Y-100262362D01*
X135411666Y-100255095D01*
X135259945Y-99710853D01*
X135258124Y-99703463D01*
X135167621Y-99281864D01*
X135139540Y-99151048D01*
X135138170Y-99143575D01*
X135104658Y-98923389D01*
X135053157Y-98585015D01*
X135052239Y-98577462D01*
X135031166Y-98345570D01*
X135001105Y-98014777D01*
X135000645Y-98007181D01*
X135000457Y-98000949D01*
X135016844Y-97934913D01*
X135097722Y-97792542D01*
X135100769Y-97787179D01*
X135163197Y-97599513D01*
X135187985Y-97403295D01*
X135188380Y-97375000D01*
X135169080Y-97178167D01*
X135111916Y-96988831D01*
X135019066Y-96814204D01*
X134934693Y-96710753D01*
X134897960Y-96665713D01*
X134897957Y-96665710D01*
X134894065Y-96660938D01*
X134887724Y-96655692D01*
X134746425Y-96538799D01*
X134746421Y-96538797D01*
X134741675Y-96534870D01*
X134567701Y-96440802D01*
X134378768Y-96382318D01*
X134372643Y-96381674D01*
X134372642Y-96381674D01*
X134188204Y-96362289D01*
X134188202Y-96362289D01*
X134182075Y-96361645D01*
X134099576Y-96369153D01*
X133991251Y-96379011D01*
X133991248Y-96379012D01*
X133985112Y-96379570D01*
X133979202Y-96381310D01*
X133979199Y-96381310D01*
X133820074Y-96428142D01*
X133749078Y-96428186D01*
X133689327Y-96389840D01*
X133659794Y-96325278D01*
X133658500Y-96307268D01*
X133658500Y-96139898D01*
X133659578Y-96123449D01*
X133662127Y-96104094D01*
X133662127Y-96104091D01*
X133663118Y-96096565D01*
X133662285Y-96089019D01*
X133662285Y-96089013D01*
X133661422Y-96081199D01*
X133661050Y-96057487D01*
X133663723Y-96023531D01*
X133669687Y-95947771D01*
X133672778Y-95928255D01*
X133703746Y-95799277D01*
X133709854Y-95780478D01*
X133760614Y-95657942D01*
X133769591Y-95640325D01*
X133838894Y-95527240D01*
X133850516Y-95511245D01*
X133917567Y-95432743D01*
X133930175Y-95420779D01*
X133930158Y-95420762D01*
X133935587Y-95415446D01*
X133941612Y-95410823D01*
X133946359Y-95404898D01*
X133946362Y-95404895D01*
X133963595Y-95383385D01*
X133972832Y-95373072D01*
X134616821Y-94729084D01*
X134630263Y-94717420D01*
X134645444Y-94706022D01*
X134645447Y-94706020D01*
X134648740Y-94703547D01*
X134658289Y-94694196D01*
X134662149Y-94689274D01*
X134664508Y-94686265D01*
X134670764Y-94678887D01*
X134872855Y-94458344D01*
X134874708Y-94456322D01*
X135070449Y-94201227D01*
X135134114Y-94101292D01*
X135241738Y-93932356D01*
X135241740Y-93932353D01*
X135243212Y-93930042D01*
X135391682Y-93644832D01*
X135514729Y-93347767D01*
X135515551Y-93345159D01*
X135515556Y-93345146D01*
X135586224Y-93121010D01*
X135611416Y-93041109D01*
X135666235Y-92793830D01*
X135700505Y-92731656D01*
X135722615Y-92714515D01*
X135723684Y-92713991D01*
X135912243Y-92579494D01*
X136076303Y-92416005D01*
X136145370Y-92319888D01*
X136201365Y-92276240D01*
X136272068Y-92269794D01*
X136335033Y-92302597D01*
X136355128Y-92327584D01*
X136356799Y-92330311D01*
X136356804Y-92330317D01*
X136359501Y-92334719D01*
X136511147Y-92509784D01*
X136689349Y-92657730D01*
X136889322Y-92774584D01*
X136894147Y-92776426D01*
X136894148Y-92776427D01*
X136930488Y-92790304D01*
X137105694Y-92857209D01*
X137110760Y-92858240D01*
X137110761Y-92858240D01*
X137163846Y-92869040D01*
X137332656Y-92903385D01*
X137463324Y-92908176D01*
X137558949Y-92911683D01*
X137558953Y-92911683D01*
X137564113Y-92911872D01*
X137569233Y-92911216D01*
X137569235Y-92911216D01*
X137668668Y-92898478D01*
X137793847Y-92882442D01*
X137798795Y-92880957D01*
X137798802Y-92880956D01*
X138010747Y-92817369D01*
X138015690Y-92815886D01*
X138060706Y-92793833D01*
X138219049Y-92716262D01*
X138219052Y-92716260D01*
X138223684Y-92713991D01*
X138412243Y-92579494D01*
X138576303Y-92416005D01*
X138711458Y-92227917D01*
X138762587Y-92124466D01*
X138811784Y-92024922D01*
X138811785Y-92024920D01*
X138814078Y-92020280D01*
X138881408Y-91798671D01*
X138911640Y-91569041D01*
X138913327Y-91500000D01*
X138907032Y-91423434D01*
X138894773Y-91274318D01*
X138894772Y-91274312D01*
X138894349Y-91269167D01*
X138837925Y-91044533D01*
X138745570Y-90832131D01*
X138619764Y-90637665D01*
X138463887Y-90466358D01*
X138459836Y-90463159D01*
X138459832Y-90463155D01*
X138286177Y-90326011D01*
X138286172Y-90326008D01*
X138282123Y-90322810D01*
X138277607Y-90320317D01*
X138277604Y-90320315D01*
X138083879Y-90213373D01*
X138083875Y-90213371D01*
X138079355Y-90210876D01*
X138074486Y-90209152D01*
X138074482Y-90209150D01*
X137865903Y-90135288D01*
X137865899Y-90135287D01*
X137861028Y-90133562D01*
X137855935Y-90132655D01*
X137855932Y-90132654D01*
X137638095Y-90093851D01*
X137638089Y-90093850D01*
X137633006Y-90092945D01*
X137555644Y-90092000D01*
X137406581Y-90090179D01*
X137406579Y-90090179D01*
X137401411Y-90090116D01*
X137172464Y-90125150D01*
X136952314Y-90197106D01*
X136947726Y-90199494D01*
X136947722Y-90199496D01*
X136751461Y-90301663D01*
X136746872Y-90304052D01*
X136742739Y-90307155D01*
X136742736Y-90307157D01*
X136565790Y-90440012D01*
X136561655Y-90443117D01*
X136401639Y-90610564D01*
X136354836Y-90679174D01*
X136299927Y-90724175D01*
X136229402Y-90732346D01*
X136165655Y-90701092D01*
X136144959Y-90676609D01*
X136122577Y-90642013D01*
X136122574Y-90642009D01*
X136119764Y-90637665D01*
X135963887Y-90466358D01*
X135959836Y-90463159D01*
X135959832Y-90463155D01*
X135786177Y-90326011D01*
X135786172Y-90326008D01*
X135782123Y-90322810D01*
X135777607Y-90320317D01*
X135777604Y-90320315D01*
X135583879Y-90213373D01*
X135583875Y-90213371D01*
X135579355Y-90210876D01*
X135574486Y-90209152D01*
X135574482Y-90209150D01*
X135365903Y-90135288D01*
X135365899Y-90135287D01*
X135361028Y-90133562D01*
X135355935Y-90132655D01*
X135355932Y-90132654D01*
X135138095Y-90093851D01*
X135138089Y-90093850D01*
X135133006Y-90092945D01*
X135055644Y-90092000D01*
X134906581Y-90090179D01*
X134906579Y-90090179D01*
X134901411Y-90090116D01*
X134672464Y-90125150D01*
X134452314Y-90197106D01*
X134447726Y-90199494D01*
X134447722Y-90199496D01*
X134251461Y-90301663D01*
X134246872Y-90304052D01*
X134242739Y-90307155D01*
X134242736Y-90307157D01*
X134065790Y-90440012D01*
X134061655Y-90443117D01*
X134061066Y-90442333D01*
X134001346Y-90470484D01*
X133930955Y-90461231D01*
X133876741Y-90415391D01*
X133863925Y-90390224D01*
X133853323Y-90361944D01*
X133844786Y-90346351D01*
X133768285Y-90244276D01*
X133755724Y-90231715D01*
X133653649Y-90155214D01*
X133638054Y-90146676D01*
X133517606Y-90101522D01*
X133502351Y-90097895D01*
X133451486Y-90092369D01*
X133444672Y-90092000D01*
X132772115Y-90092000D01*
X132756876Y-90096475D01*
X132755671Y-90097865D01*
X132754000Y-90105548D01*
X132754000Y-92889884D01*
X132758475Y-92905123D01*
X132759865Y-92906328D01*
X132767548Y-92907999D01*
X133444669Y-92907999D01*
X133451490Y-92907629D01*
X133502352Y-92902105D01*
X133517604Y-92898479D01*
X133638054Y-92853324D01*
X133653649Y-92844786D01*
X133755724Y-92768285D01*
X133768285Y-92755724D01*
X133844786Y-92653649D01*
X133853325Y-92638052D01*
X133865278Y-92606167D01*
X133907919Y-92549402D01*
X133974480Y-92524702D01*
X134043829Y-92539909D01*
X134063741Y-92553448D01*
X134189349Y-92657730D01*
X134193816Y-92660340D01*
X134281920Y-92711824D01*
X134330644Y-92763463D01*
X134343715Y-92833246D01*
X134339425Y-92855495D01*
X134332918Y-92878080D01*
X134328252Y-92891414D01*
X134230020Y-93128571D01*
X134223889Y-93141302D01*
X134099726Y-93365959D01*
X134092209Y-93377923D01*
X133943665Y-93587277D01*
X133934855Y-93598324D01*
X133786506Y-93764328D01*
X133769255Y-93780334D01*
X133766584Y-93782383D01*
X133766580Y-93782387D01*
X133760556Y-93787009D01*
X133755807Y-93792937D01*
X133738578Y-93814442D01*
X133729339Y-93824757D01*
X133085365Y-94468730D01*
X133071927Y-94480391D01*
X133053454Y-94494260D01*
X133050508Y-94497144D01*
X133050504Y-94497148D01*
X133046851Y-94500725D01*
X133043905Y-94503610D01*
X133041361Y-94506855D01*
X133035301Y-94514583D01*
X133030115Y-94520776D01*
X132877174Y-94691907D01*
X132875127Y-94694791D01*
X132875126Y-94694793D01*
X132855269Y-94722777D01*
X132731669Y-94896966D01*
X132610038Y-95117027D01*
X132513811Y-95349323D01*
X132444199Y-95590932D01*
X132402076Y-95838816D01*
X132392739Y-96005013D01*
X132390939Y-96004912D01*
X132391525Y-96009744D01*
X132391500Y-96009840D01*
X132391500Y-96023531D01*
X132391302Y-96030595D01*
X132390158Y-96050968D01*
X132389098Y-96061662D01*
X132386987Y-96076494D01*
X132386847Y-96089858D01*
X132387342Y-96093947D01*
X132387342Y-96093951D01*
X132390588Y-96120777D01*
X132391500Y-96135912D01*
X132391500Y-102152197D01*
X132390243Y-102169951D01*
X132386987Y-102192828D01*
X132386847Y-102206192D01*
X131267980Y-102206192D01*
X131193721Y-102152141D01*
X131190028Y-102149453D01*
X130950053Y-102023196D01*
X130945752Y-102021677D01*
X130945747Y-102021675D01*
X130767998Y-101958906D01*
X130694366Y-101932904D01*
X130596347Y-101913585D01*
X130432794Y-101881348D01*
X130432788Y-101881347D01*
X130428322Y-101880467D01*
X130423768Y-101880240D01*
X130423766Y-101880240D01*
X130162064Y-101867211D01*
X130162058Y-101867211D01*
X130157495Y-101866984D01*
X129887559Y-101892738D01*
X129883130Y-101893822D01*
X129883123Y-101893823D01*
X129753069Y-101925648D01*
X129624168Y-101957190D01*
X129619933Y-101958905D01*
X129619931Y-101958906D01*
X129377069Y-102057275D01*
X129372840Y-102058988D01*
X129138839Y-102196001D01*
X128927068Y-102365359D01*
X128923947Y-102368700D01*
X128799224Y-102502215D01*
X128741963Y-102563512D01*
X128587402Y-102786312D01*
X128585374Y-102790388D01*
X128585373Y-102790390D01*
X128470847Y-103020596D01*
X128466621Y-103029090D01*
X128382153Y-103286760D01*
X128381373Y-103291251D01*
X128381373Y-103291252D01*
X128372115Y-103344575D01*
X128335765Y-103553925D01*
X128331500Y-103639600D01*
X128331500Y-104328884D01*
X126808500Y-104328884D01*
X126808500Y-94149098D01*
X126809493Y-94133309D01*
X126812654Y-94108281D01*
X126813537Y-94101292D01*
X126811089Y-94076328D01*
X126810758Y-94055793D01*
X126821506Y-93891758D01*
X126823657Y-93875416D01*
X126860788Y-93688734D01*
X126865053Y-93672814D01*
X126926238Y-93492561D01*
X126932546Y-93477333D01*
X127016725Y-93306632D01*
X127024965Y-93292359D01*
X127130718Y-93134086D01*
X127140752Y-93121010D01*
X127237522Y-93010664D01*
X127253003Y-92996288D01*
X127252855Y-92996115D01*
X127255865Y-92993535D01*
X127259026Y-92991153D01*
X127266661Y-92983727D01*
X127267225Y-92983290D01*
X127267678Y-92982738D01*
X127275313Y-92975313D01*
X127287751Y-92959732D01*
X127291467Y-92955292D01*
X127438871Y-92787211D01*
X127577318Y-92580016D01*
X127611955Y-92509784D01*
X127644067Y-92444669D01*
X131092001Y-92444669D01*
X131092371Y-92451490D01*
X131097895Y-92502352D01*
X131101521Y-92517604D01*
X131146676Y-92638054D01*
X131155214Y-92653649D01*
X131231715Y-92755724D01*
X131244276Y-92768285D01*
X131346351Y-92844786D01*
X131361946Y-92853324D01*
X131482394Y-92898478D01*
X131497649Y-92902105D01*
X131548514Y-92907631D01*
X131555328Y-92908000D01*
X132227885Y-92908000D01*
X132243124Y-92903525D01*
X132244329Y-92902135D01*
X132246000Y-92894452D01*
X132246000Y-91772115D01*
X132241525Y-91756876D01*
X132240135Y-91755671D01*
X132232452Y-91754000D01*
X131110116Y-91754000D01*
X131094877Y-91758475D01*
X131093672Y-91759865D01*
X131092001Y-91767548D01*
X131092001Y-92444669D01*
X127644067Y-92444669D01*
X127687539Y-92356522D01*
X127767646Y-92120555D01*
X127816270Y-91876151D01*
X127818424Y-91843317D01*
X127828851Y-91684329D01*
X127829808Y-91675033D01*
X127832747Y-91654127D01*
X127832747Y-91654126D01*
X127833298Y-91650208D01*
X127833616Y-91627491D01*
X127833121Y-91623068D01*
X127829285Y-91588862D01*
X127828500Y-91574823D01*
X127828500Y-91227885D01*
X131092000Y-91227885D01*
X131096475Y-91243124D01*
X131097865Y-91244329D01*
X131105548Y-91246000D01*
X132227885Y-91246000D01*
X132243124Y-91241525D01*
X132244329Y-91240135D01*
X132246000Y-91232452D01*
X132246000Y-90110116D01*
X132241525Y-90094877D01*
X132240135Y-90093672D01*
X132232452Y-90092001D01*
X131555331Y-90092001D01*
X131548510Y-90092371D01*
X131497648Y-90097895D01*
X131482396Y-90101521D01*
X131361946Y-90146676D01*
X131346351Y-90155214D01*
X131244276Y-90231715D01*
X131231715Y-90244276D01*
X131155214Y-90346351D01*
X131146676Y-90361946D01*
X131101522Y-90482394D01*
X131097895Y-90497649D01*
X131092369Y-90548514D01*
X131092000Y-90555328D01*
X131092000Y-91227885D01*
X127828500Y-91227885D01*
X127828500Y-84415036D01*
X127829494Y-84399243D01*
X127832653Y-84374235D01*
X127833537Y-84367241D01*
X127830460Y-84335853D01*
X127830256Y-84328884D01*
X128331500Y-84328884D01*
X128331665Y-84331152D01*
X128331665Y-84331164D01*
X128336260Y-84394488D01*
X128346125Y-84530451D01*
X128347109Y-84534906D01*
X128347109Y-84534909D01*
X128386482Y-84713240D01*
X128404585Y-84795237D01*
X128500655Y-85048810D01*
X128632324Y-85285859D01*
X128796833Y-85501417D01*
X128990736Y-85690970D01*
X129209972Y-85850547D01*
X129449947Y-85976804D01*
X129454248Y-85978323D01*
X129454253Y-85978325D01*
X129587087Y-86025233D01*
X129705634Y-86067096D01*
X129803653Y-86086415D01*
X129967206Y-86118652D01*
X129967212Y-86118653D01*
X129971678Y-86119533D01*
X129976232Y-86119760D01*
X129976234Y-86119760D01*
X130237936Y-86132789D01*
X130237942Y-86132789D01*
X130242505Y-86133016D01*
X130512441Y-86107262D01*
X130516870Y-86106178D01*
X130516877Y-86106177D01*
X130676584Y-86067096D01*
X130775832Y-86042810D01*
X130935039Y-85978325D01*
X131022931Y-85942725D01*
X131022932Y-85942725D01*
X131027160Y-85941012D01*
X131261161Y-85803999D01*
X131472932Y-85634641D01*
X131594399Y-85504612D01*
X131654921Y-85439824D01*
X131654923Y-85439821D01*
X131658037Y-85436488D01*
X131812598Y-85213688D01*
X131894624Y-85048810D01*
X131931346Y-84974997D01*
X131931347Y-84974994D01*
X131933379Y-84970910D01*
X132017847Y-84713240D01*
X132064235Y-84446075D01*
X132067811Y-84374235D01*
X132068422Y-84361971D01*
X132068422Y-84361963D01*
X132068500Y-84360400D01*
X132068500Y-84328884D01*
X137931500Y-84328884D01*
X137931665Y-84331152D01*
X137931665Y-84331164D01*
X137936260Y-84394488D01*
X137946125Y-84530451D01*
X137947109Y-84534906D01*
X137947109Y-84534909D01*
X137986482Y-84713240D01*
X138004585Y-84795237D01*
X138100655Y-85048810D01*
X138232324Y-85285859D01*
X138396833Y-85501417D01*
X138590736Y-85690970D01*
X138809972Y-85850547D01*
X139049947Y-85976804D01*
X139054248Y-85978323D01*
X139054253Y-85978325D01*
X139187087Y-86025233D01*
X139305634Y-86067096D01*
X139403653Y-86086415D01*
X139567206Y-86118652D01*
X139567212Y-86118653D01*
X139571678Y-86119533D01*
X139576232Y-86119760D01*
X139576234Y-86119760D01*
X139837936Y-86132789D01*
X139837942Y-86132789D01*
X139842505Y-86133016D01*
X140112441Y-86107262D01*
X140116870Y-86106178D01*
X140116877Y-86106177D01*
X140276584Y-86067096D01*
X140375832Y-86042810D01*
X140535039Y-85978325D01*
X140622931Y-85942725D01*
X140622932Y-85942725D01*
X140627160Y-85941012D01*
X140861161Y-85803999D01*
X141072932Y-85634641D01*
X141194399Y-85504612D01*
X141254921Y-85439824D01*
X141254923Y-85439821D01*
X141258037Y-85436488D01*
X141412598Y-85213688D01*
X141494624Y-85048810D01*
X141531346Y-84974997D01*
X141531347Y-84974994D01*
X141533379Y-84970910D01*
X141617847Y-84713240D01*
X141664235Y-84446075D01*
X141667811Y-84374235D01*
X141668422Y-84361971D01*
X141668422Y-84361963D01*
X141668500Y-84360400D01*
X141668500Y-83671116D01*
X141666328Y-83641170D01*
X141654205Y-83474100D01*
X141653875Y-83469549D01*
X141643310Y-83421695D01*
X141596400Y-83209223D01*
X141596399Y-83209219D01*
X141595415Y-83204763D01*
X141499345Y-82951190D01*
X141367676Y-82714141D01*
X141203167Y-82498583D01*
X141178939Y-82474898D01*
X141012531Y-82312224D01*
X141009264Y-82309030D01*
X140790028Y-82149453D01*
X140550053Y-82023196D01*
X140545752Y-82021677D01*
X140545747Y-82021675D01*
X140367998Y-81958906D01*
X140294366Y-81932904D01*
X140196347Y-81913585D01*
X140032794Y-81881348D01*
X140032788Y-81881347D01*
X140028322Y-81880467D01*
X140023768Y-81880240D01*
X140023766Y-81880240D01*
X139762064Y-81867211D01*
X139762058Y-81867211D01*
X139757495Y-81866984D01*
X139487559Y-81892738D01*
X139483130Y-81893822D01*
X139483123Y-81893823D01*
X139353069Y-81925648D01*
X139224168Y-81957190D01*
X139219933Y-81958905D01*
X139219931Y-81958906D01*
X138977069Y-82057275D01*
X138972840Y-82058988D01*
X138738839Y-82196001D01*
X138527068Y-82365359D01*
X138523947Y-82368700D01*
X138399224Y-82502215D01*
X138341963Y-82563512D01*
X138187402Y-82786312D01*
X138185374Y-82790388D01*
X138185373Y-82790390D01*
X138097966Y-82966085D01*
X138066621Y-83029090D01*
X137982153Y-83286760D01*
X137981373Y-83291251D01*
X137981373Y-83291252D01*
X137957948Y-83426167D01*
X137935765Y-83553925D01*
X137935574Y-83557762D01*
X137934457Y-83580210D01*
X137931500Y-83639600D01*
X137931500Y-84328884D01*
X132068500Y-84328884D01*
X132068500Y-83671116D01*
X132066328Y-83641170D01*
X132054205Y-83474100D01*
X132053875Y-83469549D01*
X132043310Y-83421695D01*
X131996400Y-83209223D01*
X131996399Y-83209219D01*
X131995415Y-83204763D01*
X131899345Y-82951190D01*
X131767676Y-82714141D01*
X131603167Y-82498583D01*
X131578939Y-82474898D01*
X131412531Y-82312224D01*
X131409264Y-82309030D01*
X131190028Y-82149453D01*
X130950053Y-82023196D01*
X130945752Y-82021677D01*
X130945747Y-82021675D01*
X130767998Y-81958906D01*
X130694366Y-81932904D01*
X130596347Y-81913585D01*
X130432794Y-81881348D01*
X130432788Y-81881347D01*
X130428322Y-81880467D01*
X130423768Y-81880240D01*
X130423766Y-81880240D01*
X130162064Y-81867211D01*
X130162058Y-81867211D01*
X130157495Y-81866984D01*
X129887559Y-81892738D01*
X129883130Y-81893822D01*
X129883123Y-81893823D01*
X129753069Y-81925648D01*
X129624168Y-81957190D01*
X129619933Y-81958905D01*
X129619931Y-81958906D01*
X129377069Y-82057275D01*
X129372840Y-82058988D01*
X129138839Y-82196001D01*
X128927068Y-82365359D01*
X128923947Y-82368700D01*
X128799224Y-82502215D01*
X128741963Y-82563512D01*
X128587402Y-82786312D01*
X128585374Y-82790388D01*
X128585373Y-82790390D01*
X128497966Y-82966085D01*
X128466621Y-83029090D01*
X128382153Y-83286760D01*
X128381373Y-83291251D01*
X128381373Y-83291252D01*
X128357948Y-83426167D01*
X128335765Y-83553925D01*
X128335574Y-83557762D01*
X128334457Y-83580210D01*
X128331500Y-83639600D01*
X128331500Y-84328884D01*
X127830256Y-84328884D01*
X127829956Y-84318619D01*
X127843488Y-83974233D01*
X127844263Y-83964383D01*
X127888579Y-83589970D01*
X127890123Y-83580223D01*
X127963677Y-83210451D01*
X127965985Y-83200837D01*
X128068316Y-82838003D01*
X128071373Y-82828594D01*
X128201859Y-82474898D01*
X128205645Y-82465758D01*
X128363481Y-82123388D01*
X128367973Y-82114573D01*
X128552175Y-81785657D01*
X128557344Y-81777221D01*
X128766793Y-81463757D01*
X128772608Y-81455753D01*
X129006005Y-81159693D01*
X129012430Y-81152170D01*
X129238084Y-80908057D01*
X129253384Y-80894026D01*
X129261658Y-80887608D01*
X129267225Y-80883290D01*
X129296078Y-80848164D01*
X129304346Y-80839046D01*
X130937821Y-79205571D01*
X130951086Y-79194039D01*
X130952901Y-79192672D01*
X130971591Y-79178587D01*
X130987879Y-79162748D01*
X130995576Y-79153106D01*
X131001523Y-79146185D01*
X131253822Y-78873248D01*
X131253825Y-78873245D01*
X131255494Y-78871439D01*
X131500359Y-78560827D01*
X131720099Y-78231961D01*
X131828005Y-78039279D01*
X131912156Y-77889016D01*
X131912161Y-77889006D01*
X131913359Y-77886867D01*
X132078948Y-77527675D01*
X132215844Y-77156598D01*
X132323205Y-76775924D01*
X132400367Y-76388000D01*
X132411445Y-76294401D01*
X132441191Y-76226879D01*
X132474049Y-76188813D01*
X132474050Y-76188811D01*
X132478078Y-76184145D01*
X132575769Y-76012179D01*
X132638197Y-75824513D01*
X132662985Y-75628295D01*
X132663380Y-75600000D01*
X132644080Y-75403167D01*
X132586916Y-75213831D01*
X132494066Y-75039204D01*
X132423709Y-74952938D01*
X132372960Y-74890713D01*
X132372957Y-74890710D01*
X132369065Y-74885938D01*
X132362724Y-74880692D01*
X132221425Y-74763799D01*
X132221421Y-74763797D01*
X132216675Y-74759870D01*
X132042701Y-74665802D01*
X131853768Y-74607318D01*
X131847643Y-74606674D01*
X131847642Y-74606674D01*
X131663204Y-74587289D01*
X131663202Y-74587289D01*
X131657075Y-74586645D01*
X131574576Y-74594153D01*
X131466251Y-74604011D01*
X131466248Y-74604012D01*
X131460112Y-74604570D01*
X131454206Y-74606308D01*
X131454202Y-74606309D01*
X131349076Y-74637249D01*
X131270381Y-74660410D01*
X131264923Y-74663263D01*
X131264919Y-74663265D01*
X131174147Y-74710720D01*
X131095110Y-74752040D01*
X130940975Y-74875968D01*
X130813846Y-75027474D01*
X130810879Y-75032872D01*
X130810875Y-75032877D01*
X130807397Y-75039204D01*
X130718567Y-75200787D01*
X130716706Y-75206654D01*
X130716705Y-75206656D01*
X130660627Y-75383436D01*
X130658765Y-75389306D01*
X130636719Y-75585851D01*
X130653268Y-75782934D01*
X130707783Y-75973050D01*
X130775876Y-76105545D01*
X130788446Y-76181625D01*
X130781734Y-76226879D01*
X130776765Y-76260376D01*
X130774353Y-76272504D01*
X130695898Y-76585714D01*
X130692309Y-76597547D01*
X130583530Y-76901565D01*
X130578798Y-76912989D01*
X130463581Y-77156598D01*
X130440746Y-77204878D01*
X130434917Y-77215783D01*
X130268919Y-77492735D01*
X130262049Y-77503016D01*
X130069708Y-77762359D01*
X130061864Y-77771917D01*
X129985049Y-77856671D01*
X129873106Y-77980181D01*
X129856983Y-77995114D01*
X129845336Y-78004149D01*
X129840865Y-78009592D01*
X129840863Y-78009594D01*
X129816480Y-78039279D01*
X129808210Y-78048398D01*
X128174744Y-79681864D01*
X128161477Y-79693397D01*
X128140974Y-79708847D01*
X128124687Y-79724687D01*
X128122223Y-79727774D01*
X128122219Y-79727778D01*
X128119933Y-79730642D01*
X128113683Y-79737889D01*
X127806814Y-80067490D01*
X127513494Y-80431478D01*
X127246887Y-80815464D01*
X127209874Y-80877846D01*
X127009499Y-81215557D01*
X127009493Y-81215568D01*
X127008352Y-81217491D01*
X126799106Y-81635511D01*
X126798252Y-81637572D01*
X126798250Y-81637577D01*
X126622740Y-82061295D01*
X126620214Y-82067393D01*
X126592007Y-82152141D01*
X126473295Y-82508807D01*
X126473290Y-82508822D01*
X126472587Y-82510936D01*
X126472033Y-82513107D01*
X126472032Y-82513110D01*
X126458211Y-82567260D01*
X126356978Y-82963881D01*
X126356582Y-82966076D01*
X126356580Y-82966085D01*
X126297913Y-83291252D01*
X126273977Y-83423919D01*
X126224006Y-83888707D01*
X126208852Y-84312974D01*
X126207706Y-84326012D01*
X126206701Y-84333158D01*
X126206384Y-84355875D01*
X126206826Y-84359814D01*
X126210715Y-84394488D01*
X126211500Y-84408533D01*
X126211500Y-91568271D01*
X126210506Y-91584069D01*
X126207347Y-91609062D01*
X126207347Y-91609066D01*
X126206464Y-91616053D01*
X126207151Y-91623064D01*
X126207151Y-91623068D01*
X126207840Y-91630094D01*
X126207362Y-91658834D01*
X126204005Y-91684329D01*
X126203983Y-91684493D01*
X126195471Y-91716258D01*
X126179838Y-91754000D01*
X126179783Y-91754132D01*
X126163336Y-91782617D01*
X126154760Y-91793793D01*
X126140735Y-91808601D01*
X126140974Y-91808847D01*
X126133339Y-91816273D01*
X126132775Y-91816710D01*
X126132322Y-91817262D01*
X126124687Y-91824687D01*
X126122219Y-91827779D01*
X126114608Y-91837312D01*
X126109498Y-91843317D01*
X126037603Y-91922642D01*
X125914533Y-92058429D01*
X125912693Y-92060911D01*
X125912684Y-92060921D01*
X125735704Y-92299553D01*
X125679059Y-92342353D01*
X125608267Y-92347734D01*
X125545803Y-92313988D01*
X125511500Y-92251828D01*
X125508500Y-92224495D01*
X125508500Y-72444669D01*
X131092001Y-72444669D01*
X131092371Y-72451490D01*
X131097895Y-72502352D01*
X131101521Y-72517604D01*
X131146676Y-72638054D01*
X131155214Y-72653649D01*
X131231715Y-72755724D01*
X131244276Y-72768285D01*
X131346351Y-72844786D01*
X131361946Y-72853324D01*
X131482394Y-72898478D01*
X131497649Y-72902105D01*
X131548514Y-72907631D01*
X131555328Y-72908000D01*
X132227885Y-72908000D01*
X132243124Y-72903525D01*
X132244329Y-72902135D01*
X132246000Y-72894452D01*
X132246000Y-72889884D01*
X132754000Y-72889884D01*
X132758475Y-72905123D01*
X132759865Y-72906328D01*
X132767548Y-72907999D01*
X133444669Y-72907999D01*
X133451490Y-72907629D01*
X133502352Y-72902105D01*
X133517604Y-72898479D01*
X133638054Y-72853324D01*
X133653649Y-72844786D01*
X133755724Y-72768285D01*
X133768285Y-72755724D01*
X133844786Y-72653649D01*
X133853325Y-72638052D01*
X133865278Y-72606167D01*
X133907919Y-72549402D01*
X133974480Y-72524702D01*
X134043829Y-72539909D01*
X134063741Y-72553448D01*
X134189349Y-72657730D01*
X134389322Y-72774584D01*
X134605694Y-72857209D01*
X134610760Y-72858240D01*
X134610761Y-72858240D01*
X134663846Y-72869040D01*
X134832656Y-72903385D01*
X134963324Y-72908176D01*
X135058949Y-72911683D01*
X135058953Y-72911683D01*
X135064113Y-72911872D01*
X135069233Y-72911216D01*
X135069235Y-72911216D01*
X135168668Y-72898478D01*
X135293847Y-72882442D01*
X135298795Y-72880957D01*
X135298802Y-72880956D01*
X135510747Y-72817369D01*
X135515690Y-72815886D01*
X135596236Y-72776427D01*
X135719049Y-72716262D01*
X135719052Y-72716260D01*
X135723684Y-72713991D01*
X135912243Y-72579494D01*
X136076303Y-72416005D01*
X136145370Y-72319888D01*
X136201365Y-72276240D01*
X136272068Y-72269794D01*
X136335033Y-72302597D01*
X136355128Y-72327584D01*
X136356799Y-72330311D01*
X136356804Y-72330317D01*
X136359501Y-72334719D01*
X136511147Y-72509784D01*
X136689349Y-72657730D01*
X136889322Y-72774584D01*
X137105694Y-72857209D01*
X137110760Y-72858240D01*
X137110761Y-72858240D01*
X137163846Y-72869040D01*
X137332656Y-72903385D01*
X137463324Y-72908176D01*
X137558949Y-72911683D01*
X137558953Y-72911683D01*
X137564113Y-72911872D01*
X137569233Y-72911216D01*
X137569235Y-72911216D01*
X137668668Y-72898478D01*
X137793847Y-72882442D01*
X137798795Y-72880957D01*
X137798802Y-72880956D01*
X138010747Y-72817369D01*
X138015690Y-72815886D01*
X138096236Y-72776427D01*
X138219049Y-72716262D01*
X138219052Y-72716260D01*
X138223684Y-72713991D01*
X138412243Y-72579494D01*
X138576303Y-72416005D01*
X138711458Y-72227917D01*
X138814078Y-72020280D01*
X138881408Y-71798671D01*
X138911640Y-71569041D01*
X138913327Y-71500000D01*
X138907032Y-71423434D01*
X138894773Y-71274318D01*
X138894772Y-71274312D01*
X138894349Y-71269167D01*
X138837925Y-71044533D01*
X138745570Y-70832131D01*
X138619764Y-70637665D01*
X138463887Y-70466358D01*
X138459836Y-70463159D01*
X138459832Y-70463155D01*
X138286177Y-70326011D01*
X138286172Y-70326008D01*
X138282123Y-70322810D01*
X138277607Y-70320317D01*
X138277604Y-70320315D01*
X138083879Y-70213373D01*
X138083875Y-70213371D01*
X138079355Y-70210876D01*
X138074486Y-70209152D01*
X138074482Y-70209150D01*
X137865903Y-70135288D01*
X137865899Y-70135287D01*
X137861028Y-70133562D01*
X137855935Y-70132655D01*
X137855932Y-70132654D01*
X137638095Y-70093851D01*
X137638089Y-70093850D01*
X137633006Y-70092945D01*
X137555644Y-70092000D01*
X137406581Y-70090179D01*
X137406579Y-70090179D01*
X137401411Y-70090116D01*
X137172464Y-70125150D01*
X136952314Y-70197106D01*
X136947726Y-70199494D01*
X136947722Y-70199496D01*
X136751461Y-70301663D01*
X136746872Y-70304052D01*
X136742739Y-70307155D01*
X136742736Y-70307157D01*
X136565790Y-70440012D01*
X136561655Y-70443117D01*
X136401639Y-70610564D01*
X136354836Y-70679174D01*
X136299927Y-70724175D01*
X136229402Y-70732346D01*
X136165655Y-70701092D01*
X136144959Y-70676609D01*
X136122577Y-70642013D01*
X136122574Y-70642009D01*
X136119764Y-70637665D01*
X135963887Y-70466358D01*
X135959836Y-70463159D01*
X135959832Y-70463155D01*
X135786177Y-70326011D01*
X135786172Y-70326008D01*
X135782123Y-70322810D01*
X135777607Y-70320317D01*
X135777604Y-70320315D01*
X135583879Y-70213373D01*
X135583875Y-70213371D01*
X135579355Y-70210876D01*
X135574486Y-70209152D01*
X135574482Y-70209150D01*
X135365903Y-70135288D01*
X135365899Y-70135287D01*
X135361028Y-70133562D01*
X135355935Y-70132655D01*
X135355932Y-70132654D01*
X135138095Y-70093851D01*
X135138089Y-70093850D01*
X135133006Y-70092945D01*
X135055644Y-70092000D01*
X134906581Y-70090179D01*
X134906579Y-70090179D01*
X134901411Y-70090116D01*
X134672464Y-70125150D01*
X134452314Y-70197106D01*
X134447726Y-70199494D01*
X134447722Y-70199496D01*
X134251461Y-70301663D01*
X134246872Y-70304052D01*
X134242739Y-70307155D01*
X134242736Y-70307157D01*
X134065790Y-70440012D01*
X134061655Y-70443117D01*
X134061066Y-70442333D01*
X134001346Y-70470484D01*
X133930955Y-70461231D01*
X133876741Y-70415391D01*
X133863925Y-70390224D01*
X133853323Y-70361944D01*
X133844786Y-70346351D01*
X133768285Y-70244276D01*
X133755724Y-70231715D01*
X133653649Y-70155214D01*
X133638054Y-70146676D01*
X133517606Y-70101522D01*
X133502351Y-70097895D01*
X133451486Y-70092369D01*
X133444672Y-70092000D01*
X132772115Y-70092000D01*
X132756876Y-70096475D01*
X132755671Y-70097865D01*
X132754000Y-70105548D01*
X132754000Y-72889884D01*
X132246000Y-72889884D01*
X132246000Y-71772115D01*
X132241525Y-71756876D01*
X132240135Y-71755671D01*
X132232452Y-71754000D01*
X131110116Y-71754000D01*
X131094877Y-71758475D01*
X131093672Y-71759865D01*
X131092001Y-71767548D01*
X131092001Y-72444669D01*
X125508500Y-72444669D01*
X125508500Y-71227885D01*
X131092000Y-71227885D01*
X131096475Y-71243124D01*
X131097865Y-71244329D01*
X131105548Y-71246000D01*
X132227885Y-71246000D01*
X132243124Y-71241525D01*
X132244329Y-71240135D01*
X132246000Y-71232452D01*
X132246000Y-70110116D01*
X132241525Y-70094877D01*
X132240135Y-70093672D01*
X132232452Y-70092001D01*
X131555331Y-70092001D01*
X131548510Y-70092371D01*
X131497648Y-70097895D01*
X131482396Y-70101521D01*
X131361946Y-70146676D01*
X131346351Y-70155214D01*
X131244276Y-70231715D01*
X131231715Y-70244276D01*
X131155214Y-70346351D01*
X131146676Y-70361946D01*
X131101522Y-70482394D01*
X131097895Y-70497649D01*
X131092369Y-70548514D01*
X131092000Y-70555328D01*
X131092000Y-71227885D01*
X125508500Y-71227885D01*
X125508500Y-64328884D01*
X128331500Y-64328884D01*
X128331665Y-64331152D01*
X128331665Y-64331164D01*
X128339725Y-64442238D01*
X128346125Y-64530451D01*
X128347109Y-64534906D01*
X128347109Y-64534909D01*
X128386482Y-64713240D01*
X128404585Y-64795237D01*
X128500655Y-65048810D01*
X128632324Y-65285859D01*
X128796833Y-65501417D01*
X128990736Y-65690970D01*
X129209972Y-65850547D01*
X129449947Y-65976804D01*
X129454248Y-65978323D01*
X129454253Y-65978325D01*
X129587087Y-66025233D01*
X129705634Y-66067096D01*
X129803653Y-66086415D01*
X129967206Y-66118652D01*
X129967212Y-66118653D01*
X129971678Y-66119533D01*
X129976232Y-66119760D01*
X129976234Y-66119760D01*
X130237936Y-66132789D01*
X130237942Y-66132789D01*
X130242505Y-66133016D01*
X130512441Y-66107262D01*
X130516870Y-66106178D01*
X130516877Y-66106177D01*
X130676584Y-66067096D01*
X130775832Y-66042810D01*
X130935039Y-65978325D01*
X131022931Y-65942725D01*
X131022932Y-65942725D01*
X131027160Y-65941012D01*
X131261161Y-65803999D01*
X131472932Y-65634641D01*
X131594399Y-65504612D01*
X131654921Y-65439824D01*
X131654923Y-65439821D01*
X131658037Y-65436488D01*
X131812598Y-65213688D01*
X131894624Y-65048810D01*
X131931346Y-64974997D01*
X131931347Y-64974994D01*
X131933379Y-64970910D01*
X132017847Y-64713240D01*
X132064235Y-64446075D01*
X132068500Y-64360400D01*
X132068500Y-64328884D01*
X137931500Y-64328884D01*
X137931665Y-64331152D01*
X137931665Y-64331164D01*
X137939725Y-64442238D01*
X137946125Y-64530451D01*
X137947109Y-64534906D01*
X137947109Y-64534909D01*
X137986482Y-64713240D01*
X138004585Y-64795237D01*
X138100655Y-65048810D01*
X138232324Y-65285859D01*
X138396833Y-65501417D01*
X138590736Y-65690970D01*
X138809972Y-65850547D01*
X139049947Y-65976804D01*
X139054248Y-65978323D01*
X139054253Y-65978325D01*
X139187087Y-66025233D01*
X139305634Y-66067096D01*
X139403653Y-66086415D01*
X139567206Y-66118652D01*
X139567212Y-66118653D01*
X139571678Y-66119533D01*
X139576232Y-66119760D01*
X139576234Y-66119760D01*
X139837936Y-66132789D01*
X139837942Y-66132789D01*
X139842505Y-66133016D01*
X140112441Y-66107262D01*
X140116870Y-66106178D01*
X140116877Y-66106177D01*
X140276584Y-66067096D01*
X140375832Y-66042810D01*
X140535039Y-65978325D01*
X140622931Y-65942725D01*
X140622932Y-65942725D01*
X140627160Y-65941012D01*
X140861161Y-65803999D01*
X141072932Y-65634641D01*
X141194399Y-65504612D01*
X141254921Y-65439824D01*
X141254923Y-65439821D01*
X141258037Y-65436488D01*
X141412598Y-65213688D01*
X141494624Y-65048810D01*
X141531346Y-64974997D01*
X141531347Y-64974994D01*
X141533379Y-64970910D01*
X141617847Y-64713240D01*
X141664235Y-64446075D01*
X141668500Y-64360400D01*
X141668500Y-63671116D01*
X141666328Y-63641170D01*
X141654205Y-63474100D01*
X141653875Y-63469549D01*
X141652891Y-63465091D01*
X141596400Y-63209223D01*
X141596399Y-63209219D01*
X141595415Y-63204763D01*
X141499345Y-62951190D01*
X141367676Y-62714141D01*
X141203167Y-62498583D01*
X141009264Y-62309030D01*
X140790028Y-62149453D01*
X140550053Y-62023196D01*
X140545752Y-62021677D01*
X140545747Y-62021675D01*
X140367998Y-61958906D01*
X140294366Y-61932904D01*
X140196347Y-61913585D01*
X140032794Y-61881348D01*
X140032788Y-61881347D01*
X140028322Y-61880467D01*
X140023768Y-61880240D01*
X140023766Y-61880240D01*
X139762064Y-61867211D01*
X139762058Y-61867211D01*
X139757495Y-61866984D01*
X139487559Y-61892738D01*
X139483130Y-61893822D01*
X139483123Y-61893823D01*
X139353069Y-61925648D01*
X139224168Y-61957190D01*
X139219933Y-61958905D01*
X139219931Y-61958906D01*
X138977069Y-62057275D01*
X138972840Y-62058988D01*
X138738839Y-62196001D01*
X138527068Y-62365359D01*
X138523947Y-62368700D01*
X138399224Y-62502215D01*
X138341963Y-62563512D01*
X138187402Y-62786312D01*
X138185374Y-62790388D01*
X138185373Y-62790390D01*
X138103252Y-62955460D01*
X138066621Y-63029090D01*
X137982153Y-63286760D01*
X137935765Y-63553925D01*
X137931500Y-63639600D01*
X137931500Y-64328884D01*
X132068500Y-64328884D01*
X132068500Y-63671116D01*
X132066328Y-63641170D01*
X132054205Y-63474100D01*
X132053875Y-63469549D01*
X132052891Y-63465091D01*
X131996400Y-63209223D01*
X131996399Y-63209219D01*
X131995415Y-63204763D01*
X131899345Y-62951190D01*
X131767676Y-62714141D01*
X131603167Y-62498583D01*
X131409264Y-62309030D01*
X131190028Y-62149453D01*
X130950053Y-62023196D01*
X130945752Y-62021677D01*
X130945747Y-62021675D01*
X130767998Y-61958906D01*
X130694366Y-61932904D01*
X130596347Y-61913585D01*
X130432794Y-61881348D01*
X130432788Y-61881347D01*
X130428322Y-61880467D01*
X130423768Y-61880240D01*
X130423766Y-61880240D01*
X130162064Y-61867211D01*
X130162058Y-61867211D01*
X130157495Y-61866984D01*
X129887559Y-61892738D01*
X129883130Y-61893822D01*
X129883123Y-61893823D01*
X129753069Y-61925648D01*
X129624168Y-61957190D01*
X129619933Y-61958905D01*
X129619931Y-61958906D01*
X129377069Y-62057275D01*
X129372840Y-62058988D01*
X129138839Y-62196001D01*
X128927068Y-62365359D01*
X128923947Y-62368700D01*
X128799224Y-62502215D01*
X128741963Y-62563512D01*
X128587402Y-62786312D01*
X128585374Y-62790388D01*
X128585373Y-62790390D01*
X128503252Y-62955460D01*
X128466621Y-63029090D01*
X128382153Y-63286760D01*
X128335765Y-63553925D01*
X128331500Y-63639600D01*
X128331500Y-64328884D01*
X125508500Y-64328884D01*
X125508500Y-58134500D01*
X125528502Y-58066379D01*
X125582158Y-58019886D01*
X125634500Y-58008500D01*
X144365500Y-58008500D01*
X144433621Y-58028502D01*
G37*
%TD.AperFunction*%
%TD*%
M02*
