M48
; DRILL file {KiCad 6.0.7+dfsg-1~bpo11+1} date Wednesday, 26 October, 2022 04:05:38 AM
; FORMAT={-:-/ absolute / inch / decimal}
; #@! TF.CreationDate,2022-10-26T04:05:38+08:00
; #@! TF.GenerationSoftware,Kicad,Pcbnew,6.0.7+dfsg-1~bpo11+1
; #@! TF.FileFunction,Plated,1,2,PTH
FMAT,2
INCH
; #@! TA.AperFunction,Plated,PTH,ViaDrill
T1C0.0157
; #@! TA.AperFunction,Plated,PTH,ComponentDrill
T2C0.0354
; #@! TA.AperFunction,Plated,PTH,ComponentDrill
T3C0.0394
; #@! TA.AperFunction,Plated,PTH,ComponentDrill
T4C0.0433
; #@! TA.AperFunction,Plated,PTH,ComponentDrill
T5C0.0480
; #@! TA.AperFunction,Plated,PTH,ComponentDrill
T6C0.0559
; #@! TA.AperFunction,Plated,PTH,ComponentDrill
T7C0.0563
%
G90
G05
T1
X4.9606Y-3.4331
X4.9606Y-3.4724
X4.9606Y-3.5118
X4.9606Y-3.5512
X4.9606Y-3.5906
X4.9685Y-5.9055
X4.9685Y-5.9528
X4.9685Y-6.0
X5.0Y-3.8622
X5.002Y-3.7451
X5.002Y-3.8071
X5.0404Y-5.0285
X5.0827Y-5.2146
X5.1033Y-5.251
X5.1299Y-5.2136
X5.1535Y-5.251
X5.1693Y-2.6575
X5.1693Y-2.6969
X5.1693Y-2.7362
X5.1762Y-5.2126
X5.1831Y-2.9764
X5.1929Y-3.5433
X5.2008Y-5.251
X5.2126Y-2.6575
X5.2126Y-2.6969
X5.2126Y-2.7362
X5.2205Y-3.4724
X5.2244Y-5.2126
X5.2283Y-3.5433
X5.2559Y-2.6575
X5.2559Y-2.6969
X5.2559Y-2.7362
X5.2559Y-3.4724
X5.2638Y-2.9843
X5.2638Y-3.0197
X5.2638Y-3.5433
X5.2825Y-3.8337
X5.2913Y-3.4724
X5.2992Y-2.9843
X5.2992Y-3.0197
X5.3035Y-4.165
X5.3346Y-2.9843
X5.3346Y-3.0197
X5.4134Y-4.061
X5.4803Y-3.5433
X5.4882Y-3.8957
X5.499Y-3.8337
X5.5276Y-3.5433
X5.5709Y-3.5433
X5.6654Y-3.7874
X5.6654Y-3.8268
T2
X5.0654Y-5.4547
X5.1654Y-5.4547
T3
X5.2165Y-2.815
X5.2165Y-3.6024
X5.2165Y-4.3898
X5.315Y-2.815
X5.315Y-3.6024
X5.315Y-4.3898
X5.4134Y-2.815
X5.4134Y-3.6024
X5.4134Y-4.3898
X5.4723Y-4.9476
X5.4723Y-5.0476
X5.4723Y-5.1476
X5.4723Y-5.2476
X5.4723Y-5.3476
X5.5723Y-4.9476
X5.5723Y-5.0476
X5.5723Y-5.1476
X5.5723Y-5.2476
X5.5723Y-5.3476
T5
X5.1181Y-5.6366
X5.5118Y-5.6366
T6
X5.1181Y-5.7587
X5.5118Y-5.7587
T7
X5.1181Y-6.0854
X5.5118Y-6.0854
T4
G00X5.126Y-2.5433
M15
G01X5.126Y-2.4961
M16
G05
G00X5.126Y-3.3307
M15
G01X5.126Y-3.2835
M16
G05
G00X5.126Y-4.1181
M15
G01X5.126Y-4.0709
M16
G05
G00X5.5039Y-2.5433
M15
G01X5.5039Y-2.4961
M16
G05
G00X5.5039Y-3.3307
M15
G01X5.5039Y-3.2835
M16
G05
G00X5.5039Y-4.1181
M15
G01X5.5039Y-4.0709
M16
G05
T0
M30
