%TF.GenerationSoftware,KiCad,Pcbnew,6.0.7+dfsg-1~bpo11+1*%
%TF.CreationDate,2022-10-26T04:05:39+08:00*%
%TF.ProjectId,MiniDelay v1.0 - Main,4d696e69-4465-46c6-9179-2076312e3020,rev?*%
%TF.SameCoordinates,Original*%
%TF.FileFunction,Legend,Bot*%
%TF.FilePolarity,Positive*%
%FSLAX46Y46*%
G04 Gerber Fmt 4.6, Leading zero omitted, Abs format (unit mm)*
G04 Created by KiCad (PCBNEW 6.0.7+dfsg-1~bpo11+1) date 2022-10-26 04:05:39*
%MOMM*%
%LPD*%
G01*
G04 APERTURE LIST*
%ADD10C,0.400000*%
%ADD11C,0.240000*%
%ADD12C,0.150000*%
%ADD13C,0.120000*%
G04 APERTURE END LIST*
D10*
X143330952Y-114823809D02*
X143330952Y-113223809D01*
X142797619Y-114366666D01*
X142264285Y-113223809D01*
X142264285Y-114823809D01*
X141502380Y-114823809D02*
X141502380Y-113757142D01*
X141502380Y-113223809D02*
X141578571Y-113300000D01*
X141502380Y-113376190D01*
X141426190Y-113300000D01*
X141502380Y-113223809D01*
X141502380Y-113376190D01*
X140740476Y-113757142D02*
X140740476Y-114823809D01*
X140740476Y-113909523D02*
X140664285Y-113833333D01*
X140511904Y-113757142D01*
X140283333Y-113757142D01*
X140130952Y-113833333D01*
X140054761Y-113985714D01*
X140054761Y-114823809D01*
X139292857Y-114823809D02*
X139292857Y-113757142D01*
X139292857Y-113223809D02*
X139369047Y-113300000D01*
X139292857Y-113376190D01*
X139216666Y-113300000D01*
X139292857Y-113223809D01*
X139292857Y-113376190D01*
X138530952Y-114823809D02*
X138530952Y-113223809D01*
X138150000Y-113223809D01*
X137921428Y-113300000D01*
X137769047Y-113452380D01*
X137692857Y-113604761D01*
X137616666Y-113909523D01*
X137616666Y-114138095D01*
X137692857Y-114442857D01*
X137769047Y-114595238D01*
X137921428Y-114747619D01*
X138150000Y-114823809D01*
X138530952Y-114823809D01*
X136321428Y-114747619D02*
X136473809Y-114823809D01*
X136778571Y-114823809D01*
X136930952Y-114747619D01*
X137007142Y-114595238D01*
X137007142Y-113985714D01*
X136930952Y-113833333D01*
X136778571Y-113757142D01*
X136473809Y-113757142D01*
X136321428Y-113833333D01*
X136245238Y-113985714D01*
X136245238Y-114138095D01*
X137007142Y-114290476D01*
X135330952Y-114823809D02*
X135483333Y-114747619D01*
X135559523Y-114595238D01*
X135559523Y-113223809D01*
X134035714Y-114823809D02*
X134035714Y-113985714D01*
X134111904Y-113833333D01*
X134264285Y-113757142D01*
X134569047Y-113757142D01*
X134721428Y-113833333D01*
X134035714Y-114747619D02*
X134188095Y-114823809D01*
X134569047Y-114823809D01*
X134721428Y-114747619D01*
X134797619Y-114595238D01*
X134797619Y-114442857D01*
X134721428Y-114290476D01*
X134569047Y-114214285D01*
X134188095Y-114214285D01*
X134035714Y-114138095D01*
X133426190Y-113757142D02*
X133045238Y-114823809D01*
X132664285Y-113757142D02*
X133045238Y-114823809D01*
X133197619Y-115204761D01*
X133273809Y-115280952D01*
X133426190Y-115357142D01*
X130988095Y-113757142D02*
X130607142Y-114823809D01*
X130226190Y-113757142D01*
X128778571Y-114823809D02*
X129692857Y-114823809D01*
X129235714Y-114823809D02*
X129235714Y-113223809D01*
X129388095Y-113452380D01*
X129540476Y-113604761D01*
X129692857Y-113680952D01*
X128092857Y-114671428D02*
X128016666Y-114747619D01*
X128092857Y-114823809D01*
X128169047Y-114747619D01*
X128092857Y-114671428D01*
X128092857Y-114823809D01*
X127026190Y-113223809D02*
X126873809Y-113223809D01*
X126721428Y-113300000D01*
X126645238Y-113376190D01*
X126569047Y-113528571D01*
X126492857Y-113833333D01*
X126492857Y-114214285D01*
X126569047Y-114519047D01*
X126645238Y-114671428D01*
X126721428Y-114747619D01*
X126873809Y-114823809D01*
X127026190Y-114823809D01*
X127178571Y-114747619D01*
X127254761Y-114671428D01*
X127330952Y-114519047D01*
X127407142Y-114214285D01*
X127407142Y-113833333D01*
X127330952Y-113528571D01*
X127254761Y-113376190D01*
X127178571Y-113300000D01*
X127026190Y-113223809D01*
D11*
X143410714Y-116642857D02*
X143410714Y-115442857D01*
X143410714Y-115900000D02*
X143296428Y-115842857D01*
X143067857Y-115842857D01*
X142953571Y-115900000D01*
X142896428Y-115957142D01*
X142839285Y-116071428D01*
X142839285Y-116414285D01*
X142896428Y-116528571D01*
X142953571Y-116585714D01*
X143067857Y-116642857D01*
X143296428Y-116642857D01*
X143410714Y-116585714D01*
X142439285Y-115842857D02*
X142153571Y-116642857D01*
X141867857Y-115842857D02*
X142153571Y-116642857D01*
X142267857Y-116928571D01*
X142325000Y-116985714D01*
X142439285Y-117042857D01*
X140496428Y-116642857D02*
X140496428Y-115442857D01*
X140496428Y-115900000D02*
X140382142Y-115842857D01*
X140153571Y-115842857D01*
X140039285Y-115900000D01*
X139982142Y-115957142D01*
X139925000Y-116071428D01*
X139925000Y-116414285D01*
X139982142Y-116528571D01*
X140039285Y-116585714D01*
X140153571Y-116642857D01*
X140382142Y-116642857D01*
X140496428Y-116585714D01*
X138953571Y-116585714D02*
X139067857Y-116642857D01*
X139296428Y-116642857D01*
X139410714Y-116585714D01*
X139467857Y-116471428D01*
X139467857Y-116014285D01*
X139410714Y-115900000D01*
X139296428Y-115842857D01*
X139067857Y-115842857D01*
X138953571Y-115900000D01*
X138896428Y-116014285D01*
X138896428Y-116128571D01*
X139467857Y-116242857D01*
X138382142Y-115842857D02*
X138382142Y-116642857D01*
X138382142Y-115957142D02*
X138325000Y-115900000D01*
X138210714Y-115842857D01*
X138039285Y-115842857D01*
X137925000Y-115900000D01*
X137867857Y-116014285D01*
X137867857Y-116642857D01*
X137296428Y-115842857D02*
X137296428Y-116871428D01*
X137353571Y-116985714D01*
X137467857Y-117042857D01*
X137525000Y-117042857D01*
X137296428Y-115442857D02*
X137353571Y-115500000D01*
X137296428Y-115557142D01*
X137239285Y-115500000D01*
X137296428Y-115442857D01*
X137296428Y-115557142D01*
X136725000Y-116642857D02*
X136725000Y-115842857D01*
X136725000Y-115442857D02*
X136782142Y-115500000D01*
X136725000Y-115557142D01*
X136667857Y-115500000D01*
X136725000Y-115442857D01*
X136725000Y-115557142D01*
X135639285Y-116642857D02*
X135639285Y-116014285D01*
X135696428Y-115900000D01*
X135810714Y-115842857D01*
X136039285Y-115842857D01*
X136153571Y-115900000D01*
X135639285Y-116585714D02*
X135753571Y-116642857D01*
X136039285Y-116642857D01*
X136153571Y-116585714D01*
X136210714Y-116471428D01*
X136210714Y-116357142D01*
X136153571Y-116242857D01*
X136039285Y-116185714D01*
X135753571Y-116185714D01*
X135639285Y-116128571D01*
X134896428Y-116642857D02*
X135010714Y-116585714D01*
X135067857Y-116528571D01*
X135125000Y-116414285D01*
X135125000Y-116071428D01*
X135067857Y-115957142D01*
X135010714Y-115900000D01*
X134896428Y-115842857D01*
X134725000Y-115842857D01*
X134610714Y-115900000D01*
X134553571Y-115957142D01*
X134496428Y-116071428D01*
X134496428Y-116414285D01*
X134553571Y-116528571D01*
X134610714Y-116585714D01*
X134725000Y-116642857D01*
X134896428Y-116642857D01*
X133982142Y-116642857D02*
X133982142Y-115842857D01*
X133982142Y-115957142D02*
X133925000Y-115900000D01*
X133810714Y-115842857D01*
X133639285Y-115842857D01*
X133525000Y-115900000D01*
X133467857Y-116014285D01*
X133467857Y-116642857D01*
X133467857Y-116014285D02*
X133410714Y-115900000D01*
X133296428Y-115842857D01*
X133125000Y-115842857D01*
X133010714Y-115900000D01*
X132953571Y-116014285D01*
X132953571Y-116642857D01*
X132210714Y-116642857D02*
X132325000Y-116585714D01*
X132382142Y-116528571D01*
X132439285Y-116414285D01*
X132439285Y-116071428D01*
X132382142Y-115957142D01*
X132325000Y-115900000D01*
X132210714Y-115842857D01*
X132039285Y-115842857D01*
X131925000Y-115900000D01*
X131867857Y-115957142D01*
X131810714Y-116071428D01*
X131810714Y-116414285D01*
X131867857Y-116528571D01*
X131925000Y-116585714D01*
X132039285Y-116642857D01*
X132210714Y-116642857D01*
X130782142Y-116642857D02*
X130782142Y-115442857D01*
X130782142Y-116585714D02*
X130896428Y-116642857D01*
X131125000Y-116642857D01*
X131239285Y-116585714D01*
X131296428Y-116528571D01*
X131353571Y-116414285D01*
X131353571Y-116071428D01*
X131296428Y-115957142D01*
X131239285Y-115900000D01*
X131125000Y-115842857D01*
X130896428Y-115842857D01*
X130782142Y-115900000D01*
X129696428Y-115842857D02*
X129696428Y-116642857D01*
X130210714Y-115842857D02*
X130210714Y-116471428D01*
X130153571Y-116585714D01*
X130039285Y-116642857D01*
X129867857Y-116642857D01*
X129753571Y-116585714D01*
X129696428Y-116528571D01*
X128953571Y-116642857D02*
X129067857Y-116585714D01*
X129125000Y-116471428D01*
X129125000Y-115442857D01*
X127982142Y-116642857D02*
X127982142Y-116014285D01*
X128039285Y-115900000D01*
X128153571Y-115842857D01*
X128382142Y-115842857D01*
X128496428Y-115900000D01*
X127982142Y-116585714D02*
X128096428Y-116642857D01*
X128382142Y-116642857D01*
X128496428Y-116585714D01*
X128553571Y-116471428D01*
X128553571Y-116357142D01*
X128496428Y-116242857D01*
X128382142Y-116185714D01*
X128096428Y-116185714D01*
X127982142Y-116128571D01*
X127410714Y-116642857D02*
X127410714Y-115842857D01*
X127410714Y-116071428D02*
X127353571Y-115957142D01*
X127296428Y-115900000D01*
X127182142Y-115842857D01*
X127067857Y-115842857D01*
D12*
%TO.C,R14*%
X134852380Y-88505142D02*
X134376190Y-88171809D01*
X134852380Y-87933714D02*
X133852380Y-87933714D01*
X133852380Y-88314666D01*
X133900000Y-88409904D01*
X133947619Y-88457523D01*
X134042857Y-88505142D01*
X134185714Y-88505142D01*
X134280952Y-88457523D01*
X134328571Y-88409904D01*
X134376190Y-88314666D01*
X134376190Y-87933714D01*
X134852380Y-89457523D02*
X134852380Y-88886095D01*
X134852380Y-89171809D02*
X133852380Y-89171809D01*
X133995238Y-89076571D01*
X134090476Y-88981333D01*
X134138095Y-88886095D01*
X134185714Y-90314666D02*
X134852380Y-90314666D01*
X133804761Y-90076571D02*
X134519047Y-89838476D01*
X134519047Y-90457523D01*
%TO.C,C22*%
X143037142Y-96637142D02*
X143084761Y-96589523D01*
X143132380Y-96446666D01*
X143132380Y-96351428D01*
X143084761Y-96208571D01*
X142989523Y-96113333D01*
X142894285Y-96065714D01*
X142703809Y-96018095D01*
X142560952Y-96018095D01*
X142370476Y-96065714D01*
X142275238Y-96113333D01*
X142180000Y-96208571D01*
X142132380Y-96351428D01*
X142132380Y-96446666D01*
X142180000Y-96589523D01*
X142227619Y-96637142D01*
X142227619Y-97018095D02*
X142180000Y-97065714D01*
X142132380Y-97160952D01*
X142132380Y-97399047D01*
X142180000Y-97494285D01*
X142227619Y-97541904D01*
X142322857Y-97589523D01*
X142418095Y-97589523D01*
X142560952Y-97541904D01*
X143132380Y-96970476D01*
X143132380Y-97589523D01*
X142227619Y-97970476D02*
X142180000Y-98018095D01*
X142132380Y-98113333D01*
X142132380Y-98351428D01*
X142180000Y-98446666D01*
X142227619Y-98494285D01*
X142322857Y-98541904D01*
X142418095Y-98541904D01*
X142560952Y-98494285D01*
X143132380Y-97922857D01*
X143132380Y-98541904D01*
%TO.C,C1*%
X139941666Y-118907142D02*
X139989285Y-118954761D01*
X140132142Y-119002380D01*
X140227380Y-119002380D01*
X140370238Y-118954761D01*
X140465476Y-118859523D01*
X140513095Y-118764285D01*
X140560714Y-118573809D01*
X140560714Y-118430952D01*
X140513095Y-118240476D01*
X140465476Y-118145238D01*
X140370238Y-118050000D01*
X140227380Y-118002380D01*
X140132142Y-118002380D01*
X139989285Y-118050000D01*
X139941666Y-118097619D01*
X138989285Y-119002380D02*
X139560714Y-119002380D01*
X139275000Y-119002380D02*
X139275000Y-118002380D01*
X139370238Y-118145238D01*
X139465476Y-118240476D01*
X139560714Y-118288095D01*
%TO.C,U3*%
X127002380Y-120788095D02*
X127811904Y-120788095D01*
X127907142Y-120835714D01*
X127954761Y-120883333D01*
X128002380Y-120978571D01*
X128002380Y-121169047D01*
X127954761Y-121264285D01*
X127907142Y-121311904D01*
X127811904Y-121359523D01*
X127002380Y-121359523D01*
X127002380Y-121740476D02*
X127002380Y-122359523D01*
X127383333Y-122026190D01*
X127383333Y-122169047D01*
X127430952Y-122264285D01*
X127478571Y-122311904D01*
X127573809Y-122359523D01*
X127811904Y-122359523D01*
X127907142Y-122311904D01*
X127954761Y-122264285D01*
X128002380Y-122169047D01*
X128002380Y-121883333D01*
X127954761Y-121788095D01*
X127907142Y-121740476D01*
%TO.C,R3*%
X131291666Y-149722380D02*
X131625000Y-149246190D01*
X131863095Y-149722380D02*
X131863095Y-148722380D01*
X131482142Y-148722380D01*
X131386904Y-148770000D01*
X131339285Y-148817619D01*
X131291666Y-148912857D01*
X131291666Y-149055714D01*
X131339285Y-149150952D01*
X131386904Y-149198571D01*
X131482142Y-149246190D01*
X131863095Y-149246190D01*
X130958333Y-148722380D02*
X130339285Y-148722380D01*
X130672619Y-149103333D01*
X130529761Y-149103333D01*
X130434523Y-149150952D01*
X130386904Y-149198571D01*
X130339285Y-149293809D01*
X130339285Y-149531904D01*
X130386904Y-149627142D01*
X130434523Y-149674761D01*
X130529761Y-149722380D01*
X130815476Y-149722380D01*
X130910714Y-149674761D01*
X130958333Y-149627142D01*
%TO.C,C19*%
X133257142Y-88505142D02*
X133304761Y-88457523D01*
X133352380Y-88314666D01*
X133352380Y-88219428D01*
X133304761Y-88076571D01*
X133209523Y-87981333D01*
X133114285Y-87933714D01*
X132923809Y-87886095D01*
X132780952Y-87886095D01*
X132590476Y-87933714D01*
X132495238Y-87981333D01*
X132400000Y-88076571D01*
X132352380Y-88219428D01*
X132352380Y-88314666D01*
X132400000Y-88457523D01*
X132447619Y-88505142D01*
X133352380Y-89457523D02*
X133352380Y-88886095D01*
X133352380Y-89171809D02*
X132352380Y-89171809D01*
X132495238Y-89076571D01*
X132590476Y-88981333D01*
X132638095Y-88886095D01*
X133352380Y-89933714D02*
X133352380Y-90124190D01*
X133304761Y-90219428D01*
X133257142Y-90267047D01*
X133114285Y-90362285D01*
X132923809Y-90409904D01*
X132542857Y-90409904D01*
X132447619Y-90362285D01*
X132400000Y-90314666D01*
X132352380Y-90219428D01*
X132352380Y-90028952D01*
X132400000Y-89933714D01*
X132447619Y-89886095D01*
X132542857Y-89838476D01*
X132780952Y-89838476D01*
X132876190Y-89886095D01*
X132923809Y-89933714D01*
X132971428Y-90028952D01*
X132971428Y-90219428D01*
X132923809Y-90314666D01*
X132876190Y-90362285D01*
X132780952Y-90409904D01*
%TO.C,R17*%
X140917857Y-107712380D02*
X141251190Y-107236190D01*
X141489285Y-107712380D02*
X141489285Y-106712380D01*
X141108333Y-106712380D01*
X141013095Y-106760000D01*
X140965476Y-106807619D01*
X140917857Y-106902857D01*
X140917857Y-107045714D01*
X140965476Y-107140952D01*
X141013095Y-107188571D01*
X141108333Y-107236190D01*
X141489285Y-107236190D01*
X139965476Y-107712380D02*
X140536904Y-107712380D01*
X140251190Y-107712380D02*
X140251190Y-106712380D01*
X140346428Y-106855238D01*
X140441666Y-106950476D01*
X140536904Y-106998095D01*
X139632142Y-106712380D02*
X138965476Y-106712380D01*
X139394047Y-107712380D01*
%TO.C,C4*%
X127066666Y-97057142D02*
X127114285Y-97104761D01*
X127257142Y-97152380D01*
X127352380Y-97152380D01*
X127495238Y-97104761D01*
X127590476Y-97009523D01*
X127638095Y-96914285D01*
X127685714Y-96723809D01*
X127685714Y-96580952D01*
X127638095Y-96390476D01*
X127590476Y-96295238D01*
X127495238Y-96200000D01*
X127352380Y-96152380D01*
X127257142Y-96152380D01*
X127114285Y-96200000D01*
X127066666Y-96247619D01*
X126209523Y-96485714D02*
X126209523Y-97152380D01*
X126447619Y-96104761D02*
X126685714Y-96819047D01*
X126066666Y-96819047D01*
%TO.C,R19*%
X141562380Y-88897142D02*
X141086190Y-88563809D01*
X141562380Y-88325714D02*
X140562380Y-88325714D01*
X140562380Y-88706666D01*
X140610000Y-88801904D01*
X140657619Y-88849523D01*
X140752857Y-88897142D01*
X140895714Y-88897142D01*
X140990952Y-88849523D01*
X141038571Y-88801904D01*
X141086190Y-88706666D01*
X141086190Y-88325714D01*
X141562380Y-89849523D02*
X141562380Y-89278095D01*
X141562380Y-89563809D02*
X140562380Y-89563809D01*
X140705238Y-89468571D01*
X140800476Y-89373333D01*
X140848095Y-89278095D01*
X141562380Y-90325714D02*
X141562380Y-90516190D01*
X141514761Y-90611428D01*
X141467142Y-90659047D01*
X141324285Y-90754285D01*
X141133809Y-90801904D01*
X140752857Y-90801904D01*
X140657619Y-90754285D01*
X140610000Y-90706666D01*
X140562380Y-90611428D01*
X140562380Y-90420952D01*
X140610000Y-90325714D01*
X140657619Y-90278095D01*
X140752857Y-90230476D01*
X140990952Y-90230476D01*
X141086190Y-90278095D01*
X141133809Y-90325714D01*
X141181428Y-90420952D01*
X141181428Y-90611428D01*
X141133809Y-90706666D01*
X141086190Y-90754285D01*
X140990952Y-90801904D01*
%TO.C,R6*%
X131366666Y-107562380D02*
X131700000Y-107086190D01*
X131938095Y-107562380D02*
X131938095Y-106562380D01*
X131557142Y-106562380D01*
X131461904Y-106610000D01*
X131414285Y-106657619D01*
X131366666Y-106752857D01*
X131366666Y-106895714D01*
X131414285Y-106990952D01*
X131461904Y-107038571D01*
X131557142Y-107086190D01*
X131938095Y-107086190D01*
X130509523Y-106562380D02*
X130700000Y-106562380D01*
X130795238Y-106610000D01*
X130842857Y-106657619D01*
X130938095Y-106800476D01*
X130985714Y-106990952D01*
X130985714Y-107371904D01*
X130938095Y-107467142D01*
X130890476Y-107514761D01*
X130795238Y-107562380D01*
X130604761Y-107562380D01*
X130509523Y-107514761D01*
X130461904Y-107467142D01*
X130414285Y-107371904D01*
X130414285Y-107133809D01*
X130461904Y-107038571D01*
X130509523Y-106990952D01*
X130604761Y-106943333D01*
X130795238Y-106943333D01*
X130890476Y-106990952D01*
X130938095Y-107038571D01*
X130985714Y-107133809D01*
%TO.C,C6*%
X126857142Y-100033333D02*
X126904761Y-99985714D01*
X126952380Y-99842857D01*
X126952380Y-99747619D01*
X126904761Y-99604761D01*
X126809523Y-99509523D01*
X126714285Y-99461904D01*
X126523809Y-99414285D01*
X126380952Y-99414285D01*
X126190476Y-99461904D01*
X126095238Y-99509523D01*
X126000000Y-99604761D01*
X125952380Y-99747619D01*
X125952380Y-99842857D01*
X126000000Y-99985714D01*
X126047619Y-100033333D01*
X125952380Y-100890476D02*
X125952380Y-100700000D01*
X126000000Y-100604761D01*
X126047619Y-100557142D01*
X126190476Y-100461904D01*
X126380952Y-100414285D01*
X126761904Y-100414285D01*
X126857142Y-100461904D01*
X126904761Y-100509523D01*
X126952380Y-100604761D01*
X126952380Y-100795238D01*
X126904761Y-100890476D01*
X126857142Y-100938095D01*
X126761904Y-100985714D01*
X126523809Y-100985714D01*
X126428571Y-100938095D01*
X126380952Y-100890476D01*
X126333333Y-100795238D01*
X126333333Y-100604761D01*
X126380952Y-100509523D01*
X126428571Y-100461904D01*
X126523809Y-100414285D01*
%TO.C,C10*%
X133942857Y-83957142D02*
X133990476Y-84004761D01*
X134133333Y-84052380D01*
X134228571Y-84052380D01*
X134371428Y-84004761D01*
X134466666Y-83909523D01*
X134514285Y-83814285D01*
X134561904Y-83623809D01*
X134561904Y-83480952D01*
X134514285Y-83290476D01*
X134466666Y-83195238D01*
X134371428Y-83100000D01*
X134228571Y-83052380D01*
X134133333Y-83052380D01*
X133990476Y-83100000D01*
X133942857Y-83147619D01*
X132990476Y-84052380D02*
X133561904Y-84052380D01*
X133276190Y-84052380D02*
X133276190Y-83052380D01*
X133371428Y-83195238D01*
X133466666Y-83290476D01*
X133561904Y-83338095D01*
X132371428Y-83052380D02*
X132276190Y-83052380D01*
X132180952Y-83100000D01*
X132133333Y-83147619D01*
X132085714Y-83242857D01*
X132038095Y-83433333D01*
X132038095Y-83671428D01*
X132085714Y-83861904D01*
X132133333Y-83957142D01*
X132180952Y-84004761D01*
X132276190Y-84052380D01*
X132371428Y-84052380D01*
X132466666Y-84004761D01*
X132514285Y-83957142D01*
X132561904Y-83861904D01*
X132609523Y-83671428D01*
X132609523Y-83433333D01*
X132561904Y-83242857D01*
X132514285Y-83147619D01*
X132466666Y-83100000D01*
X132371428Y-83052380D01*
%TO.C,C13*%
X142757142Y-82557142D02*
X142804761Y-82509523D01*
X142852380Y-82366666D01*
X142852380Y-82271428D01*
X142804761Y-82128571D01*
X142709523Y-82033333D01*
X142614285Y-81985714D01*
X142423809Y-81938095D01*
X142280952Y-81938095D01*
X142090476Y-81985714D01*
X141995238Y-82033333D01*
X141900000Y-82128571D01*
X141852380Y-82271428D01*
X141852380Y-82366666D01*
X141900000Y-82509523D01*
X141947619Y-82557142D01*
X142852380Y-83509523D02*
X142852380Y-82938095D01*
X142852380Y-83223809D02*
X141852380Y-83223809D01*
X141995238Y-83128571D01*
X142090476Y-83033333D01*
X142138095Y-82938095D01*
X141852380Y-83842857D02*
X141852380Y-84461904D01*
X142233333Y-84128571D01*
X142233333Y-84271428D01*
X142280952Y-84366666D01*
X142328571Y-84414285D01*
X142423809Y-84461904D01*
X142661904Y-84461904D01*
X142757142Y-84414285D01*
X142804761Y-84366666D01*
X142852380Y-84271428D01*
X142852380Y-83985714D01*
X142804761Y-83890476D01*
X142757142Y-83842857D01*
%TO.C,R5*%
X134346666Y-69942380D02*
X134680000Y-69466190D01*
X134918095Y-69942380D02*
X134918095Y-68942380D01*
X134537142Y-68942380D01*
X134441904Y-68990000D01*
X134394285Y-69037619D01*
X134346666Y-69132857D01*
X134346666Y-69275714D01*
X134394285Y-69370952D01*
X134441904Y-69418571D01*
X134537142Y-69466190D01*
X134918095Y-69466190D01*
X133441904Y-68942380D02*
X133918095Y-68942380D01*
X133965714Y-69418571D01*
X133918095Y-69370952D01*
X133822857Y-69323333D01*
X133584761Y-69323333D01*
X133489523Y-69370952D01*
X133441904Y-69418571D01*
X133394285Y-69513809D01*
X133394285Y-69751904D01*
X133441904Y-69847142D01*
X133489523Y-69894761D01*
X133584761Y-69942380D01*
X133822857Y-69942380D01*
X133918095Y-69894761D01*
X133965714Y-69847142D01*
%TO.C,C20*%
X127657142Y-86427142D02*
X127704761Y-86379523D01*
X127752380Y-86236666D01*
X127752380Y-86141428D01*
X127704761Y-85998571D01*
X127609523Y-85903333D01*
X127514285Y-85855714D01*
X127323809Y-85808095D01*
X127180952Y-85808095D01*
X126990476Y-85855714D01*
X126895238Y-85903333D01*
X126800000Y-85998571D01*
X126752380Y-86141428D01*
X126752380Y-86236666D01*
X126800000Y-86379523D01*
X126847619Y-86427142D01*
X126847619Y-86808095D02*
X126800000Y-86855714D01*
X126752380Y-86950952D01*
X126752380Y-87189047D01*
X126800000Y-87284285D01*
X126847619Y-87331904D01*
X126942857Y-87379523D01*
X127038095Y-87379523D01*
X127180952Y-87331904D01*
X127752380Y-86760476D01*
X127752380Y-87379523D01*
X126752380Y-87998571D02*
X126752380Y-88093809D01*
X126800000Y-88189047D01*
X126847619Y-88236666D01*
X126942857Y-88284285D01*
X127133333Y-88331904D01*
X127371428Y-88331904D01*
X127561904Y-88284285D01*
X127657142Y-88236666D01*
X127704761Y-88189047D01*
X127752380Y-88093809D01*
X127752380Y-87998571D01*
X127704761Y-87903333D01*
X127657142Y-87855714D01*
X127561904Y-87808095D01*
X127371428Y-87760476D01*
X127133333Y-87760476D01*
X126942857Y-87808095D01*
X126847619Y-87855714D01*
X126800000Y-87903333D01*
X126752380Y-87998571D01*
%TO.C,R11*%
X127117857Y-94052380D02*
X127451190Y-93576190D01*
X127689285Y-94052380D02*
X127689285Y-93052380D01*
X127308333Y-93052380D01*
X127213095Y-93100000D01*
X127165476Y-93147619D01*
X127117857Y-93242857D01*
X127117857Y-93385714D01*
X127165476Y-93480952D01*
X127213095Y-93528571D01*
X127308333Y-93576190D01*
X127689285Y-93576190D01*
X126165476Y-94052380D02*
X126736904Y-94052380D01*
X126451190Y-94052380D02*
X126451190Y-93052380D01*
X126546428Y-93195238D01*
X126641666Y-93290476D01*
X126736904Y-93338095D01*
X125213095Y-94052380D02*
X125784523Y-94052380D01*
X125498809Y-94052380D02*
X125498809Y-93052380D01*
X125594047Y-93195238D01*
X125689285Y-93290476D01*
X125784523Y-93338095D01*
%TO.C,C3*%
X140776666Y-95377142D02*
X140824285Y-95424761D01*
X140967142Y-95472380D01*
X141062380Y-95472380D01*
X141205238Y-95424761D01*
X141300476Y-95329523D01*
X141348095Y-95234285D01*
X141395714Y-95043809D01*
X141395714Y-94900952D01*
X141348095Y-94710476D01*
X141300476Y-94615238D01*
X141205238Y-94520000D01*
X141062380Y-94472380D01*
X140967142Y-94472380D01*
X140824285Y-94520000D01*
X140776666Y-94567619D01*
X140443333Y-94472380D02*
X139824285Y-94472380D01*
X140157619Y-94853333D01*
X140014761Y-94853333D01*
X139919523Y-94900952D01*
X139871904Y-94948571D01*
X139824285Y-95043809D01*
X139824285Y-95281904D01*
X139871904Y-95377142D01*
X139919523Y-95424761D01*
X140014761Y-95472380D01*
X140300476Y-95472380D01*
X140395714Y-95424761D01*
X140443333Y-95377142D01*
%TO.C,J1*%
X135108333Y-134027380D02*
X135108333Y-134741666D01*
X135155952Y-134884523D01*
X135251190Y-134979761D01*
X135394047Y-135027380D01*
X135489285Y-135027380D01*
X134108333Y-135027380D02*
X134679761Y-135027380D01*
X134394047Y-135027380D02*
X134394047Y-134027380D01*
X134489285Y-134170238D01*
X134584523Y-134265476D01*
X134679761Y-134313095D01*
%TO.C,R10*%
X142752380Y-66332142D02*
X142276190Y-65998809D01*
X142752380Y-65760714D02*
X141752380Y-65760714D01*
X141752380Y-66141666D01*
X141800000Y-66236904D01*
X141847619Y-66284523D01*
X141942857Y-66332142D01*
X142085714Y-66332142D01*
X142180952Y-66284523D01*
X142228571Y-66236904D01*
X142276190Y-66141666D01*
X142276190Y-65760714D01*
X142752380Y-67284523D02*
X142752380Y-66713095D01*
X142752380Y-66998809D02*
X141752380Y-66998809D01*
X141895238Y-66903571D01*
X141990476Y-66808333D01*
X142038095Y-66713095D01*
X141752380Y-67903571D02*
X141752380Y-67998809D01*
X141800000Y-68094047D01*
X141847619Y-68141666D01*
X141942857Y-68189285D01*
X142133333Y-68236904D01*
X142371428Y-68236904D01*
X142561904Y-68189285D01*
X142657142Y-68141666D01*
X142704761Y-68094047D01*
X142752380Y-67998809D01*
X142752380Y-67903571D01*
X142704761Y-67808333D01*
X142657142Y-67760714D01*
X142561904Y-67713095D01*
X142371428Y-67665476D01*
X142133333Y-67665476D01*
X141942857Y-67713095D01*
X141847619Y-67760714D01*
X141800000Y-67808333D01*
X141752380Y-67903571D01*
%TO.C,C11*%
X142757142Y-72832142D02*
X142804761Y-72784523D01*
X142852380Y-72641666D01*
X142852380Y-72546428D01*
X142804761Y-72403571D01*
X142709523Y-72308333D01*
X142614285Y-72260714D01*
X142423809Y-72213095D01*
X142280952Y-72213095D01*
X142090476Y-72260714D01*
X141995238Y-72308333D01*
X141900000Y-72403571D01*
X141852380Y-72546428D01*
X141852380Y-72641666D01*
X141900000Y-72784523D01*
X141947619Y-72832142D01*
X142852380Y-73784523D02*
X142852380Y-73213095D01*
X142852380Y-73498809D02*
X141852380Y-73498809D01*
X141995238Y-73403571D01*
X142090476Y-73308333D01*
X142138095Y-73213095D01*
X142852380Y-74736904D02*
X142852380Y-74165476D01*
X142852380Y-74451190D02*
X141852380Y-74451190D01*
X141995238Y-74355952D01*
X142090476Y-74260714D01*
X142138095Y-74165476D01*
%TO.C,R2*%
X131766666Y-137277380D02*
X132100000Y-136801190D01*
X132338095Y-137277380D02*
X132338095Y-136277380D01*
X131957142Y-136277380D01*
X131861904Y-136325000D01*
X131814285Y-136372619D01*
X131766666Y-136467857D01*
X131766666Y-136610714D01*
X131814285Y-136705952D01*
X131861904Y-136753571D01*
X131957142Y-136801190D01*
X132338095Y-136801190D01*
X131385714Y-136372619D02*
X131338095Y-136325000D01*
X131242857Y-136277380D01*
X131004761Y-136277380D01*
X130909523Y-136325000D01*
X130861904Y-136372619D01*
X130814285Y-136467857D01*
X130814285Y-136563095D01*
X130861904Y-136705952D01*
X131433333Y-137277380D01*
X130814285Y-137277380D01*
%TO.C,R18*%
X140942857Y-109652380D02*
X141276190Y-109176190D01*
X141514285Y-109652380D02*
X141514285Y-108652380D01*
X141133333Y-108652380D01*
X141038095Y-108700000D01*
X140990476Y-108747619D01*
X140942857Y-108842857D01*
X140942857Y-108985714D01*
X140990476Y-109080952D01*
X141038095Y-109128571D01*
X141133333Y-109176190D01*
X141514285Y-109176190D01*
X139990476Y-109652380D02*
X140561904Y-109652380D01*
X140276190Y-109652380D02*
X140276190Y-108652380D01*
X140371428Y-108795238D01*
X140466666Y-108890476D01*
X140561904Y-108938095D01*
X139419047Y-109080952D02*
X139514285Y-109033333D01*
X139561904Y-108985714D01*
X139609523Y-108890476D01*
X139609523Y-108842857D01*
X139561904Y-108747619D01*
X139514285Y-108700000D01*
X139419047Y-108652380D01*
X139228571Y-108652380D01*
X139133333Y-108700000D01*
X139085714Y-108747619D01*
X139038095Y-108842857D01*
X139038095Y-108890476D01*
X139085714Y-108985714D01*
X139133333Y-109033333D01*
X139228571Y-109080952D01*
X139419047Y-109080952D01*
X139514285Y-109128571D01*
X139561904Y-109176190D01*
X139609523Y-109271428D01*
X139609523Y-109461904D01*
X139561904Y-109557142D01*
X139514285Y-109604761D01*
X139419047Y-109652380D01*
X139228571Y-109652380D01*
X139133333Y-109604761D01*
X139085714Y-109557142D01*
X139038095Y-109461904D01*
X139038095Y-109271428D01*
X139085714Y-109176190D01*
X139133333Y-109128571D01*
X139228571Y-109080952D01*
%TO.C,C5*%
X131353666Y-151177142D02*
X131401285Y-151224761D01*
X131544142Y-151272380D01*
X131639380Y-151272380D01*
X131782238Y-151224761D01*
X131877476Y-151129523D01*
X131925095Y-151034285D01*
X131972714Y-150843809D01*
X131972714Y-150700952D01*
X131925095Y-150510476D01*
X131877476Y-150415238D01*
X131782238Y-150320000D01*
X131639380Y-150272380D01*
X131544142Y-150272380D01*
X131401285Y-150320000D01*
X131353666Y-150367619D01*
X130448904Y-150272380D02*
X130925095Y-150272380D01*
X130972714Y-150748571D01*
X130925095Y-150700952D01*
X130829857Y-150653333D01*
X130591761Y-150653333D01*
X130496523Y-150700952D01*
X130448904Y-150748571D01*
X130401285Y-150843809D01*
X130401285Y-151081904D01*
X130448904Y-151177142D01*
X130496523Y-151224761D01*
X130591761Y-151272380D01*
X130829857Y-151272380D01*
X130925095Y-151224761D01*
X130972714Y-151177142D01*
%TO.C,R4*%
X129766666Y-98652380D02*
X130100000Y-98176190D01*
X130338095Y-98652380D02*
X130338095Y-97652380D01*
X129957142Y-97652380D01*
X129861904Y-97700000D01*
X129814285Y-97747619D01*
X129766666Y-97842857D01*
X129766666Y-97985714D01*
X129814285Y-98080952D01*
X129861904Y-98128571D01*
X129957142Y-98176190D01*
X130338095Y-98176190D01*
X128909523Y-97985714D02*
X128909523Y-98652380D01*
X129147619Y-97604761D02*
X129385714Y-98319047D01*
X128766666Y-98319047D01*
%TO.C,R21*%
X140086380Y-100275142D02*
X139610190Y-99941809D01*
X140086380Y-99703714D02*
X139086380Y-99703714D01*
X139086380Y-100084666D01*
X139134000Y-100179904D01*
X139181619Y-100227523D01*
X139276857Y-100275142D01*
X139419714Y-100275142D01*
X139514952Y-100227523D01*
X139562571Y-100179904D01*
X139610190Y-100084666D01*
X139610190Y-99703714D01*
X139181619Y-100656095D02*
X139134000Y-100703714D01*
X139086380Y-100798952D01*
X139086380Y-101037047D01*
X139134000Y-101132285D01*
X139181619Y-101179904D01*
X139276857Y-101227523D01*
X139372095Y-101227523D01*
X139514952Y-101179904D01*
X140086380Y-100608476D01*
X140086380Y-101227523D01*
X140086380Y-102179904D02*
X140086380Y-101608476D01*
X140086380Y-101894190D02*
X139086380Y-101894190D01*
X139229238Y-101798952D01*
X139324476Y-101703714D01*
X139372095Y-101608476D01*
%TO.C,R1*%
X131371666Y-152792380D02*
X131705000Y-152316190D01*
X131943095Y-152792380D02*
X131943095Y-151792380D01*
X131562142Y-151792380D01*
X131466904Y-151840000D01*
X131419285Y-151887619D01*
X131371666Y-151982857D01*
X131371666Y-152125714D01*
X131419285Y-152220952D01*
X131466904Y-152268571D01*
X131562142Y-152316190D01*
X131943095Y-152316190D01*
X130419285Y-152792380D02*
X130990714Y-152792380D01*
X130705000Y-152792380D02*
X130705000Y-151792380D01*
X130800238Y-151935238D01*
X130895476Y-152030476D01*
X130990714Y-152078095D01*
%TO.C,R9*%
X144432380Y-102648333D02*
X143956190Y-102315000D01*
X144432380Y-102076904D02*
X143432380Y-102076904D01*
X143432380Y-102457857D01*
X143480000Y-102553095D01*
X143527619Y-102600714D01*
X143622857Y-102648333D01*
X143765714Y-102648333D01*
X143860952Y-102600714D01*
X143908571Y-102553095D01*
X143956190Y-102457857D01*
X143956190Y-102076904D01*
X144432380Y-103124523D02*
X144432380Y-103315000D01*
X144384761Y-103410238D01*
X144337142Y-103457857D01*
X144194285Y-103553095D01*
X144003809Y-103600714D01*
X143622857Y-103600714D01*
X143527619Y-103553095D01*
X143480000Y-103505476D01*
X143432380Y-103410238D01*
X143432380Y-103219761D01*
X143480000Y-103124523D01*
X143527619Y-103076904D01*
X143622857Y-103029285D01*
X143860952Y-103029285D01*
X143956190Y-103076904D01*
X144003809Y-103124523D01*
X144051428Y-103219761D01*
X144051428Y-103410238D01*
X144003809Y-103505476D01*
X143956190Y-103553095D01*
X143860952Y-103600714D01*
%TO.C,R20*%
X140072380Y-88917142D02*
X139596190Y-88583809D01*
X140072380Y-88345714D02*
X139072380Y-88345714D01*
X139072380Y-88726666D01*
X139120000Y-88821904D01*
X139167619Y-88869523D01*
X139262857Y-88917142D01*
X139405714Y-88917142D01*
X139500952Y-88869523D01*
X139548571Y-88821904D01*
X139596190Y-88726666D01*
X139596190Y-88345714D01*
X139167619Y-89298095D02*
X139120000Y-89345714D01*
X139072380Y-89440952D01*
X139072380Y-89679047D01*
X139120000Y-89774285D01*
X139167619Y-89821904D01*
X139262857Y-89869523D01*
X139358095Y-89869523D01*
X139500952Y-89821904D01*
X140072380Y-89250476D01*
X140072380Y-89869523D01*
X139072380Y-90488571D02*
X139072380Y-90583809D01*
X139120000Y-90679047D01*
X139167619Y-90726666D01*
X139262857Y-90774285D01*
X139453333Y-90821904D01*
X139691428Y-90821904D01*
X139881904Y-90774285D01*
X139977142Y-90726666D01*
X140024761Y-90679047D01*
X140072380Y-90583809D01*
X140072380Y-90488571D01*
X140024761Y-90393333D01*
X139977142Y-90345714D01*
X139881904Y-90298095D01*
X139691428Y-90250476D01*
X139453333Y-90250476D01*
X139262857Y-90298095D01*
X139167619Y-90345714D01*
X139120000Y-90393333D01*
X139072380Y-90488571D01*
%TO.C,C2*%
X134491666Y-141357142D02*
X134539285Y-141404761D01*
X134682142Y-141452380D01*
X134777380Y-141452380D01*
X134920238Y-141404761D01*
X135015476Y-141309523D01*
X135063095Y-141214285D01*
X135110714Y-141023809D01*
X135110714Y-140880952D01*
X135063095Y-140690476D01*
X135015476Y-140595238D01*
X134920238Y-140500000D01*
X134777380Y-140452380D01*
X134682142Y-140452380D01*
X134539285Y-140500000D01*
X134491666Y-140547619D01*
X134110714Y-140547619D02*
X134063095Y-140500000D01*
X133967857Y-140452380D01*
X133729761Y-140452380D01*
X133634523Y-140500000D01*
X133586904Y-140547619D01*
X133539285Y-140642857D01*
X133539285Y-140738095D01*
X133586904Y-140880952D01*
X134158333Y-141452380D01*
X133539285Y-141452380D01*
%TO.C,C21*%
X142987142Y-88947142D02*
X143034761Y-88899523D01*
X143082380Y-88756666D01*
X143082380Y-88661428D01*
X143034761Y-88518571D01*
X142939523Y-88423333D01*
X142844285Y-88375714D01*
X142653809Y-88328095D01*
X142510952Y-88328095D01*
X142320476Y-88375714D01*
X142225238Y-88423333D01*
X142130000Y-88518571D01*
X142082380Y-88661428D01*
X142082380Y-88756666D01*
X142130000Y-88899523D01*
X142177619Y-88947142D01*
X142177619Y-89328095D02*
X142130000Y-89375714D01*
X142082380Y-89470952D01*
X142082380Y-89709047D01*
X142130000Y-89804285D01*
X142177619Y-89851904D01*
X142272857Y-89899523D01*
X142368095Y-89899523D01*
X142510952Y-89851904D01*
X143082380Y-89280476D01*
X143082380Y-89899523D01*
X143082380Y-90851904D02*
X143082380Y-90280476D01*
X143082380Y-90566190D02*
X142082380Y-90566190D01*
X142225238Y-90470952D01*
X142320476Y-90375714D01*
X142368095Y-90280476D01*
%TO.C,C9*%
X134326553Y-66766968D02*
X134374172Y-66814587D01*
X134517029Y-66862206D01*
X134612267Y-66862206D01*
X134755125Y-66814587D01*
X134850363Y-66719349D01*
X134897982Y-66624111D01*
X134945601Y-66433635D01*
X134945601Y-66290778D01*
X134897982Y-66100302D01*
X134850363Y-66005064D01*
X134755125Y-65909826D01*
X134612267Y-65862206D01*
X134517029Y-65862206D01*
X134374172Y-65909826D01*
X134326553Y-65957445D01*
X133850363Y-66862206D02*
X133659887Y-66862206D01*
X133564648Y-66814587D01*
X133517029Y-66766968D01*
X133421791Y-66624111D01*
X133374172Y-66433635D01*
X133374172Y-66052683D01*
X133421791Y-65957445D01*
X133469410Y-65909826D01*
X133564648Y-65862206D01*
X133755125Y-65862206D01*
X133850363Y-65909826D01*
X133897982Y-65957445D01*
X133945601Y-66052683D01*
X133945601Y-66290778D01*
X133897982Y-66386016D01*
X133850363Y-66433635D01*
X133755125Y-66481254D01*
X133564648Y-66481254D01*
X133469410Y-66433635D01*
X133421791Y-66386016D01*
X133374172Y-66290778D01*
%TO.C,R16*%
X144602380Y-88907142D02*
X144126190Y-88573809D01*
X144602380Y-88335714D02*
X143602380Y-88335714D01*
X143602380Y-88716666D01*
X143650000Y-88811904D01*
X143697619Y-88859523D01*
X143792857Y-88907142D01*
X143935714Y-88907142D01*
X144030952Y-88859523D01*
X144078571Y-88811904D01*
X144126190Y-88716666D01*
X144126190Y-88335714D01*
X144602380Y-89859523D02*
X144602380Y-89288095D01*
X144602380Y-89573809D02*
X143602380Y-89573809D01*
X143745238Y-89478571D01*
X143840476Y-89383333D01*
X143888095Y-89288095D01*
X143602380Y-90716666D02*
X143602380Y-90526190D01*
X143650000Y-90430952D01*
X143697619Y-90383333D01*
X143840476Y-90288095D01*
X144030952Y-90240476D01*
X144411904Y-90240476D01*
X144507142Y-90288095D01*
X144554761Y-90335714D01*
X144602380Y-90430952D01*
X144602380Y-90621428D01*
X144554761Y-90716666D01*
X144507142Y-90764285D01*
X144411904Y-90811904D01*
X144173809Y-90811904D01*
X144078571Y-90764285D01*
X144030952Y-90716666D01*
X143983333Y-90621428D01*
X143983333Y-90430952D01*
X144030952Y-90335714D01*
X144078571Y-90288095D01*
X144173809Y-90240476D01*
%TO.C,C7*%
X130257142Y-70983333D02*
X130304761Y-70935714D01*
X130352380Y-70792857D01*
X130352380Y-70697619D01*
X130304761Y-70554761D01*
X130209523Y-70459523D01*
X130114285Y-70411904D01*
X129923809Y-70364285D01*
X129780952Y-70364285D01*
X129590476Y-70411904D01*
X129495238Y-70459523D01*
X129400000Y-70554761D01*
X129352380Y-70697619D01*
X129352380Y-70792857D01*
X129400000Y-70935714D01*
X129447619Y-70983333D01*
X129352380Y-71316666D02*
X129352380Y-71983333D01*
X130352380Y-71554761D01*
%TO.C,R7*%
X136352380Y-88583333D02*
X135876190Y-88250000D01*
X136352380Y-88011904D02*
X135352380Y-88011904D01*
X135352380Y-88392857D01*
X135400000Y-88488095D01*
X135447619Y-88535714D01*
X135542857Y-88583333D01*
X135685714Y-88583333D01*
X135780952Y-88535714D01*
X135828571Y-88488095D01*
X135876190Y-88392857D01*
X135876190Y-88011904D01*
X135352380Y-88916666D02*
X135352380Y-89583333D01*
X136352380Y-89154761D01*
%TO.C,C8*%
X134346553Y-68306968D02*
X134394172Y-68354587D01*
X134537029Y-68402206D01*
X134632267Y-68402206D01*
X134775125Y-68354587D01*
X134870363Y-68259349D01*
X134917982Y-68164111D01*
X134965601Y-67973635D01*
X134965601Y-67830778D01*
X134917982Y-67640302D01*
X134870363Y-67545064D01*
X134775125Y-67449826D01*
X134632267Y-67402206D01*
X134537029Y-67402206D01*
X134394172Y-67449826D01*
X134346553Y-67497445D01*
X133775125Y-67830778D02*
X133870363Y-67783159D01*
X133917982Y-67735540D01*
X133965601Y-67640302D01*
X133965601Y-67592683D01*
X133917982Y-67497445D01*
X133870363Y-67449826D01*
X133775125Y-67402206D01*
X133584648Y-67402206D01*
X133489410Y-67449826D01*
X133441791Y-67497445D01*
X133394172Y-67592683D01*
X133394172Y-67640302D01*
X133441791Y-67735540D01*
X133489410Y-67783159D01*
X133584648Y-67830778D01*
X133775125Y-67830778D01*
X133870363Y-67878397D01*
X133917982Y-67926016D01*
X133965601Y-68021254D01*
X133965601Y-68211730D01*
X133917982Y-68306968D01*
X133870363Y-68354587D01*
X133775125Y-68402206D01*
X133584648Y-68402206D01*
X133489410Y-68354587D01*
X133441791Y-68306968D01*
X133394172Y-68211730D01*
X133394172Y-68021254D01*
X133441791Y-67926016D01*
X133489410Y-67878397D01*
X133584648Y-67830778D01*
%TO.C,R12*%
X128084857Y-82802380D02*
X128418190Y-82326190D01*
X128656285Y-82802380D02*
X128656285Y-81802380D01*
X128275333Y-81802380D01*
X128180095Y-81850000D01*
X128132476Y-81897619D01*
X128084857Y-81992857D01*
X128084857Y-82135714D01*
X128132476Y-82230952D01*
X128180095Y-82278571D01*
X128275333Y-82326190D01*
X128656285Y-82326190D01*
X127132476Y-82802380D02*
X127703904Y-82802380D01*
X127418190Y-82802380D02*
X127418190Y-81802380D01*
X127513428Y-81945238D01*
X127608666Y-82040476D01*
X127703904Y-82088095D01*
X126751523Y-81897619D02*
X126703904Y-81850000D01*
X126608666Y-81802380D01*
X126370571Y-81802380D01*
X126275333Y-81850000D01*
X126227714Y-81897619D01*
X126180095Y-81992857D01*
X126180095Y-82088095D01*
X126227714Y-82230952D01*
X126799142Y-82802380D01*
X126180095Y-82802380D01*
%TO.C,U2*%
X140721904Y-71877380D02*
X140721904Y-72686904D01*
X140674285Y-72782142D01*
X140626666Y-72829761D01*
X140531428Y-72877380D01*
X140340952Y-72877380D01*
X140245714Y-72829761D01*
X140198095Y-72782142D01*
X140150476Y-72686904D01*
X140150476Y-71877380D01*
X139721904Y-71972619D02*
X139674285Y-71925000D01*
X139579047Y-71877380D01*
X139340952Y-71877380D01*
X139245714Y-71925000D01*
X139198095Y-71972619D01*
X139150476Y-72067857D01*
X139150476Y-72163095D01*
X139198095Y-72305952D01*
X139769523Y-72877380D01*
X139150476Y-72877380D01*
%TO.C,C18*%
X130727142Y-86377142D02*
X130774761Y-86329523D01*
X130822380Y-86186666D01*
X130822380Y-86091428D01*
X130774761Y-85948571D01*
X130679523Y-85853333D01*
X130584285Y-85805714D01*
X130393809Y-85758095D01*
X130250952Y-85758095D01*
X130060476Y-85805714D01*
X129965238Y-85853333D01*
X129870000Y-85948571D01*
X129822380Y-86091428D01*
X129822380Y-86186666D01*
X129870000Y-86329523D01*
X129917619Y-86377142D01*
X130822380Y-87329523D02*
X130822380Y-86758095D01*
X130822380Y-87043809D02*
X129822380Y-87043809D01*
X129965238Y-86948571D01*
X130060476Y-86853333D01*
X130108095Y-86758095D01*
X130250952Y-87900952D02*
X130203333Y-87805714D01*
X130155714Y-87758095D01*
X130060476Y-87710476D01*
X130012857Y-87710476D01*
X129917619Y-87758095D01*
X129870000Y-87805714D01*
X129822380Y-87900952D01*
X129822380Y-88091428D01*
X129870000Y-88186666D01*
X129917619Y-88234285D01*
X130012857Y-88281904D01*
X130060476Y-88281904D01*
X130155714Y-88234285D01*
X130203333Y-88186666D01*
X130250952Y-88091428D01*
X130250952Y-87900952D01*
X130298571Y-87805714D01*
X130346190Y-87758095D01*
X130441428Y-87710476D01*
X130631904Y-87710476D01*
X130727142Y-87758095D01*
X130774761Y-87805714D01*
X130822380Y-87900952D01*
X130822380Y-88091428D01*
X130774761Y-88186666D01*
X130727142Y-88234285D01*
X130631904Y-88281904D01*
X130441428Y-88281904D01*
X130346190Y-88234285D01*
X130298571Y-88186666D01*
X130250952Y-88091428D01*
%TO.C,U1*%
X135461904Y-102052380D02*
X135461904Y-102861904D01*
X135414285Y-102957142D01*
X135366666Y-103004761D01*
X135271428Y-103052380D01*
X135080952Y-103052380D01*
X134985714Y-103004761D01*
X134938095Y-102957142D01*
X134890476Y-102861904D01*
X134890476Y-102052380D01*
X133890476Y-103052380D02*
X134461904Y-103052380D01*
X134176190Y-103052380D02*
X134176190Y-102052380D01*
X134271428Y-102195238D01*
X134366666Y-102290476D01*
X134461904Y-102338095D01*
%TO.C,C12*%
X127132857Y-95457142D02*
X127180476Y-95504761D01*
X127323333Y-95552380D01*
X127418571Y-95552380D01*
X127561428Y-95504761D01*
X127656666Y-95409523D01*
X127704285Y-95314285D01*
X127751904Y-95123809D01*
X127751904Y-94980952D01*
X127704285Y-94790476D01*
X127656666Y-94695238D01*
X127561428Y-94600000D01*
X127418571Y-94552380D01*
X127323333Y-94552380D01*
X127180476Y-94600000D01*
X127132857Y-94647619D01*
X126180476Y-95552380D02*
X126751904Y-95552380D01*
X126466190Y-95552380D02*
X126466190Y-94552380D01*
X126561428Y-94695238D01*
X126656666Y-94790476D01*
X126751904Y-94838095D01*
X125799523Y-94647619D02*
X125751904Y-94600000D01*
X125656666Y-94552380D01*
X125418571Y-94552380D01*
X125323333Y-94600000D01*
X125275714Y-94647619D01*
X125228095Y-94742857D01*
X125228095Y-94838095D01*
X125275714Y-94980952D01*
X125847142Y-95552380D01*
X125228095Y-95552380D01*
%TO.C,C17*%
X130442857Y-131707142D02*
X130490476Y-131754761D01*
X130633333Y-131802380D01*
X130728571Y-131802380D01*
X130871428Y-131754761D01*
X130966666Y-131659523D01*
X131014285Y-131564285D01*
X131061904Y-131373809D01*
X131061904Y-131230952D01*
X131014285Y-131040476D01*
X130966666Y-130945238D01*
X130871428Y-130850000D01*
X130728571Y-130802380D01*
X130633333Y-130802380D01*
X130490476Y-130850000D01*
X130442857Y-130897619D01*
X129490476Y-131802380D02*
X130061904Y-131802380D01*
X129776190Y-131802380D02*
X129776190Y-130802380D01*
X129871428Y-130945238D01*
X129966666Y-131040476D01*
X130061904Y-131088095D01*
X129157142Y-130802380D02*
X128490476Y-130802380D01*
X128919047Y-131802380D01*
%TO.C,C16*%
X144257142Y-66257142D02*
X144304761Y-66209523D01*
X144352380Y-66066666D01*
X144352380Y-65971428D01*
X144304761Y-65828571D01*
X144209523Y-65733333D01*
X144114285Y-65685714D01*
X143923809Y-65638095D01*
X143780952Y-65638095D01*
X143590476Y-65685714D01*
X143495238Y-65733333D01*
X143400000Y-65828571D01*
X143352380Y-65971428D01*
X143352380Y-66066666D01*
X143400000Y-66209523D01*
X143447619Y-66257142D01*
X144352380Y-67209523D02*
X144352380Y-66638095D01*
X144352380Y-66923809D02*
X143352380Y-66923809D01*
X143495238Y-66828571D01*
X143590476Y-66733333D01*
X143638095Y-66638095D01*
X143352380Y-68066666D02*
X143352380Y-67876190D01*
X143400000Y-67780952D01*
X143447619Y-67733333D01*
X143590476Y-67638095D01*
X143780952Y-67590476D01*
X144161904Y-67590476D01*
X144257142Y-67638095D01*
X144304761Y-67685714D01*
X144352380Y-67780952D01*
X144352380Y-67971428D01*
X144304761Y-68066666D01*
X144257142Y-68114285D01*
X144161904Y-68161904D01*
X143923809Y-68161904D01*
X143828571Y-68114285D01*
X143780952Y-68066666D01*
X143733333Y-67971428D01*
X143733333Y-67780952D01*
X143780952Y-67685714D01*
X143828571Y-67638095D01*
X143923809Y-67590476D01*
%TO.C,C15*%
X130257142Y-76557142D02*
X130304761Y-76509523D01*
X130352380Y-76366666D01*
X130352380Y-76271428D01*
X130304761Y-76128571D01*
X130209523Y-76033333D01*
X130114285Y-75985714D01*
X129923809Y-75938095D01*
X129780952Y-75938095D01*
X129590476Y-75985714D01*
X129495238Y-76033333D01*
X129400000Y-76128571D01*
X129352380Y-76271428D01*
X129352380Y-76366666D01*
X129400000Y-76509523D01*
X129447619Y-76557142D01*
X130352380Y-77509523D02*
X130352380Y-76938095D01*
X130352380Y-77223809D02*
X129352380Y-77223809D01*
X129495238Y-77128571D01*
X129590476Y-77033333D01*
X129638095Y-76938095D01*
X129352380Y-78414285D02*
X129352380Y-77938095D01*
X129828571Y-77890476D01*
X129780952Y-77938095D01*
X129733333Y-78033333D01*
X129733333Y-78271428D01*
X129780952Y-78366666D01*
X129828571Y-78414285D01*
X129923809Y-78461904D01*
X130161904Y-78461904D01*
X130257142Y-78414285D01*
X130304761Y-78366666D01*
X130352380Y-78271428D01*
X130352380Y-78033333D01*
X130304761Y-77938095D01*
X130257142Y-77890476D01*
%TO.C,R15*%
X129282380Y-86417142D02*
X128806190Y-86083809D01*
X129282380Y-85845714D02*
X128282380Y-85845714D01*
X128282380Y-86226666D01*
X128330000Y-86321904D01*
X128377619Y-86369523D01*
X128472857Y-86417142D01*
X128615714Y-86417142D01*
X128710952Y-86369523D01*
X128758571Y-86321904D01*
X128806190Y-86226666D01*
X128806190Y-85845714D01*
X129282380Y-87369523D02*
X129282380Y-86798095D01*
X129282380Y-87083809D02*
X128282380Y-87083809D01*
X128425238Y-86988571D01*
X128520476Y-86893333D01*
X128568095Y-86798095D01*
X128282380Y-88274285D02*
X128282380Y-87798095D01*
X128758571Y-87750476D01*
X128710952Y-87798095D01*
X128663333Y-87893333D01*
X128663333Y-88131428D01*
X128710952Y-88226666D01*
X128758571Y-88274285D01*
X128853809Y-88321904D01*
X129091904Y-88321904D01*
X129187142Y-88274285D01*
X129234761Y-88226666D01*
X129282380Y-88131428D01*
X129282380Y-87893333D01*
X129234761Y-87798095D01*
X129187142Y-87750476D01*
%TO.C,C14*%
X134242857Y-131682142D02*
X134290476Y-131729761D01*
X134433333Y-131777380D01*
X134528571Y-131777380D01*
X134671428Y-131729761D01*
X134766666Y-131634523D01*
X134814285Y-131539285D01*
X134861904Y-131348809D01*
X134861904Y-131205952D01*
X134814285Y-131015476D01*
X134766666Y-130920238D01*
X134671428Y-130825000D01*
X134528571Y-130777380D01*
X134433333Y-130777380D01*
X134290476Y-130825000D01*
X134242857Y-130872619D01*
X133290476Y-131777380D02*
X133861904Y-131777380D01*
X133576190Y-131777380D02*
X133576190Y-130777380D01*
X133671428Y-130920238D01*
X133766666Y-131015476D01*
X133861904Y-131063095D01*
X132433333Y-131110714D02*
X132433333Y-131777380D01*
X132671428Y-130729761D02*
X132909523Y-131444047D01*
X132290476Y-131444047D01*
%TO.C,R8*%
X137852380Y-88533333D02*
X137376190Y-88200000D01*
X137852380Y-87961904D02*
X136852380Y-87961904D01*
X136852380Y-88342857D01*
X136900000Y-88438095D01*
X136947619Y-88485714D01*
X137042857Y-88533333D01*
X137185714Y-88533333D01*
X137280952Y-88485714D01*
X137328571Y-88438095D01*
X137376190Y-88342857D01*
X137376190Y-87961904D01*
X137280952Y-89104761D02*
X137233333Y-89009523D01*
X137185714Y-88961904D01*
X137090476Y-88914285D01*
X137042857Y-88914285D01*
X136947619Y-88961904D01*
X136900000Y-89009523D01*
X136852380Y-89104761D01*
X136852380Y-89295238D01*
X136900000Y-89390476D01*
X136947619Y-89438095D01*
X137042857Y-89485714D01*
X137090476Y-89485714D01*
X137185714Y-89438095D01*
X137233333Y-89390476D01*
X137280952Y-89295238D01*
X137280952Y-89104761D01*
X137328571Y-89009523D01*
X137376190Y-88961904D01*
X137471428Y-88914285D01*
X137661904Y-88914285D01*
X137757142Y-88961904D01*
X137804761Y-89009523D01*
X137852380Y-89104761D01*
X137852380Y-89295238D01*
X137804761Y-89390476D01*
X137757142Y-89438095D01*
X137661904Y-89485714D01*
X137471428Y-89485714D01*
X137376190Y-89438095D01*
X137328571Y-89390476D01*
X137280952Y-89295238D01*
%TO.C,R13*%
X128084857Y-78236380D02*
X128418190Y-77760190D01*
X128656285Y-78236380D02*
X128656285Y-77236380D01*
X128275333Y-77236380D01*
X128180095Y-77284000D01*
X128132476Y-77331619D01*
X128084857Y-77426857D01*
X128084857Y-77569714D01*
X128132476Y-77664952D01*
X128180095Y-77712571D01*
X128275333Y-77760190D01*
X128656285Y-77760190D01*
X127132476Y-78236380D02*
X127703904Y-78236380D01*
X127418190Y-78236380D02*
X127418190Y-77236380D01*
X127513428Y-77379238D01*
X127608666Y-77474476D01*
X127703904Y-77522095D01*
X126799142Y-77236380D02*
X126180095Y-77236380D01*
X126513428Y-77617333D01*
X126370571Y-77617333D01*
X126275333Y-77664952D01*
X126227714Y-77712571D01*
X126180095Y-77807809D01*
X126180095Y-78045904D01*
X126227714Y-78141142D01*
X126275333Y-78188761D01*
X126370571Y-78236380D01*
X126656285Y-78236380D01*
X126751523Y-78188761D01*
X126799142Y-78141142D01*
D13*
%TO.C,R14*%
X134922500Y-85845276D02*
X134922500Y-86354724D01*
X133877500Y-85845276D02*
X133877500Y-86354724D01*
%TO.C,C22*%
X141920000Y-100386267D02*
X141920000Y-100093733D01*
X142940000Y-100386267D02*
X142940000Y-100093733D01*
%TO.C,C1*%
X137461252Y-119710000D02*
X136938748Y-119710000D01*
X137461252Y-118240000D02*
X136938748Y-118240000D01*
%TO.C,U3*%
X135150000Y-126020000D02*
X134880000Y-126020000D01*
X128250000Y-126020000D02*
X128520000Y-126020000D01*
X135150000Y-124520000D02*
X135150000Y-126020000D01*
X128520000Y-126020000D02*
X128520000Y-127120000D01*
X128250000Y-124520000D02*
X128250000Y-126020000D01*
X134880000Y-126020000D02*
X134880000Y-128850000D01*
%TO.C,R3*%
X128879724Y-148727500D02*
X128370276Y-148727500D01*
X128879724Y-149772500D02*
X128370276Y-149772500D01*
%TO.C,C19*%
X132390000Y-86246267D02*
X132390000Y-85953733D01*
X133410000Y-86246267D02*
X133410000Y-85953733D01*
%TO.C,R17*%
X136895276Y-107632500D02*
X137404724Y-107632500D01*
X136895276Y-106587500D02*
X137404724Y-106587500D01*
%TO.C,C4*%
X129353733Y-97210000D02*
X129646267Y-97210000D01*
X129353733Y-96190000D02*
X129646267Y-96190000D01*
%TO.C,R19*%
X141632500Y-92335276D02*
X141632500Y-92844724D01*
X140587500Y-92335276D02*
X140587500Y-92844724D01*
%TO.C,R6*%
X134029724Y-107632500D02*
X133520276Y-107632500D01*
X134029724Y-106587500D02*
X133520276Y-106587500D01*
%TO.C,C6*%
X127315000Y-100371267D02*
X127315000Y-100078733D01*
X128335000Y-100371267D02*
X128335000Y-100078733D01*
%TO.C,C10*%
X136546267Y-83090000D02*
X136253733Y-83090000D01*
X136546267Y-84110000D02*
X136253733Y-84110000D01*
%TO.C,C13*%
X142910000Y-80236267D02*
X142910000Y-79943733D01*
X141890000Y-80236267D02*
X141890000Y-79943733D01*
%TO.C,R5*%
X136834724Y-68967500D02*
X136325276Y-68967500D01*
X136834724Y-70012500D02*
X136325276Y-70012500D01*
%TO.C,C20*%
X126790000Y-89953733D02*
X126790000Y-90246267D01*
X127810000Y-89953733D02*
X127810000Y-90246267D01*
%TO.C,R11*%
X129245276Y-94022500D02*
X129754724Y-94022500D01*
X129245276Y-92977500D02*
X129754724Y-92977500D01*
%TO.C,C3*%
X140428733Y-96710000D02*
X140721267Y-96710000D01*
X140428733Y-95690000D02*
X140721267Y-95690000D01*
%TO.C,J1*%
X143517500Y-121760000D02*
X137017500Y-121760000D01*
X137017500Y-128700000D02*
X137017500Y-128700000D01*
X143517500Y-139740000D02*
X143517500Y-121760000D01*
X135707500Y-132800000D02*
X137017500Y-132800000D01*
X137017500Y-121760000D02*
X137017500Y-128700000D01*
X135707500Y-141040000D02*
X144827500Y-141040000D01*
X134317500Y-136330000D02*
X134317500Y-135330000D01*
X137017500Y-139740000D02*
X143517500Y-139740000D01*
X144827500Y-141040000D02*
X144827500Y-120460000D01*
X135707500Y-120460000D02*
X135707500Y-141040000D01*
X137017500Y-128700000D02*
X135707500Y-128700000D01*
X135317500Y-135830000D02*
X134317500Y-136330000D01*
X144827500Y-120460000D02*
X135707500Y-120460000D01*
X137017500Y-132800000D02*
X137017500Y-139740000D01*
X134317500Y-135330000D02*
X135317500Y-135830000D01*
%TO.C,R10*%
X142822500Y-69745276D02*
X142822500Y-70254724D01*
X141777500Y-69745276D02*
X141777500Y-70254724D01*
%TO.C,C11*%
X142910000Y-76746267D02*
X142910000Y-76453733D01*
X141890000Y-76746267D02*
X141890000Y-76453733D01*
%TO.C,R2*%
X130445276Y-134952500D02*
X130954724Y-134952500D01*
X130445276Y-135997500D02*
X130954724Y-135997500D01*
%TO.C,R18*%
X136920276Y-108577500D02*
X137429724Y-108577500D01*
X136920276Y-109622500D02*
X137429724Y-109622500D01*
%TO.C,C5*%
X128771267Y-151310000D02*
X128478733Y-151310000D01*
X128771267Y-150290000D02*
X128478733Y-150290000D01*
%TO.C,R4*%
X128832500Y-99960276D02*
X128832500Y-100469724D01*
X129877500Y-99960276D02*
X129877500Y-100469724D01*
%TO.C,R21*%
X140387500Y-99985276D02*
X140387500Y-100494724D01*
X141432500Y-99985276D02*
X141432500Y-100494724D01*
%TO.C,R1*%
X128879724Y-151827500D02*
X128370276Y-151827500D01*
X128879724Y-152872500D02*
X128370276Y-152872500D01*
%TO.C,R9*%
X144502500Y-100494724D02*
X144502500Y-99985276D01*
X143457500Y-100494724D02*
X143457500Y-99985276D01*
%TO.C,R20*%
X139077500Y-92834724D02*
X139077500Y-92325276D01*
X140122500Y-92834724D02*
X140122500Y-92325276D01*
%TO.C,C2*%
X135035000Y-138686252D02*
X135035000Y-138163748D01*
X133565000Y-138686252D02*
X133565000Y-138163748D01*
%TO.C,C21*%
X143140000Y-92443733D02*
X143140000Y-92736267D01*
X142120000Y-92443733D02*
X142120000Y-92736267D01*
%TO.C,C9*%
X136413620Y-65899826D02*
X136706154Y-65899826D01*
X136413620Y-66919826D02*
X136706154Y-66919826D01*
%TO.C,R16*%
X143607500Y-92854724D02*
X143607500Y-92345276D01*
X144652500Y-92854724D02*
X144652500Y-92345276D01*
%TO.C,C7*%
X129390000Y-73703733D02*
X129390000Y-73996267D01*
X130410000Y-73703733D02*
X130410000Y-73996267D01*
%TO.C,R7*%
X136422500Y-86354724D02*
X136422500Y-85845276D01*
X135377500Y-86354724D02*
X135377500Y-85845276D01*
%TO.C,C8*%
X136433620Y-68459826D02*
X136726154Y-68459826D01*
X136433620Y-67439826D02*
X136726154Y-67439826D01*
%TO.C,R12*%
X127195276Y-80427500D02*
X127704724Y-80427500D01*
X127195276Y-81472500D02*
X127704724Y-81472500D01*
%TO.C,U2*%
X130850000Y-74965000D02*
X131105000Y-74965000D01*
X141370000Y-74965000D02*
X141115000Y-74965000D01*
X130850000Y-77350000D02*
X130850000Y-79735000D01*
X141370000Y-77350000D02*
X141370000Y-74965000D01*
X131105000Y-74965000D02*
X131105000Y-73300000D01*
X141370000Y-79735000D02*
X141115000Y-79735000D01*
X141370000Y-77350000D02*
X141370000Y-79735000D01*
X130850000Y-79735000D02*
X131105000Y-79735000D01*
X130850000Y-77350000D02*
X130850000Y-74965000D01*
%TO.C,C18*%
X130870000Y-89953733D02*
X130870000Y-90246267D01*
X129850000Y-89953733D02*
X129850000Y-90246267D01*
%TO.C,U1*%
X134920000Y-92915000D02*
X132970000Y-92915000D01*
X134920000Y-101785000D02*
X136870000Y-101785000D01*
X134920000Y-101785000D02*
X132970000Y-101785000D01*
X134920000Y-92915000D02*
X138370000Y-92915000D01*
%TO.C,C12*%
X129353733Y-94590000D02*
X129646267Y-94590000D01*
X129353733Y-95610000D02*
X129646267Y-95610000D01*
%TO.C,C17*%
X129703733Y-129440000D02*
X129996267Y-129440000D01*
X129703733Y-130460000D02*
X129996267Y-130460000D01*
%TO.C,C16*%
X143390000Y-69853733D02*
X143390000Y-70146267D01*
X144410000Y-69853733D02*
X144410000Y-70146267D01*
%TO.C,C15*%
X129390000Y-79853733D02*
X129390000Y-80146267D01*
X130410000Y-79853733D02*
X130410000Y-80146267D01*
%TO.C,R15*%
X128307500Y-90354724D02*
X128307500Y-89845276D01*
X129352500Y-90354724D02*
X129352500Y-89845276D01*
%TO.C,C14*%
X133696267Y-130460000D02*
X133403733Y-130460000D01*
X133696267Y-129440000D02*
X133403733Y-129440000D01*
%TO.C,R8*%
X136877500Y-86354724D02*
X136877500Y-85845276D01*
X137922500Y-86354724D02*
X137922500Y-85845276D01*
%TO.C,R13*%
X127195276Y-78547500D02*
X127704724Y-78547500D01*
X127195276Y-79592500D02*
X127704724Y-79592500D01*
%TD*%
M02*
