%TF.GenerationSoftware,KiCad,Pcbnew,6.0.7+dfsg-1~bpo11+1*%
%TF.CreationDate,2022-10-26T04:05:37+08:00*%
%TF.ProjectId,MiniDelay v1.0 - Main,4d696e69-4465-46c6-9179-2076312e3020,rev?*%
%TF.SameCoordinates,Original*%
%TF.FileFunction,Drillmap*%
%TF.FilePolarity,Positive*%
%FSLAX45Y45*%
G04 Gerber Fmt 4.5, Leading zero omitted, Abs format (unit mm)*
G04 Created by KiCad (PCBNEW 6.0.7+dfsg-1~bpo11+1) date 2022-10-26 04:05:37*
%MOMM*%
%LPD*%
G01*
G04 APERTURE LIST*
%ADD10C,0.100000*%
%ADD11C,0.200000*%
%ADD12C,0.040000*%
%ADD13C,0.090000*%
%ADD14C,0.110000*%
%ADD15C,0.122000*%
%ADD16C,0.142000*%
%ADD17C,0.143000*%
G04 APERTURE END LIST*
D10*
X12500000Y-15615000D02*
X12500000Y-5750000D01*
X12500000Y-5750000D02*
X14500000Y-5750000D01*
X14500000Y-5750000D02*
X14500000Y-15615000D01*
X14500000Y-15615000D02*
X12500000Y-15615000D01*
D11*
D12*
X12580000Y-8700000D02*
X12620000Y-8740000D01*
X12620000Y-8700000D02*
X12580000Y-8740000D01*
X12580000Y-8800000D02*
X12620000Y-8840000D01*
X12620000Y-8800000D02*
X12580000Y-8840000D01*
X12580000Y-8900000D02*
X12620000Y-8940000D01*
X12620000Y-8900000D02*
X12580000Y-8940000D01*
X12580000Y-9000000D02*
X12620000Y-9040000D01*
X12620000Y-9000000D02*
X12580000Y-9040000D01*
X12580000Y-9100000D02*
X12620000Y-9140000D01*
X12620000Y-9100000D02*
X12580000Y-9140000D01*
X12600000Y-14980000D02*
X12640000Y-15020000D01*
X12640000Y-14980000D02*
X12600000Y-15020000D01*
X12600000Y-15100000D02*
X12640000Y-15140000D01*
X12640000Y-15100000D02*
X12600000Y-15140000D01*
X12600000Y-15220000D02*
X12640000Y-15260000D01*
X12640000Y-15220000D02*
X12600000Y-15260000D01*
X12680000Y-9790000D02*
X12720000Y-9830000D01*
X12720000Y-9790000D02*
X12680000Y-9830000D01*
X12685000Y-9492500D02*
X12725000Y-9532500D01*
X12725000Y-9492500D02*
X12685000Y-9532500D01*
X12685000Y-9650000D02*
X12725000Y-9690000D01*
X12725000Y-9650000D02*
X12685000Y-9690000D01*
X12782500Y-12752500D02*
X12822500Y-12792500D01*
X12822500Y-12752500D02*
X12782500Y-12792500D01*
X12890000Y-13225000D02*
X12930000Y-13265000D01*
X12930000Y-13225000D02*
X12890000Y-13265000D01*
X12942500Y-13317500D02*
X12982500Y-13357500D01*
X12982500Y-13317500D02*
X12942500Y-13357500D01*
X13010000Y-13222500D02*
X13050000Y-13262500D01*
X13050000Y-13222500D02*
X13010000Y-13262500D01*
X13070000Y-13317500D02*
X13110000Y-13357500D01*
X13110000Y-13317500D02*
X13070000Y-13357500D01*
X13110000Y-6730000D02*
X13150000Y-6770000D01*
X13150000Y-6730000D02*
X13110000Y-6770000D01*
X13110000Y-6830000D02*
X13150000Y-6870000D01*
X13150000Y-6830000D02*
X13110000Y-6870000D01*
X13110000Y-6930000D02*
X13150000Y-6970000D01*
X13150000Y-6930000D02*
X13110000Y-6970000D01*
X13127500Y-13220000D02*
X13167500Y-13260000D01*
X13167500Y-13220000D02*
X13127500Y-13260000D01*
X13145000Y-7540000D02*
X13185000Y-7580000D01*
X13185000Y-7540000D02*
X13145000Y-7580000D01*
X13170000Y-8980000D02*
X13210000Y-9020000D01*
X13210000Y-8980000D02*
X13170000Y-9020000D01*
X13190000Y-13317500D02*
X13230000Y-13357500D01*
X13230000Y-13317500D02*
X13190000Y-13357500D01*
X13220000Y-6730000D02*
X13260000Y-6770000D01*
X13260000Y-6730000D02*
X13220000Y-6770000D01*
X13220000Y-6830000D02*
X13260000Y-6870000D01*
X13260000Y-6830000D02*
X13220000Y-6870000D01*
X13220000Y-6930000D02*
X13260000Y-6970000D01*
X13260000Y-6930000D02*
X13220000Y-6970000D01*
X13240000Y-8800000D02*
X13280000Y-8840000D01*
X13280000Y-8800000D02*
X13240000Y-8840000D01*
X13250000Y-13220000D02*
X13290000Y-13260000D01*
X13290000Y-13220000D02*
X13250000Y-13260000D01*
X13260000Y-8980000D02*
X13300000Y-9020000D01*
X13300000Y-8980000D02*
X13260000Y-9020000D01*
X13330000Y-6730000D02*
X13370000Y-6770000D01*
X13370000Y-6730000D02*
X13330000Y-6770000D01*
X13330000Y-6830000D02*
X13370000Y-6870000D01*
X13370000Y-6830000D02*
X13330000Y-6870000D01*
X13330000Y-6930000D02*
X13370000Y-6970000D01*
X13370000Y-6930000D02*
X13330000Y-6970000D01*
X13330000Y-8800000D02*
X13370000Y-8840000D01*
X13370000Y-8800000D02*
X13330000Y-8840000D01*
X13350000Y-7560000D02*
X13390000Y-7600000D01*
X13390000Y-7560000D02*
X13350000Y-7600000D01*
X13350000Y-7650000D02*
X13390000Y-7690000D01*
X13390000Y-7650000D02*
X13350000Y-7690000D01*
X13350000Y-8980000D02*
X13390000Y-9020000D01*
X13390000Y-8980000D02*
X13350000Y-9020000D01*
X13397500Y-9717500D02*
X13437500Y-9757500D01*
X13437500Y-9717500D02*
X13397500Y-9757500D01*
X13420000Y-8800000D02*
X13460000Y-8840000D01*
X13460000Y-8800000D02*
X13420000Y-8840000D01*
X13440000Y-7560000D02*
X13480000Y-7600000D01*
X13480000Y-7560000D02*
X13440000Y-7600000D01*
X13440000Y-7650000D02*
X13480000Y-7690000D01*
X13480000Y-7650000D02*
X13440000Y-7690000D01*
X13451000Y-10559000D02*
X13491000Y-10599000D01*
X13491000Y-10559000D02*
X13451000Y-10599000D01*
X13530000Y-7560000D02*
X13570000Y-7600000D01*
X13570000Y-7560000D02*
X13530000Y-7600000D01*
X13530000Y-7650000D02*
X13570000Y-7690000D01*
X13570000Y-7650000D02*
X13530000Y-7690000D01*
X13730000Y-10295000D02*
X13770000Y-10335000D01*
X13770000Y-10295000D02*
X13730000Y-10335000D01*
X13900000Y-8980000D02*
X13940000Y-9020000D01*
X13940000Y-8980000D02*
X13900000Y-9020000D01*
X13920000Y-9875000D02*
X13960000Y-9915000D01*
X13960000Y-9875000D02*
X13920000Y-9915000D01*
X13947500Y-9717500D02*
X13987500Y-9757500D01*
X13987500Y-9717500D02*
X13947500Y-9757500D01*
X14020000Y-8980000D02*
X14060000Y-9020000D01*
X14060000Y-8980000D02*
X14020000Y-9020000D01*
X14130000Y-8980000D02*
X14170000Y-9020000D01*
X14170000Y-8980000D02*
X14130000Y-9020000D01*
X14370000Y-9600000D02*
X14410000Y-9640000D01*
X14410000Y-9600000D02*
X14370000Y-9640000D01*
X14370000Y-9700000D02*
X14410000Y-9740000D01*
X14410000Y-9700000D02*
X14370000Y-9740000D01*
D13*
X12911000Y-13855000D02*
G75*
G03*
X12911000Y-13855000I-45000J0D01*
G01*
X13165000Y-13855000D02*
G75*
G03*
X13165000Y-13855000I-45000J0D01*
G01*
D10*
X13250000Y-7100000D02*
X13250000Y-7200000D01*
X13200000Y-7150000D02*
X13300000Y-7150000D01*
X13250000Y-9100000D02*
X13250000Y-9200000D01*
X13200000Y-9150000D02*
X13300000Y-9150000D01*
X13250000Y-11100000D02*
X13250000Y-11200000D01*
X13200000Y-11150000D02*
X13300000Y-11150000D01*
X13500000Y-7100000D02*
X13500000Y-7200000D01*
X13450000Y-7150000D02*
X13550000Y-7150000D01*
X13500000Y-9100000D02*
X13500000Y-9200000D01*
X13450000Y-9150000D02*
X13550000Y-9150000D01*
X13500000Y-11100000D02*
X13500000Y-11200000D01*
X13450000Y-11150000D02*
X13550000Y-11150000D01*
X13750000Y-7100000D02*
X13750000Y-7200000D01*
X13700000Y-7150000D02*
X13800000Y-7150000D01*
X13750000Y-9100000D02*
X13750000Y-9200000D01*
X13700000Y-9150000D02*
X13800000Y-9150000D01*
X13750000Y-11100000D02*
X13750000Y-11200000D01*
X13700000Y-11150000D02*
X13800000Y-11150000D01*
X13899750Y-12517000D02*
X13899750Y-12617000D01*
X13849750Y-12567000D02*
X13949750Y-12567000D01*
X13899750Y-12771000D02*
X13899750Y-12871000D01*
X13849750Y-12821000D02*
X13949750Y-12821000D01*
X13899750Y-13025000D02*
X13899750Y-13125000D01*
X13849750Y-13075000D02*
X13949750Y-13075000D01*
X13899750Y-13279000D02*
X13899750Y-13379000D01*
X13849750Y-13329000D02*
X13949750Y-13329000D01*
X13899750Y-13533000D02*
X13899750Y-13633000D01*
X13849750Y-13583000D02*
X13949750Y-13583000D01*
X14153750Y-12517000D02*
X14153750Y-12617000D01*
X14103750Y-12567000D02*
X14203750Y-12567000D01*
X14153750Y-12771000D02*
X14153750Y-12871000D01*
X14103750Y-12821000D02*
X14203750Y-12821000D01*
X14153750Y-13025000D02*
X14153750Y-13125000D01*
X14103750Y-13075000D02*
X14203750Y-13075000D01*
X14153750Y-13279000D02*
X14153750Y-13379000D01*
X14103750Y-13329000D02*
X14203750Y-13329000D01*
X14153750Y-13533000D02*
X14153750Y-13633000D01*
X14103750Y-13583000D02*
X14203750Y-13583000D01*
D14*
X13058891Y-6438891D02*
X13058891Y-6361109D01*
X12981109Y-6361109D01*
X12981109Y-6438891D01*
X13058891Y-6438891D01*
D11*
X13075000Y-6460000D02*
X13075000Y-6340000D01*
X12965000Y-6460000D02*
X12965000Y-6340000D01*
X13075000Y-6340000D02*
G75*
G03*
X12965000Y-6340000I-55000J0D01*
G01*
X12965000Y-6460000D02*
G75*
G03*
X13075000Y-6460000I55000J0D01*
G01*
D14*
X13058891Y-8438891D02*
X13058891Y-8361109D01*
X12981109Y-8361109D01*
X12981109Y-8438891D01*
X13058891Y-8438891D01*
D11*
X13075000Y-8460000D02*
X13075000Y-8340000D01*
X12965000Y-8460000D02*
X12965000Y-8340000D01*
X13075000Y-8340000D02*
G75*
G03*
X12965000Y-8340000I-55000J0D01*
G01*
X12965000Y-8460000D02*
G75*
G03*
X13075000Y-8460000I55000J0D01*
G01*
D14*
X13058891Y-10438891D02*
X13058891Y-10361109D01*
X12981109Y-10361109D01*
X12981109Y-10438891D01*
X13058891Y-10438891D01*
D11*
X13075000Y-10460000D02*
X13075000Y-10340000D01*
X12965000Y-10460000D02*
X12965000Y-10340000D01*
X13075000Y-10340000D02*
G75*
G03*
X12965000Y-10340000I-55000J0D01*
G01*
X12965000Y-10460000D02*
G75*
G03*
X13075000Y-10460000I55000J0D01*
G01*
D14*
X14018891Y-6438891D02*
X14018891Y-6361109D01*
X13941109Y-6361109D01*
X13941109Y-6438891D01*
X14018891Y-6438891D01*
D11*
X14035000Y-6460000D02*
X14035000Y-6340000D01*
X13925000Y-6460000D02*
X13925000Y-6340000D01*
X14035000Y-6340000D02*
G75*
G03*
X13925000Y-6340000I-55000J0D01*
G01*
X13925000Y-6460000D02*
G75*
G03*
X14035000Y-6460000I55000J0D01*
G01*
D14*
X14018891Y-8438891D02*
X14018891Y-8361109D01*
X13941109Y-8361109D01*
X13941109Y-8438891D01*
X14018891Y-8438891D01*
D11*
X14035000Y-8460000D02*
X14035000Y-8340000D01*
X13925000Y-8460000D02*
X13925000Y-8340000D01*
X14035000Y-8340000D02*
G75*
G03*
X13925000Y-8340000I-55000J0D01*
G01*
X13925000Y-8460000D02*
G75*
G03*
X14035000Y-8460000I55000J0D01*
G01*
D14*
X14018891Y-10438891D02*
X14018891Y-10361109D01*
X13941109Y-10361109D01*
X13941109Y-10438891D01*
X14018891Y-10438891D01*
D11*
X14035000Y-10460000D02*
X14035000Y-10340000D01*
X13925000Y-10460000D02*
X13925000Y-10340000D01*
X14035000Y-10340000D02*
G75*
G03*
X13925000Y-10340000I-55000J0D01*
G01*
X13925000Y-10460000D02*
G75*
G03*
X14035000Y-10460000I55000J0D01*
G01*
D15*
X13000000Y-14378000D02*
X13061000Y-14317000D01*
X13000000Y-14256000D01*
X12939000Y-14317000D01*
X13000000Y-14378000D01*
X14000000Y-14378000D02*
X14061000Y-14317000D01*
X14000000Y-14256000D01*
X13939000Y-14317000D01*
X14000000Y-14378000D01*
D16*
X12929000Y-14556000D02*
X13071000Y-14698000D01*
X13071000Y-14556000D02*
X12929000Y-14698000D01*
X13071000Y-14627000D02*
G75*
G03*
X13071000Y-14627000I-71000J0D01*
G01*
X13929000Y-14556000D02*
X14071000Y-14698000D01*
X14071000Y-14556000D02*
X13929000Y-14698000D01*
X14071000Y-14627000D02*
G75*
G03*
X14071000Y-14627000I-71000J0D01*
G01*
D17*
X12928500Y-15385500D02*
X13071500Y-15528500D01*
X13071500Y-15385500D02*
X12928500Y-15528500D01*
X13000000Y-15385500D02*
X13000000Y-15528500D01*
X12928500Y-15457000D02*
X13071500Y-15457000D01*
X13928500Y-15385500D02*
X14071500Y-15528500D01*
X14071500Y-15385500D02*
X13928500Y-15528500D01*
X14000000Y-15385500D02*
X14000000Y-15528500D01*
X13928500Y-15457000D02*
X14071500Y-15457000D01*
D11*
X12752619Y-15930476D02*
X12752619Y-15730476D01*
X12800238Y-15730476D01*
X12828809Y-15740000D01*
X12847857Y-15759048D01*
X12857381Y-15778095D01*
X12866905Y-15816190D01*
X12866905Y-15844762D01*
X12857381Y-15882857D01*
X12847857Y-15901905D01*
X12828809Y-15920952D01*
X12800238Y-15930476D01*
X12752619Y-15930476D01*
X12952619Y-15930476D02*
X12952619Y-15797143D01*
X12952619Y-15835238D02*
X12962143Y-15816190D01*
X12971667Y-15806667D01*
X12990714Y-15797143D01*
X13009762Y-15797143D01*
X13076428Y-15930476D02*
X13076428Y-15797143D01*
X13076428Y-15730476D02*
X13066905Y-15740000D01*
X13076428Y-15749524D01*
X13085952Y-15740000D01*
X13076428Y-15730476D01*
X13076428Y-15749524D01*
X13200238Y-15930476D02*
X13181190Y-15920952D01*
X13171667Y-15901905D01*
X13171667Y-15730476D01*
X13305000Y-15930476D02*
X13285952Y-15920952D01*
X13276428Y-15901905D01*
X13276428Y-15730476D01*
X13533571Y-15930476D02*
X13533571Y-15730476D01*
X13600238Y-15873333D01*
X13666905Y-15730476D01*
X13666905Y-15930476D01*
X13847857Y-15930476D02*
X13847857Y-15825714D01*
X13838333Y-15806667D01*
X13819286Y-15797143D01*
X13781190Y-15797143D01*
X13762143Y-15806667D01*
X13847857Y-15920952D02*
X13828809Y-15930476D01*
X13781190Y-15930476D01*
X13762143Y-15920952D01*
X13752619Y-15901905D01*
X13752619Y-15882857D01*
X13762143Y-15863809D01*
X13781190Y-15854286D01*
X13828809Y-15854286D01*
X13847857Y-15844762D01*
X13943095Y-15797143D02*
X13943095Y-15997143D01*
X13943095Y-15806667D02*
X13962143Y-15797143D01*
X14000238Y-15797143D01*
X14019286Y-15806667D01*
X14028809Y-15816190D01*
X14038333Y-15835238D01*
X14038333Y-15892381D01*
X14028809Y-15911428D01*
X14019286Y-15920952D01*
X14000238Y-15930476D01*
X13962143Y-15930476D01*
X13943095Y-15920952D01*
X14124048Y-15911428D02*
X14133571Y-15920952D01*
X14124048Y-15930476D01*
X14114524Y-15920952D01*
X14124048Y-15911428D01*
X14124048Y-15930476D01*
X14124048Y-15806667D02*
X14133571Y-15816190D01*
X14124048Y-15825714D01*
X14114524Y-15816190D01*
X14124048Y-15806667D01*
X14124048Y-15825714D01*
D12*
X12455000Y-16240000D02*
X12495000Y-16280000D01*
X12495000Y-16240000D02*
X12455000Y-16280000D01*
D11*
X12790714Y-16150476D02*
X12809762Y-16150476D01*
X12828809Y-16160000D01*
X12838333Y-16169524D01*
X12847857Y-16188571D01*
X12857381Y-16226667D01*
X12857381Y-16274286D01*
X12847857Y-16312381D01*
X12838333Y-16331428D01*
X12828809Y-16340952D01*
X12809762Y-16350476D01*
X12790714Y-16350476D01*
X12771667Y-16340952D01*
X12762143Y-16331428D01*
X12752619Y-16312381D01*
X12743095Y-16274286D01*
X12743095Y-16226667D01*
X12752619Y-16188571D01*
X12762143Y-16169524D01*
X12771667Y-16160000D01*
X12790714Y-16150476D01*
X12943095Y-16331428D02*
X12952619Y-16340952D01*
X12943095Y-16350476D01*
X12933571Y-16340952D01*
X12943095Y-16331428D01*
X12943095Y-16350476D01*
X13124048Y-16217143D02*
X13124048Y-16350476D01*
X13076428Y-16140952D02*
X13028809Y-16283809D01*
X13152619Y-16283809D01*
X13266905Y-16150476D02*
X13285952Y-16150476D01*
X13305000Y-16160000D01*
X13314524Y-16169524D01*
X13324048Y-16188571D01*
X13333571Y-16226667D01*
X13333571Y-16274286D01*
X13324048Y-16312381D01*
X13314524Y-16331428D01*
X13305000Y-16340952D01*
X13285952Y-16350476D01*
X13266905Y-16350476D01*
X13247857Y-16340952D01*
X13238333Y-16331428D01*
X13228809Y-16312381D01*
X13219286Y-16274286D01*
X13219286Y-16226667D01*
X13228809Y-16188571D01*
X13238333Y-16169524D01*
X13247857Y-16160000D01*
X13266905Y-16150476D01*
X13457381Y-16150476D02*
X13476428Y-16150476D01*
X13495476Y-16160000D01*
X13505000Y-16169524D01*
X13514524Y-16188571D01*
X13524048Y-16226667D01*
X13524048Y-16274286D01*
X13514524Y-16312381D01*
X13505000Y-16331428D01*
X13495476Y-16340952D01*
X13476428Y-16350476D01*
X13457381Y-16350476D01*
X13438333Y-16340952D01*
X13428809Y-16331428D01*
X13419286Y-16312381D01*
X13409762Y-16274286D01*
X13409762Y-16226667D01*
X13419286Y-16188571D01*
X13428809Y-16169524D01*
X13438333Y-16160000D01*
X13457381Y-16150476D01*
X13609762Y-16350476D02*
X13609762Y-16217143D01*
X13609762Y-16236190D02*
X13619286Y-16226667D01*
X13638333Y-16217143D01*
X13666905Y-16217143D01*
X13685952Y-16226667D01*
X13695476Y-16245714D01*
X13695476Y-16350476D01*
X13695476Y-16245714D02*
X13705000Y-16226667D01*
X13724048Y-16217143D01*
X13752619Y-16217143D01*
X13771667Y-16226667D01*
X13781190Y-16245714D01*
X13781190Y-16350476D01*
X13876428Y-16350476D02*
X13876428Y-16217143D01*
X13876428Y-16236190D02*
X13885952Y-16226667D01*
X13905000Y-16217143D01*
X13933571Y-16217143D01*
X13952619Y-16226667D01*
X13962143Y-16245714D01*
X13962143Y-16350476D01*
X13962143Y-16245714D02*
X13971667Y-16226667D01*
X13990714Y-16217143D01*
X14019286Y-16217143D01*
X14038333Y-16226667D01*
X14047857Y-16245714D01*
X14047857Y-16350476D01*
X14438333Y-16140952D02*
X14266905Y-16398095D01*
X14695476Y-16150476D02*
X14714524Y-16150476D01*
X14733571Y-16160000D01*
X14743095Y-16169524D01*
X14752619Y-16188571D01*
X14762143Y-16226667D01*
X14762143Y-16274286D01*
X14752619Y-16312381D01*
X14743095Y-16331428D01*
X14733571Y-16340952D01*
X14714524Y-16350476D01*
X14695476Y-16350476D01*
X14676428Y-16340952D01*
X14666905Y-16331428D01*
X14657381Y-16312381D01*
X14647857Y-16274286D01*
X14647857Y-16226667D01*
X14657381Y-16188571D01*
X14666905Y-16169524D01*
X14676428Y-16160000D01*
X14695476Y-16150476D01*
X14847857Y-16331428D02*
X14857381Y-16340952D01*
X14847857Y-16350476D01*
X14838333Y-16340952D01*
X14847857Y-16331428D01*
X14847857Y-16350476D01*
X14981190Y-16150476D02*
X15000238Y-16150476D01*
X15019286Y-16160000D01*
X15028809Y-16169524D01*
X15038333Y-16188571D01*
X15047857Y-16226667D01*
X15047857Y-16274286D01*
X15038333Y-16312381D01*
X15028809Y-16331428D01*
X15019286Y-16340952D01*
X15000238Y-16350476D01*
X14981190Y-16350476D01*
X14962143Y-16340952D01*
X14952619Y-16331428D01*
X14943095Y-16312381D01*
X14933571Y-16274286D01*
X14933571Y-16226667D01*
X14943095Y-16188571D01*
X14952619Y-16169524D01*
X14962143Y-16160000D01*
X14981190Y-16150476D01*
X15238333Y-16350476D02*
X15124048Y-16350476D01*
X15181190Y-16350476D02*
X15181190Y-16150476D01*
X15162143Y-16179048D01*
X15143095Y-16198095D01*
X15124048Y-16207619D01*
X15419286Y-16150476D02*
X15324048Y-16150476D01*
X15314524Y-16245714D01*
X15324048Y-16236190D01*
X15343095Y-16226667D01*
X15390714Y-16226667D01*
X15409762Y-16236190D01*
X15419286Y-16245714D01*
X15428809Y-16264762D01*
X15428809Y-16312381D01*
X15419286Y-16331428D01*
X15409762Y-16340952D01*
X15390714Y-16350476D01*
X15343095Y-16350476D01*
X15324048Y-16340952D01*
X15314524Y-16331428D01*
X15495476Y-16150476D02*
X15628809Y-16150476D01*
X15543095Y-16350476D01*
X15695476Y-16150476D02*
X15695476Y-16188571D01*
X15771667Y-16150476D02*
X15771667Y-16188571D01*
X16066905Y-16426667D02*
X16057381Y-16417143D01*
X16038333Y-16388571D01*
X16028809Y-16369524D01*
X16019286Y-16340952D01*
X16009762Y-16293333D01*
X16009762Y-16255238D01*
X16019286Y-16207619D01*
X16028809Y-16179048D01*
X16038333Y-16160000D01*
X16057381Y-16131428D01*
X16066905Y-16121905D01*
X16238333Y-16150476D02*
X16143095Y-16150476D01*
X16133571Y-16245714D01*
X16143095Y-16236190D01*
X16162143Y-16226667D01*
X16209762Y-16226667D01*
X16228809Y-16236190D01*
X16238333Y-16245714D01*
X16247857Y-16264762D01*
X16247857Y-16312381D01*
X16238333Y-16331428D01*
X16228809Y-16340952D01*
X16209762Y-16350476D01*
X16162143Y-16350476D01*
X16143095Y-16340952D01*
X16133571Y-16331428D01*
X16438333Y-16350476D02*
X16324048Y-16350476D01*
X16381190Y-16350476D02*
X16381190Y-16150476D01*
X16362143Y-16179048D01*
X16343095Y-16198095D01*
X16324048Y-16207619D01*
X16676428Y-16350476D02*
X16676428Y-16150476D01*
X16762143Y-16350476D02*
X16762143Y-16245714D01*
X16752619Y-16226667D01*
X16733571Y-16217143D01*
X16705000Y-16217143D01*
X16685952Y-16226667D01*
X16676428Y-16236190D01*
X16885952Y-16350476D02*
X16866905Y-16340952D01*
X16857381Y-16331428D01*
X16847857Y-16312381D01*
X16847857Y-16255238D01*
X16857381Y-16236190D01*
X16866905Y-16226667D01*
X16885952Y-16217143D01*
X16914524Y-16217143D01*
X16933571Y-16226667D01*
X16943095Y-16236190D01*
X16952619Y-16255238D01*
X16952619Y-16312381D01*
X16943095Y-16331428D01*
X16933571Y-16340952D01*
X16914524Y-16350476D01*
X16885952Y-16350476D01*
X17066905Y-16350476D02*
X17047857Y-16340952D01*
X17038333Y-16321905D01*
X17038333Y-16150476D01*
X17219286Y-16340952D02*
X17200238Y-16350476D01*
X17162143Y-16350476D01*
X17143095Y-16340952D01*
X17133571Y-16321905D01*
X17133571Y-16245714D01*
X17143095Y-16226667D01*
X17162143Y-16217143D01*
X17200238Y-16217143D01*
X17219286Y-16226667D01*
X17228810Y-16245714D01*
X17228810Y-16264762D01*
X17133571Y-16283809D01*
X17305000Y-16340952D02*
X17324048Y-16350476D01*
X17362143Y-16350476D01*
X17381190Y-16340952D01*
X17390714Y-16321905D01*
X17390714Y-16312381D01*
X17381190Y-16293333D01*
X17362143Y-16283809D01*
X17333571Y-16283809D01*
X17314524Y-16274286D01*
X17305000Y-16255238D01*
X17305000Y-16245714D01*
X17314524Y-16226667D01*
X17333571Y-16217143D01*
X17362143Y-16217143D01*
X17381190Y-16226667D01*
X17457381Y-16426667D02*
X17466905Y-16417143D01*
X17485952Y-16388571D01*
X17495476Y-16369524D01*
X17505000Y-16340952D01*
X17514524Y-16293333D01*
X17514524Y-16255238D01*
X17505000Y-16207619D01*
X17495476Y-16179048D01*
X17485952Y-16160000D01*
X17466905Y-16131428D01*
X17457381Y-16121905D01*
D13*
X12495000Y-16524000D02*
G75*
G03*
X12495000Y-16524000I-45000J0D01*
G01*
D11*
X12790714Y-16414476D02*
X12809762Y-16414476D01*
X12828809Y-16424000D01*
X12838333Y-16433524D01*
X12847857Y-16452571D01*
X12857381Y-16490667D01*
X12857381Y-16538286D01*
X12847857Y-16576381D01*
X12838333Y-16595428D01*
X12828809Y-16604952D01*
X12809762Y-16614476D01*
X12790714Y-16614476D01*
X12771667Y-16604952D01*
X12762143Y-16595428D01*
X12752619Y-16576381D01*
X12743095Y-16538286D01*
X12743095Y-16490667D01*
X12752619Y-16452571D01*
X12762143Y-16433524D01*
X12771667Y-16424000D01*
X12790714Y-16414476D01*
X12943095Y-16595428D02*
X12952619Y-16604952D01*
X12943095Y-16614476D01*
X12933571Y-16604952D01*
X12943095Y-16595428D01*
X12943095Y-16614476D01*
X13047857Y-16614476D02*
X13085952Y-16614476D01*
X13105000Y-16604952D01*
X13114524Y-16595428D01*
X13133571Y-16566857D01*
X13143095Y-16528762D01*
X13143095Y-16452571D01*
X13133571Y-16433524D01*
X13124048Y-16424000D01*
X13105000Y-16414476D01*
X13066905Y-16414476D01*
X13047857Y-16424000D01*
X13038333Y-16433524D01*
X13028809Y-16452571D01*
X13028809Y-16500190D01*
X13038333Y-16519238D01*
X13047857Y-16528762D01*
X13066905Y-16538286D01*
X13105000Y-16538286D01*
X13124048Y-16528762D01*
X13133571Y-16519238D01*
X13143095Y-16500190D01*
X13266905Y-16414476D02*
X13285952Y-16414476D01*
X13305000Y-16424000D01*
X13314524Y-16433524D01*
X13324048Y-16452571D01*
X13333571Y-16490667D01*
X13333571Y-16538286D01*
X13324048Y-16576381D01*
X13314524Y-16595428D01*
X13305000Y-16604952D01*
X13285952Y-16614476D01*
X13266905Y-16614476D01*
X13247857Y-16604952D01*
X13238333Y-16595428D01*
X13228809Y-16576381D01*
X13219286Y-16538286D01*
X13219286Y-16490667D01*
X13228809Y-16452571D01*
X13238333Y-16433524D01*
X13247857Y-16424000D01*
X13266905Y-16414476D01*
X13457381Y-16414476D02*
X13476428Y-16414476D01*
X13495476Y-16424000D01*
X13505000Y-16433524D01*
X13514524Y-16452571D01*
X13524048Y-16490667D01*
X13524048Y-16538286D01*
X13514524Y-16576381D01*
X13505000Y-16595428D01*
X13495476Y-16604952D01*
X13476428Y-16614476D01*
X13457381Y-16614476D01*
X13438333Y-16604952D01*
X13428809Y-16595428D01*
X13419286Y-16576381D01*
X13409762Y-16538286D01*
X13409762Y-16490667D01*
X13419286Y-16452571D01*
X13428809Y-16433524D01*
X13438333Y-16424000D01*
X13457381Y-16414476D01*
X13609762Y-16614476D02*
X13609762Y-16481143D01*
X13609762Y-16500190D02*
X13619286Y-16490667D01*
X13638333Y-16481143D01*
X13666905Y-16481143D01*
X13685952Y-16490667D01*
X13695476Y-16509714D01*
X13695476Y-16614476D01*
X13695476Y-16509714D02*
X13705000Y-16490667D01*
X13724048Y-16481143D01*
X13752619Y-16481143D01*
X13771667Y-16490667D01*
X13781190Y-16509714D01*
X13781190Y-16614476D01*
X13876428Y-16614476D02*
X13876428Y-16481143D01*
X13876428Y-16500190D02*
X13885952Y-16490667D01*
X13905000Y-16481143D01*
X13933571Y-16481143D01*
X13952619Y-16490667D01*
X13962143Y-16509714D01*
X13962143Y-16614476D01*
X13962143Y-16509714D02*
X13971667Y-16490667D01*
X13990714Y-16481143D01*
X14019286Y-16481143D01*
X14038333Y-16490667D01*
X14047857Y-16509714D01*
X14047857Y-16614476D01*
X14438333Y-16404952D02*
X14266905Y-16662095D01*
X14695476Y-16414476D02*
X14714524Y-16414476D01*
X14733571Y-16424000D01*
X14743095Y-16433524D01*
X14752619Y-16452571D01*
X14762143Y-16490667D01*
X14762143Y-16538286D01*
X14752619Y-16576381D01*
X14743095Y-16595428D01*
X14733571Y-16604952D01*
X14714524Y-16614476D01*
X14695476Y-16614476D01*
X14676428Y-16604952D01*
X14666905Y-16595428D01*
X14657381Y-16576381D01*
X14647857Y-16538286D01*
X14647857Y-16490667D01*
X14657381Y-16452571D01*
X14666905Y-16433524D01*
X14676428Y-16424000D01*
X14695476Y-16414476D01*
X14847857Y-16595428D02*
X14857381Y-16604952D01*
X14847857Y-16614476D01*
X14838333Y-16604952D01*
X14847857Y-16595428D01*
X14847857Y-16614476D01*
X14981190Y-16414476D02*
X15000238Y-16414476D01*
X15019286Y-16424000D01*
X15028809Y-16433524D01*
X15038333Y-16452571D01*
X15047857Y-16490667D01*
X15047857Y-16538286D01*
X15038333Y-16576381D01*
X15028809Y-16595428D01*
X15019286Y-16604952D01*
X15000238Y-16614476D01*
X14981190Y-16614476D01*
X14962143Y-16604952D01*
X14952619Y-16595428D01*
X14943095Y-16576381D01*
X14933571Y-16538286D01*
X14933571Y-16490667D01*
X14943095Y-16452571D01*
X14952619Y-16433524D01*
X14962143Y-16424000D01*
X14981190Y-16414476D01*
X15114524Y-16414476D02*
X15238333Y-16414476D01*
X15171667Y-16490667D01*
X15200238Y-16490667D01*
X15219286Y-16500190D01*
X15228809Y-16509714D01*
X15238333Y-16528762D01*
X15238333Y-16576381D01*
X15228809Y-16595428D01*
X15219286Y-16604952D01*
X15200238Y-16614476D01*
X15143095Y-16614476D01*
X15124048Y-16604952D01*
X15114524Y-16595428D01*
X15419286Y-16414476D02*
X15324048Y-16414476D01*
X15314524Y-16509714D01*
X15324048Y-16500190D01*
X15343095Y-16490667D01*
X15390714Y-16490667D01*
X15409762Y-16500190D01*
X15419286Y-16509714D01*
X15428809Y-16528762D01*
X15428809Y-16576381D01*
X15419286Y-16595428D01*
X15409762Y-16604952D01*
X15390714Y-16614476D01*
X15343095Y-16614476D01*
X15324048Y-16604952D01*
X15314524Y-16595428D01*
X15600238Y-16481143D02*
X15600238Y-16614476D01*
X15552619Y-16404952D02*
X15505000Y-16547809D01*
X15628809Y-16547809D01*
X15695476Y-16414476D02*
X15695476Y-16452571D01*
X15771667Y-16414476D02*
X15771667Y-16452571D01*
X16066905Y-16690667D02*
X16057381Y-16681143D01*
X16038333Y-16652571D01*
X16028809Y-16633524D01*
X16019286Y-16604952D01*
X16009762Y-16557333D01*
X16009762Y-16519238D01*
X16019286Y-16471619D01*
X16028809Y-16443048D01*
X16038333Y-16424000D01*
X16057381Y-16395428D01*
X16066905Y-16385905D01*
X16133571Y-16433524D02*
X16143095Y-16424000D01*
X16162143Y-16414476D01*
X16209762Y-16414476D01*
X16228809Y-16424000D01*
X16238333Y-16433524D01*
X16247857Y-16452571D01*
X16247857Y-16471619D01*
X16238333Y-16500190D01*
X16124048Y-16614476D01*
X16247857Y-16614476D01*
X16485952Y-16614476D02*
X16485952Y-16414476D01*
X16571667Y-16614476D02*
X16571667Y-16509714D01*
X16562143Y-16490667D01*
X16543095Y-16481143D01*
X16514524Y-16481143D01*
X16495476Y-16490667D01*
X16485952Y-16500190D01*
X16695476Y-16614476D02*
X16676428Y-16604952D01*
X16666905Y-16595428D01*
X16657381Y-16576381D01*
X16657381Y-16519238D01*
X16666905Y-16500190D01*
X16676428Y-16490667D01*
X16695476Y-16481143D01*
X16724048Y-16481143D01*
X16743095Y-16490667D01*
X16752619Y-16500190D01*
X16762143Y-16519238D01*
X16762143Y-16576381D01*
X16752619Y-16595428D01*
X16743095Y-16604952D01*
X16724048Y-16614476D01*
X16695476Y-16614476D01*
X16876429Y-16614476D02*
X16857381Y-16604952D01*
X16847857Y-16585905D01*
X16847857Y-16414476D01*
X17028810Y-16604952D02*
X17009762Y-16614476D01*
X16971667Y-16614476D01*
X16952619Y-16604952D01*
X16943095Y-16585905D01*
X16943095Y-16509714D01*
X16952619Y-16490667D01*
X16971667Y-16481143D01*
X17009762Y-16481143D01*
X17028810Y-16490667D01*
X17038333Y-16509714D01*
X17038333Y-16528762D01*
X16943095Y-16547809D01*
X17114524Y-16604952D02*
X17133571Y-16614476D01*
X17171667Y-16614476D01*
X17190714Y-16604952D01*
X17200238Y-16585905D01*
X17200238Y-16576381D01*
X17190714Y-16557333D01*
X17171667Y-16547809D01*
X17143095Y-16547809D01*
X17124048Y-16538286D01*
X17114524Y-16519238D01*
X17114524Y-16509714D01*
X17124048Y-16490667D01*
X17143095Y-16481143D01*
X17171667Y-16481143D01*
X17190714Y-16490667D01*
X17266905Y-16690667D02*
X17276429Y-16681143D01*
X17295476Y-16652571D01*
X17305000Y-16633524D01*
X17314524Y-16604952D01*
X17324048Y-16557333D01*
X17324048Y-16519238D01*
X17314524Y-16471619D01*
X17305000Y-16443048D01*
X17295476Y-16424000D01*
X17276429Y-16395428D01*
X17266905Y-16385905D01*
D10*
X12445000Y-16738000D02*
X12445000Y-16838000D01*
X12395000Y-16788000D02*
X12495000Y-16788000D01*
D11*
X12857381Y-16878476D02*
X12743095Y-16878476D01*
X12800238Y-16878476D02*
X12800238Y-16678476D01*
X12781190Y-16707048D01*
X12762143Y-16726095D01*
X12743095Y-16735619D01*
X12943095Y-16859429D02*
X12952619Y-16868952D01*
X12943095Y-16878476D01*
X12933571Y-16868952D01*
X12943095Y-16859429D01*
X12943095Y-16878476D01*
X13076428Y-16678476D02*
X13095476Y-16678476D01*
X13114524Y-16688000D01*
X13124048Y-16697524D01*
X13133571Y-16716571D01*
X13143095Y-16754667D01*
X13143095Y-16802286D01*
X13133571Y-16840381D01*
X13124048Y-16859429D01*
X13114524Y-16868952D01*
X13095476Y-16878476D01*
X13076428Y-16878476D01*
X13057381Y-16868952D01*
X13047857Y-16859429D01*
X13038333Y-16840381D01*
X13028809Y-16802286D01*
X13028809Y-16754667D01*
X13038333Y-16716571D01*
X13047857Y-16697524D01*
X13057381Y-16688000D01*
X13076428Y-16678476D01*
X13266905Y-16678476D02*
X13285952Y-16678476D01*
X13305000Y-16688000D01*
X13314524Y-16697524D01*
X13324048Y-16716571D01*
X13333571Y-16754667D01*
X13333571Y-16802286D01*
X13324048Y-16840381D01*
X13314524Y-16859429D01*
X13305000Y-16868952D01*
X13285952Y-16878476D01*
X13266905Y-16878476D01*
X13247857Y-16868952D01*
X13238333Y-16859429D01*
X13228809Y-16840381D01*
X13219286Y-16802286D01*
X13219286Y-16754667D01*
X13228809Y-16716571D01*
X13238333Y-16697524D01*
X13247857Y-16688000D01*
X13266905Y-16678476D01*
X13457381Y-16678476D02*
X13476428Y-16678476D01*
X13495476Y-16688000D01*
X13505000Y-16697524D01*
X13514524Y-16716571D01*
X13524048Y-16754667D01*
X13524048Y-16802286D01*
X13514524Y-16840381D01*
X13505000Y-16859429D01*
X13495476Y-16868952D01*
X13476428Y-16878476D01*
X13457381Y-16878476D01*
X13438333Y-16868952D01*
X13428809Y-16859429D01*
X13419286Y-16840381D01*
X13409762Y-16802286D01*
X13409762Y-16754667D01*
X13419286Y-16716571D01*
X13428809Y-16697524D01*
X13438333Y-16688000D01*
X13457381Y-16678476D01*
X13609762Y-16878476D02*
X13609762Y-16745143D01*
X13609762Y-16764190D02*
X13619286Y-16754667D01*
X13638333Y-16745143D01*
X13666905Y-16745143D01*
X13685952Y-16754667D01*
X13695476Y-16773714D01*
X13695476Y-16878476D01*
X13695476Y-16773714D02*
X13705000Y-16754667D01*
X13724048Y-16745143D01*
X13752619Y-16745143D01*
X13771667Y-16754667D01*
X13781190Y-16773714D01*
X13781190Y-16878476D01*
X13876428Y-16878476D02*
X13876428Y-16745143D01*
X13876428Y-16764190D02*
X13885952Y-16754667D01*
X13905000Y-16745143D01*
X13933571Y-16745143D01*
X13952619Y-16754667D01*
X13962143Y-16773714D01*
X13962143Y-16878476D01*
X13962143Y-16773714D02*
X13971667Y-16754667D01*
X13990714Y-16745143D01*
X14019286Y-16745143D01*
X14038333Y-16754667D01*
X14047857Y-16773714D01*
X14047857Y-16878476D01*
X14438333Y-16668952D02*
X14266905Y-16926095D01*
X14695476Y-16678476D02*
X14714524Y-16678476D01*
X14733571Y-16688000D01*
X14743095Y-16697524D01*
X14752619Y-16716571D01*
X14762143Y-16754667D01*
X14762143Y-16802286D01*
X14752619Y-16840381D01*
X14743095Y-16859429D01*
X14733571Y-16868952D01*
X14714524Y-16878476D01*
X14695476Y-16878476D01*
X14676428Y-16868952D01*
X14666905Y-16859429D01*
X14657381Y-16840381D01*
X14647857Y-16802286D01*
X14647857Y-16754667D01*
X14657381Y-16716571D01*
X14666905Y-16697524D01*
X14676428Y-16688000D01*
X14695476Y-16678476D01*
X14847857Y-16859429D02*
X14857381Y-16868952D01*
X14847857Y-16878476D01*
X14838333Y-16868952D01*
X14847857Y-16859429D01*
X14847857Y-16878476D01*
X14981190Y-16678476D02*
X15000238Y-16678476D01*
X15019286Y-16688000D01*
X15028809Y-16697524D01*
X15038333Y-16716571D01*
X15047857Y-16754667D01*
X15047857Y-16802286D01*
X15038333Y-16840381D01*
X15028809Y-16859429D01*
X15019286Y-16868952D01*
X15000238Y-16878476D01*
X14981190Y-16878476D01*
X14962143Y-16868952D01*
X14952619Y-16859429D01*
X14943095Y-16840381D01*
X14933571Y-16802286D01*
X14933571Y-16754667D01*
X14943095Y-16716571D01*
X14952619Y-16697524D01*
X14962143Y-16688000D01*
X14981190Y-16678476D01*
X15114524Y-16678476D02*
X15238333Y-16678476D01*
X15171667Y-16754667D01*
X15200238Y-16754667D01*
X15219286Y-16764190D01*
X15228809Y-16773714D01*
X15238333Y-16792762D01*
X15238333Y-16840381D01*
X15228809Y-16859429D01*
X15219286Y-16868952D01*
X15200238Y-16878476D01*
X15143095Y-16878476D01*
X15124048Y-16868952D01*
X15114524Y-16859429D01*
X15333571Y-16878476D02*
X15371667Y-16878476D01*
X15390714Y-16868952D01*
X15400238Y-16859429D01*
X15419286Y-16830857D01*
X15428809Y-16792762D01*
X15428809Y-16716571D01*
X15419286Y-16697524D01*
X15409762Y-16688000D01*
X15390714Y-16678476D01*
X15352619Y-16678476D01*
X15333571Y-16688000D01*
X15324048Y-16697524D01*
X15314524Y-16716571D01*
X15314524Y-16764190D01*
X15324048Y-16783238D01*
X15333571Y-16792762D01*
X15352619Y-16802286D01*
X15390714Y-16802286D01*
X15409762Y-16792762D01*
X15419286Y-16783238D01*
X15428809Y-16764190D01*
X15600238Y-16745143D02*
X15600238Y-16878476D01*
X15552619Y-16668952D02*
X15505000Y-16811810D01*
X15628809Y-16811810D01*
X15695476Y-16678476D02*
X15695476Y-16716571D01*
X15771667Y-16678476D02*
X15771667Y-16716571D01*
X16066905Y-16954667D02*
X16057381Y-16945143D01*
X16038333Y-16916571D01*
X16028809Y-16897524D01*
X16019286Y-16868952D01*
X16009762Y-16821333D01*
X16009762Y-16783238D01*
X16019286Y-16735619D01*
X16028809Y-16707048D01*
X16038333Y-16688000D01*
X16057381Y-16659428D01*
X16066905Y-16649905D01*
X16247857Y-16878476D02*
X16133571Y-16878476D01*
X16190714Y-16878476D02*
X16190714Y-16678476D01*
X16171667Y-16707048D01*
X16152619Y-16726095D01*
X16133571Y-16735619D01*
X16343095Y-16878476D02*
X16381190Y-16878476D01*
X16400238Y-16868952D01*
X16409762Y-16859429D01*
X16428809Y-16830857D01*
X16438333Y-16792762D01*
X16438333Y-16716571D01*
X16428809Y-16697524D01*
X16419286Y-16688000D01*
X16400238Y-16678476D01*
X16362143Y-16678476D01*
X16343095Y-16688000D01*
X16333571Y-16697524D01*
X16324048Y-16716571D01*
X16324048Y-16764190D01*
X16333571Y-16783238D01*
X16343095Y-16792762D01*
X16362143Y-16802286D01*
X16400238Y-16802286D01*
X16419286Y-16792762D01*
X16428809Y-16783238D01*
X16438333Y-16764190D01*
X16676428Y-16878476D02*
X16676428Y-16678476D01*
X16762143Y-16878476D02*
X16762143Y-16773714D01*
X16752619Y-16754667D01*
X16733571Y-16745143D01*
X16705000Y-16745143D01*
X16685952Y-16754667D01*
X16676428Y-16764190D01*
X16885952Y-16878476D02*
X16866905Y-16868952D01*
X16857381Y-16859429D01*
X16847857Y-16840381D01*
X16847857Y-16783238D01*
X16857381Y-16764190D01*
X16866905Y-16754667D01*
X16885952Y-16745143D01*
X16914524Y-16745143D01*
X16933571Y-16754667D01*
X16943095Y-16764190D01*
X16952619Y-16783238D01*
X16952619Y-16840381D01*
X16943095Y-16859429D01*
X16933571Y-16868952D01*
X16914524Y-16878476D01*
X16885952Y-16878476D01*
X17066905Y-16878476D02*
X17047857Y-16868952D01*
X17038333Y-16849905D01*
X17038333Y-16678476D01*
X17219286Y-16868952D02*
X17200238Y-16878476D01*
X17162143Y-16878476D01*
X17143095Y-16868952D01*
X17133571Y-16849905D01*
X17133571Y-16773714D01*
X17143095Y-16754667D01*
X17162143Y-16745143D01*
X17200238Y-16745143D01*
X17219286Y-16754667D01*
X17228810Y-16773714D01*
X17228810Y-16792762D01*
X17133571Y-16811810D01*
X17305000Y-16868952D02*
X17324048Y-16878476D01*
X17362143Y-16878476D01*
X17381190Y-16868952D01*
X17390714Y-16849905D01*
X17390714Y-16840381D01*
X17381190Y-16821333D01*
X17362143Y-16811810D01*
X17333571Y-16811810D01*
X17314524Y-16802286D01*
X17305000Y-16783238D01*
X17305000Y-16773714D01*
X17314524Y-16754667D01*
X17333571Y-16745143D01*
X17362143Y-16745143D01*
X17381190Y-16754667D01*
X17457381Y-16954667D02*
X17466905Y-16945143D01*
X17485952Y-16916571D01*
X17495476Y-16897524D01*
X17505000Y-16868952D01*
X17514524Y-16821333D01*
X17514524Y-16783238D01*
X17505000Y-16735619D01*
X17495476Y-16707048D01*
X17485952Y-16688000D01*
X17466905Y-16659428D01*
X17457381Y-16649905D01*
D14*
X12478891Y-17090891D02*
X12478891Y-17013109D01*
X12401109Y-17013109D01*
X12401109Y-17090891D01*
X12478891Y-17090891D01*
D11*
X12857381Y-17142476D02*
X12743095Y-17142476D01*
X12800238Y-17142476D02*
X12800238Y-16942476D01*
X12781190Y-16971048D01*
X12762143Y-16990095D01*
X12743095Y-16999619D01*
X12943095Y-17123429D02*
X12952619Y-17132952D01*
X12943095Y-17142476D01*
X12933571Y-17132952D01*
X12943095Y-17123429D01*
X12943095Y-17142476D01*
X13143095Y-17142476D02*
X13028809Y-17142476D01*
X13085952Y-17142476D02*
X13085952Y-16942476D01*
X13066905Y-16971048D01*
X13047857Y-16990095D01*
X13028809Y-16999619D01*
X13266905Y-16942476D02*
X13285952Y-16942476D01*
X13305000Y-16952000D01*
X13314524Y-16961524D01*
X13324048Y-16980571D01*
X13333571Y-17018667D01*
X13333571Y-17066286D01*
X13324048Y-17104381D01*
X13314524Y-17123429D01*
X13305000Y-17132952D01*
X13285952Y-17142476D01*
X13266905Y-17142476D01*
X13247857Y-17132952D01*
X13238333Y-17123429D01*
X13228809Y-17104381D01*
X13219286Y-17066286D01*
X13219286Y-17018667D01*
X13228809Y-16980571D01*
X13238333Y-16961524D01*
X13247857Y-16952000D01*
X13266905Y-16942476D01*
X13457381Y-16942476D02*
X13476428Y-16942476D01*
X13495476Y-16952000D01*
X13505000Y-16961524D01*
X13514524Y-16980571D01*
X13524048Y-17018667D01*
X13524048Y-17066286D01*
X13514524Y-17104381D01*
X13505000Y-17123429D01*
X13495476Y-17132952D01*
X13476428Y-17142476D01*
X13457381Y-17142476D01*
X13438333Y-17132952D01*
X13428809Y-17123429D01*
X13419286Y-17104381D01*
X13409762Y-17066286D01*
X13409762Y-17018667D01*
X13419286Y-16980571D01*
X13428809Y-16961524D01*
X13438333Y-16952000D01*
X13457381Y-16942476D01*
X13609762Y-17142476D02*
X13609762Y-17009143D01*
X13609762Y-17028190D02*
X13619286Y-17018667D01*
X13638333Y-17009143D01*
X13666905Y-17009143D01*
X13685952Y-17018667D01*
X13695476Y-17037714D01*
X13695476Y-17142476D01*
X13695476Y-17037714D02*
X13705000Y-17018667D01*
X13724048Y-17009143D01*
X13752619Y-17009143D01*
X13771667Y-17018667D01*
X13781190Y-17037714D01*
X13781190Y-17142476D01*
X13876428Y-17142476D02*
X13876428Y-17009143D01*
X13876428Y-17028190D02*
X13885952Y-17018667D01*
X13905000Y-17009143D01*
X13933571Y-17009143D01*
X13952619Y-17018667D01*
X13962143Y-17037714D01*
X13962143Y-17142476D01*
X13962143Y-17037714D02*
X13971667Y-17018667D01*
X13990714Y-17009143D01*
X14019286Y-17009143D01*
X14038333Y-17018667D01*
X14047857Y-17037714D01*
X14047857Y-17142476D01*
X14438333Y-16932952D02*
X14266905Y-17190095D01*
X14695476Y-16942476D02*
X14714524Y-16942476D01*
X14733571Y-16952000D01*
X14743095Y-16961524D01*
X14752619Y-16980571D01*
X14762143Y-17018667D01*
X14762143Y-17066286D01*
X14752619Y-17104381D01*
X14743095Y-17123429D01*
X14733571Y-17132952D01*
X14714524Y-17142476D01*
X14695476Y-17142476D01*
X14676428Y-17132952D01*
X14666905Y-17123429D01*
X14657381Y-17104381D01*
X14647857Y-17066286D01*
X14647857Y-17018667D01*
X14657381Y-16980571D01*
X14666905Y-16961524D01*
X14676428Y-16952000D01*
X14695476Y-16942476D01*
X14847857Y-17123429D02*
X14857381Y-17132952D01*
X14847857Y-17142476D01*
X14838333Y-17132952D01*
X14847857Y-17123429D01*
X14847857Y-17142476D01*
X14981190Y-16942476D02*
X15000238Y-16942476D01*
X15019286Y-16952000D01*
X15028809Y-16961524D01*
X15038333Y-16980571D01*
X15047857Y-17018667D01*
X15047857Y-17066286D01*
X15038333Y-17104381D01*
X15028809Y-17123429D01*
X15019286Y-17132952D01*
X15000238Y-17142476D01*
X14981190Y-17142476D01*
X14962143Y-17132952D01*
X14952619Y-17123429D01*
X14943095Y-17104381D01*
X14933571Y-17066286D01*
X14933571Y-17018667D01*
X14943095Y-16980571D01*
X14952619Y-16961524D01*
X14962143Y-16952000D01*
X14981190Y-16942476D01*
X15219286Y-17009143D02*
X15219286Y-17142476D01*
X15171667Y-16932952D02*
X15124048Y-17075810D01*
X15247857Y-17075810D01*
X15305000Y-16942476D02*
X15428809Y-16942476D01*
X15362143Y-17018667D01*
X15390714Y-17018667D01*
X15409762Y-17028190D01*
X15419286Y-17037714D01*
X15428809Y-17056762D01*
X15428809Y-17104381D01*
X15419286Y-17123429D01*
X15409762Y-17132952D01*
X15390714Y-17142476D01*
X15333571Y-17142476D01*
X15314524Y-17132952D01*
X15305000Y-17123429D01*
X15495476Y-16942476D02*
X15619286Y-16942476D01*
X15552619Y-17018667D01*
X15581190Y-17018667D01*
X15600238Y-17028190D01*
X15609762Y-17037714D01*
X15619286Y-17056762D01*
X15619286Y-17104381D01*
X15609762Y-17123429D01*
X15600238Y-17132952D01*
X15581190Y-17142476D01*
X15524048Y-17142476D01*
X15505000Y-17132952D01*
X15495476Y-17123429D01*
X15695476Y-16942476D02*
X15695476Y-16980571D01*
X15771667Y-16942476D02*
X15771667Y-16980571D01*
X16066905Y-17218667D02*
X16057381Y-17209143D01*
X16038333Y-17180571D01*
X16028809Y-17161524D01*
X16019286Y-17132952D01*
X16009762Y-17085333D01*
X16009762Y-17047238D01*
X16019286Y-16999619D01*
X16028809Y-16971048D01*
X16038333Y-16952000D01*
X16057381Y-16923429D01*
X16066905Y-16913905D01*
X16181190Y-16942476D02*
X16200238Y-16942476D01*
X16219286Y-16952000D01*
X16228809Y-16961524D01*
X16238333Y-16980571D01*
X16247857Y-17018667D01*
X16247857Y-17066286D01*
X16238333Y-17104381D01*
X16228809Y-17123429D01*
X16219286Y-17132952D01*
X16200238Y-17142476D01*
X16181190Y-17142476D01*
X16162143Y-17132952D01*
X16152619Y-17123429D01*
X16143095Y-17104381D01*
X16133571Y-17066286D01*
X16133571Y-17018667D01*
X16143095Y-16980571D01*
X16152619Y-16961524D01*
X16162143Y-16952000D01*
X16181190Y-16942476D01*
X16485952Y-17142476D02*
X16485952Y-16942476D01*
X16571667Y-17142476D02*
X16571667Y-17037714D01*
X16562143Y-17018667D01*
X16543095Y-17009143D01*
X16514524Y-17009143D01*
X16495476Y-17018667D01*
X16485952Y-17028190D01*
X16695476Y-17142476D02*
X16676428Y-17132952D01*
X16666905Y-17123429D01*
X16657381Y-17104381D01*
X16657381Y-17047238D01*
X16666905Y-17028190D01*
X16676428Y-17018667D01*
X16695476Y-17009143D01*
X16724048Y-17009143D01*
X16743095Y-17018667D01*
X16752619Y-17028190D01*
X16762143Y-17047238D01*
X16762143Y-17104381D01*
X16752619Y-17123429D01*
X16743095Y-17132952D01*
X16724048Y-17142476D01*
X16695476Y-17142476D01*
X16876429Y-17142476D02*
X16857381Y-17132952D01*
X16847857Y-17113905D01*
X16847857Y-16942476D01*
X17028810Y-17132952D02*
X17009762Y-17142476D01*
X16971667Y-17142476D01*
X16952619Y-17132952D01*
X16943095Y-17113905D01*
X16943095Y-17037714D01*
X16952619Y-17018667D01*
X16971667Y-17009143D01*
X17009762Y-17009143D01*
X17028810Y-17018667D01*
X17038333Y-17037714D01*
X17038333Y-17056762D01*
X16943095Y-17075810D01*
X17114524Y-17132952D02*
X17133571Y-17142476D01*
X17171667Y-17142476D01*
X17190714Y-17132952D01*
X17200238Y-17113905D01*
X17200238Y-17104381D01*
X17190714Y-17085333D01*
X17171667Y-17075810D01*
X17143095Y-17075810D01*
X17124048Y-17066286D01*
X17114524Y-17047238D01*
X17114524Y-17037714D01*
X17124048Y-17018667D01*
X17143095Y-17009143D01*
X17171667Y-17009143D01*
X17190714Y-17018667D01*
X17438333Y-17066286D02*
X17590714Y-17066286D01*
X17514524Y-17142476D02*
X17514524Y-16990095D01*
X17924048Y-16942476D02*
X17885952Y-16942476D01*
X17866905Y-16952000D01*
X17857381Y-16961524D01*
X17838333Y-16990095D01*
X17828810Y-17028190D01*
X17828810Y-17104381D01*
X17838333Y-17123429D01*
X17847857Y-17132952D01*
X17866905Y-17142476D01*
X17905000Y-17142476D01*
X17924048Y-17132952D01*
X17933571Y-17123429D01*
X17943095Y-17104381D01*
X17943095Y-17056762D01*
X17933571Y-17037714D01*
X17924048Y-17028190D01*
X17905000Y-17018667D01*
X17866905Y-17018667D01*
X17847857Y-17028190D01*
X17838333Y-17037714D01*
X17828810Y-17056762D01*
X18171667Y-17132952D02*
X18190714Y-17142476D01*
X18228810Y-17142476D01*
X18247857Y-17132952D01*
X18257381Y-17113905D01*
X18257381Y-17104381D01*
X18247857Y-17085333D01*
X18228810Y-17075810D01*
X18200238Y-17075810D01*
X18181190Y-17066286D01*
X18171667Y-17047238D01*
X18171667Y-17037714D01*
X18181190Y-17018667D01*
X18200238Y-17009143D01*
X18228810Y-17009143D01*
X18247857Y-17018667D01*
X18371667Y-17142476D02*
X18352619Y-17132952D01*
X18343095Y-17113905D01*
X18343095Y-16942476D01*
X18476429Y-17142476D02*
X18457381Y-17132952D01*
X18447857Y-17123429D01*
X18438333Y-17104381D01*
X18438333Y-17047238D01*
X18447857Y-17028190D01*
X18457381Y-17018667D01*
X18476429Y-17009143D01*
X18505000Y-17009143D01*
X18524048Y-17018667D01*
X18533571Y-17028190D01*
X18543095Y-17047238D01*
X18543095Y-17104381D01*
X18533571Y-17123429D01*
X18524048Y-17132952D01*
X18505000Y-17142476D01*
X18476429Y-17142476D01*
X18600238Y-17009143D02*
X18676429Y-17009143D01*
X18628810Y-16942476D02*
X18628810Y-17113905D01*
X18638333Y-17132952D01*
X18657381Y-17142476D01*
X18676429Y-17142476D01*
X18733571Y-17132952D02*
X18752619Y-17142476D01*
X18790714Y-17142476D01*
X18809762Y-17132952D01*
X18819286Y-17113905D01*
X18819286Y-17104381D01*
X18809762Y-17085333D01*
X18790714Y-17075810D01*
X18762143Y-17075810D01*
X18743095Y-17066286D01*
X18733571Y-17047238D01*
X18733571Y-17037714D01*
X18743095Y-17018667D01*
X18762143Y-17009143D01*
X18790714Y-17009143D01*
X18809762Y-17018667D01*
X18885952Y-17218667D02*
X18895476Y-17209143D01*
X18914524Y-17180571D01*
X18924048Y-17161524D01*
X18933571Y-17132952D01*
X18943095Y-17085333D01*
X18943095Y-17047238D01*
X18933571Y-16999619D01*
X18924048Y-16971048D01*
X18914524Y-16952000D01*
X18895476Y-16923429D01*
X18885952Y-16913905D01*
D15*
X12434000Y-17377000D02*
X12495000Y-17316000D01*
X12434000Y-17255000D01*
X12373000Y-17316000D01*
X12434000Y-17377000D01*
D11*
X12857381Y-17406476D02*
X12743095Y-17406476D01*
X12800238Y-17406476D02*
X12800238Y-17206476D01*
X12781190Y-17235048D01*
X12762143Y-17254095D01*
X12743095Y-17263619D01*
X12943095Y-17387429D02*
X12952619Y-17396952D01*
X12943095Y-17406476D01*
X12933571Y-17396952D01*
X12943095Y-17387429D01*
X12943095Y-17406476D01*
X13028809Y-17225524D02*
X13038333Y-17216000D01*
X13057381Y-17206476D01*
X13105000Y-17206476D01*
X13124048Y-17216000D01*
X13133571Y-17225524D01*
X13143095Y-17244571D01*
X13143095Y-17263619D01*
X13133571Y-17292190D01*
X13019286Y-17406476D01*
X13143095Y-17406476D01*
X13219286Y-17225524D02*
X13228809Y-17216000D01*
X13247857Y-17206476D01*
X13295476Y-17206476D01*
X13314524Y-17216000D01*
X13324048Y-17225524D01*
X13333571Y-17244571D01*
X13333571Y-17263619D01*
X13324048Y-17292190D01*
X13209762Y-17406476D01*
X13333571Y-17406476D01*
X13457381Y-17206476D02*
X13476428Y-17206476D01*
X13495476Y-17216000D01*
X13505000Y-17225524D01*
X13514524Y-17244571D01*
X13524048Y-17282667D01*
X13524048Y-17330286D01*
X13514524Y-17368381D01*
X13505000Y-17387429D01*
X13495476Y-17396952D01*
X13476428Y-17406476D01*
X13457381Y-17406476D01*
X13438333Y-17396952D01*
X13428809Y-17387429D01*
X13419286Y-17368381D01*
X13409762Y-17330286D01*
X13409762Y-17282667D01*
X13419286Y-17244571D01*
X13428809Y-17225524D01*
X13438333Y-17216000D01*
X13457381Y-17206476D01*
X13609762Y-17406476D02*
X13609762Y-17273143D01*
X13609762Y-17292190D02*
X13619286Y-17282667D01*
X13638333Y-17273143D01*
X13666905Y-17273143D01*
X13685952Y-17282667D01*
X13695476Y-17301714D01*
X13695476Y-17406476D01*
X13695476Y-17301714D02*
X13705000Y-17282667D01*
X13724048Y-17273143D01*
X13752619Y-17273143D01*
X13771667Y-17282667D01*
X13781190Y-17301714D01*
X13781190Y-17406476D01*
X13876428Y-17406476D02*
X13876428Y-17273143D01*
X13876428Y-17292190D02*
X13885952Y-17282667D01*
X13905000Y-17273143D01*
X13933571Y-17273143D01*
X13952619Y-17282667D01*
X13962143Y-17301714D01*
X13962143Y-17406476D01*
X13962143Y-17301714D02*
X13971667Y-17282667D01*
X13990714Y-17273143D01*
X14019286Y-17273143D01*
X14038333Y-17282667D01*
X14047857Y-17301714D01*
X14047857Y-17406476D01*
X14438333Y-17196952D02*
X14266905Y-17454095D01*
X14695476Y-17206476D02*
X14714524Y-17206476D01*
X14733571Y-17216000D01*
X14743095Y-17225524D01*
X14752619Y-17244571D01*
X14762143Y-17282667D01*
X14762143Y-17330286D01*
X14752619Y-17368381D01*
X14743095Y-17387429D01*
X14733571Y-17396952D01*
X14714524Y-17406476D01*
X14695476Y-17406476D01*
X14676428Y-17396952D01*
X14666905Y-17387429D01*
X14657381Y-17368381D01*
X14647857Y-17330286D01*
X14647857Y-17282667D01*
X14657381Y-17244571D01*
X14666905Y-17225524D01*
X14676428Y-17216000D01*
X14695476Y-17206476D01*
X14847857Y-17387429D02*
X14857381Y-17396952D01*
X14847857Y-17406476D01*
X14838333Y-17396952D01*
X14847857Y-17387429D01*
X14847857Y-17406476D01*
X14981190Y-17206476D02*
X15000238Y-17206476D01*
X15019286Y-17216000D01*
X15028809Y-17225524D01*
X15038333Y-17244571D01*
X15047857Y-17282667D01*
X15047857Y-17330286D01*
X15038333Y-17368381D01*
X15028809Y-17387429D01*
X15019286Y-17396952D01*
X15000238Y-17406476D01*
X14981190Y-17406476D01*
X14962143Y-17396952D01*
X14952619Y-17387429D01*
X14943095Y-17368381D01*
X14933571Y-17330286D01*
X14933571Y-17282667D01*
X14943095Y-17244571D01*
X14952619Y-17225524D01*
X14962143Y-17216000D01*
X14981190Y-17206476D01*
X15219286Y-17273143D02*
X15219286Y-17406476D01*
X15171667Y-17196952D02*
X15124048Y-17339810D01*
X15247857Y-17339810D01*
X15352619Y-17292190D02*
X15333571Y-17282667D01*
X15324048Y-17273143D01*
X15314524Y-17254095D01*
X15314524Y-17244571D01*
X15324048Y-17225524D01*
X15333571Y-17216000D01*
X15352619Y-17206476D01*
X15390714Y-17206476D01*
X15409762Y-17216000D01*
X15419286Y-17225524D01*
X15428809Y-17244571D01*
X15428809Y-17254095D01*
X15419286Y-17273143D01*
X15409762Y-17282667D01*
X15390714Y-17292190D01*
X15352619Y-17292190D01*
X15333571Y-17301714D01*
X15324048Y-17311238D01*
X15314524Y-17330286D01*
X15314524Y-17368381D01*
X15324048Y-17387429D01*
X15333571Y-17396952D01*
X15352619Y-17406476D01*
X15390714Y-17406476D01*
X15409762Y-17396952D01*
X15419286Y-17387429D01*
X15428809Y-17368381D01*
X15428809Y-17330286D01*
X15419286Y-17311238D01*
X15409762Y-17301714D01*
X15390714Y-17292190D01*
X15552619Y-17206476D02*
X15571667Y-17206476D01*
X15590714Y-17216000D01*
X15600238Y-17225524D01*
X15609762Y-17244571D01*
X15619286Y-17282667D01*
X15619286Y-17330286D01*
X15609762Y-17368381D01*
X15600238Y-17387429D01*
X15590714Y-17396952D01*
X15571667Y-17406476D01*
X15552619Y-17406476D01*
X15533571Y-17396952D01*
X15524048Y-17387429D01*
X15514524Y-17368381D01*
X15505000Y-17330286D01*
X15505000Y-17282667D01*
X15514524Y-17244571D01*
X15524048Y-17225524D01*
X15533571Y-17216000D01*
X15552619Y-17206476D01*
X15695476Y-17206476D02*
X15695476Y-17244571D01*
X15771667Y-17206476D02*
X15771667Y-17244571D01*
X16066905Y-17482667D02*
X16057381Y-17473143D01*
X16038333Y-17444571D01*
X16028809Y-17425524D01*
X16019286Y-17396952D01*
X16009762Y-17349333D01*
X16009762Y-17311238D01*
X16019286Y-17263619D01*
X16028809Y-17235048D01*
X16038333Y-17216000D01*
X16057381Y-17187429D01*
X16066905Y-17177905D01*
X16133571Y-17225524D02*
X16143095Y-17216000D01*
X16162143Y-17206476D01*
X16209762Y-17206476D01*
X16228809Y-17216000D01*
X16238333Y-17225524D01*
X16247857Y-17244571D01*
X16247857Y-17263619D01*
X16238333Y-17292190D01*
X16124048Y-17406476D01*
X16247857Y-17406476D01*
X16485952Y-17406476D02*
X16485952Y-17206476D01*
X16571667Y-17406476D02*
X16571667Y-17301714D01*
X16562143Y-17282667D01*
X16543095Y-17273143D01*
X16514524Y-17273143D01*
X16495476Y-17282667D01*
X16485952Y-17292190D01*
X16695476Y-17406476D02*
X16676428Y-17396952D01*
X16666905Y-17387429D01*
X16657381Y-17368381D01*
X16657381Y-17311238D01*
X16666905Y-17292190D01*
X16676428Y-17282667D01*
X16695476Y-17273143D01*
X16724048Y-17273143D01*
X16743095Y-17282667D01*
X16752619Y-17292190D01*
X16762143Y-17311238D01*
X16762143Y-17368381D01*
X16752619Y-17387429D01*
X16743095Y-17396952D01*
X16724048Y-17406476D01*
X16695476Y-17406476D01*
X16876429Y-17406476D02*
X16857381Y-17396952D01*
X16847857Y-17377905D01*
X16847857Y-17206476D01*
X17028810Y-17396952D02*
X17009762Y-17406476D01*
X16971667Y-17406476D01*
X16952619Y-17396952D01*
X16943095Y-17377905D01*
X16943095Y-17301714D01*
X16952619Y-17282667D01*
X16971667Y-17273143D01*
X17009762Y-17273143D01*
X17028810Y-17282667D01*
X17038333Y-17301714D01*
X17038333Y-17320762D01*
X16943095Y-17339810D01*
X17114524Y-17396952D02*
X17133571Y-17406476D01*
X17171667Y-17406476D01*
X17190714Y-17396952D01*
X17200238Y-17377905D01*
X17200238Y-17368381D01*
X17190714Y-17349333D01*
X17171667Y-17339810D01*
X17143095Y-17339810D01*
X17124048Y-17330286D01*
X17114524Y-17311238D01*
X17114524Y-17301714D01*
X17124048Y-17282667D01*
X17143095Y-17273143D01*
X17171667Y-17273143D01*
X17190714Y-17282667D01*
X17266905Y-17482667D02*
X17276429Y-17473143D01*
X17295476Y-17444571D01*
X17305000Y-17425524D01*
X17314524Y-17396952D01*
X17324048Y-17349333D01*
X17324048Y-17311238D01*
X17314524Y-17263619D01*
X17305000Y-17235048D01*
X17295476Y-17216000D01*
X17276429Y-17187429D01*
X17266905Y-17177905D01*
D16*
X12353000Y-17509000D02*
X12495000Y-17651000D01*
X12495000Y-17509000D02*
X12353000Y-17651000D01*
X12495000Y-17580000D02*
G75*
G03*
X12495000Y-17580000I-71000J0D01*
G01*
D11*
X12857381Y-17670476D02*
X12743095Y-17670476D01*
X12800238Y-17670476D02*
X12800238Y-17470476D01*
X12781190Y-17499048D01*
X12762143Y-17518095D01*
X12743095Y-17527619D01*
X12943095Y-17651429D02*
X12952619Y-17660952D01*
X12943095Y-17670476D01*
X12933571Y-17660952D01*
X12943095Y-17651429D01*
X12943095Y-17670476D01*
X13124048Y-17537143D02*
X13124048Y-17670476D01*
X13076428Y-17460952D02*
X13028809Y-17603810D01*
X13152619Y-17603810D01*
X13219286Y-17489524D02*
X13228809Y-17480000D01*
X13247857Y-17470476D01*
X13295476Y-17470476D01*
X13314524Y-17480000D01*
X13324048Y-17489524D01*
X13333571Y-17508571D01*
X13333571Y-17527619D01*
X13324048Y-17556190D01*
X13209762Y-17670476D01*
X13333571Y-17670476D01*
X13457381Y-17470476D02*
X13476428Y-17470476D01*
X13495476Y-17480000D01*
X13505000Y-17489524D01*
X13514524Y-17508571D01*
X13524048Y-17546667D01*
X13524048Y-17594286D01*
X13514524Y-17632381D01*
X13505000Y-17651429D01*
X13495476Y-17660952D01*
X13476428Y-17670476D01*
X13457381Y-17670476D01*
X13438333Y-17660952D01*
X13428809Y-17651429D01*
X13419286Y-17632381D01*
X13409762Y-17594286D01*
X13409762Y-17546667D01*
X13419286Y-17508571D01*
X13428809Y-17489524D01*
X13438333Y-17480000D01*
X13457381Y-17470476D01*
X13609762Y-17670476D02*
X13609762Y-17537143D01*
X13609762Y-17556190D02*
X13619286Y-17546667D01*
X13638333Y-17537143D01*
X13666905Y-17537143D01*
X13685952Y-17546667D01*
X13695476Y-17565714D01*
X13695476Y-17670476D01*
X13695476Y-17565714D02*
X13705000Y-17546667D01*
X13724048Y-17537143D01*
X13752619Y-17537143D01*
X13771667Y-17546667D01*
X13781190Y-17565714D01*
X13781190Y-17670476D01*
X13876428Y-17670476D02*
X13876428Y-17537143D01*
X13876428Y-17556190D02*
X13885952Y-17546667D01*
X13905000Y-17537143D01*
X13933571Y-17537143D01*
X13952619Y-17546667D01*
X13962143Y-17565714D01*
X13962143Y-17670476D01*
X13962143Y-17565714D02*
X13971667Y-17546667D01*
X13990714Y-17537143D01*
X14019286Y-17537143D01*
X14038333Y-17546667D01*
X14047857Y-17565714D01*
X14047857Y-17670476D01*
X14438333Y-17460952D02*
X14266905Y-17718095D01*
X14695476Y-17470476D02*
X14714524Y-17470476D01*
X14733571Y-17480000D01*
X14743095Y-17489524D01*
X14752619Y-17508571D01*
X14762143Y-17546667D01*
X14762143Y-17594286D01*
X14752619Y-17632381D01*
X14743095Y-17651429D01*
X14733571Y-17660952D01*
X14714524Y-17670476D01*
X14695476Y-17670476D01*
X14676428Y-17660952D01*
X14666905Y-17651429D01*
X14657381Y-17632381D01*
X14647857Y-17594286D01*
X14647857Y-17546667D01*
X14657381Y-17508571D01*
X14666905Y-17489524D01*
X14676428Y-17480000D01*
X14695476Y-17470476D01*
X14847857Y-17651429D02*
X14857381Y-17660952D01*
X14847857Y-17670476D01*
X14838333Y-17660952D01*
X14847857Y-17651429D01*
X14847857Y-17670476D01*
X14981190Y-17470476D02*
X15000238Y-17470476D01*
X15019286Y-17480000D01*
X15028809Y-17489524D01*
X15038333Y-17508571D01*
X15047857Y-17546667D01*
X15047857Y-17594286D01*
X15038333Y-17632381D01*
X15028809Y-17651429D01*
X15019286Y-17660952D01*
X15000238Y-17670476D01*
X14981190Y-17670476D01*
X14962143Y-17660952D01*
X14952619Y-17651429D01*
X14943095Y-17632381D01*
X14933571Y-17594286D01*
X14933571Y-17546667D01*
X14943095Y-17508571D01*
X14952619Y-17489524D01*
X14962143Y-17480000D01*
X14981190Y-17470476D01*
X15228809Y-17470476D02*
X15133571Y-17470476D01*
X15124048Y-17565714D01*
X15133571Y-17556190D01*
X15152619Y-17546667D01*
X15200238Y-17546667D01*
X15219286Y-17556190D01*
X15228809Y-17565714D01*
X15238333Y-17584762D01*
X15238333Y-17632381D01*
X15228809Y-17651429D01*
X15219286Y-17660952D01*
X15200238Y-17670476D01*
X15152619Y-17670476D01*
X15133571Y-17660952D01*
X15124048Y-17651429D01*
X15419286Y-17470476D02*
X15324048Y-17470476D01*
X15314524Y-17565714D01*
X15324048Y-17556190D01*
X15343095Y-17546667D01*
X15390714Y-17546667D01*
X15409762Y-17556190D01*
X15419286Y-17565714D01*
X15428809Y-17584762D01*
X15428809Y-17632381D01*
X15419286Y-17651429D01*
X15409762Y-17660952D01*
X15390714Y-17670476D01*
X15343095Y-17670476D01*
X15324048Y-17660952D01*
X15314524Y-17651429D01*
X15524048Y-17670476D02*
X15562143Y-17670476D01*
X15581190Y-17660952D01*
X15590714Y-17651429D01*
X15609762Y-17622857D01*
X15619286Y-17584762D01*
X15619286Y-17508571D01*
X15609762Y-17489524D01*
X15600238Y-17480000D01*
X15581190Y-17470476D01*
X15543095Y-17470476D01*
X15524048Y-17480000D01*
X15514524Y-17489524D01*
X15505000Y-17508571D01*
X15505000Y-17556190D01*
X15514524Y-17575238D01*
X15524048Y-17584762D01*
X15543095Y-17594286D01*
X15581190Y-17594286D01*
X15600238Y-17584762D01*
X15609762Y-17575238D01*
X15619286Y-17556190D01*
X15695476Y-17470476D02*
X15695476Y-17508571D01*
X15771667Y-17470476D02*
X15771667Y-17508571D01*
X16066905Y-17746667D02*
X16057381Y-17737143D01*
X16038333Y-17708571D01*
X16028809Y-17689524D01*
X16019286Y-17660952D01*
X16009762Y-17613333D01*
X16009762Y-17575238D01*
X16019286Y-17527619D01*
X16028809Y-17499048D01*
X16038333Y-17480000D01*
X16057381Y-17451429D01*
X16066905Y-17441905D01*
X16133571Y-17489524D02*
X16143095Y-17480000D01*
X16162143Y-17470476D01*
X16209762Y-17470476D01*
X16228809Y-17480000D01*
X16238333Y-17489524D01*
X16247857Y-17508571D01*
X16247857Y-17527619D01*
X16238333Y-17556190D01*
X16124048Y-17670476D01*
X16247857Y-17670476D01*
X16485952Y-17670476D02*
X16485952Y-17470476D01*
X16571667Y-17670476D02*
X16571667Y-17565714D01*
X16562143Y-17546667D01*
X16543095Y-17537143D01*
X16514524Y-17537143D01*
X16495476Y-17546667D01*
X16485952Y-17556190D01*
X16695476Y-17670476D02*
X16676428Y-17660952D01*
X16666905Y-17651429D01*
X16657381Y-17632381D01*
X16657381Y-17575238D01*
X16666905Y-17556190D01*
X16676428Y-17546667D01*
X16695476Y-17537143D01*
X16724048Y-17537143D01*
X16743095Y-17546667D01*
X16752619Y-17556190D01*
X16762143Y-17575238D01*
X16762143Y-17632381D01*
X16752619Y-17651429D01*
X16743095Y-17660952D01*
X16724048Y-17670476D01*
X16695476Y-17670476D01*
X16876429Y-17670476D02*
X16857381Y-17660952D01*
X16847857Y-17641905D01*
X16847857Y-17470476D01*
X17028810Y-17660952D02*
X17009762Y-17670476D01*
X16971667Y-17670476D01*
X16952619Y-17660952D01*
X16943095Y-17641905D01*
X16943095Y-17565714D01*
X16952619Y-17546667D01*
X16971667Y-17537143D01*
X17009762Y-17537143D01*
X17028810Y-17546667D01*
X17038333Y-17565714D01*
X17038333Y-17584762D01*
X16943095Y-17603810D01*
X17114524Y-17660952D02*
X17133571Y-17670476D01*
X17171667Y-17670476D01*
X17190714Y-17660952D01*
X17200238Y-17641905D01*
X17200238Y-17632381D01*
X17190714Y-17613333D01*
X17171667Y-17603810D01*
X17143095Y-17603810D01*
X17124048Y-17594286D01*
X17114524Y-17575238D01*
X17114524Y-17565714D01*
X17124048Y-17546667D01*
X17143095Y-17537143D01*
X17171667Y-17537143D01*
X17190714Y-17546667D01*
X17266905Y-17746667D02*
X17276429Y-17737143D01*
X17295476Y-17708571D01*
X17305000Y-17689524D01*
X17314524Y-17660952D01*
X17324048Y-17613333D01*
X17324048Y-17575238D01*
X17314524Y-17527619D01*
X17305000Y-17499048D01*
X17295476Y-17480000D01*
X17276429Y-17451429D01*
X17266905Y-17441905D01*
D17*
X12352000Y-17772500D02*
X12495000Y-17915500D01*
X12495000Y-17772500D02*
X12352000Y-17915500D01*
X12423500Y-17772500D02*
X12423500Y-17915500D01*
X12352000Y-17844000D02*
X12495000Y-17844000D01*
D11*
X12857381Y-17934476D02*
X12743095Y-17934476D01*
X12800238Y-17934476D02*
X12800238Y-17734476D01*
X12781190Y-17763048D01*
X12762143Y-17782095D01*
X12743095Y-17791619D01*
X12943095Y-17915429D02*
X12952619Y-17924952D01*
X12943095Y-17934476D01*
X12933571Y-17924952D01*
X12943095Y-17915429D01*
X12943095Y-17934476D01*
X13124048Y-17801143D02*
X13124048Y-17934476D01*
X13076428Y-17724952D02*
X13028809Y-17867810D01*
X13152619Y-17867810D01*
X13209762Y-17734476D02*
X13333571Y-17734476D01*
X13266905Y-17810667D01*
X13295476Y-17810667D01*
X13314524Y-17820190D01*
X13324048Y-17829714D01*
X13333571Y-17848762D01*
X13333571Y-17896381D01*
X13324048Y-17915429D01*
X13314524Y-17924952D01*
X13295476Y-17934476D01*
X13238333Y-17934476D01*
X13219286Y-17924952D01*
X13209762Y-17915429D01*
X13457381Y-17734476D02*
X13476428Y-17734476D01*
X13495476Y-17744000D01*
X13505000Y-17753524D01*
X13514524Y-17772571D01*
X13524048Y-17810667D01*
X13524048Y-17858286D01*
X13514524Y-17896381D01*
X13505000Y-17915429D01*
X13495476Y-17924952D01*
X13476428Y-17934476D01*
X13457381Y-17934476D01*
X13438333Y-17924952D01*
X13428809Y-17915429D01*
X13419286Y-17896381D01*
X13409762Y-17858286D01*
X13409762Y-17810667D01*
X13419286Y-17772571D01*
X13428809Y-17753524D01*
X13438333Y-17744000D01*
X13457381Y-17734476D01*
X13609762Y-17934476D02*
X13609762Y-17801143D01*
X13609762Y-17820190D02*
X13619286Y-17810667D01*
X13638333Y-17801143D01*
X13666905Y-17801143D01*
X13685952Y-17810667D01*
X13695476Y-17829714D01*
X13695476Y-17934476D01*
X13695476Y-17829714D02*
X13705000Y-17810667D01*
X13724048Y-17801143D01*
X13752619Y-17801143D01*
X13771667Y-17810667D01*
X13781190Y-17829714D01*
X13781190Y-17934476D01*
X13876428Y-17934476D02*
X13876428Y-17801143D01*
X13876428Y-17820190D02*
X13885952Y-17810667D01*
X13905000Y-17801143D01*
X13933571Y-17801143D01*
X13952619Y-17810667D01*
X13962143Y-17829714D01*
X13962143Y-17934476D01*
X13962143Y-17829714D02*
X13971667Y-17810667D01*
X13990714Y-17801143D01*
X14019286Y-17801143D01*
X14038333Y-17810667D01*
X14047857Y-17829714D01*
X14047857Y-17934476D01*
X14438333Y-17724952D02*
X14266905Y-17982095D01*
X14695476Y-17734476D02*
X14714524Y-17734476D01*
X14733571Y-17744000D01*
X14743095Y-17753524D01*
X14752619Y-17772571D01*
X14762143Y-17810667D01*
X14762143Y-17858286D01*
X14752619Y-17896381D01*
X14743095Y-17915429D01*
X14733571Y-17924952D01*
X14714524Y-17934476D01*
X14695476Y-17934476D01*
X14676428Y-17924952D01*
X14666905Y-17915429D01*
X14657381Y-17896381D01*
X14647857Y-17858286D01*
X14647857Y-17810667D01*
X14657381Y-17772571D01*
X14666905Y-17753524D01*
X14676428Y-17744000D01*
X14695476Y-17734476D01*
X14847857Y-17915429D02*
X14857381Y-17924952D01*
X14847857Y-17934476D01*
X14838333Y-17924952D01*
X14847857Y-17915429D01*
X14847857Y-17934476D01*
X14981190Y-17734476D02*
X15000238Y-17734476D01*
X15019286Y-17744000D01*
X15028809Y-17753524D01*
X15038333Y-17772571D01*
X15047857Y-17810667D01*
X15047857Y-17858286D01*
X15038333Y-17896381D01*
X15028809Y-17915429D01*
X15019286Y-17924952D01*
X15000238Y-17934476D01*
X14981190Y-17934476D01*
X14962143Y-17924952D01*
X14952619Y-17915429D01*
X14943095Y-17896381D01*
X14933571Y-17858286D01*
X14933571Y-17810667D01*
X14943095Y-17772571D01*
X14952619Y-17753524D01*
X14962143Y-17744000D01*
X14981190Y-17734476D01*
X15228809Y-17734476D02*
X15133571Y-17734476D01*
X15124048Y-17829714D01*
X15133571Y-17820190D01*
X15152619Y-17810667D01*
X15200238Y-17810667D01*
X15219286Y-17820190D01*
X15228809Y-17829714D01*
X15238333Y-17848762D01*
X15238333Y-17896381D01*
X15228809Y-17915429D01*
X15219286Y-17924952D01*
X15200238Y-17934476D01*
X15152619Y-17934476D01*
X15133571Y-17924952D01*
X15124048Y-17915429D01*
X15409762Y-17734476D02*
X15371667Y-17734476D01*
X15352619Y-17744000D01*
X15343095Y-17753524D01*
X15324048Y-17782095D01*
X15314524Y-17820190D01*
X15314524Y-17896381D01*
X15324048Y-17915429D01*
X15333571Y-17924952D01*
X15352619Y-17934476D01*
X15390714Y-17934476D01*
X15409762Y-17924952D01*
X15419286Y-17915429D01*
X15428809Y-17896381D01*
X15428809Y-17848762D01*
X15419286Y-17829714D01*
X15409762Y-17820190D01*
X15390714Y-17810667D01*
X15352619Y-17810667D01*
X15333571Y-17820190D01*
X15324048Y-17829714D01*
X15314524Y-17848762D01*
X15495476Y-17734476D02*
X15619286Y-17734476D01*
X15552619Y-17810667D01*
X15581190Y-17810667D01*
X15600238Y-17820190D01*
X15609762Y-17829714D01*
X15619286Y-17848762D01*
X15619286Y-17896381D01*
X15609762Y-17915429D01*
X15600238Y-17924952D01*
X15581190Y-17934476D01*
X15524048Y-17934476D01*
X15505000Y-17924952D01*
X15495476Y-17915429D01*
X15695476Y-17734476D02*
X15695476Y-17772571D01*
X15771667Y-17734476D02*
X15771667Y-17772571D01*
X16066905Y-18010667D02*
X16057381Y-18001143D01*
X16038333Y-17972571D01*
X16028809Y-17953524D01*
X16019286Y-17924952D01*
X16009762Y-17877333D01*
X16009762Y-17839238D01*
X16019286Y-17791619D01*
X16028809Y-17763048D01*
X16038333Y-17744000D01*
X16057381Y-17715429D01*
X16066905Y-17705905D01*
X16133571Y-17753524D02*
X16143095Y-17744000D01*
X16162143Y-17734476D01*
X16209762Y-17734476D01*
X16228809Y-17744000D01*
X16238333Y-17753524D01*
X16247857Y-17772571D01*
X16247857Y-17791619D01*
X16238333Y-17820190D01*
X16124048Y-17934476D01*
X16247857Y-17934476D01*
X16485952Y-17934476D02*
X16485952Y-17734476D01*
X16571667Y-17934476D02*
X16571667Y-17829714D01*
X16562143Y-17810667D01*
X16543095Y-17801143D01*
X16514524Y-17801143D01*
X16495476Y-17810667D01*
X16485952Y-17820190D01*
X16695476Y-17934476D02*
X16676428Y-17924952D01*
X16666905Y-17915429D01*
X16657381Y-17896381D01*
X16657381Y-17839238D01*
X16666905Y-17820190D01*
X16676428Y-17810667D01*
X16695476Y-17801143D01*
X16724048Y-17801143D01*
X16743095Y-17810667D01*
X16752619Y-17820190D01*
X16762143Y-17839238D01*
X16762143Y-17896381D01*
X16752619Y-17915429D01*
X16743095Y-17924952D01*
X16724048Y-17934476D01*
X16695476Y-17934476D01*
X16876429Y-17934476D02*
X16857381Y-17924952D01*
X16847857Y-17905905D01*
X16847857Y-17734476D01*
X17028810Y-17924952D02*
X17009762Y-17934476D01*
X16971667Y-17934476D01*
X16952619Y-17924952D01*
X16943095Y-17905905D01*
X16943095Y-17829714D01*
X16952619Y-17810667D01*
X16971667Y-17801143D01*
X17009762Y-17801143D01*
X17028810Y-17810667D01*
X17038333Y-17829714D01*
X17038333Y-17848762D01*
X16943095Y-17867810D01*
X17114524Y-17924952D02*
X17133571Y-17934476D01*
X17171667Y-17934476D01*
X17190714Y-17924952D01*
X17200238Y-17905905D01*
X17200238Y-17896381D01*
X17190714Y-17877333D01*
X17171667Y-17867810D01*
X17143095Y-17867810D01*
X17124048Y-17858286D01*
X17114524Y-17839238D01*
X17114524Y-17829714D01*
X17124048Y-17810667D01*
X17143095Y-17801143D01*
X17171667Y-17801143D01*
X17190714Y-17810667D01*
X17266905Y-18010667D02*
X17276429Y-18001143D01*
X17295476Y-17972571D01*
X17305000Y-17953524D01*
X17314524Y-17924952D01*
X17324048Y-17877333D01*
X17324048Y-17839238D01*
X17314524Y-17791619D01*
X17305000Y-17763048D01*
X17295476Y-17744000D01*
X17276429Y-17715429D01*
X17266905Y-17705905D01*
M02*
