%TF.GenerationSoftware,KiCad,Pcbnew,6.0.7+dfsg-1~bpo11+1*%
%TF.CreationDate,2022-10-26T04:05:39+08:00*%
%TF.ProjectId,MiniDelay v1.0 - Main,4d696e69-4465-46c6-9179-2076312e3020,rev?*%
%TF.SameCoordinates,Original*%
%TF.FileFunction,Copper,L2,Bot*%
%TF.FilePolarity,Positive*%
%FSLAX46Y46*%
G04 Gerber Fmt 4.6, Leading zero omitted, Abs format (unit mm)*
G04 Created by KiCad (PCBNEW 6.0.7+dfsg-1~bpo11+1) date 2022-10-26 04:05:39*
%MOMM*%
%LPD*%
G01*
G04 APERTURE LIST*
G04 Aperture macros list*
%AMRoundRect*
0 Rectangle with rounded corners*
0 $1 Rounding radius*
0 $2 $3 $4 $5 $6 $7 $8 $9 X,Y pos of 4 corners*
0 Add a 4 corners polygon primitive as box body*
4,1,4,$2,$3,$4,$5,$6,$7,$8,$9,$2,$3,0*
0 Add four circle primitives for the rounded corners*
1,1,$1+$1,$2,$3*
1,1,$1+$1,$4,$5*
1,1,$1+$1,$6,$7*
1,1,$1+$1,$8,$9*
0 Add four rect primitives between the rounded corners*
20,1,$1+$1,$2,$3,$4,$5,0*
20,1,$1+$1,$4,$5,$6,$7,0*
20,1,$1+$1,$6,$7,$8,$9,0*
20,1,$1+$1,$8,$9,$2,$3,0*%
G04 Aperture macros list end*
%TA.AperFunction,ComponentPad*%
%ADD10R,1.800000X1.800000*%
%TD*%
%TA.AperFunction,ComponentPad*%
%ADD11C,1.800000*%
%TD*%
%TA.AperFunction,ComponentPad*%
%ADD12R,1.930000X1.830000*%
%TD*%
%TA.AperFunction,ComponentPad*%
%ADD13C,2.130000*%
%TD*%
%TA.AperFunction,ComponentPad*%
%ADD14O,2.720000X3.240000*%
%TD*%
%TA.AperFunction,SMDPad,CuDef*%
%ADD15RoundRect,0.237500X-0.237500X0.250000X-0.237500X-0.250000X0.237500X-0.250000X0.237500X0.250000X0*%
%TD*%
%TA.AperFunction,SMDPad,CuDef*%
%ADD16RoundRect,0.237500X0.237500X-0.300000X0.237500X0.300000X-0.237500X0.300000X-0.237500X-0.300000X0*%
%TD*%
%TA.AperFunction,SMDPad,CuDef*%
%ADD17RoundRect,0.250000X0.337500X0.475000X-0.337500X0.475000X-0.337500X-0.475000X0.337500X-0.475000X0*%
%TD*%
%TA.AperFunction,SMDPad,CuDef*%
%ADD18R,1.200000X2.200000*%
%TD*%
%TA.AperFunction,SMDPad,CuDef*%
%ADD19R,5.800000X6.400000*%
%TD*%
%TA.AperFunction,SMDPad,CuDef*%
%ADD20RoundRect,0.237500X0.250000X0.237500X-0.250000X0.237500X-0.250000X-0.237500X0.250000X-0.237500X0*%
%TD*%
%TA.AperFunction,SMDPad,CuDef*%
%ADD21RoundRect,0.237500X-0.250000X-0.237500X0.250000X-0.237500X0.250000X0.237500X-0.250000X0.237500X0*%
%TD*%
%TA.AperFunction,SMDPad,CuDef*%
%ADD22RoundRect,0.237500X-0.300000X-0.237500X0.300000X-0.237500X0.300000X0.237500X-0.300000X0.237500X0*%
%TD*%
%TA.AperFunction,SMDPad,CuDef*%
%ADD23RoundRect,0.237500X0.300000X0.237500X-0.300000X0.237500X-0.300000X-0.237500X0.300000X-0.237500X0*%
%TD*%
%TA.AperFunction,SMDPad,CuDef*%
%ADD24RoundRect,0.237500X-0.237500X0.300000X-0.237500X-0.300000X0.237500X-0.300000X0.237500X0.300000X0*%
%TD*%
%TA.AperFunction,ComponentPad*%
%ADD25RoundRect,0.250000X-0.600000X-0.600000X0.600000X-0.600000X0.600000X0.600000X-0.600000X0.600000X0*%
%TD*%
%TA.AperFunction,ComponentPad*%
%ADD26C,1.700000*%
%TD*%
%TA.AperFunction,SMDPad,CuDef*%
%ADD27RoundRect,0.237500X0.237500X-0.250000X0.237500X0.250000X-0.237500X0.250000X-0.237500X-0.250000X0*%
%TD*%
%TA.AperFunction,SMDPad,CuDef*%
%ADD28RoundRect,0.250000X0.475000X-0.337500X0.475000X0.337500X-0.475000X0.337500X-0.475000X-0.337500X0*%
%TD*%
%TA.AperFunction,SMDPad,CuDef*%
%ADD29RoundRect,0.150000X-0.150000X0.650000X-0.150000X-0.650000X0.150000X-0.650000X0.150000X0.650000X0*%
%TD*%
%TA.AperFunction,SMDPad,CuDef*%
%ADD30RoundRect,0.150000X0.825000X0.150000X-0.825000X0.150000X-0.825000X-0.150000X0.825000X-0.150000X0*%
%TD*%
%TA.AperFunction,ViaPad*%
%ADD31C,0.800000*%
%TD*%
%TA.AperFunction,ViaPad*%
%ADD32C,1.000000*%
%TD*%
%TA.AperFunction,Conductor*%
%ADD33C,0.250000*%
%TD*%
%TA.AperFunction,Conductor*%
%ADD34C,0.600000*%
%TD*%
G04 APERTURE END LIST*
D10*
%TO.P,D1,1,K*%
%TO.N,GND*%
X131200000Y-138550000D03*
D11*
%TO.P,D1,2,A*%
%TO.N,Net-(D1-Pad2)*%
X128660000Y-138550000D03*
%TD*%
D12*
%TO.P,AudioOut1,S*%
%TO.N,GND*%
X140000000Y-143170000D03*
D13*
%TO.P,AudioOut1,T*%
%TO.N,Net-(AudioOut1-PadT)*%
X140000000Y-154570000D03*
%TO.P,AudioOut1,TN*%
%TO.N,unconnected-(AudioOut1-PadTN)*%
X140000000Y-146270000D03*
%TD*%
D12*
%TO.P,AudioIn1,S*%
%TO.N,GND*%
X130000000Y-143170000D03*
D13*
%TO.P,AudioIn1,T*%
%TO.N,Net-(AudioIn1-PadT)*%
X130000000Y-154570000D03*
%TO.P,AudioIn1,TN*%
%TO.N,unconnected-(AudioIn1-PadTN)*%
X130000000Y-146270000D03*
%TD*%
D14*
%TO.P,LEVEL1,*%
%TO.N,*%
X139800000Y-104000000D03*
X130200000Y-104000000D03*
D10*
%TO.P,LEVEL1,1,1*%
%TO.N,GND*%
X132500000Y-111500000D03*
D11*
%TO.P,LEVEL1,2,2*%
%TO.N,WET_OUT*%
X135000000Y-111500000D03*
%TO.P,LEVEL1,3,3*%
%TO.N,Net-(LEVEL1-Pad3)*%
X137500000Y-111500000D03*
%TD*%
D14*
%TO.P,TIME1,*%
%TO.N,*%
X139800000Y-64000000D03*
X130200000Y-64000000D03*
D10*
%TO.P,TIME1,1,1*%
%TO.N,GND*%
X132500000Y-71500000D03*
D11*
%TO.P,TIME1,2,2*%
%TO.N,Net-(R5-Pad2)*%
X135000000Y-71500000D03*
%TO.P,TIME1,3,3*%
X137500000Y-71500000D03*
%TD*%
D14*
%TO.P,REPEATS1,*%
%TO.N,*%
X130200000Y-84000000D03*
X139800000Y-84000000D03*
D10*
%TO.P,REPEATS1,1,1*%
%TO.N,GND*%
X132500000Y-91500000D03*
D11*
%TO.P,REPEATS1,2,2*%
%TO.N,REPEATS*%
X135000000Y-91500000D03*
%TO.P,REPEATS1,3,3*%
%TO.N,Net-(LEVEL1-Pad3)*%
X137500000Y-91500000D03*
%TD*%
D15*
%TO.P,R14,1*%
%TO.N,Net-(C19-Pad2)*%
X134400000Y-85187500D03*
%TO.P,R14,2*%
%TO.N,Net-(C10-Pad2)*%
X134400000Y-87012500D03*
%TD*%
D16*
%TO.P,C22,1*%
%TO.N,Net-(C22-Pad1)*%
X142430000Y-101102500D03*
%TO.P,C22,2*%
%TO.N,Net-(C22-Pad2)*%
X142430000Y-99377500D03*
%TD*%
D17*
%TO.P,C1,1*%
%TO.N,+12V*%
X138237500Y-118975000D03*
%TO.P,C1,2*%
%TO.N,GND*%
X136162500Y-118975000D03*
%TD*%
D18*
%TO.P,U3,1,IN*%
%TO.N,+12V*%
X133980000Y-127750000D03*
D19*
%TO.P,U3,2,GND*%
%TO.N,GND*%
X131700000Y-121450000D03*
D18*
%TO.P,U3,3,OUT*%
%TO.N,+5V*%
X129420000Y-127750000D03*
%TD*%
D20*
%TO.P,R3,1*%
%TO.N,DRY_OUT*%
X129537500Y-149250000D03*
%TO.P,R3,2*%
%TO.N,Net-(C6-Pad2)*%
X127712500Y-149250000D03*
%TD*%
D16*
%TO.P,C19,1*%
%TO.N,GND*%
X132900000Y-86962500D03*
%TO.P,C19,2*%
%TO.N,Net-(C19-Pad2)*%
X132900000Y-85237500D03*
%TD*%
D21*
%TO.P,R17,1*%
%TO.N,DRY_OUT*%
X136237500Y-107110000D03*
%TO.P,R17,2*%
%TO.N,Net-(C22-Pad2)*%
X138062500Y-107110000D03*
%TD*%
D22*
%TO.P,C4,1*%
%TO.N,GND*%
X128637500Y-96700000D03*
%TO.P,C4,2*%
%TO.N,-12V*%
X130362500Y-96700000D03*
%TD*%
D15*
%TO.P,R19,1*%
%TO.N,GND*%
X141110000Y-91677500D03*
%TO.P,R19,2*%
%TO.N,Net-(R19-Pad2)*%
X141110000Y-93502500D03*
%TD*%
D20*
%TO.P,R6,1*%
%TO.N,REPEATS*%
X134687500Y-107110000D03*
%TO.P,R6,2*%
%TO.N,Net-(C6-Pad2)*%
X132862500Y-107110000D03*
%TD*%
D16*
%TO.P,C6,1*%
%TO.N,Net-(C6-Pad1)*%
X127825000Y-101087500D03*
%TO.P,C6,2*%
%TO.N,Net-(C6-Pad2)*%
X127825000Y-99362500D03*
%TD*%
D23*
%TO.P,C10,1*%
%TO.N,Net-(C10-Pad1)*%
X137262500Y-83600000D03*
%TO.P,C10,2*%
%TO.N,Net-(C10-Pad2)*%
X135537500Y-83600000D03*
%TD*%
D16*
%TO.P,C13,1*%
%TO.N,Net-(C13-Pad1)*%
X142400000Y-80952500D03*
%TO.P,C13,2*%
%TO.N,Net-(C13-Pad2)*%
X142400000Y-79227500D03*
%TD*%
D20*
%TO.P,R5,1*%
%TO.N,Net-(R5-Pad1)*%
X137492500Y-69490000D03*
%TO.P,R5,2*%
%TO.N,Net-(R5-Pad2)*%
X135667500Y-69490000D03*
%TD*%
D24*
%TO.P,C20,1*%
%TO.N,Net-(C20-Pad1)*%
X127300000Y-89237500D03*
%TO.P,C20,2*%
%TO.N,GND*%
X127300000Y-90962500D03*
%TD*%
D21*
%TO.P,R11,1*%
%TO.N,Net-(C6-Pad1)*%
X128587500Y-93500000D03*
%TO.P,R11,2*%
%TO.N,Net-(C12-Pad2)*%
X130412500Y-93500000D03*
%TD*%
D22*
%TO.P,C3,1*%
%TO.N,+12V*%
X139712500Y-96200000D03*
%TO.P,C3,2*%
%TO.N,GND*%
X141437500Y-96200000D03*
%TD*%
D25*
%TO.P,J1,1,Pin_1*%
%TO.N,-12V*%
X138997500Y-135830000D03*
D26*
%TO.P,J1,2,Pin_2*%
X141537500Y-135830000D03*
%TO.P,J1,3,Pin_3*%
%TO.N,GND*%
X138997500Y-133290000D03*
%TO.P,J1,4,Pin_4*%
X141537500Y-133290000D03*
%TO.P,J1,5,Pin_5*%
X138997500Y-130750000D03*
%TO.P,J1,6,Pin_6*%
X141537500Y-130750000D03*
%TO.P,J1,7,Pin_7*%
X138997500Y-128210000D03*
%TO.P,J1,8,Pin_8*%
X141537500Y-128210000D03*
%TO.P,J1,9,Pin_9*%
%TO.N,+12V*%
X138997500Y-125670000D03*
%TO.P,J1,10,Pin_10*%
X141537500Y-125670000D03*
%TD*%
D15*
%TO.P,R10,1*%
%TO.N,Net-(C16-Pad2)*%
X142300000Y-69087500D03*
%TO.P,R10,2*%
%TO.N,Net-(C11-Pad2)*%
X142300000Y-70912500D03*
%TD*%
D16*
%TO.P,C11,1*%
%TO.N,Net-(C11-Pad1)*%
X142400000Y-77462500D03*
%TO.P,C11,2*%
%TO.N,Net-(C11-Pad2)*%
X142400000Y-75737500D03*
%TD*%
D21*
%TO.P,R2,1*%
%TO.N,Net-(D1-Pad2)*%
X129787500Y-135475000D03*
%TO.P,R2,2*%
%TO.N,+12V*%
X131612500Y-135475000D03*
%TD*%
%TO.P,R18,1*%
%TO.N,WET_OUT*%
X136262500Y-109100000D03*
%TO.P,R18,2*%
%TO.N,Net-(C22-Pad2)*%
X138087500Y-109100000D03*
%TD*%
D23*
%TO.P,C5,1*%
%TO.N,DRY_OUT*%
X129487500Y-150800000D03*
%TO.P,C5,2*%
%TO.N,Net-(AudioIn1-PadT)*%
X127762500Y-150800000D03*
%TD*%
D15*
%TO.P,R4,1*%
%TO.N,Net-(C6-Pad2)*%
X129355000Y-99302500D03*
%TO.P,R4,2*%
%TO.N,Net-(C6-Pad1)*%
X129355000Y-101127500D03*
%TD*%
%TO.P,R21,1*%
%TO.N,Net-(C22-Pad2)*%
X140910000Y-99327500D03*
%TO.P,R21,2*%
%TO.N,Net-(C22-Pad1)*%
X140910000Y-101152500D03*
%TD*%
D20*
%TO.P,R1,1*%
%TO.N,GND*%
X129537500Y-152350000D03*
%TO.P,R1,2*%
%TO.N,Net-(AudioIn1-PadT)*%
X127712500Y-152350000D03*
%TD*%
D27*
%TO.P,R9,1*%
%TO.N,Net-(AudioOut1-PadT)*%
X143980000Y-101152500D03*
%TO.P,R9,2*%
%TO.N,Net-(C22-Pad1)*%
X143980000Y-99327500D03*
%TD*%
%TO.P,R20,1*%
%TO.N,Net-(R19-Pad2)*%
X139600000Y-93492500D03*
%TO.P,R20,2*%
%TO.N,Net-(LEVEL1-Pad3)*%
X139600000Y-91667500D03*
%TD*%
D28*
%TO.P,C2,1*%
%TO.N,GND*%
X134300000Y-139462500D03*
%TO.P,C2,2*%
%TO.N,-12V*%
X134300000Y-137387500D03*
%TD*%
D24*
%TO.P,C21,1*%
%TO.N,Net-(C19-Pad2)*%
X142630000Y-91727500D03*
%TO.P,C21,2*%
%TO.N,Net-(C21-Pad2)*%
X142630000Y-93452500D03*
%TD*%
D22*
%TO.P,C9,1*%
%TO.N,GND*%
X135697387Y-66409826D03*
%TO.P,C9,2*%
%TO.N,Net-(C9-Pad2)*%
X137422387Y-66409826D03*
%TD*%
D27*
%TO.P,R16,1*%
%TO.N,GND*%
X144130000Y-93512500D03*
%TO.P,R16,2*%
%TO.N,Net-(C21-Pad2)*%
X144130000Y-91687500D03*
%TD*%
D24*
%TO.P,C7,1*%
%TO.N,Net-(C7-Pad1)*%
X129900000Y-72987500D03*
%TO.P,C7,2*%
%TO.N,GND*%
X129900000Y-74712500D03*
%TD*%
D27*
%TO.P,R7,1*%
%TO.N,Net-(C16-Pad2)*%
X135900000Y-87012500D03*
%TO.P,R7,2*%
%TO.N,Net-(C10-Pad2)*%
X135900000Y-85187500D03*
%TD*%
D22*
%TO.P,C8,1*%
%TO.N,GND*%
X135717387Y-67949826D03*
%TO.P,C8,2*%
%TO.N,Net-(C8-Pad2)*%
X137442387Y-67949826D03*
%TD*%
D21*
%TO.P,R12,1*%
%TO.N,Net-(C20-Pad1)*%
X126537500Y-80950000D03*
%TO.P,R12,2*%
%TO.N,Net-(C15-Pad2)*%
X128362500Y-80950000D03*
%TD*%
D29*
%TO.P,U2,1,VCC*%
%TO.N,+5V*%
X131665000Y-74100000D03*
%TO.P,U2,2,REF*%
%TO.N,Net-(C7-Pad1)*%
X132935000Y-74100000D03*
%TO.P,U2,3,AGND*%
%TO.N,GND*%
X134205000Y-74100000D03*
%TO.P,U2,4,DGND*%
X135475000Y-74100000D03*
%TO.P,U2,5,CLK_O*%
%TO.N,unconnected-(U2-Pad5)*%
X136745000Y-74100000D03*
%TO.P,U2,6,VCO*%
%TO.N,Net-(R5-Pad1)*%
X138015000Y-74100000D03*
%TO.P,U2,7,CC1*%
%TO.N,Net-(C8-Pad2)*%
X139285000Y-74100000D03*
%TO.P,U2,8,CC0*%
%TO.N,Net-(C9-Pad2)*%
X140555000Y-74100000D03*
%TO.P,U2,9,OP1-OUT*%
%TO.N,Net-(C13-Pad1)*%
X140555000Y-80600000D03*
%TO.P,U2,10,OP1-IN*%
%TO.N,Net-(C13-Pad2)*%
X139285000Y-80600000D03*
%TO.P,U2,11,OP2-IN*%
%TO.N,Net-(C11-Pad1)*%
X138015000Y-80600000D03*
%TO.P,U2,12,OP2-OUT*%
%TO.N,Net-(C11-Pad2)*%
X136745000Y-80600000D03*
%TO.P,U2,13,LPF2-IN*%
%TO.N,Net-(C10-Pad1)*%
X135475000Y-80600000D03*
%TO.P,U2,14,LPF2-OUT*%
%TO.N,Net-(C10-Pad2)*%
X134205000Y-80600000D03*
%TO.P,U2,15,LPF1-OUT*%
%TO.N,Net-(C15-Pad1)*%
X132935000Y-80600000D03*
%TO.P,U2,16,LPF1-IN*%
%TO.N,Net-(C15-Pad2)*%
X131665000Y-80600000D03*
%TD*%
D24*
%TO.P,C18,1*%
%TO.N,Net-(C18-Pad1)*%
X130360000Y-89237500D03*
%TO.P,C18,2*%
%TO.N,Net-(C18-Pad2)*%
X130360000Y-90962500D03*
%TD*%
D30*
%TO.P,U1,1*%
%TO.N,Net-(LEVEL1-Pad3)*%
X137395000Y-93540000D03*
%TO.P,U1,2,-*%
%TO.N,Net-(R19-Pad2)*%
X137395000Y-94810000D03*
%TO.P,U1,3,+*%
%TO.N,Net-(C21-Pad2)*%
X137395000Y-96080000D03*
%TO.P,U1,4,V+*%
%TO.N,+12V*%
X137395000Y-97350000D03*
%TO.P,U1,5,+*%
%TO.N,GND*%
X137395000Y-98620000D03*
%TO.P,U1,6,-*%
%TO.N,Net-(C22-Pad2)*%
X137395000Y-99890000D03*
%TO.P,U1,7*%
%TO.N,Net-(C22-Pad1)*%
X137395000Y-101160000D03*
%TO.P,U1,8*%
%TO.N,Net-(C6-Pad1)*%
X132445000Y-101160000D03*
%TO.P,U1,9,-*%
%TO.N,Net-(C6-Pad2)*%
X132445000Y-99890000D03*
%TO.P,U1,10,+*%
%TO.N,GND*%
X132445000Y-98620000D03*
%TO.P,U1,11,V-*%
%TO.N,-12V*%
X132445000Y-97350000D03*
%TO.P,U1,12,+*%
%TO.N,Net-(C12-Pad2)*%
X132445000Y-96080000D03*
%TO.P,U1,13,-*%
%TO.N,Net-(C18-Pad2)*%
X132445000Y-94810000D03*
%TO.P,U1,14*%
X132445000Y-93540000D03*
%TD*%
D22*
%TO.P,C12,1*%
%TO.N,GND*%
X128637500Y-95100000D03*
%TO.P,C12,2*%
%TO.N,Net-(C12-Pad2)*%
X130362500Y-95100000D03*
%TD*%
%TO.P,C17,1*%
%TO.N,+5V*%
X128987500Y-129950000D03*
%TO.P,C17,2*%
%TO.N,GND*%
X130712500Y-129950000D03*
%TD*%
D24*
%TO.P,C16,1*%
%TO.N,GND*%
X143900000Y-69137500D03*
%TO.P,C16,2*%
%TO.N,Net-(C16-Pad2)*%
X143900000Y-70862500D03*
%TD*%
%TO.P,C15,1*%
%TO.N,Net-(C15-Pad1)*%
X129900000Y-79137500D03*
%TO.P,C15,2*%
%TO.N,Net-(C15-Pad2)*%
X129900000Y-80862500D03*
%TD*%
D27*
%TO.P,R15,1*%
%TO.N,Net-(C18-Pad1)*%
X128830000Y-91012500D03*
%TO.P,R15,2*%
%TO.N,Net-(C20-Pad1)*%
X128830000Y-89187500D03*
%TD*%
D23*
%TO.P,C14,1*%
%TO.N,+12V*%
X134412500Y-129950000D03*
%TO.P,C14,2*%
%TO.N,GND*%
X132687500Y-129950000D03*
%TD*%
D27*
%TO.P,R8,1*%
%TO.N,Net-(C16-Pad2)*%
X137400000Y-87012500D03*
%TO.P,R8,2*%
%TO.N,Net-(C10-Pad1)*%
X137400000Y-85187500D03*
%TD*%
D21*
%TO.P,R13,1*%
%TO.N,Net-(C20-Pad1)*%
X126537500Y-79070000D03*
%TO.P,R13,2*%
%TO.N,Net-(C15-Pad1)*%
X128362500Y-79070000D03*
%TD*%
D31*
%TO.N,GND*%
X135500000Y-76700000D03*
X133500000Y-69500000D03*
X132400000Y-67500000D03*
X130300000Y-132425000D03*
X131300000Y-69500000D03*
X132800000Y-90000000D03*
X132600000Y-88200000D03*
X132400000Y-68500000D03*
X134400000Y-88200000D03*
X137500000Y-103150000D03*
X135500000Y-75800000D03*
X131475000Y-132400000D03*
X143900000Y-97200000D03*
X131300000Y-67500000D03*
X127050000Y-96700000D03*
X132100000Y-133375000D03*
X130900000Y-133375000D03*
X132700000Y-132400000D03*
X133500000Y-88200000D03*
X129625000Y-133375000D03*
X133700000Y-90000000D03*
X126000000Y-88200000D03*
X126200000Y-150000000D03*
X126000000Y-90200000D03*
X126200000Y-151200000D03*
X126200000Y-152400000D03*
X133500000Y-67500000D03*
X143900000Y-96200000D03*
X133500000Y-68500000D03*
X131300000Y-68500000D03*
X126000000Y-91200000D03*
X134600000Y-76700000D03*
X141500000Y-90000000D03*
X133700000Y-75800000D03*
X139200000Y-90000000D03*
X132400000Y-69500000D03*
X126000000Y-87200000D03*
X139400000Y-98950000D03*
X133700000Y-76700000D03*
X134600000Y-75800000D03*
X129100000Y-132450000D03*
X126000000Y-89200000D03*
X127000000Y-98100000D03*
X131900000Y-90000000D03*
X140400000Y-90000000D03*
X127050000Y-95125000D03*
D32*
%TO.N,+12V*%
X139675000Y-97375000D03*
%TO.N,REPEATS*%
X134710000Y-105790000D03*
%TO.N,-12V*%
X134175000Y-97375000D03*
%TO.N,+5V*%
X131650000Y-75600000D03*
X128025000Y-127725000D03*
%TD*%
D33*
%TO.N,Net-(C22-Pad1)*%
X143980000Y-99327500D02*
X143980000Y-99552500D01*
X137395000Y-101160000D02*
X137405000Y-101150000D01*
X137405000Y-101150000D02*
X142382500Y-101150000D01*
X143980000Y-99552500D02*
X142430000Y-101102500D01*
X141320000Y-101142500D02*
X141318722Y-101141222D01*
X141200000Y-101112500D02*
G75*
G02*
X141152500Y-101160000I-47500J0D01*
G01*
%TO.N,Net-(C22-Pad2)*%
X138087500Y-106855911D02*
X138087500Y-107550000D01*
X137395000Y-99890000D02*
X136685000Y-99890000D01*
X137395000Y-99890000D02*
X140357500Y-99880000D01*
X138087500Y-107550000D02*
X138087500Y-109100000D01*
X142430000Y-99377500D02*
X140960000Y-99377500D01*
X138062500Y-107110000D02*
X138062500Y-106162500D01*
X135600000Y-103700000D02*
X135600000Y-100975000D01*
X135600000Y-103700000D02*
G75*
G03*
X136300000Y-104400000I700000J0D01*
G01*
X135600000Y-100975000D02*
G75*
G02*
X136685000Y-99890000I1085000J0D01*
G01*
X136300000Y-104400000D02*
G75*
G02*
X138062500Y-106162500I0J-1762500D01*
G01*
X140910000Y-99327500D02*
G75*
G02*
X140357500Y-99880000I-552500J0D01*
G01*
%TO.N,Net-(AudioIn1-PadT)*%
X127762500Y-150800000D02*
X127762500Y-152300000D01*
X129932500Y-154570000D02*
X129950000Y-154570000D01*
X129932500Y-154570000D02*
G75*
G02*
X127712500Y-152350000I0J2220000D01*
G01*
X127712500Y-152350000D02*
G75*
G03*
X127762500Y-152300000I0J50000D01*
G01*
%TO.N,GND*%
X129487500Y-152300000D02*
X129537500Y-152350000D01*
X131805000Y-119310000D02*
G75*
G02*
X132002500Y-119112500I197500J0D01*
G01*
D34*
%TO.N,+12V*%
X138997500Y-125670000D02*
X136060000Y-125670000D01*
X137395000Y-97350000D02*
X139287500Y-97350000D01*
X139682701Y-96383100D02*
X139670792Y-96366708D01*
X139675000Y-97375000D02*
X139688962Y-96402369D01*
X139688962Y-96402369D02*
X139682701Y-96383100D01*
X134387500Y-129950000D02*
X134387500Y-128733792D01*
X139670792Y-96366708D02*
X139654400Y-96354799D01*
X139000000Y-125667500D02*
X139000000Y-119737500D01*
X134387500Y-129950000D02*
X134387500Y-132700000D01*
X131612500Y-135475000D02*
G75*
G03*
X134387500Y-132700000I0J2775000D01*
G01*
X133980000Y-127750000D02*
G75*
G02*
X136060000Y-125670000I2080000J0D01*
G01*
X138237500Y-118975000D02*
G75*
G02*
X139000000Y-119737500I0J-762500D01*
G01*
X139000000Y-125667500D02*
G75*
G02*
X138997500Y-125670000I-2500J0D01*
G01*
X133979998Y-127750002D02*
G75*
G02*
X134387500Y-128733792I-983798J-983798D01*
G01*
D33*
%TO.N,Net-(D1-Pad2)*%
X129787500Y-135475000D02*
X129787500Y-137422500D01*
X128660000Y-138550000D02*
G75*
G03*
X129787500Y-137422500I0J1127500D01*
G01*
%TO.N,Net-(C6-Pad2)*%
X132862500Y-107110000D02*
X128788816Y-107110000D01*
X133950000Y-101018249D02*
X133950000Y-104320000D01*
X132862500Y-105407500D02*
X132862500Y-107110000D01*
X126460000Y-109438816D02*
X126460000Y-147997500D01*
X132445000Y-99890000D02*
X132821751Y-99890000D01*
X129355000Y-99302500D02*
X127885000Y-99302500D01*
X132445000Y-99890000D02*
X129942500Y-99890000D01*
X127712500Y-149250000D02*
G75*
G02*
X126460000Y-147997500I0J1252500D01*
G01*
X129355000Y-99302500D02*
G75*
G03*
X129942500Y-99890000I587500J0D01*
G01*
X133490000Y-104780000D02*
G75*
G03*
X133950000Y-104320000I0J460000D01*
G01*
X126460000Y-109438816D02*
G75*
G02*
X128788816Y-107110000I2328800J16D01*
G01*
X132862500Y-105407500D02*
G75*
G02*
X133490000Y-104780000I627500J0D01*
G01*
X127825000Y-99362500D02*
G75*
G02*
X127885000Y-99302500I60000J0D01*
G01*
X133950000Y-101018249D02*
G75*
G03*
X132821751Y-99890000I-1128200J49D01*
G01*
%TO.N,DRY_OUT*%
X129537500Y-148557500D02*
X129537500Y-149250000D01*
X135580000Y-108050000D02*
X128851738Y-108050000D01*
X127130000Y-109771738D02*
X127130000Y-146150000D01*
X129487500Y-150800000D02*
X129487500Y-149300000D01*
X136237500Y-107110000D02*
X136237500Y-107392500D01*
X128730000Y-147750000D02*
G75*
G02*
X127130000Y-146150000I0J1600000D01*
G01*
X129537500Y-149250000D02*
G75*
G03*
X129487500Y-149300000I0J-50000D01*
G01*
X135580000Y-108050000D02*
G75*
G03*
X136237500Y-107392500I0J657500D01*
G01*
X129537500Y-148557500D02*
G75*
G03*
X128730000Y-147750000I-807500J0D01*
G01*
X127130000Y-109771738D02*
G75*
G02*
X128851738Y-108050000I1721700J38D01*
G01*
%TO.N,Net-(C6-Pad1)*%
X128870000Y-101122500D02*
X132407500Y-101122500D01*
X125900000Y-99117725D02*
X125900000Y-95400000D01*
X127800000Y-93500000D02*
X128587500Y-93500000D01*
X128870000Y-101122500D02*
X127904775Y-101122500D01*
X127800000Y-93500000D02*
G75*
G03*
X125900000Y-95400000I0J-1900000D01*
G01*
X125900000Y-99117725D02*
G75*
G03*
X127904775Y-101122500I2004800J25D01*
G01*
X132445000Y-101160000D02*
G75*
G03*
X132407500Y-101122500I-37500J0D01*
G01*
%TO.N,Net-(R5-Pad2)*%
X137500000Y-71500000D02*
X135000000Y-71500000D01*
X135667500Y-69490000D02*
X135667500Y-70832500D01*
X135000000Y-71500000D02*
G75*
G03*
X135667500Y-70832500I0J667500D01*
G01*
%TO.N,Net-(R5-Pad1)*%
X138015000Y-74100000D02*
X138015000Y-73385000D01*
X138725000Y-72675000D02*
X138725000Y-70722500D01*
X138015000Y-73385000D02*
X138725000Y-72675000D01*
X137492500Y-69490000D02*
G75*
G02*
X138725000Y-70722500I0J-1232500D01*
G01*
%TO.N,REPEATS*%
X134710000Y-105790000D02*
X134710000Y-107055681D01*
X134687506Y-107110006D02*
G75*
G03*
X134710000Y-107055681I-54306J54306D01*
G01*
%TO.N,Net-(C10-Pad2)*%
X135537500Y-83600000D02*
X135537500Y-84312348D01*
X135384100Y-83446600D02*
X135537500Y-83600000D01*
X135670190Y-85742309D02*
X134400000Y-87012500D01*
X135900014Y-85187486D02*
G75*
G02*
X135537500Y-84312348I875186J875186D01*
G01*
X135384100Y-83446600D02*
G75*
G02*
X134205000Y-80600000I2846600J2846600D01*
G01*
X135670186Y-85742305D02*
G75*
G03*
X135900000Y-85187500I-554786J554805D01*
G01*
%TO.N,Net-(C16-Pad2)*%
X142300000Y-69262500D02*
X143900000Y-70862500D01*
X143900000Y-70862500D02*
X143900000Y-85014373D01*
X141901873Y-87012500D02*
X137400000Y-87012500D01*
X142300000Y-69087500D02*
X142300000Y-69262500D01*
X135900000Y-87012500D02*
X137400000Y-87012500D01*
X141901873Y-87012500D02*
G75*
G03*
X143900000Y-85014373I27J1998100D01*
G01*
%TO.N,Net-(C10-Pad1)*%
X136332367Y-82669867D02*
X137262500Y-83600000D01*
X137262500Y-83600000D02*
X137262500Y-84855546D01*
X136332374Y-82669860D02*
G75*
G02*
X135475000Y-80600000I2069826J2069860D01*
G01*
X137400013Y-85187487D02*
G75*
G02*
X137262500Y-84855546I331987J331987D01*
G01*
%TO.N,Net-(AudioOut1-PadT)*%
X143975000Y-109400000D02*
X144000000Y-150620000D01*
X143980000Y-108945976D02*
X143975000Y-109400000D01*
X143980000Y-101152500D02*
X143980000Y-108945976D01*
X140050000Y-154570000D02*
G75*
G03*
X144000000Y-150620000I0J3950000D01*
G01*
%TO.N,Net-(C11-Pad2)*%
X142400000Y-71012500D02*
X142400000Y-75737500D01*
X142300000Y-70912500D02*
X142400000Y-71012500D01*
X141607486Y-75737500D02*
X142400000Y-75737500D01*
X141607486Y-75737500D02*
G75*
G03*
X136745000Y-80600000I14J-4862500D01*
G01*
%TO.N,Net-(C12-Pad2)*%
X130362500Y-95100000D02*
X130562915Y-95300415D01*
X130412500Y-93500000D02*
X130412500Y-95050000D01*
X130412500Y-95050000D02*
X130362500Y-95100000D01*
X132445000Y-96079991D02*
G75*
G02*
X130562915Y-95300415I0J2661691D01*
G01*
%TO.N,Net-(C15-Pad2)*%
X131665000Y-80600000D02*
X130162500Y-80600000D01*
X129900000Y-80862500D02*
X128625000Y-80862500D01*
X129900000Y-80862500D02*
G75*
G02*
X130162500Y-80600000I262500J0D01*
G01*
%TO.N,Net-(C20-Pad1)*%
X127300000Y-82790837D02*
X127300000Y-89237500D01*
X127300000Y-89237500D02*
X128709290Y-89237500D01*
X126537500Y-79070000D02*
X126537500Y-80950000D01*
X128830003Y-89187503D02*
G75*
G02*
X128709290Y-89237500I-120703J120703D01*
G01*
X127299984Y-82790837D02*
G75*
G03*
X126537500Y-80950000I-2603284J37D01*
G01*
%TO.N,Net-(C15-Pad1)*%
X129873372Y-79070769D02*
X129873372Y-79075839D01*
X129900000Y-79137500D02*
X131472500Y-79137500D01*
X129872603Y-79070000D02*
X129873372Y-79070769D01*
X128362500Y-79070000D02*
X129872603Y-79070000D01*
X132935000Y-80600000D02*
G75*
G03*
X131472500Y-79137500I-1462500J0D01*
G01*
X129900032Y-79137502D02*
G75*
G03*
X129873372Y-79075839I-73532J4802D01*
G01*
%TO.N,Net-(C19-Pad2)*%
X132400000Y-89100000D02*
X141900000Y-89100000D01*
X134400000Y-85187500D02*
X133020710Y-85187500D01*
X131500000Y-86637500D02*
X131500000Y-88200000D01*
X142900000Y-90100000D02*
X142900000Y-91627500D01*
X132899997Y-85237497D02*
G75*
G02*
X133020710Y-85187500I120703J-120703D01*
G01*
X132400000Y-89100000D02*
G75*
G02*
X131500000Y-88200000I0J900000D01*
G01*
X131500000Y-86637500D02*
G75*
G02*
X132900000Y-85237500I1400000J0D01*
G01*
X142900000Y-90100000D02*
G75*
G03*
X141900000Y-89100000I-1000000J0D01*
G01*
%TO.N,Net-(C18-Pad1)*%
X130186759Y-89655741D02*
X128830000Y-91012500D01*
X130186763Y-89655745D02*
G75*
G03*
X130360000Y-89237500I-418263J418245D01*
G01*
%TO.N,Net-(C21-Pad2)*%
X138600000Y-95575000D02*
X138589975Y-95585025D01*
X140175000Y-95075000D02*
X139807106Y-95075000D01*
X142630000Y-93452500D02*
X141596167Y-94486333D01*
X144130000Y-91687500D02*
X144130000Y-91952500D01*
X144130000Y-91952500D02*
X142630000Y-93452500D01*
X140175000Y-95075009D02*
G75*
G03*
X141596167Y-94486333I0J2009809D01*
G01*
X138599998Y-95574998D02*
G75*
G02*
X139807106Y-95075000I1207102J-1207102D01*
G01*
X137395000Y-96079985D02*
G75*
G03*
X138589975Y-95585025I0J1689985D01*
G01*
%TO.N,WET_OUT*%
X136262500Y-109100000D02*
X136262500Y-109347031D01*
X135349991Y-111549991D02*
G75*
G03*
X136262500Y-109347031I-2202991J2202991D01*
G01*
%TO.N,Net-(R19-Pad2)*%
X141110000Y-93502500D02*
X139610000Y-93502500D01*
X139610000Y-93502500D02*
X139600000Y-93492500D01*
X138282500Y-94810000D02*
X137395000Y-94810000D01*
X138282500Y-94810000D02*
G75*
G03*
X139600000Y-93492500I0J1317500D01*
G01*
%TO.N,Net-(LEVEL1-Pad3)*%
X139600000Y-91667500D02*
X137717500Y-91667500D01*
X137395000Y-93540000D02*
X137018249Y-93540000D01*
X137600000Y-91550000D02*
X137293937Y-91856063D01*
X137395000Y-91755000D02*
X137395000Y-93540000D01*
X135125000Y-95433249D02*
X135125000Y-104325000D01*
X137175000Y-106375000D02*
X137175000Y-110875000D01*
X137395000Y-91755000D02*
G75*
G02*
X137600000Y-91550000I205000J0D01*
G01*
X137850000Y-111550000D02*
G75*
G02*
X137175000Y-110875000I0J675000D01*
G01*
X135125000Y-95433249D02*
G75*
G02*
X137018249Y-93540000I1893200J49D01*
G01*
X137175000Y-106375000D02*
G75*
G03*
X136000000Y-105200000I-1175000J0D01*
G01*
X137850000Y-111550000D02*
G75*
G02*
X137275000Y-110975000I0J575000D01*
G01*
X136000000Y-105200000D02*
G75*
G02*
X135125000Y-104325000I0J875000D01*
G01*
X137600000Y-91550000D02*
G75*
G03*
X137717500Y-91667500I117500J0D01*
G01*
D34*
%TO.N,-12V*%
X134300000Y-137387500D02*
X137440000Y-137387500D01*
X132445000Y-97350000D02*
X131012500Y-97350000D01*
X139050000Y-136400000D02*
X141590000Y-136400000D01*
X132445000Y-97350000D02*
X134150000Y-97350000D01*
X138997500Y-135830000D02*
G75*
G02*
X137440000Y-137387500I-1557500J0D01*
G01*
X130362500Y-96700000D02*
G75*
G03*
X131012500Y-97350000I650000J0D01*
G01*
D33*
X134175000Y-97375000D02*
G75*
G03*
X134150000Y-97350000I-25000J0D01*
G01*
%TO.N,Net-(C8-Pad2)*%
X139285000Y-74100000D02*
X139285000Y-69792439D01*
X137442387Y-67949800D02*
G75*
G02*
X139285000Y-69792439I13J-1842600D01*
G01*
%TO.N,Net-(C9-Pad2)*%
X140555000Y-74100000D02*
X140555000Y-69542439D01*
X137422387Y-66409800D02*
G75*
G02*
X140555000Y-69542439I13J-3132600D01*
G01*
%TO.N,Net-(C11-Pad1)*%
X141152494Y-77462500D02*
X142400000Y-77462500D01*
X141152494Y-77462500D02*
G75*
G03*
X138015000Y-80600000I6J-3137500D01*
G01*
%TO.N,Net-(C13-Pad2)*%
X142428000Y-79227500D02*
X140657498Y-79227500D01*
X139285000Y-80600000D02*
G75*
G02*
X140657498Y-79227500I1372500J0D01*
G01*
%TO.N,Net-(C13-Pad1)*%
X140555000Y-80600000D02*
X142075500Y-80600000D01*
X142428000Y-80952500D02*
G75*
G03*
X142075500Y-80600000I-352500J0D01*
G01*
D34*
%TO.N,+5V*%
X128962500Y-128854502D02*
X128962500Y-129950000D01*
X129420000Y-127750000D02*
X128085355Y-127750000D01*
X131665000Y-74100000D02*
X131665000Y-75585000D01*
D33*
X131650000Y-75600000D02*
G75*
G03*
X131665000Y-75585000I0J15000D01*
G01*
X128025013Y-127724987D02*
G75*
G03*
X128085355Y-127750000I60387J60387D01*
G01*
%TO.N,Net-(C18-Pad2)*%
X132445000Y-93540000D02*
X132445000Y-94810000D01*
X132240000Y-93540000D02*
X132445000Y-93540000D01*
X130360000Y-90962500D02*
X130360000Y-91660000D01*
X130360000Y-91660000D02*
X132240000Y-93540000D01*
%TO.N,Net-(C7-Pad1)*%
X132935000Y-74100000D02*
X132935000Y-73591182D01*
X130062500Y-72975000D02*
X132318818Y-72975000D01*
X132935000Y-73591182D02*
G75*
G03*
X132318818Y-72975000I-616200J-18D01*
G01*
%TD*%
%TA.AperFunction,Conductor*%
%TO.N,GND*%
G36*
X143262320Y-101982340D02*
G01*
X143276507Y-101991440D01*
X143276997Y-101991929D01*
X143283228Y-101995770D01*
X143283232Y-101995773D01*
X143286614Y-101997857D01*
X143288439Y-101999884D01*
X143288975Y-102000308D01*
X143288903Y-102000400D01*
X143334108Y-102050628D01*
X143346500Y-102105118D01*
X143346500Y-108941856D01*
X143346492Y-108943244D01*
X143342407Y-109314154D01*
X143342178Y-109317519D01*
X143341452Y-109320354D01*
X143341495Y-109390322D01*
X143341498Y-109396011D01*
X143341490Y-109397397D01*
X143341100Y-109432878D01*
X143341426Y-109435712D01*
X143341524Y-109439439D01*
X143365842Y-149537072D01*
X143366469Y-150570141D01*
X143365391Y-150586661D01*
X143361882Y-150613317D01*
X143364127Y-150633654D01*
X143364715Y-150654069D01*
X143348678Y-150960068D01*
X143347300Y-150973185D01*
X143295060Y-151303017D01*
X143292318Y-151315917D01*
X143205887Y-151638481D01*
X143201811Y-151651024D01*
X143082142Y-151962772D01*
X143076778Y-151974821D01*
X142925170Y-152272367D01*
X142918576Y-152283788D01*
X142736698Y-152563857D01*
X142728945Y-152574527D01*
X142518795Y-152834041D01*
X142509970Y-152843842D01*
X142273842Y-153079970D01*
X142264041Y-153088795D01*
X142004527Y-153298945D01*
X141993857Y-153306698D01*
X141713788Y-153488576D01*
X141702367Y-153495170D01*
X141522582Y-153586776D01*
X141406898Y-153645720D01*
X141337123Y-153658824D01*
X141271338Y-153632124D01*
X141253885Y-153615283D01*
X141119286Y-153457688D01*
X141119281Y-153457683D01*
X141116073Y-153453927D01*
X140927740Y-153293075D01*
X140716563Y-153163666D01*
X140711993Y-153161773D01*
X140711989Y-153161771D01*
X140492315Y-153070779D01*
X140492313Y-153070778D01*
X140487742Y-153068885D01*
X140399930Y-153047803D01*
X140251724Y-153012221D01*
X140251718Y-153012220D01*
X140246911Y-153011066D01*
X140000000Y-152991634D01*
X139753089Y-153011066D01*
X139748282Y-153012220D01*
X139748276Y-153012221D01*
X139600070Y-153047803D01*
X139512258Y-153068885D01*
X139507687Y-153070778D01*
X139507685Y-153070779D01*
X139288011Y-153161771D01*
X139288007Y-153161773D01*
X139283437Y-153163666D01*
X139072260Y-153293075D01*
X138883927Y-153453927D01*
X138723075Y-153642260D01*
X138593666Y-153853437D01*
X138591773Y-153858007D01*
X138591771Y-153858011D01*
X138587864Y-153867444D01*
X138498885Y-154082258D01*
X138485941Y-154136174D01*
X138442221Y-154318276D01*
X138442220Y-154318282D01*
X138441066Y-154323089D01*
X138421634Y-154570000D01*
X138441066Y-154816911D01*
X138442220Y-154821718D01*
X138442221Y-154821724D01*
X138468248Y-154930132D01*
X138498885Y-155057742D01*
X138500778Y-155062313D01*
X138500779Y-155062315D01*
X138585050Y-155265761D01*
X138592639Y-155336350D01*
X138560860Y-155399837D01*
X138499802Y-155436065D01*
X138468641Y-155439979D01*
X131531359Y-155439979D01*
X131463238Y-155419977D01*
X131416745Y-155366321D01*
X131406641Y-155296047D01*
X131414950Y-155265761D01*
X131499221Y-155062315D01*
X131499222Y-155062313D01*
X131501115Y-155057742D01*
X131531752Y-154930132D01*
X131557779Y-154821724D01*
X131557780Y-154821718D01*
X131558934Y-154816911D01*
X131578366Y-154570000D01*
X131558934Y-154323089D01*
X131557780Y-154318282D01*
X131557779Y-154318276D01*
X131514059Y-154136174D01*
X131501115Y-154082258D01*
X131412136Y-153867444D01*
X131408229Y-153858011D01*
X131408227Y-153858007D01*
X131406334Y-153853437D01*
X131276925Y-153642260D01*
X131116073Y-153453927D01*
X130927740Y-153293075D01*
X130716563Y-153163666D01*
X130711993Y-153161773D01*
X130711989Y-153161771D01*
X130527642Y-153085412D01*
X130472361Y-153040863D01*
X130449940Y-152973500D01*
X130461666Y-152915752D01*
X130470057Y-152897759D01*
X130520315Y-152746234D01*
X130523181Y-152732868D01*
X130532672Y-152640230D01*
X130533000Y-152633815D01*
X130533000Y-152622115D01*
X130528525Y-152606876D01*
X130527135Y-152605671D01*
X130519452Y-152604000D01*
X129409500Y-152604000D01*
X129341379Y-152583998D01*
X129294886Y-152530342D01*
X129283500Y-152478000D01*
X129283500Y-152222000D01*
X129303502Y-152153879D01*
X129357158Y-152107386D01*
X129409500Y-152096000D01*
X130514885Y-152096000D01*
X130530124Y-152091525D01*
X130531329Y-152090135D01*
X130533000Y-152082452D01*
X130533000Y-152066234D01*
X130532663Y-152059718D01*
X130522925Y-151965868D01*
X130520032Y-151952472D01*
X130469512Y-151801047D01*
X130463347Y-151787885D01*
X130375721Y-151646282D01*
X130377144Y-151645402D01*
X130353849Y-151587849D01*
X130367020Y-151518085D01*
X130376273Y-151503660D01*
X130376929Y-151503003D01*
X130403538Y-151459835D01*
X130464369Y-151361150D01*
X130464370Y-151361148D01*
X130468209Y-151354920D01*
X130522974Y-151189809D01*
X130533500Y-151087072D01*
X130533500Y-150512928D01*
X130522707Y-150408907D01*
X130467654Y-150243893D01*
X130376116Y-150095969D01*
X130377510Y-150095106D01*
X130354170Y-150037445D01*
X130367340Y-149967680D01*
X130376440Y-149953493D01*
X130376929Y-149953003D01*
X130449946Y-149834548D01*
X130464369Y-149811150D01*
X130464370Y-149811148D01*
X130468209Y-149804920D01*
X130522974Y-149639809D01*
X130524127Y-149628561D01*
X130533172Y-149540271D01*
X130533500Y-149537072D01*
X130533500Y-148962928D01*
X130522707Y-148858907D01*
X130467654Y-148693893D01*
X130376116Y-148545969D01*
X130370934Y-148540796D01*
X130258184Y-148428242D01*
X130258179Y-148428238D01*
X130253003Y-148423071D01*
X130211200Y-148397303D01*
X130163706Y-148344530D01*
X130154797Y-148319457D01*
X130146632Y-148285445D01*
X130104710Y-148110830D01*
X130062487Y-148008893D01*
X130054898Y-147938305D01*
X130086677Y-147874818D01*
X130147735Y-147838591D01*
X130169010Y-147835065D01*
X130193797Y-147833114D01*
X130246911Y-147828934D01*
X130251718Y-147827780D01*
X130251724Y-147827779D01*
X130402830Y-147791501D01*
X130487742Y-147771115D01*
X130492315Y-147769221D01*
X130711989Y-147678229D01*
X130711993Y-147678227D01*
X130716563Y-147676334D01*
X130927740Y-147546925D01*
X131116073Y-147386073D01*
X131276925Y-147197740D01*
X131406334Y-146986563D01*
X131417809Y-146958862D01*
X131499221Y-146762315D01*
X131499222Y-146762313D01*
X131501115Y-146757742D01*
X131533402Y-146623260D01*
X131557779Y-146521724D01*
X131557780Y-146521718D01*
X131558934Y-146516911D01*
X131578366Y-146270000D01*
X138421634Y-146270000D01*
X138441066Y-146516911D01*
X138442220Y-146521718D01*
X138442221Y-146521724D01*
X138466598Y-146623260D01*
X138498885Y-146757742D01*
X138500778Y-146762313D01*
X138500779Y-146762315D01*
X138582192Y-146958862D01*
X138593666Y-146986563D01*
X138723075Y-147197740D01*
X138883927Y-147386073D01*
X139072260Y-147546925D01*
X139283437Y-147676334D01*
X139288007Y-147678227D01*
X139288011Y-147678229D01*
X139507685Y-147769221D01*
X139512258Y-147771115D01*
X139597170Y-147791501D01*
X139748276Y-147827779D01*
X139748282Y-147827780D01*
X139753089Y-147828934D01*
X140000000Y-147848366D01*
X140246911Y-147828934D01*
X140251718Y-147827780D01*
X140251724Y-147827779D01*
X140402830Y-147791501D01*
X140487742Y-147771115D01*
X140492315Y-147769221D01*
X140711989Y-147678229D01*
X140711993Y-147678227D01*
X140716563Y-147676334D01*
X140927740Y-147546925D01*
X141116073Y-147386073D01*
X141276925Y-147197740D01*
X141406334Y-146986563D01*
X141417809Y-146958862D01*
X141499221Y-146762315D01*
X141499222Y-146762313D01*
X141501115Y-146757742D01*
X141533402Y-146623260D01*
X141557779Y-146521724D01*
X141557780Y-146521718D01*
X141558934Y-146516911D01*
X141578366Y-146270000D01*
X141558934Y-146023089D01*
X141557780Y-146018282D01*
X141557779Y-146018276D01*
X141502270Y-145787070D01*
X141501115Y-145782258D01*
X141406334Y-145553437D01*
X141276925Y-145342260D01*
X141116073Y-145153927D01*
X140927740Y-144993075D01*
X140716563Y-144863666D01*
X140648342Y-144835408D01*
X140593062Y-144790859D01*
X140570641Y-144723496D01*
X140588199Y-144654705D01*
X140640162Y-144606326D01*
X140696561Y-144592999D01*
X141009669Y-144592999D01*
X141016490Y-144592629D01*
X141067352Y-144587105D01*
X141082604Y-144583479D01*
X141203054Y-144538324D01*
X141218649Y-144529786D01*
X141320724Y-144453285D01*
X141333285Y-144440724D01*
X141409786Y-144338649D01*
X141418324Y-144323054D01*
X141463478Y-144202606D01*
X141467105Y-144187351D01*
X141472631Y-144136486D01*
X141473000Y-144129672D01*
X141473000Y-143442115D01*
X141468525Y-143426876D01*
X141467135Y-143425671D01*
X141459452Y-143424000D01*
X138545116Y-143424000D01*
X138529877Y-143428475D01*
X138528672Y-143429865D01*
X138527001Y-143437548D01*
X138527001Y-144129669D01*
X138527371Y-144136490D01*
X138532895Y-144187352D01*
X138536521Y-144202604D01*
X138581676Y-144323054D01*
X138590214Y-144338649D01*
X138666715Y-144440724D01*
X138679276Y-144453285D01*
X138781351Y-144529786D01*
X138796946Y-144538324D01*
X138917394Y-144583478D01*
X138932649Y-144587105D01*
X138983514Y-144592631D01*
X138990328Y-144593000D01*
X139303438Y-144593000D01*
X139371559Y-144613002D01*
X139418052Y-144666658D01*
X139428156Y-144736932D01*
X139398662Y-144801512D01*
X139351657Y-144835408D01*
X139323360Y-144847129D01*
X139288011Y-144861771D01*
X139288007Y-144861773D01*
X139283437Y-144863666D01*
X139072260Y-144993075D01*
X138883927Y-145153927D01*
X138723075Y-145342260D01*
X138593666Y-145553437D01*
X138498885Y-145782258D01*
X138497730Y-145787070D01*
X138442221Y-146018276D01*
X138442220Y-146018282D01*
X138441066Y-146023089D01*
X138421634Y-146270000D01*
X131578366Y-146270000D01*
X131558934Y-146023089D01*
X131557780Y-146018282D01*
X131557779Y-146018276D01*
X131502270Y-145787070D01*
X131501115Y-145782258D01*
X131406334Y-145553437D01*
X131276925Y-145342260D01*
X131116073Y-145153927D01*
X130927740Y-144993075D01*
X130716563Y-144863666D01*
X130648342Y-144835408D01*
X130593062Y-144790859D01*
X130570641Y-144723496D01*
X130588199Y-144654705D01*
X130640162Y-144606326D01*
X130696561Y-144592999D01*
X131009669Y-144592999D01*
X131016490Y-144592629D01*
X131067352Y-144587105D01*
X131082604Y-144583479D01*
X131203054Y-144538324D01*
X131218649Y-144529786D01*
X131320724Y-144453285D01*
X131333285Y-144440724D01*
X131409786Y-144338649D01*
X131418324Y-144323054D01*
X131463478Y-144202606D01*
X131467105Y-144187351D01*
X131472631Y-144136486D01*
X131473000Y-144129672D01*
X131473000Y-143442115D01*
X131468525Y-143426876D01*
X131467135Y-143425671D01*
X131459452Y-143424000D01*
X128545116Y-143424000D01*
X128529877Y-143428475D01*
X128528672Y-143429865D01*
X128527001Y-143437548D01*
X128527001Y-144129669D01*
X128527371Y-144136490D01*
X128532895Y-144187352D01*
X128536521Y-144202604D01*
X128581676Y-144323054D01*
X128590214Y-144338649D01*
X128666715Y-144440724D01*
X128679276Y-144453285D01*
X128781351Y-144529786D01*
X128796946Y-144538324D01*
X128917394Y-144583478D01*
X128932649Y-144587105D01*
X128983514Y-144592631D01*
X128990328Y-144593000D01*
X129303438Y-144593000D01*
X129371559Y-144613002D01*
X129418052Y-144666658D01*
X129428156Y-144736932D01*
X129398662Y-144801512D01*
X129351657Y-144835408D01*
X129323360Y-144847129D01*
X129288011Y-144861771D01*
X129288007Y-144861773D01*
X129283437Y-144863666D01*
X129072260Y-144993075D01*
X128883927Y-145153927D01*
X128723075Y-145342260D01*
X128593666Y-145553437D01*
X128498885Y-145782258D01*
X128497730Y-145787070D01*
X128442221Y-146018276D01*
X128442220Y-146018282D01*
X128441066Y-146023089D01*
X128421634Y-146270000D01*
X128441066Y-146516911D01*
X128442220Y-146521718D01*
X128442221Y-146521724D01*
X128466598Y-146623260D01*
X128498885Y-146757742D01*
X128500778Y-146762313D01*
X128500779Y-146762315D01*
X128552952Y-146888272D01*
X128560541Y-146958862D01*
X128528762Y-147022349D01*
X128467703Y-147058576D01*
X128396752Y-147056042D01*
X128383300Y-147050688D01*
X128312571Y-147017706D01*
X128256740Y-146991672D01*
X128237719Y-146980690D01*
X128117772Y-146896702D01*
X128100948Y-146882584D01*
X127997416Y-146779052D01*
X127983298Y-146762228D01*
X127899310Y-146642281D01*
X127888328Y-146623260D01*
X127826446Y-146490553D01*
X127818934Y-146469915D01*
X127781036Y-146328480D01*
X127777222Y-146306849D01*
X127767203Y-146192326D01*
X127767756Y-146171611D01*
X127767119Y-146171563D01*
X127767432Y-146167445D01*
X127768013Y-146163364D01*
X127768153Y-146150000D01*
X127764413Y-146119093D01*
X127763500Y-146103958D01*
X127763500Y-142897885D01*
X128527000Y-142897885D01*
X128531475Y-142913124D01*
X128532865Y-142914329D01*
X128540548Y-142916000D01*
X129727885Y-142916000D01*
X129743124Y-142911525D01*
X129744329Y-142910135D01*
X129746000Y-142902452D01*
X129746000Y-142897885D01*
X130254000Y-142897885D01*
X130258475Y-142913124D01*
X130259865Y-142914329D01*
X130267548Y-142916000D01*
X131454884Y-142916000D01*
X131470123Y-142911525D01*
X131471328Y-142910135D01*
X131472999Y-142902452D01*
X131472999Y-142897885D01*
X138527000Y-142897885D01*
X138531475Y-142913124D01*
X138532865Y-142914329D01*
X138540548Y-142916000D01*
X139727885Y-142916000D01*
X139743124Y-142911525D01*
X139744329Y-142910135D01*
X139746000Y-142902452D01*
X139746000Y-142897885D01*
X140254000Y-142897885D01*
X140258475Y-142913124D01*
X140259865Y-142914329D01*
X140267548Y-142916000D01*
X141454884Y-142916000D01*
X141470123Y-142911525D01*
X141471328Y-142910135D01*
X141472999Y-142902452D01*
X141472999Y-142210331D01*
X141472629Y-142203510D01*
X141467105Y-142152648D01*
X141463479Y-142137396D01*
X141418324Y-142016946D01*
X141409786Y-142001351D01*
X141333285Y-141899276D01*
X141320724Y-141886715D01*
X141218649Y-141810214D01*
X141203054Y-141801676D01*
X141082606Y-141756522D01*
X141067351Y-141752895D01*
X141016486Y-141747369D01*
X141009672Y-141747000D01*
X140272115Y-141747000D01*
X140256876Y-141751475D01*
X140255671Y-141752865D01*
X140254000Y-141760548D01*
X140254000Y-142897885D01*
X139746000Y-142897885D01*
X139746000Y-141765116D01*
X139741525Y-141749877D01*
X139740135Y-141748672D01*
X139732452Y-141747001D01*
X138990331Y-141747001D01*
X138983510Y-141747371D01*
X138932648Y-141752895D01*
X138917396Y-141756521D01*
X138796946Y-141801676D01*
X138781351Y-141810214D01*
X138679276Y-141886715D01*
X138666715Y-141899276D01*
X138590214Y-142001351D01*
X138581676Y-142016946D01*
X138536522Y-142137394D01*
X138532895Y-142152649D01*
X138527369Y-142203514D01*
X138527000Y-142210328D01*
X138527000Y-142897885D01*
X131472999Y-142897885D01*
X131472999Y-142210331D01*
X131472629Y-142203510D01*
X131467105Y-142152648D01*
X131463479Y-142137396D01*
X131418324Y-142016946D01*
X131409786Y-142001351D01*
X131333285Y-141899276D01*
X131320724Y-141886715D01*
X131218649Y-141810214D01*
X131203054Y-141801676D01*
X131082606Y-141756522D01*
X131067351Y-141752895D01*
X131016486Y-141747369D01*
X131009672Y-141747000D01*
X130272115Y-141747000D01*
X130256876Y-141751475D01*
X130255671Y-141752865D01*
X130254000Y-141760548D01*
X130254000Y-142897885D01*
X129746000Y-142897885D01*
X129746000Y-141765116D01*
X129741525Y-141749877D01*
X129740135Y-141748672D01*
X129732452Y-141747001D01*
X128990331Y-141747001D01*
X128983510Y-141747371D01*
X128932648Y-141752895D01*
X128917396Y-141756521D01*
X128796946Y-141801676D01*
X128781351Y-141810214D01*
X128679276Y-141886715D01*
X128666715Y-141899276D01*
X128590214Y-142001351D01*
X128581676Y-142016946D01*
X128536522Y-142137394D01*
X128532895Y-142152649D01*
X128527369Y-142203514D01*
X128527000Y-142210328D01*
X128527000Y-142897885D01*
X127763500Y-142897885D01*
X127763500Y-139877127D01*
X127783502Y-139809006D01*
X127837158Y-139762513D01*
X127907432Y-139752409D01*
X127953069Y-139768339D01*
X128049322Y-139824584D01*
X128265694Y-139907209D01*
X128270760Y-139908240D01*
X128270761Y-139908240D01*
X128323846Y-139919040D01*
X128492656Y-139953385D01*
X128623324Y-139958176D01*
X128718949Y-139961683D01*
X128718953Y-139961683D01*
X128724113Y-139961872D01*
X128729233Y-139961216D01*
X128729235Y-139961216D01*
X128828668Y-139948478D01*
X128953847Y-139932442D01*
X128958795Y-139930957D01*
X128958802Y-139930956D01*
X129170747Y-139867369D01*
X129175690Y-139865886D01*
X129180324Y-139863616D01*
X129379049Y-139766262D01*
X129379052Y-139766260D01*
X129383684Y-139763991D01*
X129572243Y-139629494D01*
X129575898Y-139625852D01*
X129575906Y-139625845D01*
X129617697Y-139584199D01*
X129680068Y-139550282D01*
X129750875Y-139555470D01*
X129807637Y-139598116D01*
X129824619Y-139629218D01*
X129846677Y-139688056D01*
X129855214Y-139703649D01*
X129931715Y-139805724D01*
X129944276Y-139818285D01*
X130046351Y-139894786D01*
X130061946Y-139903324D01*
X130182394Y-139948478D01*
X130197649Y-139952105D01*
X130248514Y-139957631D01*
X130255328Y-139958000D01*
X130927885Y-139958000D01*
X130943124Y-139953525D01*
X130944329Y-139952135D01*
X130946000Y-139944452D01*
X130946000Y-139939884D01*
X131454000Y-139939884D01*
X131458475Y-139955123D01*
X131459865Y-139956328D01*
X131467548Y-139957999D01*
X132144669Y-139957999D01*
X132151490Y-139957629D01*
X132202352Y-139952105D01*
X132217604Y-139948479D01*
X132338054Y-139903324D01*
X132353649Y-139894786D01*
X132417283Y-139847095D01*
X133067001Y-139847095D01*
X133067338Y-139853614D01*
X133077257Y-139949206D01*
X133080149Y-139962600D01*
X133131588Y-140116784D01*
X133137761Y-140129962D01*
X133223063Y-140267807D01*
X133232099Y-140279208D01*
X133346829Y-140393739D01*
X133358240Y-140402751D01*
X133496243Y-140487816D01*
X133509424Y-140493963D01*
X133663710Y-140545138D01*
X133677086Y-140548005D01*
X133771438Y-140557672D01*
X133777854Y-140558000D01*
X134027885Y-140558000D01*
X134043124Y-140553525D01*
X134044329Y-140552135D01*
X134046000Y-140544452D01*
X134046000Y-140539884D01*
X134554000Y-140539884D01*
X134558475Y-140555123D01*
X134559865Y-140556328D01*
X134567548Y-140557999D01*
X134822095Y-140557999D01*
X134828614Y-140557662D01*
X134924206Y-140547743D01*
X134937600Y-140544851D01*
X135091784Y-140493412D01*
X135104962Y-140487239D01*
X135242807Y-140401937D01*
X135254208Y-140392901D01*
X135368739Y-140278171D01*
X135377751Y-140266760D01*
X135462816Y-140128757D01*
X135468963Y-140115576D01*
X135520138Y-139961290D01*
X135523005Y-139947914D01*
X135532672Y-139853562D01*
X135533000Y-139847146D01*
X135533000Y-139734615D01*
X135528525Y-139719376D01*
X135527135Y-139718171D01*
X135519452Y-139716500D01*
X134572115Y-139716500D01*
X134556876Y-139720975D01*
X134555671Y-139722365D01*
X134554000Y-139730048D01*
X134554000Y-140539884D01*
X134046000Y-140539884D01*
X134046000Y-139734615D01*
X134041525Y-139719376D01*
X134040135Y-139718171D01*
X134032452Y-139716500D01*
X133085116Y-139716500D01*
X133069877Y-139720975D01*
X133068672Y-139722365D01*
X133067001Y-139730048D01*
X133067001Y-139847095D01*
X132417283Y-139847095D01*
X132455724Y-139818285D01*
X132468285Y-139805724D01*
X132544786Y-139703649D01*
X132553324Y-139688054D01*
X132598478Y-139567606D01*
X132602105Y-139552351D01*
X132607631Y-139501486D01*
X132608000Y-139494672D01*
X132608000Y-138822115D01*
X132603525Y-138806876D01*
X132602135Y-138805671D01*
X132594452Y-138804000D01*
X131472115Y-138804000D01*
X131456876Y-138808475D01*
X131455671Y-138809865D01*
X131454000Y-138817548D01*
X131454000Y-139939884D01*
X130946000Y-139939884D01*
X130946000Y-138277885D01*
X131454000Y-138277885D01*
X131458475Y-138293124D01*
X131459865Y-138294329D01*
X131467548Y-138296000D01*
X132589884Y-138296000D01*
X132605123Y-138291525D01*
X132606328Y-138290135D01*
X132607999Y-138282452D01*
X132607999Y-137775400D01*
X133066500Y-137775400D01*
X133077474Y-137881166D01*
X133133450Y-138048946D01*
X133226522Y-138199348D01*
X133351697Y-138324305D01*
X133356235Y-138327102D01*
X133396824Y-138384353D01*
X133400054Y-138455276D01*
X133364428Y-138516687D01*
X133355932Y-138524062D01*
X133345793Y-138532098D01*
X133231261Y-138646829D01*
X133222249Y-138658240D01*
X133137184Y-138796243D01*
X133131037Y-138809424D01*
X133079862Y-138963710D01*
X133076995Y-138977086D01*
X133067328Y-139071438D01*
X133067000Y-139077855D01*
X133067000Y-139190385D01*
X133071475Y-139205624D01*
X133072865Y-139206829D01*
X133080548Y-139208500D01*
X135514884Y-139208500D01*
X135530123Y-139204025D01*
X135531328Y-139202635D01*
X135532999Y-139194952D01*
X135532999Y-139077905D01*
X135532662Y-139071386D01*
X135522743Y-138975794D01*
X135519851Y-138962400D01*
X135468412Y-138808216D01*
X135462239Y-138795038D01*
X135376937Y-138657193D01*
X135367901Y-138645792D01*
X135253172Y-138531262D01*
X135244238Y-138524206D01*
X135203177Y-138466288D01*
X135199947Y-138395365D01*
X135235574Y-138333954D01*
X135243407Y-138327154D01*
X135249348Y-138323478D01*
X135339687Y-138232982D01*
X135401968Y-138198903D01*
X135428859Y-138196000D01*
X137374324Y-138196000D01*
X137391860Y-138197226D01*
X137413361Y-138200248D01*
X137413364Y-138200248D01*
X137417283Y-138200799D01*
X137428447Y-138200955D01*
X137436039Y-138201061D01*
X137436043Y-138201061D01*
X137440000Y-138201116D01*
X137443933Y-138200675D01*
X137443949Y-138200674D01*
X137452103Y-138199759D01*
X137458541Y-138199203D01*
X137511499Y-138196000D01*
X137721914Y-138183273D01*
X137721919Y-138183272D01*
X137725711Y-138183043D01*
X137873749Y-138155914D01*
X138003504Y-138132136D01*
X138003511Y-138132134D01*
X138007256Y-138131448D01*
X138280529Y-138046292D01*
X138541545Y-137928819D01*
X138609557Y-137887704D01*
X138783233Y-137782713D01*
X138783236Y-137782711D01*
X138786498Y-137780739D01*
X138797482Y-137772134D01*
X138867100Y-137717592D01*
X139011816Y-137604214D01*
X139214214Y-137401816D01*
X139327831Y-137256794D01*
X139385587Y-137215506D01*
X139427016Y-137208500D01*
X141635610Y-137208500D01*
X141770255Y-137193397D01*
X141798498Y-137183562D01*
X141890503Y-137151522D01*
X141941552Y-137133745D01*
X141947529Y-137130010D01*
X141953879Y-137126968D01*
X141953952Y-137127121D01*
X141977985Y-137116245D01*
X141984122Y-137114404D01*
X142034884Y-137099174D01*
X142039534Y-137096896D01*
X142039539Y-137096894D01*
X142230846Y-137003173D01*
X142235494Y-137000896D01*
X142417360Y-136871173D01*
X142575596Y-136713489D01*
X142705953Y-136532077D01*
X142715223Y-136513322D01*
X142802636Y-136336453D01*
X142802637Y-136336451D01*
X142804930Y-136331811D01*
X142851832Y-136177440D01*
X142868365Y-136123023D01*
X142868365Y-136123021D01*
X142869870Y-136118069D01*
X142899029Y-135896590D01*
X142899111Y-135893240D01*
X142900574Y-135833365D01*
X142900574Y-135833361D01*
X142900656Y-135830000D01*
X142882352Y-135607361D01*
X142827931Y-135390702D01*
X142738854Y-135185840D01*
X142617514Y-134998277D01*
X142467170Y-134833051D01*
X142463119Y-134829852D01*
X142463115Y-134829848D01*
X142295914Y-134697800D01*
X142295910Y-134697798D01*
X142291859Y-134694598D01*
X142250069Y-134671529D01*
X142200098Y-134621097D01*
X142185326Y-134551654D01*
X142210442Y-134485248D01*
X142237793Y-134458642D01*
X142286747Y-134423723D01*
X142295148Y-134413023D01*
X142288160Y-134399870D01*
X141550312Y-133662022D01*
X141536368Y-133654408D01*
X141534535Y-133654539D01*
X141527920Y-133658790D01*
X140784237Y-134402473D01*
X140777477Y-134414853D01*
X140782758Y-134421907D01*
X140829469Y-134449203D01*
X140878193Y-134500841D01*
X140891264Y-134570624D01*
X140864533Y-134636396D01*
X140824084Y-134669752D01*
X140811107Y-134676507D01*
X140806974Y-134679610D01*
X140806971Y-134679612D01*
X140685295Y-134770969D01*
X140632465Y-134810635D01*
X140533831Y-134913850D01*
X140498527Y-134950793D01*
X140437003Y-134986223D01*
X140366090Y-134982766D01*
X140308304Y-134941520D01*
X140293333Y-134917194D01*
X140291365Y-134912994D01*
X140289050Y-134906054D01*
X140195978Y-134755652D01*
X140070803Y-134630695D01*
X139974825Y-134571533D01*
X139926468Y-134541725D01*
X139926466Y-134541724D01*
X139920238Y-134537885D01*
X139864697Y-134519463D01*
X139845140Y-134512976D01*
X139786780Y-134472545D01*
X139776229Y-134447146D01*
X139773924Y-134448370D01*
X139748160Y-134399870D01*
X139010312Y-133662022D01*
X138996368Y-133654408D01*
X138994535Y-133654539D01*
X138987920Y-133658790D01*
X138244237Y-134402473D01*
X138221485Y-134444139D01*
X138219277Y-134454287D01*
X138169074Y-134504488D01*
X138148567Y-134513424D01*
X138073554Y-134538450D01*
X137923152Y-134631522D01*
X137917979Y-134636704D01*
X137861495Y-134693287D01*
X137798195Y-134756697D01*
X137794355Y-134762927D01*
X137794354Y-134762928D01*
X137709966Y-134899831D01*
X137705385Y-134907262D01*
X137649703Y-135075139D01*
X137639000Y-135179600D01*
X137639000Y-136445201D01*
X137618998Y-136513322D01*
X137565342Y-136559815D01*
X137525352Y-136570594D01*
X137482880Y-136574777D01*
X137465397Y-136574536D01*
X137465391Y-136574945D01*
X137458354Y-136574847D01*
X137451360Y-136573963D01*
X137406118Y-136578399D01*
X137393823Y-136579000D01*
X135428959Y-136579000D01*
X135360838Y-136558998D01*
X135339941Y-136542173D01*
X135253484Y-136455866D01*
X135253479Y-136455862D01*
X135248303Y-136450695D01*
X135242072Y-136446854D01*
X135103968Y-136361725D01*
X135103966Y-136361724D01*
X135097738Y-136357885D01*
X135004191Y-136326857D01*
X134936389Y-136304368D01*
X134936387Y-136304368D01*
X134929861Y-136302203D01*
X134923025Y-136301503D01*
X134923022Y-136301502D01*
X134876679Y-136296754D01*
X134825400Y-136291500D01*
X133774600Y-136291500D01*
X133771354Y-136291837D01*
X133771350Y-136291837D01*
X133675692Y-136301762D01*
X133675688Y-136301763D01*
X133668834Y-136302474D01*
X133662298Y-136304655D01*
X133662296Y-136304655D01*
X133566987Y-136336453D01*
X133501054Y-136358450D01*
X133350652Y-136451522D01*
X133225695Y-136576697D01*
X133132885Y-136727262D01*
X133077203Y-136895139D01*
X133066500Y-136999600D01*
X133066500Y-137775400D01*
X132607999Y-137775400D01*
X132607999Y-137605331D01*
X132607629Y-137598510D01*
X132602105Y-137547648D01*
X132598479Y-137532396D01*
X132553324Y-137411946D01*
X132544786Y-137396351D01*
X132468285Y-137294276D01*
X132455724Y-137281715D01*
X132353649Y-137205214D01*
X132338054Y-137196676D01*
X132217606Y-137151522D01*
X132202351Y-137147895D01*
X132151486Y-137142369D01*
X132144672Y-137142000D01*
X131472115Y-137142000D01*
X131456876Y-137146475D01*
X131455671Y-137147865D01*
X131454000Y-137155548D01*
X131454000Y-138277885D01*
X130946000Y-138277885D01*
X130946000Y-137160116D01*
X130941525Y-137144877D01*
X130940135Y-137143672D01*
X130932452Y-137142001D01*
X130547000Y-137142001D01*
X130478879Y-137121999D01*
X130432386Y-137068343D01*
X130421000Y-137016001D01*
X130421000Y-136422699D01*
X130441002Y-136354578D01*
X130480699Y-136315554D01*
X130504031Y-136301116D01*
X130513630Y-136291500D01*
X130610747Y-136194214D01*
X130673030Y-136160135D01*
X130743850Y-136165138D01*
X130788937Y-136194059D01*
X130891812Y-136296754D01*
X130891817Y-136296758D01*
X130896997Y-136301929D01*
X130903227Y-136305769D01*
X130903228Y-136305770D01*
X131004729Y-136368336D01*
X131045080Y-136393209D01*
X131210191Y-136447974D01*
X131217027Y-136448674D01*
X131217030Y-136448675D01*
X131268526Y-136453951D01*
X131312928Y-136458500D01*
X131912072Y-136458500D01*
X131915318Y-136458163D01*
X131915322Y-136458163D01*
X132009235Y-136448419D01*
X132009239Y-136448418D01*
X132016093Y-136447707D01*
X132022629Y-136445526D01*
X132022631Y-136445526D01*
X132155395Y-136401232D01*
X132181107Y-136392654D01*
X132329031Y-136301116D01*
X132419343Y-136210646D01*
X132477901Y-136177440D01*
X132546986Y-136160135D01*
X132653990Y-136133332D01*
X132656898Y-136132292D01*
X132656903Y-136132290D01*
X132922273Y-136037338D01*
X132985500Y-136014715D01*
X133242339Y-135893240D01*
X133301006Y-135865493D01*
X133301010Y-135865491D01*
X133303788Y-135864177D01*
X133323289Y-135852488D01*
X133603137Y-135684754D01*
X133603146Y-135684748D01*
X133605787Y-135683165D01*
X133888590Y-135473424D01*
X134149473Y-135236973D01*
X134385924Y-134976090D01*
X134432085Y-134913850D01*
X134593822Y-134695772D01*
X134595665Y-134693287D01*
X134597248Y-134690646D01*
X134597254Y-134690637D01*
X134775094Y-134393929D01*
X134776677Y-134391288D01*
X134841285Y-134254686D01*
X134925895Y-134075791D01*
X134925895Y-134075790D01*
X134927215Y-134073000D01*
X135045832Y-133741490D01*
X135131383Y-133399949D01*
X135151866Y-133261863D01*
X137635550Y-133261863D01*
X137647809Y-133474477D01*
X137649245Y-133484697D01*
X137696065Y-133692446D01*
X137699145Y-133702275D01*
X137779270Y-133899603D01*
X137783913Y-133908794D01*
X137863960Y-134039420D01*
X137874416Y-134048880D01*
X137883194Y-134045096D01*
X138625478Y-133302812D01*
X138631856Y-133291132D01*
X139361908Y-133291132D01*
X139362039Y-133292965D01*
X139366290Y-133299580D01*
X140107974Y-134041264D01*
X140119984Y-134047823D01*
X140131723Y-134038855D01*
X140165522Y-133991819D01*
X140166649Y-133992629D01*
X140214159Y-133948881D01*
X140284096Y-133936661D01*
X140349538Y-133964191D01*
X140377370Y-133996029D01*
X140403959Y-134039419D01*
X140414416Y-134048880D01*
X140423194Y-134045096D01*
X141165478Y-133302812D01*
X141171856Y-133291132D01*
X141901908Y-133291132D01*
X141902039Y-133292965D01*
X141906290Y-133299580D01*
X142647974Y-134041264D01*
X142659984Y-134047823D01*
X142671723Y-134038855D01*
X142702504Y-133996019D01*
X142707815Y-133987180D01*
X142802170Y-133796267D01*
X142805969Y-133786672D01*
X142867876Y-133582915D01*
X142870055Y-133572834D01*
X142898090Y-133359887D01*
X142898609Y-133353212D01*
X142900072Y-133293364D01*
X142899878Y-133286646D01*
X142882281Y-133072604D01*
X142880596Y-133062424D01*
X142828714Y-132855875D01*
X142825394Y-132846124D01*
X142740472Y-132650814D01*
X142735605Y-132641739D01*
X142670563Y-132541197D01*
X142659877Y-132531995D01*
X142650312Y-132536398D01*
X141909522Y-133277188D01*
X141901908Y-133291132D01*
X141171856Y-133291132D01*
X141173092Y-133288868D01*
X141172961Y-133287035D01*
X141168710Y-133280420D01*
X140427349Y-132539059D01*
X140415813Y-132532759D01*
X140403528Y-132542384D01*
X140370692Y-132590520D01*
X140315781Y-132635523D01*
X140245256Y-132643694D01*
X140181509Y-132612440D01*
X140160811Y-132587955D01*
X140130562Y-132541197D01*
X140119877Y-132531995D01*
X140110312Y-132536398D01*
X139369522Y-133277188D01*
X139361908Y-133291132D01*
X138631856Y-133291132D01*
X138633092Y-133288868D01*
X138632961Y-133287035D01*
X138628710Y-133280420D01*
X137887349Y-132539059D01*
X137875813Y-132532759D01*
X137863531Y-132542382D01*
X137815589Y-132612662D01*
X137810504Y-132621613D01*
X137720838Y-132814783D01*
X137717275Y-132824470D01*
X137660364Y-133029681D01*
X137658433Y-133039800D01*
X137635802Y-133251574D01*
X137635550Y-133261863D01*
X135151866Y-133261863D01*
X135183046Y-133051668D01*
X135187713Y-132956680D01*
X135198070Y-132745847D01*
X135199144Y-132734497D01*
X135200247Y-132726648D01*
X135200248Y-132726641D01*
X135200799Y-132722717D01*
X135201116Y-132700000D01*
X135196785Y-132661388D01*
X135196000Y-132647343D01*
X135196000Y-131874853D01*
X138237477Y-131874853D01*
X138242758Y-131881907D01*
X138289979Y-131909501D01*
X138338703Y-131961139D01*
X138351774Y-132030922D01*
X138325043Y-132096694D01*
X138284587Y-132130053D01*
X138275966Y-132134541D01*
X138267234Y-132140039D01*
X138247177Y-132155099D01*
X138238723Y-132166427D01*
X138245468Y-132178758D01*
X138984688Y-132917978D01*
X138998632Y-132925592D01*
X139000465Y-132925461D01*
X139007080Y-132921210D01*
X139750889Y-132177401D01*
X139757910Y-132164544D01*
X139751111Y-132155213D01*
X139747059Y-132152521D01*
X139709616Y-132131852D01*
X139659645Y-132081420D01*
X139644873Y-132011977D01*
X139669989Y-131945572D01*
X139697340Y-131918965D01*
X139746747Y-131883723D01*
X139753711Y-131874853D01*
X140777477Y-131874853D01*
X140782758Y-131881907D01*
X140829979Y-131909501D01*
X140878703Y-131961139D01*
X140891774Y-132030922D01*
X140865043Y-132096694D01*
X140824587Y-132130053D01*
X140815966Y-132134541D01*
X140807234Y-132140039D01*
X140787177Y-132155099D01*
X140778723Y-132166427D01*
X140785468Y-132178758D01*
X141524688Y-132917978D01*
X141538632Y-132925592D01*
X141540465Y-132925461D01*
X141547080Y-132921210D01*
X142290889Y-132177401D01*
X142297910Y-132164544D01*
X142291111Y-132155213D01*
X142287059Y-132152521D01*
X142249616Y-132131852D01*
X142199645Y-132081420D01*
X142184873Y-132011977D01*
X142209989Y-131945572D01*
X142237340Y-131918965D01*
X142286747Y-131883723D01*
X142295148Y-131873023D01*
X142288160Y-131859870D01*
X141550312Y-131122022D01*
X141536368Y-131114408D01*
X141534535Y-131114539D01*
X141527920Y-131118790D01*
X140784237Y-131862473D01*
X140777477Y-131874853D01*
X139753711Y-131874853D01*
X139755148Y-131873023D01*
X139748160Y-131859870D01*
X139010312Y-131122022D01*
X138996368Y-131114408D01*
X138994535Y-131114539D01*
X138987920Y-131118790D01*
X138244237Y-131862473D01*
X138237477Y-131874853D01*
X135196000Y-131874853D01*
X135196000Y-130811244D01*
X135216002Y-130743123D01*
X135232827Y-130722227D01*
X135233190Y-130721863D01*
X137635550Y-130721863D01*
X137647809Y-130934477D01*
X137649245Y-130944697D01*
X137696065Y-131152446D01*
X137699145Y-131162275D01*
X137779270Y-131359603D01*
X137783913Y-131368794D01*
X137863960Y-131499420D01*
X137874416Y-131508880D01*
X137883194Y-131505096D01*
X138625478Y-130762812D01*
X138631856Y-130751132D01*
X139361908Y-130751132D01*
X139362039Y-130752965D01*
X139366290Y-130759580D01*
X140107974Y-131501264D01*
X140119984Y-131507823D01*
X140131723Y-131498855D01*
X140165522Y-131451819D01*
X140166649Y-131452629D01*
X140214159Y-131408881D01*
X140284096Y-131396661D01*
X140349538Y-131424191D01*
X140377370Y-131456029D01*
X140403959Y-131499419D01*
X140414416Y-131508880D01*
X140423194Y-131505096D01*
X141165478Y-130762812D01*
X141171856Y-130751132D01*
X141901908Y-130751132D01*
X141902039Y-130752965D01*
X141906290Y-130759580D01*
X142647974Y-131501264D01*
X142659984Y-131507823D01*
X142671723Y-131498855D01*
X142702504Y-131456019D01*
X142707815Y-131447180D01*
X142802170Y-131256267D01*
X142805969Y-131246672D01*
X142867876Y-131042915D01*
X142870055Y-131032834D01*
X142898090Y-130819887D01*
X142898609Y-130813212D01*
X142900072Y-130753364D01*
X142899878Y-130746646D01*
X142882281Y-130532604D01*
X142880596Y-130522424D01*
X142828714Y-130315875D01*
X142825394Y-130306124D01*
X142740472Y-130110814D01*
X142735605Y-130101739D01*
X142670563Y-130001197D01*
X142659877Y-129991995D01*
X142650312Y-129996398D01*
X141909522Y-130737188D01*
X141901908Y-130751132D01*
X141171856Y-130751132D01*
X141173092Y-130748868D01*
X141172961Y-130747035D01*
X141168710Y-130740420D01*
X140427349Y-129999059D01*
X140415813Y-129992759D01*
X140403528Y-130002384D01*
X140370692Y-130050520D01*
X140315781Y-130095523D01*
X140245256Y-130103694D01*
X140181509Y-130072440D01*
X140160811Y-130047955D01*
X140130562Y-130001197D01*
X140119877Y-129991995D01*
X140110312Y-129996398D01*
X139369522Y-130737188D01*
X139361908Y-130751132D01*
X138631856Y-130751132D01*
X138633092Y-130748868D01*
X138632961Y-130747035D01*
X138628710Y-130740420D01*
X137887349Y-129999059D01*
X137875813Y-129992759D01*
X137863531Y-130002382D01*
X137815589Y-130072662D01*
X137810504Y-130081613D01*
X137720838Y-130274783D01*
X137717275Y-130284470D01*
X137660364Y-130489681D01*
X137658433Y-130499800D01*
X137635802Y-130711574D01*
X137635550Y-130721863D01*
X135233190Y-130721863D01*
X135296754Y-130658188D01*
X135296758Y-130658183D01*
X135301929Y-130653003D01*
X135329943Y-130607556D01*
X135389369Y-130511150D01*
X135389370Y-130511148D01*
X135393209Y-130504920D01*
X135447974Y-130339809D01*
X135458500Y-130237072D01*
X135458500Y-129662928D01*
X135455992Y-129638758D01*
X135448419Y-129565765D01*
X135448418Y-129565761D01*
X135447707Y-129558907D01*
X135425026Y-129490922D01*
X135394972Y-129400841D01*
X135392654Y-129393893D01*
X135356119Y-129334853D01*
X138237477Y-129334853D01*
X138242758Y-129341907D01*
X138289979Y-129369501D01*
X138338703Y-129421139D01*
X138351774Y-129490922D01*
X138325043Y-129556694D01*
X138284587Y-129590053D01*
X138275966Y-129594541D01*
X138267234Y-129600039D01*
X138247177Y-129615099D01*
X138238723Y-129626427D01*
X138245468Y-129638758D01*
X138984688Y-130377978D01*
X138998632Y-130385592D01*
X139000465Y-130385461D01*
X139007080Y-130381210D01*
X139750889Y-129637401D01*
X139757910Y-129624544D01*
X139751111Y-129615213D01*
X139747059Y-129612521D01*
X139709616Y-129591852D01*
X139659645Y-129541420D01*
X139644873Y-129471977D01*
X139669989Y-129405572D01*
X139697340Y-129378965D01*
X139746747Y-129343723D01*
X139753711Y-129334853D01*
X140777477Y-129334853D01*
X140782758Y-129341907D01*
X140829979Y-129369501D01*
X140878703Y-129421139D01*
X140891774Y-129490922D01*
X140865043Y-129556694D01*
X140824587Y-129590053D01*
X140815966Y-129594541D01*
X140807234Y-129600039D01*
X140787177Y-129615099D01*
X140778723Y-129626427D01*
X140785468Y-129638758D01*
X141524688Y-130377978D01*
X141538632Y-130385592D01*
X141540465Y-130385461D01*
X141547080Y-130381210D01*
X142290889Y-129637401D01*
X142297910Y-129624544D01*
X142291111Y-129615213D01*
X142287059Y-129612521D01*
X142249616Y-129591852D01*
X142199645Y-129541420D01*
X142184873Y-129471977D01*
X142209989Y-129405572D01*
X142237340Y-129378965D01*
X142286747Y-129343723D01*
X142295148Y-129333023D01*
X142288160Y-129319870D01*
X141550312Y-128582022D01*
X141536368Y-128574408D01*
X141534535Y-128574539D01*
X141527920Y-128578790D01*
X140784237Y-129322473D01*
X140777477Y-129334853D01*
X139753711Y-129334853D01*
X139755148Y-129333023D01*
X139748160Y-129319870D01*
X139010312Y-128582022D01*
X138996368Y-128574408D01*
X138994535Y-128574539D01*
X138987920Y-128578790D01*
X138244237Y-129322473D01*
X138237477Y-129334853D01*
X135356119Y-129334853D01*
X135307831Y-129256820D01*
X135304969Y-129252195D01*
X135304968Y-129252194D01*
X135301116Y-129245969D01*
X135232981Y-129177953D01*
X135198903Y-129115673D01*
X135196000Y-129088782D01*
X135196000Y-128799463D01*
X135197226Y-128781928D01*
X135200247Y-128760429D01*
X135200799Y-128756504D01*
X135201116Y-128733787D01*
X135198203Y-128707819D01*
X135197615Y-128700840D01*
X135185809Y-128490631D01*
X135185611Y-128487102D01*
X135144224Y-128243518D01*
X135137328Y-128219580D01*
X135126462Y-128181863D01*
X137635550Y-128181863D01*
X137647809Y-128394477D01*
X137649245Y-128404697D01*
X137696065Y-128612446D01*
X137699145Y-128622275D01*
X137779270Y-128819603D01*
X137783913Y-128828794D01*
X137863960Y-128959420D01*
X137874416Y-128968880D01*
X137883194Y-128965096D01*
X138625478Y-128222812D01*
X138631856Y-128211132D01*
X139361908Y-128211132D01*
X139362039Y-128212965D01*
X139366290Y-128219580D01*
X140107974Y-128961264D01*
X140119984Y-128967823D01*
X140131723Y-128958855D01*
X140165522Y-128911819D01*
X140166649Y-128912629D01*
X140214159Y-128868881D01*
X140284096Y-128856661D01*
X140349538Y-128884191D01*
X140377370Y-128916029D01*
X140403959Y-128959419D01*
X140414416Y-128968880D01*
X140423194Y-128965096D01*
X141165478Y-128222812D01*
X141171856Y-128211132D01*
X141901908Y-128211132D01*
X141902039Y-128212965D01*
X141906290Y-128219580D01*
X142647974Y-128961264D01*
X142659984Y-128967823D01*
X142671723Y-128958855D01*
X142702504Y-128916019D01*
X142707815Y-128907180D01*
X142802170Y-128716267D01*
X142805969Y-128706672D01*
X142867876Y-128502915D01*
X142870055Y-128492834D01*
X142898090Y-128279887D01*
X142898609Y-128273212D01*
X142900072Y-128213364D01*
X142899878Y-128206646D01*
X142882281Y-127992604D01*
X142880596Y-127982424D01*
X142828714Y-127775875D01*
X142825394Y-127766124D01*
X142740472Y-127570814D01*
X142735605Y-127561739D01*
X142670563Y-127461197D01*
X142659877Y-127451995D01*
X142650312Y-127456398D01*
X141909522Y-128197188D01*
X141901908Y-128211132D01*
X141171856Y-128211132D01*
X141173092Y-128208868D01*
X141172961Y-128207035D01*
X141168710Y-128200420D01*
X140427349Y-127459059D01*
X140415813Y-127452759D01*
X140403528Y-127462384D01*
X140370692Y-127510520D01*
X140315781Y-127555523D01*
X140245256Y-127563694D01*
X140181509Y-127532440D01*
X140160811Y-127507955D01*
X140130562Y-127461197D01*
X140119877Y-127451995D01*
X140110312Y-127456398D01*
X139369522Y-128197188D01*
X139361908Y-128211132D01*
X138631856Y-128211132D01*
X138633092Y-128208868D01*
X138632961Y-128207035D01*
X138628710Y-128200420D01*
X137887349Y-127459059D01*
X137875813Y-127452759D01*
X137863531Y-127462382D01*
X137815589Y-127532662D01*
X137810504Y-127541613D01*
X137720838Y-127734783D01*
X137717275Y-127744470D01*
X137660364Y-127949681D01*
X137658433Y-127959800D01*
X137635802Y-128171574D01*
X137635550Y-128181863D01*
X135126462Y-128181863D01*
X135093425Y-128067195D01*
X135088500Y-128032313D01*
X135088500Y-126982183D01*
X135108502Y-126914062D01*
X135118682Y-126900361D01*
X135154476Y-126858452D01*
X135168451Y-126844477D01*
X135305090Y-126727776D01*
X135321086Y-126716154D01*
X135474297Y-126622266D01*
X135491914Y-126613290D01*
X135627479Y-126557137D01*
X135657927Y-126544526D01*
X135676722Y-126538418D01*
X135851452Y-126496469D01*
X135870979Y-126493376D01*
X136015566Y-126481997D01*
X136041239Y-126482602D01*
X136048640Y-126483537D01*
X136093883Y-126479101D01*
X136106177Y-126478500D01*
X137842889Y-126478500D01*
X137911010Y-126498502D01*
X137938125Y-126522001D01*
X138043750Y-126643938D01*
X138215626Y-126786632D01*
X138289455Y-126829774D01*
X138338179Y-126881412D01*
X138351250Y-126951195D01*
X138324519Y-127016967D01*
X138284062Y-127050327D01*
X138275960Y-127054544D01*
X138267234Y-127060039D01*
X138247177Y-127075099D01*
X138238723Y-127086427D01*
X138245468Y-127098758D01*
X138984688Y-127837978D01*
X138998632Y-127845592D01*
X139000465Y-127845461D01*
X139007080Y-127841210D01*
X139750889Y-127097401D01*
X139757910Y-127084544D01*
X139751111Y-127075213D01*
X139747059Y-127072521D01*
X139710102Y-127052120D01*
X139660131Y-127001687D01*
X139645359Y-126932245D01*
X139670475Y-126865839D01*
X139697827Y-126839232D01*
X139721297Y-126822491D01*
X139877360Y-126711173D01*
X140035596Y-126553489D01*
X140165953Y-126372077D01*
X140167276Y-126373028D01*
X140214145Y-126329857D01*
X140284080Y-126317625D01*
X140349526Y-126345144D01*
X140377375Y-126376994D01*
X140437487Y-126475088D01*
X140583750Y-126643938D01*
X140755626Y-126786632D01*
X140829455Y-126829774D01*
X140878179Y-126881412D01*
X140891250Y-126951195D01*
X140864519Y-127016967D01*
X140824062Y-127050327D01*
X140815960Y-127054544D01*
X140807234Y-127060039D01*
X140787177Y-127075099D01*
X140778723Y-127086427D01*
X140785468Y-127098758D01*
X141524688Y-127837978D01*
X141538632Y-127845592D01*
X141540465Y-127845461D01*
X141547080Y-127841210D01*
X142290889Y-127097401D01*
X142297910Y-127084544D01*
X142291111Y-127075213D01*
X142287059Y-127072521D01*
X142250102Y-127052120D01*
X142200131Y-127001687D01*
X142185359Y-126932245D01*
X142210475Y-126865839D01*
X142237827Y-126839232D01*
X142261297Y-126822491D01*
X142417360Y-126711173D01*
X142575596Y-126553489D01*
X142705953Y-126372077D01*
X142726820Y-126329857D01*
X142802636Y-126176453D01*
X142802637Y-126176451D01*
X142804930Y-126171811D01*
X142869870Y-125958069D01*
X142899029Y-125736590D01*
X142900656Y-125670000D01*
X142882352Y-125447361D01*
X142827931Y-125230702D01*
X142738854Y-125025840D01*
X142677151Y-124930461D01*
X142620322Y-124842617D01*
X142620320Y-124842614D01*
X142617514Y-124838277D01*
X142467170Y-124673051D01*
X142463119Y-124669852D01*
X142463115Y-124669848D01*
X142295914Y-124537800D01*
X142295910Y-124537798D01*
X142291859Y-124534598D01*
X142096289Y-124426638D01*
X142091420Y-124424914D01*
X142091416Y-124424912D01*
X141890587Y-124353795D01*
X141890583Y-124353794D01*
X141885712Y-124352069D01*
X141880619Y-124351162D01*
X141880616Y-124351161D01*
X141670873Y-124313800D01*
X141670867Y-124313799D01*
X141665784Y-124312894D01*
X141591952Y-124311992D01*
X141447581Y-124310228D01*
X141447579Y-124310228D01*
X141442411Y-124310165D01*
X141221591Y-124343955D01*
X141009256Y-124413357D01*
X140811107Y-124516507D01*
X140806974Y-124519610D01*
X140806971Y-124519612D01*
X140636607Y-124647525D01*
X140632465Y-124650635D01*
X140478129Y-124812138D01*
X140370701Y-124969621D01*
X140315793Y-125014621D01*
X140245268Y-125022792D01*
X140181521Y-124991538D01*
X140160824Y-124967054D01*
X140080322Y-124842617D01*
X140080320Y-124842614D01*
X140077514Y-124838277D01*
X139927170Y-124673051D01*
X139903520Y-124654373D01*
X139856407Y-124617165D01*
X139815345Y-124559248D01*
X139808500Y-124518284D01*
X139808500Y-119803176D01*
X139809726Y-119785640D01*
X139812748Y-119764139D01*
X139812748Y-119764136D01*
X139813299Y-119760217D01*
X139813616Y-119737500D01*
X139810854Y-119712877D01*
X139810390Y-119707819D01*
X139796803Y-119517843D01*
X139796482Y-119513352D01*
X139748714Y-119293768D01*
X139670182Y-119083216D01*
X139562485Y-118885984D01*
X139547847Y-118866430D01*
X139430513Y-118709689D01*
X139430507Y-118709682D01*
X139427815Y-118706086D01*
X139370405Y-118648676D01*
X139336379Y-118586364D01*
X139333500Y-118559581D01*
X139333500Y-118449600D01*
X139322526Y-118343834D01*
X139266550Y-118176054D01*
X139173478Y-118025652D01*
X139048303Y-117900695D01*
X139017512Y-117881715D01*
X138903968Y-117811725D01*
X138903966Y-117811724D01*
X138897738Y-117807885D01*
X138817995Y-117781436D01*
X138736389Y-117754368D01*
X138736387Y-117754368D01*
X138729861Y-117752203D01*
X138723025Y-117751503D01*
X138723022Y-117751502D01*
X138679969Y-117747091D01*
X138625400Y-117741500D01*
X137849600Y-117741500D01*
X137846354Y-117741837D01*
X137846350Y-117741837D01*
X137750692Y-117751762D01*
X137750688Y-117751763D01*
X137743834Y-117752474D01*
X137737298Y-117754655D01*
X137737296Y-117754655D01*
X137720928Y-117760116D01*
X137576054Y-117808450D01*
X137425652Y-117901522D01*
X137300695Y-118026697D01*
X137297898Y-118031235D01*
X137240647Y-118071824D01*
X137169724Y-118075054D01*
X137108313Y-118039428D01*
X137100938Y-118030932D01*
X137092902Y-118020793D01*
X136978171Y-117906261D01*
X136966760Y-117897249D01*
X136828757Y-117812184D01*
X136815576Y-117806037D01*
X136661290Y-117754862D01*
X136647914Y-117751995D01*
X136553562Y-117742328D01*
X136547145Y-117742000D01*
X136434615Y-117742000D01*
X136419376Y-117746475D01*
X136418171Y-117747865D01*
X136416500Y-117755548D01*
X136416500Y-120189884D01*
X136420975Y-120205123D01*
X136422365Y-120206328D01*
X136430048Y-120207999D01*
X136547095Y-120207999D01*
X136553614Y-120207662D01*
X136649206Y-120197743D01*
X136662600Y-120194851D01*
X136816784Y-120143412D01*
X136829962Y-120137239D01*
X136967807Y-120051937D01*
X136979208Y-120042901D01*
X137093738Y-119928172D01*
X137100794Y-119919238D01*
X137158712Y-119878177D01*
X137229635Y-119874947D01*
X137291046Y-119910574D01*
X137297846Y-119918407D01*
X137301522Y-119924348D01*
X137426697Y-120049305D01*
X137432927Y-120053145D01*
X137432928Y-120053146D01*
X137570288Y-120137816D01*
X137577262Y-120142115D01*
X137657005Y-120168564D01*
X137738611Y-120195632D01*
X137738613Y-120195632D01*
X137745139Y-120197797D01*
X137751975Y-120198497D01*
X137751978Y-120198498D01*
X137795031Y-120202909D01*
X137849600Y-120208500D01*
X138065500Y-120208500D01*
X138133621Y-120228502D01*
X138180114Y-120282158D01*
X138191500Y-120334500D01*
X138191500Y-124513318D01*
X138171498Y-124581439D01*
X138141153Y-124614078D01*
X138096606Y-124647525D01*
X138096600Y-124647531D01*
X138092465Y-124650635D01*
X137938129Y-124812138D01*
X137936132Y-124815065D01*
X137878103Y-124855148D01*
X137838602Y-124861500D01*
X136125676Y-124861500D01*
X136108140Y-124860274D01*
X136086639Y-124857252D01*
X136086636Y-124857252D01*
X136082717Y-124856701D01*
X136069929Y-124856523D01*
X136063954Y-124856439D01*
X136063951Y-124856439D01*
X136060000Y-124856384D01*
X136053392Y-124857126D01*
X136046417Y-124857712D01*
X135862188Y-124868058D01*
X135736081Y-124875140D01*
X135416236Y-124929484D01*
X135232816Y-124982326D01*
X135161822Y-124981963D01*
X135102292Y-124943276D01*
X135073129Y-124878545D01*
X135079954Y-124817021D01*
X135098478Y-124767609D01*
X135102105Y-124752351D01*
X135107631Y-124701486D01*
X135108000Y-124694672D01*
X135107999Y-121722115D01*
X135103524Y-121706876D01*
X135102134Y-121705671D01*
X135094451Y-121704000D01*
X131972115Y-121704000D01*
X131956876Y-121708475D01*
X131955671Y-121709865D01*
X131954000Y-121717548D01*
X131954000Y-125139884D01*
X131958475Y-125155123D01*
X131959865Y-125156328D01*
X131967548Y-125157999D01*
X134326155Y-125157999D01*
X134394276Y-125178001D01*
X134440769Y-125231657D01*
X134450873Y-125301931D01*
X134421379Y-125366511D01*
X134399068Y-125386760D01*
X134259080Y-125486087D01*
X134256212Y-125488122D01*
X134014304Y-125704304D01*
X133798122Y-125946212D01*
X133796087Y-125949079D01*
X133796087Y-125949080D01*
X133697225Y-126088413D01*
X133641492Y-126132395D01*
X133594464Y-126141500D01*
X133331866Y-126141500D01*
X133269684Y-126148255D01*
X133133295Y-126199385D01*
X133016739Y-126286739D01*
X132929385Y-126403295D01*
X132878255Y-126539684D01*
X132871500Y-126601866D01*
X132871500Y-128898134D01*
X132878255Y-128960316D01*
X132926415Y-129088782D01*
X132929385Y-129096705D01*
X132928367Y-129097087D01*
X132941500Y-129148418D01*
X132941500Y-130914885D01*
X132945975Y-130930124D01*
X132947365Y-130931329D01*
X132955048Y-130933000D01*
X133033766Y-130933000D01*
X133040282Y-130932663D01*
X133134132Y-130922925D01*
X133147528Y-130920032D01*
X133298953Y-130869512D01*
X133312115Y-130863347D01*
X133386698Y-130817194D01*
X133455150Y-130798357D01*
X133522919Y-130819519D01*
X133568490Y-130873960D01*
X133579000Y-130924339D01*
X133579000Y-132640845D01*
X133578006Y-132656637D01*
X133573963Y-132688640D01*
X133574651Y-132695653D01*
X133576423Y-132713730D01*
X133576754Y-132734266D01*
X133562716Y-132948438D01*
X133560565Y-132964778D01*
X133513604Y-133200870D01*
X133509340Y-133216783D01*
X133431964Y-133444726D01*
X133425657Y-133459952D01*
X133319192Y-133675842D01*
X133310951Y-133690116D01*
X133177219Y-133890259D01*
X133167186Y-133903335D01*
X133008470Y-134084316D01*
X132996816Y-134095970D01*
X132815835Y-134254686D01*
X132802759Y-134264719D01*
X132602616Y-134398451D01*
X132588342Y-134406692D01*
X132372454Y-134513156D01*
X132357228Y-134519463D01*
X132310494Y-134535327D01*
X132254019Y-134554498D01*
X132183085Y-134557455D01*
X132173851Y-134554778D01*
X132136249Y-134542306D01*
X132014809Y-134502026D01*
X132007973Y-134501326D01*
X132007970Y-134501325D01*
X131956474Y-134496049D01*
X131912072Y-134491500D01*
X131312928Y-134491500D01*
X131309682Y-134491837D01*
X131309678Y-134491837D01*
X131215765Y-134501581D01*
X131215761Y-134501582D01*
X131208907Y-134502293D01*
X131202371Y-134504474D01*
X131202369Y-134504474D01*
X131107479Y-134536132D01*
X131043893Y-134557346D01*
X130895969Y-134648884D01*
X130890796Y-134654066D01*
X130789253Y-134755786D01*
X130726970Y-134789865D01*
X130656150Y-134784862D01*
X130611063Y-134755941D01*
X130508188Y-134653246D01*
X130508183Y-134653242D01*
X130503003Y-134648071D01*
X130496772Y-134644230D01*
X130361150Y-134560631D01*
X130361148Y-134560630D01*
X130354920Y-134556791D01*
X130189809Y-134502026D01*
X130182973Y-134501326D01*
X130182970Y-134501325D01*
X130131474Y-134496049D01*
X130087072Y-134491500D01*
X129487928Y-134491500D01*
X129484682Y-134491837D01*
X129484678Y-134491837D01*
X129390765Y-134501581D01*
X129390761Y-134501582D01*
X129383907Y-134502293D01*
X129377371Y-134504474D01*
X129377369Y-134504474D01*
X129282479Y-134536132D01*
X129218893Y-134557346D01*
X129070969Y-134648884D01*
X129065796Y-134654066D01*
X128953242Y-134766816D01*
X128953238Y-134766821D01*
X128948071Y-134771997D01*
X128944231Y-134778227D01*
X128944230Y-134778228D01*
X128869273Y-134899831D01*
X128856791Y-134920080D01*
X128802026Y-135085191D01*
X128791500Y-135187928D01*
X128791500Y-135762072D01*
X128802293Y-135866093D01*
X128804474Y-135872629D01*
X128804474Y-135872631D01*
X128848768Y-136005395D01*
X128857346Y-136031107D01*
X128948884Y-136179031D01*
X129071997Y-136301929D01*
X129078224Y-136305767D01*
X129078226Y-136305769D01*
X129094116Y-136315564D01*
X129141609Y-136368336D01*
X129154000Y-136422824D01*
X129154000Y-137056821D01*
X129133998Y-137124942D01*
X129080342Y-137171435D01*
X129005904Y-137180868D01*
X128798095Y-137143851D01*
X128798089Y-137143850D01*
X128793006Y-137142945D01*
X128715644Y-137142000D01*
X128566581Y-137140179D01*
X128566579Y-137140179D01*
X128561411Y-137140116D01*
X128332464Y-137175150D01*
X128112314Y-137247106D01*
X128107726Y-137249494D01*
X128107722Y-137249496D01*
X127947680Y-137332809D01*
X127878021Y-137346522D01*
X127812005Y-137320397D01*
X127770594Y-137262729D01*
X127763500Y-137221046D01*
X127763500Y-130549565D01*
X127783502Y-130481444D01*
X127837158Y-130434951D01*
X127907432Y-130424847D01*
X127972012Y-130454341D01*
X128003600Y-130496113D01*
X128005031Y-130499167D01*
X128007346Y-130506107D01*
X128011195Y-130512328D01*
X128011197Y-130512331D01*
X128070124Y-130607556D01*
X128098884Y-130654031D01*
X128104066Y-130659204D01*
X128216816Y-130771758D01*
X128216821Y-130771762D01*
X128221997Y-130776929D01*
X128228227Y-130780769D01*
X128228228Y-130780770D01*
X128291688Y-130819887D01*
X128370080Y-130868209D01*
X128535191Y-130922974D01*
X128542027Y-130923674D01*
X128542030Y-130923675D01*
X128589370Y-130928525D01*
X128637928Y-130933500D01*
X129337072Y-130933500D01*
X129340318Y-130933163D01*
X129340322Y-130933163D01*
X129434235Y-130923419D01*
X129434239Y-130923418D01*
X129441093Y-130922707D01*
X129447629Y-130920526D01*
X129447631Y-130920526D01*
X129587206Y-130873960D01*
X129606107Y-130867654D01*
X129754031Y-130776116D01*
X129761274Y-130768861D01*
X129763038Y-130767895D01*
X129764941Y-130766387D01*
X129765199Y-130766713D01*
X129823554Y-130734781D01*
X129894375Y-130739782D01*
X129939470Y-130768708D01*
X129942131Y-130771364D01*
X129953540Y-130780375D01*
X130089063Y-130863912D01*
X130102241Y-130870056D01*
X130253766Y-130920315D01*
X130267132Y-130923181D01*
X130359770Y-130932672D01*
X130366185Y-130933000D01*
X130440385Y-130933000D01*
X130455624Y-130928525D01*
X130456829Y-130927135D01*
X130458500Y-130919452D01*
X130458500Y-130914885D01*
X130966500Y-130914885D01*
X130970975Y-130930124D01*
X130972365Y-130931329D01*
X130980048Y-130933000D01*
X131058766Y-130933000D01*
X131065282Y-130932663D01*
X131159132Y-130922925D01*
X131172528Y-130920032D01*
X131323953Y-130869512D01*
X131337115Y-130863347D01*
X131472492Y-130779574D01*
X131483890Y-130770540D01*
X131596361Y-130657873D01*
X131601116Y-130651852D01*
X131659033Y-130610789D01*
X131729956Y-130607556D01*
X131791368Y-130643180D01*
X131798746Y-130651681D01*
X131804458Y-130658888D01*
X131917129Y-130771363D01*
X131928540Y-130780375D01*
X132064063Y-130863912D01*
X132077241Y-130870056D01*
X132228766Y-130920315D01*
X132242132Y-130923181D01*
X132334770Y-130932672D01*
X132341185Y-130933000D01*
X132415385Y-130933000D01*
X132430624Y-130928525D01*
X132431829Y-130927135D01*
X132433500Y-130919452D01*
X132433500Y-130222115D01*
X132429025Y-130206876D01*
X132427635Y-130205671D01*
X132419952Y-130204000D01*
X130984615Y-130204000D01*
X130969376Y-130208475D01*
X130968171Y-130209865D01*
X130966500Y-130217548D01*
X130966500Y-130914885D01*
X130458500Y-130914885D01*
X130458500Y-129677885D01*
X130966500Y-129677885D01*
X130970975Y-129693124D01*
X130972365Y-129694329D01*
X130980048Y-129696000D01*
X132415385Y-129696000D01*
X132430624Y-129691525D01*
X132431829Y-129690135D01*
X132433500Y-129682452D01*
X132433500Y-128985115D01*
X132429025Y-128969876D01*
X132427635Y-128968671D01*
X132419952Y-128967000D01*
X132341234Y-128967000D01*
X132334718Y-128967337D01*
X132240868Y-128977075D01*
X132227472Y-128979968D01*
X132076047Y-129030488D01*
X132062885Y-129036653D01*
X131927508Y-129120426D01*
X131916110Y-129129460D01*
X131803639Y-129242127D01*
X131798884Y-129248148D01*
X131740967Y-129289211D01*
X131670044Y-129292444D01*
X131608632Y-129256820D01*
X131601254Y-129248319D01*
X131595542Y-129241112D01*
X131482871Y-129128637D01*
X131471460Y-129119625D01*
X131335937Y-129036088D01*
X131322759Y-129029944D01*
X131171234Y-128979685D01*
X131157868Y-128976819D01*
X131065230Y-128967328D01*
X131058815Y-128967000D01*
X130984615Y-128967000D01*
X130969376Y-128971475D01*
X130968171Y-128972865D01*
X130966500Y-128980548D01*
X130966500Y-129677885D01*
X130458500Y-129677885D01*
X130458500Y-129148418D01*
X130471633Y-129097087D01*
X130470615Y-129096705D01*
X130473585Y-129088782D01*
X130521745Y-128960316D01*
X130528500Y-128898134D01*
X130528500Y-126601866D01*
X130521745Y-126539684D01*
X130470615Y-126403295D01*
X130383261Y-126286739D01*
X130266705Y-126199385D01*
X130130316Y-126148255D01*
X130068134Y-126141500D01*
X128771866Y-126141500D01*
X128709684Y-126148255D01*
X128573295Y-126199385D01*
X128456739Y-126286739D01*
X128369385Y-126403295D01*
X128318255Y-126539684D01*
X128311500Y-126601866D01*
X128311500Y-126605283D01*
X128311359Y-126607890D01*
X128287705Y-126674831D01*
X128231615Y-126718356D01*
X128172374Y-126726391D01*
X128032075Y-126711645D01*
X127900920Y-126723581D01*
X127831266Y-126709836D01*
X127780102Y-126660615D01*
X127763500Y-126598100D01*
X127763500Y-124694669D01*
X128292001Y-124694669D01*
X128292371Y-124701490D01*
X128297895Y-124752352D01*
X128301521Y-124767604D01*
X128346676Y-124888054D01*
X128355214Y-124903649D01*
X128431715Y-125005724D01*
X128444276Y-125018285D01*
X128546351Y-125094786D01*
X128561946Y-125103324D01*
X128682394Y-125148478D01*
X128697649Y-125152105D01*
X128748514Y-125157631D01*
X128755328Y-125158000D01*
X131427885Y-125158000D01*
X131443124Y-125153525D01*
X131444329Y-125152135D01*
X131446000Y-125144452D01*
X131446000Y-121722115D01*
X131441525Y-121706876D01*
X131440135Y-121705671D01*
X131432452Y-121704000D01*
X128310116Y-121704000D01*
X128294877Y-121708475D01*
X128293672Y-121709865D01*
X128292001Y-121717548D01*
X128292001Y-124694669D01*
X127763500Y-124694669D01*
X127763500Y-121177885D01*
X128292000Y-121177885D01*
X128296475Y-121193124D01*
X128297865Y-121194329D01*
X128305548Y-121196000D01*
X131427885Y-121196000D01*
X131443124Y-121191525D01*
X131444329Y-121190135D01*
X131446000Y-121182452D01*
X131446000Y-121177885D01*
X131954000Y-121177885D01*
X131958475Y-121193124D01*
X131959865Y-121194329D01*
X131967548Y-121196000D01*
X135089884Y-121196000D01*
X135105123Y-121191525D01*
X135106328Y-121190135D01*
X135107999Y-121182452D01*
X135107999Y-120109141D01*
X135128001Y-120041020D01*
X135181657Y-119994527D01*
X135251931Y-119984423D01*
X135316511Y-120013917D01*
X135323018Y-120019969D01*
X135346829Y-120043739D01*
X135358240Y-120052751D01*
X135496243Y-120137816D01*
X135509424Y-120143963D01*
X135663710Y-120195138D01*
X135677086Y-120198005D01*
X135771438Y-120207672D01*
X135777854Y-120208000D01*
X135890385Y-120208000D01*
X135905624Y-120203525D01*
X135906829Y-120202135D01*
X135908500Y-120194452D01*
X135908500Y-117760116D01*
X135904025Y-117744877D01*
X135902635Y-117743672D01*
X135894952Y-117742001D01*
X135777905Y-117742001D01*
X135771386Y-117742338D01*
X135675794Y-117752257D01*
X135662400Y-117755149D01*
X135508216Y-117806588D01*
X135495038Y-117812761D01*
X135357193Y-117898063D01*
X135345792Y-117907099D01*
X135238421Y-118014656D01*
X135176138Y-118048735D01*
X135105318Y-118043732D01*
X135048422Y-118001203D01*
X134968285Y-117894276D01*
X134955724Y-117881715D01*
X134853649Y-117805214D01*
X134838054Y-117796676D01*
X134717606Y-117751522D01*
X134702351Y-117747895D01*
X134651486Y-117742369D01*
X134644672Y-117742000D01*
X131972115Y-117742000D01*
X131956876Y-117746475D01*
X131955671Y-117747865D01*
X131954000Y-117755548D01*
X131954000Y-121177885D01*
X131446000Y-121177885D01*
X131446000Y-117760116D01*
X131441525Y-117744877D01*
X131440135Y-117743672D01*
X131432452Y-117742001D01*
X128755331Y-117742001D01*
X128748510Y-117742371D01*
X128697648Y-117747895D01*
X128682396Y-117751521D01*
X128561946Y-117796676D01*
X128546351Y-117805214D01*
X128444276Y-117881715D01*
X128431715Y-117894276D01*
X128355214Y-117996351D01*
X128346676Y-118011946D01*
X128301522Y-118132394D01*
X128297895Y-118147649D01*
X128292369Y-118198514D01*
X128292000Y-118205328D01*
X128292000Y-121177885D01*
X127763500Y-121177885D01*
X127763500Y-112444669D01*
X131092001Y-112444669D01*
X131092371Y-112451490D01*
X131097895Y-112502352D01*
X131101521Y-112517604D01*
X131146676Y-112638054D01*
X131155214Y-112653649D01*
X131231715Y-112755724D01*
X131244276Y-112768285D01*
X131346351Y-112844786D01*
X131361946Y-112853324D01*
X131482394Y-112898478D01*
X131497649Y-112902105D01*
X131548514Y-112907631D01*
X131555328Y-112908000D01*
X132227885Y-112908000D01*
X132243124Y-112903525D01*
X132244329Y-112902135D01*
X132246000Y-112894452D01*
X132246000Y-111772115D01*
X132241525Y-111756876D01*
X132240135Y-111755671D01*
X132232452Y-111754000D01*
X131110116Y-111754000D01*
X131094877Y-111758475D01*
X131093672Y-111759865D01*
X131092001Y-111767548D01*
X131092001Y-112444669D01*
X127763500Y-112444669D01*
X127763500Y-111227885D01*
X131092000Y-111227885D01*
X131096475Y-111243124D01*
X131097865Y-111244329D01*
X131105548Y-111246000D01*
X132227885Y-111246000D01*
X132243124Y-111241525D01*
X132244329Y-111240135D01*
X132246000Y-111232452D01*
X132246000Y-110110116D01*
X132241525Y-110094877D01*
X132240135Y-110093672D01*
X132232452Y-110092001D01*
X131555331Y-110092001D01*
X131548510Y-110092371D01*
X131497648Y-110097895D01*
X131482396Y-110101521D01*
X131361946Y-110146676D01*
X131346351Y-110155214D01*
X131244276Y-110231715D01*
X131231715Y-110244276D01*
X131155214Y-110346351D01*
X131146676Y-110361946D01*
X131101522Y-110482394D01*
X131097895Y-110497649D01*
X131092369Y-110548514D01*
X131092000Y-110555328D01*
X131092000Y-111227885D01*
X127763500Y-111227885D01*
X127763500Y-109821744D01*
X127764578Y-109805301D01*
X127764745Y-109804031D01*
X127768118Y-109778407D01*
X127766583Y-109764506D01*
X127766301Y-109739698D01*
X127779069Y-109593732D01*
X127782883Y-109572103D01*
X127826269Y-109410175D01*
X127833781Y-109389536D01*
X127904629Y-109237597D01*
X127915607Y-109218582D01*
X128011770Y-109081245D01*
X128025885Y-109064425D01*
X128144425Y-108945885D01*
X128161245Y-108931770D01*
X128298582Y-108835607D01*
X128317597Y-108824629D01*
X128469536Y-108753781D01*
X128490175Y-108746269D01*
X128652104Y-108702883D01*
X128673733Y-108699069D01*
X128733036Y-108693881D01*
X128812893Y-108686896D01*
X128829909Y-108687269D01*
X128829911Y-108687046D01*
X128837507Y-108687126D01*
X128845041Y-108688118D01*
X128879983Y-108684261D01*
X128893807Y-108683500D01*
X135140675Y-108683500D01*
X135208796Y-108703502D01*
X135255289Y-108757158D01*
X135265939Y-108812928D01*
X135266500Y-108812928D01*
X135266500Y-109387072D01*
X135266837Y-109390318D01*
X135266837Y-109390322D01*
X135275859Y-109477268D01*
X135277293Y-109491093D01*
X135279474Y-109497629D01*
X135279474Y-109497631D01*
X135311536Y-109593732D01*
X135332346Y-109656107D01*
X135423884Y-109804031D01*
X135429066Y-109809204D01*
X135503518Y-109883526D01*
X135537597Y-109945808D01*
X135535575Y-110007582D01*
X135523499Y-110049497D01*
X135485420Y-110109417D01*
X135420990Y-110139239D01*
X135370239Y-110136434D01*
X135365906Y-110135290D01*
X135361028Y-110133562D01*
X135239887Y-110111984D01*
X135138095Y-110093851D01*
X135138089Y-110093850D01*
X135133006Y-110092945D01*
X135055644Y-110092000D01*
X134906581Y-110090179D01*
X134906579Y-110090179D01*
X134901411Y-110090116D01*
X134672464Y-110125150D01*
X134452314Y-110197106D01*
X134447726Y-110199494D01*
X134447722Y-110199496D01*
X134313490Y-110269373D01*
X134246872Y-110304052D01*
X134242739Y-110307155D01*
X134242736Y-110307157D01*
X134065789Y-110440013D01*
X134061655Y-110443117D01*
X134061066Y-110442333D01*
X134001346Y-110470484D01*
X133930955Y-110461231D01*
X133876741Y-110415391D01*
X133863925Y-110390224D01*
X133853323Y-110361944D01*
X133844786Y-110346351D01*
X133768285Y-110244276D01*
X133755724Y-110231715D01*
X133653649Y-110155214D01*
X133638054Y-110146676D01*
X133517606Y-110101522D01*
X133502351Y-110097895D01*
X133451486Y-110092369D01*
X133444672Y-110092000D01*
X132772115Y-110092000D01*
X132756876Y-110096475D01*
X132755671Y-110097865D01*
X132754000Y-110105548D01*
X132754000Y-112889884D01*
X132758475Y-112905123D01*
X132759865Y-112906328D01*
X132767548Y-112907999D01*
X133444669Y-112907999D01*
X133451490Y-112907629D01*
X133502352Y-112902105D01*
X133517604Y-112898479D01*
X133638054Y-112853324D01*
X133653649Y-112844786D01*
X133755724Y-112768285D01*
X133768285Y-112755724D01*
X133844786Y-112653649D01*
X133853325Y-112638052D01*
X133865278Y-112606167D01*
X133907919Y-112549402D01*
X133974480Y-112524702D01*
X134043829Y-112539909D01*
X134063741Y-112553448D01*
X134189349Y-112657730D01*
X134389322Y-112774584D01*
X134605694Y-112857209D01*
X134610760Y-112858240D01*
X134610761Y-112858240D01*
X134663846Y-112869040D01*
X134832656Y-112903385D01*
X134963324Y-112908176D01*
X135058949Y-112911683D01*
X135058953Y-112911683D01*
X135064113Y-112911872D01*
X135069233Y-112911216D01*
X135069235Y-112911216D01*
X135168668Y-112898478D01*
X135293847Y-112882442D01*
X135298795Y-112880957D01*
X135298802Y-112880956D01*
X135510747Y-112817369D01*
X135515690Y-112815886D01*
X135596236Y-112776427D01*
X135719049Y-112716262D01*
X135719052Y-112716260D01*
X135723684Y-112713991D01*
X135912243Y-112579494D01*
X136076303Y-112416005D01*
X136145370Y-112319888D01*
X136201365Y-112276240D01*
X136272068Y-112269794D01*
X136335033Y-112302597D01*
X136355128Y-112327584D01*
X136356799Y-112330311D01*
X136356804Y-112330317D01*
X136359501Y-112334719D01*
X136511147Y-112509784D01*
X136689349Y-112657730D01*
X136889322Y-112774584D01*
X137105694Y-112857209D01*
X137110760Y-112858240D01*
X137110761Y-112858240D01*
X137163846Y-112869040D01*
X137332656Y-112903385D01*
X137463324Y-112908176D01*
X137558949Y-112911683D01*
X137558953Y-112911683D01*
X137564113Y-112911872D01*
X137569233Y-112911216D01*
X137569235Y-112911216D01*
X137668668Y-112898478D01*
X137793847Y-112882442D01*
X137798795Y-112880957D01*
X137798802Y-112880956D01*
X138010747Y-112817369D01*
X138015690Y-112815886D01*
X138096236Y-112776427D01*
X138219049Y-112716262D01*
X138219052Y-112716260D01*
X138223684Y-112713991D01*
X138412243Y-112579494D01*
X138576303Y-112416005D01*
X138711458Y-112227917D01*
X138814078Y-112020280D01*
X138881408Y-111798671D01*
X138911640Y-111569041D01*
X138913327Y-111500000D01*
X138907032Y-111423434D01*
X138894773Y-111274318D01*
X138894772Y-111274312D01*
X138894349Y-111269167D01*
X138837925Y-111044533D01*
X138745570Y-110832131D01*
X138619764Y-110637665D01*
X138463887Y-110466358D01*
X138459836Y-110463159D01*
X138459832Y-110463155D01*
X138286177Y-110326011D01*
X138286172Y-110326008D01*
X138282123Y-110322810D01*
X138277608Y-110320317D01*
X138277595Y-110320309D01*
X138276685Y-110319807D01*
X138276389Y-110319508D01*
X138273287Y-110317447D01*
X138273712Y-110316807D01*
X138226715Y-110269373D01*
X138211945Y-110199930D01*
X138237063Y-110133525D01*
X138294095Y-110091242D01*
X138337581Y-110083500D01*
X138387072Y-110083500D01*
X138390318Y-110083163D01*
X138390322Y-110083163D01*
X138484235Y-110073419D01*
X138484239Y-110073418D01*
X138491093Y-110072707D01*
X138497629Y-110070526D01*
X138497631Y-110070526D01*
X138649159Y-110019972D01*
X138656107Y-110017654D01*
X138804031Y-109926116D01*
X138846547Y-109883526D01*
X138921758Y-109808184D01*
X138921762Y-109808179D01*
X138926929Y-109803003D01*
X138965951Y-109739698D01*
X139014369Y-109661150D01*
X139014370Y-109661148D01*
X139018209Y-109654920D01*
X139072974Y-109489809D01*
X139083500Y-109387072D01*
X139083500Y-108812928D01*
X139083163Y-108809678D01*
X139073419Y-108715765D01*
X139073418Y-108715761D01*
X139072707Y-108708907D01*
X139064485Y-108684261D01*
X139019972Y-108550841D01*
X139017654Y-108543893D01*
X138926116Y-108395969D01*
X138803003Y-108273071D01*
X138796776Y-108269233D01*
X138796774Y-108269231D01*
X138780884Y-108259436D01*
X138733391Y-108206664D01*
X138721000Y-108152176D01*
X138721000Y-108041940D01*
X138741002Y-107973819D01*
X138768736Y-107943194D01*
X138772806Y-107939968D01*
X138779031Y-107936116D01*
X138784202Y-107930936D01*
X138896758Y-107818184D01*
X138896762Y-107818179D01*
X138901929Y-107813003D01*
X138993209Y-107664920D01*
X139047974Y-107499809D01*
X139052916Y-107451579D01*
X139058172Y-107400271D01*
X139058500Y-107397072D01*
X139058500Y-106822928D01*
X139047707Y-106718907D01*
X138992654Y-106553893D01*
X138901116Y-106405969D01*
X138778003Y-106283071D01*
X138771780Y-106279235D01*
X138771771Y-106279228D01*
X138760518Y-106272292D01*
X138713024Y-106219520D01*
X138702190Y-106170669D01*
X138700836Y-106170744D01*
X138700610Y-106166633D01*
X138700653Y-106162500D01*
X138700156Y-106158396D01*
X138700000Y-106155559D01*
X138699876Y-106154191D01*
X138698595Y-106133016D01*
X138690791Y-106003994D01*
X138706643Y-105934791D01*
X138757394Y-105885144D01*
X138826930Y-105870815D01*
X138875229Y-105884880D01*
X139049947Y-105976804D01*
X139054248Y-105978323D01*
X139054253Y-105978325D01*
X139187087Y-106025233D01*
X139305634Y-106067096D01*
X139403653Y-106086415D01*
X139567206Y-106118652D01*
X139567212Y-106118653D01*
X139571678Y-106119533D01*
X139576232Y-106119760D01*
X139576234Y-106119760D01*
X139837936Y-106132789D01*
X139837942Y-106132789D01*
X139842505Y-106133016D01*
X140112441Y-106107262D01*
X140116870Y-106106178D01*
X140116877Y-106106177D01*
X140276584Y-106067096D01*
X140375832Y-106042810D01*
X140445695Y-106014513D01*
X140622931Y-105942725D01*
X140622932Y-105942725D01*
X140627160Y-105941012D01*
X140861161Y-105803999D01*
X141072932Y-105634641D01*
X141194399Y-105504612D01*
X141254921Y-105439824D01*
X141254923Y-105439821D01*
X141258037Y-105436488D01*
X141412598Y-105213688D01*
X141494624Y-105048810D01*
X141531346Y-104974997D01*
X141531347Y-104974994D01*
X141533379Y-104970910D01*
X141617847Y-104713240D01*
X141620940Y-104695428D01*
X141663579Y-104449856D01*
X141663580Y-104449848D01*
X141664235Y-104446075D01*
X141667156Y-104387391D01*
X141668422Y-104361971D01*
X141668422Y-104361963D01*
X141668500Y-104360400D01*
X141668500Y-103671116D01*
X141666328Y-103641170D01*
X141654205Y-103474100D01*
X141653875Y-103469549D01*
X141652891Y-103465091D01*
X141596400Y-103209223D01*
X141596399Y-103209219D01*
X141595415Y-103204763D01*
X141499345Y-102951190D01*
X141367676Y-102714141D01*
X141203167Y-102498583D01*
X141066109Y-102364599D01*
X141031379Y-102302678D01*
X141035640Y-102231810D01*
X141077540Y-102174495D01*
X141143774Y-102148931D01*
X141154188Y-102148500D01*
X141197072Y-102148500D01*
X141200318Y-102148163D01*
X141200322Y-102148163D01*
X141294235Y-102138419D01*
X141294239Y-102138418D01*
X141301093Y-102137707D01*
X141307629Y-102135526D01*
X141307631Y-102135526D01*
X141440395Y-102091232D01*
X141466107Y-102082654D01*
X141603138Y-101997857D01*
X141603571Y-101997589D01*
X141672023Y-101978751D01*
X141735990Y-101997473D01*
X141854483Y-102070513D01*
X141875080Y-102083209D01*
X142040191Y-102137974D01*
X142047027Y-102138674D01*
X142047030Y-102138675D01*
X142098526Y-102143951D01*
X142142928Y-102148500D01*
X142717072Y-102148500D01*
X142720318Y-102148163D01*
X142720322Y-102148163D01*
X142814235Y-102138419D01*
X142814239Y-102138418D01*
X142821093Y-102137707D01*
X142827629Y-102135526D01*
X142827631Y-102135526D01*
X142960395Y-102091232D01*
X142986107Y-102082654D01*
X143134031Y-101991116D01*
X143134894Y-101992510D01*
X143192555Y-101969170D01*
X143262320Y-101982340D01*
G37*
%TD.AperFunction*%
%TA.AperFunction,Conductor*%
G36*
X125717012Y-100599767D02*
G01*
X125737260Y-100622078D01*
X125836803Y-100762369D01*
X125836808Y-100762375D01*
X125838847Y-100765249D01*
X126036301Y-100986199D01*
X126257251Y-101183653D01*
X126498920Y-101355127D01*
X126758268Y-101498465D01*
X126761544Y-101499822D01*
X126797756Y-101514822D01*
X126853037Y-101559371D01*
X126869060Y-101591353D01*
X126905026Y-101699154D01*
X126907346Y-101706107D01*
X126998884Y-101854031D01*
X127004066Y-101859204D01*
X127116816Y-101971758D01*
X127116821Y-101971762D01*
X127121997Y-101976929D01*
X127128227Y-101980769D01*
X127128228Y-101980770D01*
X127255121Y-102058988D01*
X127270080Y-102068209D01*
X127435191Y-102122974D01*
X127442027Y-102123674D01*
X127442030Y-102123675D01*
X127493526Y-102128951D01*
X127537928Y-102133500D01*
X128112072Y-102133500D01*
X128115318Y-102133163D01*
X128115322Y-102133163D01*
X128209235Y-102123419D01*
X128209239Y-102123418D01*
X128216093Y-102122707D01*
X128222629Y-102120526D01*
X128222631Y-102120526D01*
X128355395Y-102076232D01*
X128381107Y-102067654D01*
X128529031Y-101976116D01*
X128530351Y-101978249D01*
X128585166Y-101956054D01*
X128654932Y-101969216D01*
X128663752Y-101974175D01*
X128774041Y-102042158D01*
X128800080Y-102058209D01*
X128909494Y-102094500D01*
X128941054Y-102104968D01*
X128999413Y-102145399D01*
X129026650Y-102210963D01*
X129014116Y-102280845D01*
X128980080Y-102322964D01*
X128930640Y-102362501D01*
X128930634Y-102362507D01*
X128927068Y-102365359D01*
X128923947Y-102368700D01*
X128799224Y-102502215D01*
X128741963Y-102563512D01*
X128587402Y-102786312D01*
X128585374Y-102790388D01*
X128585373Y-102790390D01*
X128503252Y-102955460D01*
X128466621Y-103029090D01*
X128382153Y-103286760D01*
X128335765Y-103553925D01*
X128331500Y-103639600D01*
X128331500Y-104328884D01*
X128331665Y-104331152D01*
X128331665Y-104331164D01*
X128335745Y-104387391D01*
X128346125Y-104530451D01*
X128347109Y-104534906D01*
X128347109Y-104534909D01*
X128394836Y-104751079D01*
X128404585Y-104795237D01*
X128417387Y-104829028D01*
X128486729Y-105012052D01*
X128500655Y-105048810D01*
X128632324Y-105285859D01*
X128635096Y-105289491D01*
X128751980Y-105442645D01*
X128796833Y-105501417D01*
X128990736Y-105690970D01*
X128994428Y-105693657D01*
X128994430Y-105693659D01*
X129107350Y-105775851D01*
X129209972Y-105850547D01*
X129449947Y-105976804D01*
X129454248Y-105978323D01*
X129454253Y-105978325D01*
X129587087Y-106025233D01*
X129705634Y-106067096D01*
X129803653Y-106086415D01*
X129967206Y-106118652D01*
X129967212Y-106118653D01*
X129971678Y-106119533D01*
X129976232Y-106119760D01*
X129976234Y-106119760D01*
X130237936Y-106132789D01*
X130237942Y-106132789D01*
X130242505Y-106133016D01*
X130512441Y-106107262D01*
X130516870Y-106106178D01*
X130516877Y-106106177D01*
X130676584Y-106067096D01*
X130775832Y-106042810D01*
X130845695Y-106014513D01*
X131022931Y-105942725D01*
X131022932Y-105942725D01*
X131027160Y-105941012D01*
X131261161Y-105803999D01*
X131472932Y-105634641D01*
X131594399Y-105504612D01*
X131654921Y-105439824D01*
X131654923Y-105439821D01*
X131658037Y-105436488D01*
X131812598Y-105213688D01*
X131894624Y-105048810D01*
X131931346Y-104974997D01*
X131931347Y-104974994D01*
X131933379Y-104970910D01*
X132017847Y-104713240D01*
X132020940Y-104695428D01*
X132063579Y-104449856D01*
X132063580Y-104449848D01*
X132064235Y-104446075D01*
X132067156Y-104387391D01*
X132068422Y-104361971D01*
X132068422Y-104361963D01*
X132068500Y-104360400D01*
X132068500Y-103671116D01*
X132066328Y-103641170D01*
X132054205Y-103474100D01*
X132053875Y-103469549D01*
X132052891Y-103465091D01*
X131996400Y-103209223D01*
X131996399Y-103209219D01*
X131995415Y-103204763D01*
X131899345Y-102951190D01*
X131767676Y-102714141D01*
X131603167Y-102498583D01*
X131409264Y-102309030D01*
X131400538Y-102302678D01*
X131193721Y-102152141D01*
X131190028Y-102149453D01*
X130950053Y-102023196D01*
X130945752Y-102021677D01*
X130945747Y-102021675D01*
X130886661Y-102000810D01*
X130829088Y-101959266D01*
X130803115Y-101893191D01*
X130816988Y-101823563D01*
X130866302Y-101772488D01*
X130928617Y-101756000D01*
X131082550Y-101756000D01*
X131150671Y-101776002D01*
X131171645Y-101792905D01*
X131213193Y-101834453D01*
X131220017Y-101838489D01*
X131220020Y-101838491D01*
X131290998Y-101880467D01*
X131356399Y-101919145D01*
X131364010Y-101921356D01*
X131364012Y-101921357D01*
X131416231Y-101936528D01*
X131516169Y-101965562D01*
X131522574Y-101966066D01*
X131522579Y-101966067D01*
X131551042Y-101968307D01*
X131551050Y-101968307D01*
X131553498Y-101968500D01*
X133190500Y-101968500D01*
X133258621Y-101988502D01*
X133305114Y-102042158D01*
X133316500Y-102094500D01*
X133316500Y-104052992D01*
X133296498Y-104121113D01*
X133242842Y-104167606D01*
X133219916Y-104175510D01*
X133099125Y-104204510D01*
X133094554Y-104206403D01*
X133094552Y-104206404D01*
X132920322Y-104278572D01*
X132920318Y-104278574D01*
X132915748Y-104280467D01*
X132746511Y-104384175D01*
X132595581Y-104513081D01*
X132466675Y-104664011D01*
X132362967Y-104833248D01*
X132361074Y-104837818D01*
X132361072Y-104837822D01*
X132304253Y-104974997D01*
X132287010Y-105016625D01*
X132285855Y-105021437D01*
X132241829Y-105204813D01*
X132241828Y-105204819D01*
X132240674Y-105209626D01*
X132240286Y-105214560D01*
X132233316Y-105303117D01*
X132231852Y-105311912D01*
X132231965Y-105311926D01*
X132230971Y-105319794D01*
X132229000Y-105327470D01*
X132229000Y-105352999D01*
X132228612Y-105362883D01*
X132227735Y-105374028D01*
X132227046Y-105380578D01*
X132224382Y-105400817D01*
X132225109Y-105407400D01*
X132225101Y-105407500D01*
X132225120Y-105407500D01*
X132226106Y-105416433D01*
X132226106Y-105416436D01*
X132228239Y-105435752D01*
X132229000Y-105449578D01*
X132229000Y-106162301D01*
X132208998Y-106230422D01*
X132169302Y-106269445D01*
X132145969Y-106283884D01*
X132140796Y-106289066D01*
X132028242Y-106401816D01*
X132028238Y-106401821D01*
X132023071Y-106406997D01*
X132019231Y-106413227D01*
X132019230Y-106413228D01*
X132017143Y-106416614D01*
X132015114Y-106418441D01*
X132014693Y-106418973D01*
X132014602Y-106418901D01*
X131964372Y-106464108D01*
X131909882Y-106476500D01*
X128842815Y-106476500D01*
X128825060Y-106475243D01*
X128802184Y-106471987D01*
X128795697Y-106471919D01*
X128792946Y-106471890D01*
X128792943Y-106471890D01*
X128788820Y-106471847D01*
X128784721Y-106472343D01*
X128784494Y-106472370D01*
X128775955Y-106473109D01*
X128740373Y-106474974D01*
X128478748Y-106488683D01*
X128172073Y-106537254D01*
X128009700Y-106580760D01*
X127875351Y-106616758D01*
X127875344Y-106616760D01*
X127872154Y-106617615D01*
X127582279Y-106728887D01*
X127579337Y-106730386D01*
X127391302Y-106826194D01*
X127305623Y-106869849D01*
X127302868Y-106871638D01*
X127302863Y-106871641D01*
X127047982Y-107037163D01*
X127045218Y-107038958D01*
X126803915Y-107234360D01*
X126584360Y-107453915D01*
X126388958Y-107695218D01*
X126387163Y-107697982D01*
X126312468Y-107813003D01*
X126219849Y-107955623D01*
X126078887Y-108232279D01*
X125967615Y-108522154D01*
X125966760Y-108525344D01*
X125966758Y-108525351D01*
X125930760Y-108659700D01*
X125887254Y-108822073D01*
X125838683Y-109128748D01*
X125838511Y-109132031D01*
X125838510Y-109132040D01*
X125833502Y-109227607D01*
X125826661Y-109358157D01*
X125825247Y-109358083D01*
X125825638Y-109361191D01*
X125826500Y-109361236D01*
X125826500Y-109361237D01*
X125826017Y-109370455D01*
X125824098Y-109407077D01*
X125823014Y-109418235D01*
X125822567Y-109421375D01*
X125822566Y-109421384D01*
X125821987Y-109425456D01*
X125821847Y-109438820D01*
X125822344Y-109442927D01*
X125825587Y-109469724D01*
X125826500Y-109484862D01*
X125826500Y-147947482D01*
X125825422Y-147963928D01*
X125823248Y-147980442D01*
X125821882Y-147990817D01*
X125822620Y-147997500D01*
X125822453Y-147997500D01*
X125822687Y-148001071D01*
X125822687Y-148001074D01*
X125831222Y-148131280D01*
X125838623Y-148244201D01*
X125839427Y-148248241D01*
X125839427Y-148248244D01*
X125873327Y-148418668D01*
X125886855Y-148486680D01*
X125888180Y-148490584D01*
X125888181Y-148490587D01*
X125909095Y-148552197D01*
X125966324Y-148720790D01*
X125968148Y-148724488D01*
X126031212Y-148852369D01*
X126075671Y-148942524D01*
X126213025Y-149148088D01*
X126215739Y-149151182D01*
X126215743Y-149151188D01*
X126373326Y-149330876D01*
X126376035Y-149333965D01*
X126379124Y-149336674D01*
X126558812Y-149494257D01*
X126558818Y-149494261D01*
X126561912Y-149496975D01*
X126565338Y-149499264D01*
X126565343Y-149499268D01*
X126677313Y-149574084D01*
X126722841Y-149628561D01*
X126726919Y-149641218D01*
X126727293Y-149641093D01*
X126782346Y-149806107D01*
X126786202Y-149812338D01*
X126873884Y-149954031D01*
X126872490Y-149954894D01*
X126895830Y-150012555D01*
X126882660Y-150082320D01*
X126873560Y-150096507D01*
X126873071Y-150096997D01*
X126869228Y-150103232D01*
X126786364Y-150237662D01*
X126781791Y-150245080D01*
X126727026Y-150410191D01*
X126716500Y-150512928D01*
X126716500Y-151087072D01*
X126727293Y-151191093D01*
X126782346Y-151356107D01*
X126873248Y-151503003D01*
X126873884Y-151504031D01*
X126872490Y-151504894D01*
X126895830Y-151562555D01*
X126882660Y-151632320D01*
X126873560Y-151646507D01*
X126873071Y-151646997D01*
X126781791Y-151795080D01*
X126727026Y-151960191D01*
X126716500Y-152062928D01*
X126716500Y-152637072D01*
X126716837Y-152640318D01*
X126716837Y-152640322D01*
X126726440Y-152732868D01*
X126727293Y-152741093D01*
X126782346Y-152906107D01*
X126873884Y-153054031D01*
X126879066Y-153059204D01*
X126991816Y-153171758D01*
X126991821Y-153171762D01*
X126996997Y-153176929D01*
X127145080Y-153268209D01*
X127152028Y-153270514D01*
X127152029Y-153270514D01*
X127182145Y-153280503D01*
X127240504Y-153320934D01*
X127258885Y-153351876D01*
X127357535Y-153590038D01*
X127512566Y-153870546D01*
X127698029Y-154131931D01*
X127911592Y-154370908D01*
X128150569Y-154584471D01*
X128394884Y-154757822D01*
X128438865Y-154813554D01*
X128444488Y-154831166D01*
X128498885Y-155057742D01*
X128500778Y-155062313D01*
X128500779Y-155062315D01*
X128585050Y-155265761D01*
X128592639Y-155336350D01*
X128560860Y-155399837D01*
X128499802Y-155436065D01*
X128468641Y-155439979D01*
X125634500Y-155439979D01*
X125566379Y-155419977D01*
X125519886Y-155366321D01*
X125508500Y-155313979D01*
X125508500Y-100694991D01*
X125528502Y-100626870D01*
X125582158Y-100580377D01*
X125652432Y-100570273D01*
X125717012Y-100599767D01*
G37*
%TD.AperFunction*%
%TA.AperFunction,Conductor*%
G36*
X139074402Y-101803502D02*
G01*
X139120895Y-101857158D01*
X139130999Y-101927432D01*
X139101505Y-101992012D01*
X139053583Y-102026284D01*
X138977068Y-102057275D01*
X138977062Y-102057278D01*
X138972840Y-102058988D01*
X138738839Y-102196001D01*
X138527068Y-102365359D01*
X138523947Y-102368700D01*
X138399224Y-102502215D01*
X138341963Y-102563512D01*
X138187402Y-102786312D01*
X138185374Y-102790388D01*
X138185373Y-102790390D01*
X138103252Y-102955460D01*
X138066621Y-103029090D01*
X137982153Y-103286760D01*
X137935765Y-103553925D01*
X137931500Y-103639600D01*
X137931500Y-104138157D01*
X137911498Y-104206278D01*
X137857842Y-104252771D01*
X137787568Y-104262875D01*
X137727793Y-104237342D01*
X137666562Y-104189370D01*
X137666559Y-104189368D01*
X137663571Y-104187027D01*
X137554536Y-104121113D01*
X137418773Y-104039041D01*
X137418769Y-104039039D01*
X137415512Y-104037070D01*
X137283349Y-103977588D01*
X137154662Y-103919671D01*
X137154656Y-103919669D01*
X137151186Y-103918107D01*
X137126524Y-103910422D01*
X136878088Y-103833006D01*
X136878084Y-103833005D01*
X136874448Y-103831872D01*
X136589334Y-103779622D01*
X136351893Y-103765260D01*
X136285104Y-103741182D01*
X136241935Y-103684817D01*
X136233500Y-103639490D01*
X136233500Y-102065782D01*
X136253502Y-101997661D01*
X136307158Y-101951168D01*
X136377432Y-101941064D01*
X136394652Y-101944785D01*
X136459989Y-101963767D01*
X136459993Y-101963768D01*
X136466169Y-101965562D01*
X136472574Y-101966066D01*
X136472579Y-101966067D01*
X136501042Y-101968307D01*
X136501050Y-101968307D01*
X136503498Y-101968500D01*
X138286502Y-101968500D01*
X138288950Y-101968307D01*
X138288958Y-101968307D01*
X138317421Y-101966067D01*
X138317426Y-101966066D01*
X138323831Y-101965562D01*
X138423769Y-101936528D01*
X138475988Y-101921357D01*
X138475990Y-101921356D01*
X138483601Y-101919145D01*
X138549002Y-101880467D01*
X138619980Y-101838491D01*
X138619983Y-101838489D01*
X138626807Y-101834453D01*
X138640855Y-101820405D01*
X138703167Y-101786379D01*
X138729950Y-101783500D01*
X139006281Y-101783500D01*
X139074402Y-101803502D01*
G37*
%TD.AperFunction*%
%TA.AperFunction,Conductor*%
G36*
X127702838Y-94161213D02*
G01*
X127741987Y-94193964D01*
X127745030Y-94197804D01*
X127748884Y-94204031D01*
X127756139Y-94211273D01*
X127757105Y-94213038D01*
X127758613Y-94214941D01*
X127758287Y-94215199D01*
X127790219Y-94273554D01*
X127785218Y-94344375D01*
X127756292Y-94389470D01*
X127753636Y-94392131D01*
X127744625Y-94403540D01*
X127661088Y-94539063D01*
X127654944Y-94552241D01*
X127604685Y-94703766D01*
X127601819Y-94717132D01*
X127592328Y-94809770D01*
X127592000Y-94816185D01*
X127592000Y-94827885D01*
X127596475Y-94843124D01*
X127597865Y-94844329D01*
X127605548Y-94846000D01*
X128765500Y-94846000D01*
X128833621Y-94866002D01*
X128880114Y-94919658D01*
X128891500Y-94972000D01*
X128891500Y-97664885D01*
X128895975Y-97680124D01*
X128897365Y-97681329D01*
X128905048Y-97683000D01*
X128983766Y-97683000D01*
X128990282Y-97682663D01*
X129084132Y-97672925D01*
X129097528Y-97670032D01*
X129248953Y-97619512D01*
X129262115Y-97613347D01*
X129397492Y-97529574D01*
X129408894Y-97520536D01*
X129410567Y-97518861D01*
X129411993Y-97518081D01*
X129414627Y-97515993D01*
X129414984Y-97516444D01*
X129472849Y-97484781D01*
X129543669Y-97489784D01*
X129588754Y-97518701D01*
X129590593Y-97520536D01*
X129596997Y-97526929D01*
X129603227Y-97530769D01*
X129603228Y-97530770D01*
X129721755Y-97603831D01*
X129745080Y-97618209D01*
X129868241Y-97659060D01*
X129898137Y-97668976D01*
X129954280Y-97706737D01*
X129974787Y-97730747D01*
X129977996Y-97734504D01*
X130152564Y-97883600D01*
X130348307Y-98003551D01*
X130352877Y-98005444D01*
X130352881Y-98005446D01*
X130554519Y-98088967D01*
X130560405Y-98091405D01*
X130633114Y-98108861D01*
X130778822Y-98143843D01*
X130778828Y-98143844D01*
X130783635Y-98144998D01*
X130824399Y-98148206D01*
X130869435Y-98151751D01*
X130935777Y-98177037D01*
X130977916Y-98234175D01*
X130982475Y-98305025D01*
X130980546Y-98312517D01*
X130970061Y-98348606D01*
X130970101Y-98362706D01*
X130977370Y-98366000D01*
X133924993Y-98366000D01*
X133924993Y-98366855D01*
X133957273Y-98365738D01*
X133957392Y-98364740D01*
X134153777Y-98388158D01*
X134159912Y-98387686D01*
X134159914Y-98387686D01*
X134350972Y-98372984D01*
X134351089Y-98374503D01*
X134414182Y-98381541D01*
X134469285Y-98426309D01*
X134491500Y-98497756D01*
X134491500Y-99930385D01*
X134471498Y-99998506D01*
X134417842Y-100044999D01*
X134347568Y-100055103D01*
X134282988Y-100025609D01*
X134264631Y-100005893D01*
X134159311Y-99865200D01*
X134156609Y-99861590D01*
X133978410Y-99683391D01*
X133967070Y-99674902D01*
X133962137Y-99671209D01*
X133919592Y-99614372D01*
X133916651Y-99605495D01*
X133881357Y-99484012D01*
X133881356Y-99484010D01*
X133879145Y-99476399D01*
X133794453Y-99333193D01*
X133791513Y-99330253D01*
X133766180Y-99265734D01*
X133780079Y-99196111D01*
X133792126Y-99177364D01*
X133798090Y-99169676D01*
X133874648Y-99040221D01*
X133880893Y-99025790D01*
X133919939Y-98891395D01*
X133919899Y-98877294D01*
X133912630Y-98874000D01*
X130983122Y-98874000D01*
X130969591Y-98877973D01*
X130968456Y-98885871D01*
X131009107Y-99025790D01*
X131015352Y-99040221D01*
X131030811Y-99066361D01*
X131048270Y-99135177D01*
X131025753Y-99202509D01*
X130970409Y-99246978D01*
X130922357Y-99256500D01*
X130464500Y-99256500D01*
X130396379Y-99236498D01*
X130349886Y-99182842D01*
X130338500Y-99130500D01*
X130338500Y-99002928D01*
X130331144Y-98932030D01*
X130328419Y-98905765D01*
X130328418Y-98905761D01*
X130327707Y-98898907D01*
X130320497Y-98877294D01*
X130274972Y-98740841D01*
X130272654Y-98733893D01*
X130181116Y-98585969D01*
X130175934Y-98580796D01*
X130063184Y-98468242D01*
X130063179Y-98468238D01*
X130058003Y-98463071D01*
X130051772Y-98459230D01*
X129916150Y-98375631D01*
X129916148Y-98375630D01*
X129909920Y-98371791D01*
X129744809Y-98317026D01*
X129737973Y-98316326D01*
X129737970Y-98316325D01*
X129686474Y-98311049D01*
X129642072Y-98306500D01*
X129067928Y-98306500D01*
X129064682Y-98306837D01*
X129064678Y-98306837D01*
X128970765Y-98316581D01*
X128970761Y-98316582D01*
X128963907Y-98317293D01*
X128957371Y-98319474D01*
X128957369Y-98319474D01*
X128870050Y-98348606D01*
X128798893Y-98372346D01*
X128650969Y-98463884D01*
X128649649Y-98461751D01*
X128594834Y-98483946D01*
X128525068Y-98470784D01*
X128516248Y-98465825D01*
X128386150Y-98385631D01*
X128386148Y-98385630D01*
X128379920Y-98381791D01*
X128214809Y-98327026D01*
X128207973Y-98326326D01*
X128207970Y-98326325D01*
X128144261Y-98319798D01*
X128112072Y-98316500D01*
X127537928Y-98316500D01*
X127534682Y-98316837D01*
X127534678Y-98316837D01*
X127440765Y-98326581D01*
X127440761Y-98326582D01*
X127433907Y-98327293D01*
X127427371Y-98329474D01*
X127427369Y-98329474D01*
X127301924Y-98371326D01*
X127268893Y-98382346D01*
X127120969Y-98473884D01*
X127115796Y-98479066D01*
X127003242Y-98591816D01*
X127003238Y-98591821D01*
X126998071Y-98596997D01*
X126994231Y-98603227D01*
X126994230Y-98603228D01*
X126917528Y-98727662D01*
X126906791Y-98745080D01*
X126852026Y-98910191D01*
X126851326Y-98917027D01*
X126851325Y-98917030D01*
X126850489Y-98925191D01*
X126841500Y-99012928D01*
X126841500Y-99480241D01*
X126821498Y-99548362D01*
X126767842Y-99594855D01*
X126697568Y-99604959D01*
X126632988Y-99575465D01*
X126592982Y-99509656D01*
X126584998Y-99476399D01*
X126552700Y-99341874D01*
X126549607Y-99322347D01*
X126539670Y-99196111D01*
X126536596Y-99157054D01*
X126537055Y-99139527D01*
X126537047Y-99139527D01*
X126537126Y-99131932D01*
X126538118Y-99124400D01*
X126534261Y-99089468D01*
X126533500Y-99075640D01*
X126533500Y-96983766D01*
X127592000Y-96983766D01*
X127592337Y-96990282D01*
X127602075Y-97084132D01*
X127604968Y-97097528D01*
X127655488Y-97248953D01*
X127661653Y-97262115D01*
X127745426Y-97397492D01*
X127754460Y-97408890D01*
X127867129Y-97521363D01*
X127878540Y-97530375D01*
X128014063Y-97613912D01*
X128027241Y-97620056D01*
X128178766Y-97670315D01*
X128192132Y-97673181D01*
X128284770Y-97682672D01*
X128291185Y-97683000D01*
X128365385Y-97683000D01*
X128380624Y-97678525D01*
X128381829Y-97677135D01*
X128383500Y-97669452D01*
X128383500Y-96972115D01*
X128379025Y-96956876D01*
X128377635Y-96955671D01*
X128369952Y-96954000D01*
X127610115Y-96954000D01*
X127594876Y-96958475D01*
X127593671Y-96959865D01*
X127592000Y-96967548D01*
X127592000Y-96983766D01*
X126533500Y-96983766D01*
X126533500Y-96427885D01*
X127592000Y-96427885D01*
X127596475Y-96443124D01*
X127597865Y-96444329D01*
X127605548Y-96446000D01*
X128365385Y-96446000D01*
X128380624Y-96441525D01*
X128381829Y-96440135D01*
X128383500Y-96432452D01*
X128383500Y-95372115D01*
X128379025Y-95356876D01*
X128377635Y-95355671D01*
X128369952Y-95354000D01*
X127610115Y-95354000D01*
X127594876Y-95358475D01*
X127593671Y-95359865D01*
X127592000Y-95367548D01*
X127592000Y-95383766D01*
X127592337Y-95390282D01*
X127602075Y-95484132D01*
X127604968Y-95497528D01*
X127655488Y-95648953D01*
X127661653Y-95662115D01*
X127745426Y-95797492D01*
X127754461Y-95808892D01*
X127756497Y-95810924D01*
X127757444Y-95812655D01*
X127759007Y-95814627D01*
X127758669Y-95814895D01*
X127790574Y-95873208D01*
X127785568Y-95944028D01*
X127756648Y-95989113D01*
X127753637Y-95992129D01*
X127744625Y-96003540D01*
X127661088Y-96139063D01*
X127654944Y-96152241D01*
X127604685Y-96303766D01*
X127601819Y-96317132D01*
X127592328Y-96409770D01*
X127592000Y-96416185D01*
X127592000Y-96427885D01*
X126533500Y-96427885D01*
X126533500Y-95453995D01*
X126534757Y-95436241D01*
X126537432Y-95417445D01*
X126538013Y-95413364D01*
X126538153Y-95400000D01*
X126537657Y-95395898D01*
X126536845Y-95389183D01*
X126536321Y-95364167D01*
X126548315Y-95211762D01*
X126551408Y-95192233D01*
X126593174Y-95018266D01*
X126599282Y-94999467D01*
X126667747Y-94834178D01*
X126676721Y-94816567D01*
X126770202Y-94664021D01*
X126781817Y-94648033D01*
X126898011Y-94511987D01*
X126911989Y-94498009D01*
X127048033Y-94381817D01*
X127064021Y-94370202D01*
X127216567Y-94276721D01*
X127234178Y-94267747D01*
X127399472Y-94199280D01*
X127418266Y-94193174D01*
X127592234Y-94151408D01*
X127611764Y-94148315D01*
X127633358Y-94146616D01*
X127702838Y-94161213D01*
G37*
%TD.AperFunction*%
%TA.AperFunction,Conductor*%
G36*
X139061265Y-98178502D02*
G01*
X139074806Y-98188545D01*
X139096650Y-98207136D01*
X139269294Y-98303624D01*
X139457392Y-98364740D01*
X139653777Y-98388158D01*
X139659912Y-98387686D01*
X139659914Y-98387686D01*
X139844830Y-98373457D01*
X139844834Y-98373456D01*
X139850972Y-98372984D01*
X140041463Y-98319798D01*
X140042219Y-98322504D01*
X140100968Y-98317565D01*
X140163700Y-98350809D01*
X140198501Y-98412692D01*
X140194320Y-98483565D01*
X140164897Y-98530028D01*
X140083071Y-98611997D01*
X139991791Y-98760080D01*
X139937026Y-98925191D01*
X139926500Y-99027928D01*
X139926500Y-99122376D01*
X139906498Y-99190497D01*
X139852842Y-99236990D01*
X139800926Y-99248375D01*
X138921114Y-99251344D01*
X138852928Y-99231573D01*
X138806255Y-99178075D01*
X138795914Y-99107835D01*
X138812237Y-99061207D01*
X138824648Y-99040221D01*
X138830893Y-99025790D01*
X138869939Y-98891395D01*
X138869899Y-98877294D01*
X138862630Y-98874000D01*
X137267000Y-98874000D01*
X137198879Y-98853998D01*
X137152386Y-98800342D01*
X137141000Y-98748000D01*
X137141000Y-98492000D01*
X137161002Y-98423879D01*
X137214658Y-98377386D01*
X137267000Y-98366000D01*
X138856878Y-98366000D01*
X138870409Y-98362027D01*
X138871544Y-98354129D01*
X138861528Y-98319653D01*
X138861731Y-98248657D01*
X138900284Y-98189041D01*
X138964949Y-98159732D01*
X138982525Y-98158500D01*
X138993144Y-98158500D01*
X139061265Y-98178502D01*
G37*
%TD.AperFunction*%
%TA.AperFunction,Conductor*%
G36*
X144326121Y-93278502D02*
G01*
X144372614Y-93332158D01*
X144384000Y-93384500D01*
X144384000Y-94489885D01*
X144388475Y-94505124D01*
X144389867Y-94506330D01*
X144392284Y-94506856D01*
X144454596Y-94540881D01*
X144488621Y-94603193D01*
X144491500Y-94629976D01*
X144491500Y-98214925D01*
X144471498Y-98283046D01*
X144417842Y-98329539D01*
X144352658Y-98340269D01*
X144267072Y-98331500D01*
X143692928Y-98331500D01*
X143689682Y-98331837D01*
X143689678Y-98331837D01*
X143595765Y-98341581D01*
X143595761Y-98341582D01*
X143588907Y-98342293D01*
X143582371Y-98344474D01*
X143582369Y-98344474D01*
X143459007Y-98385631D01*
X143423893Y-98397346D01*
X143275969Y-98488884D01*
X143275106Y-98487490D01*
X143217445Y-98510830D01*
X143147680Y-98497660D01*
X143133493Y-98488560D01*
X143133003Y-98488071D01*
X142984920Y-98396791D01*
X142819809Y-98342026D01*
X142812973Y-98341326D01*
X142812970Y-98341325D01*
X142757733Y-98335666D01*
X142717072Y-98331500D01*
X142142928Y-98331500D01*
X142139682Y-98331837D01*
X142139678Y-98331837D01*
X142045765Y-98341581D01*
X142045761Y-98341582D01*
X142038907Y-98342293D01*
X142032371Y-98344474D01*
X142032369Y-98344474D01*
X141909007Y-98385631D01*
X141873893Y-98397346D01*
X141867661Y-98401202D01*
X141867662Y-98401202D01*
X141736429Y-98482411D01*
X141667977Y-98501249D01*
X141604010Y-98482527D01*
X141471150Y-98400631D01*
X141471148Y-98400630D01*
X141464920Y-98396791D01*
X141299809Y-98342026D01*
X141292973Y-98341326D01*
X141292970Y-98341325D01*
X141237733Y-98335666D01*
X141197072Y-98331500D01*
X140622928Y-98331500D01*
X140619682Y-98331837D01*
X140619678Y-98331837D01*
X140525765Y-98341581D01*
X140525761Y-98341582D01*
X140518907Y-98342293D01*
X140512371Y-98344474D01*
X140512369Y-98344474D01*
X140438062Y-98369265D01*
X140367113Y-98371849D01*
X140306029Y-98335666D01*
X140274204Y-98272201D01*
X140281743Y-98201606D01*
X140320613Y-98150452D01*
X140368991Y-98112655D01*
X140373847Y-98108861D01*
X140503078Y-97959145D01*
X140600769Y-97787179D01*
X140663197Y-97599513D01*
X140687985Y-97403295D01*
X140688380Y-97375000D01*
X140676789Y-97256791D01*
X140690048Y-97187046D01*
X140738911Y-97135538D01*
X140807863Y-97118625D01*
X140841855Y-97124904D01*
X140978765Y-97170315D01*
X140992132Y-97173181D01*
X141084770Y-97182672D01*
X141091185Y-97183000D01*
X141165385Y-97183000D01*
X141180624Y-97178525D01*
X141181829Y-97177135D01*
X141183500Y-97169452D01*
X141183500Y-97164885D01*
X141691500Y-97164885D01*
X141695975Y-97180124D01*
X141697365Y-97181329D01*
X141705048Y-97183000D01*
X141783766Y-97183000D01*
X141790282Y-97182663D01*
X141884132Y-97172925D01*
X141897528Y-97170032D01*
X142048953Y-97119512D01*
X142062115Y-97113347D01*
X142197492Y-97029574D01*
X142208890Y-97020540D01*
X142321363Y-96907871D01*
X142330375Y-96896460D01*
X142413912Y-96760937D01*
X142420056Y-96747759D01*
X142470315Y-96596234D01*
X142473181Y-96582868D01*
X142482672Y-96490230D01*
X142483000Y-96483815D01*
X142483000Y-96472115D01*
X142478525Y-96456876D01*
X142477135Y-96455671D01*
X142469452Y-96454000D01*
X141709615Y-96454000D01*
X141694376Y-96458475D01*
X141693171Y-96459865D01*
X141691500Y-96467548D01*
X141691500Y-97164885D01*
X141183500Y-97164885D01*
X141183500Y-96072000D01*
X141203502Y-96003879D01*
X141257158Y-95957386D01*
X141309500Y-95946000D01*
X142464885Y-95946000D01*
X142480124Y-95941525D01*
X142481329Y-95940135D01*
X142483000Y-95932452D01*
X142483000Y-95916234D01*
X142482663Y-95909718D01*
X142472925Y-95815868D01*
X142470032Y-95802472D01*
X142419512Y-95651047D01*
X142413347Y-95637885D01*
X142329574Y-95502508D01*
X142320540Y-95491110D01*
X142207871Y-95378637D01*
X142196460Y-95369625D01*
X142060937Y-95286088D01*
X142047760Y-95279944D01*
X141974141Y-95255526D01*
X141915781Y-95215096D01*
X141888544Y-95149532D01*
X141901077Y-95079650D01*
X141929847Y-95041983D01*
X141986070Y-94991738D01*
X141987011Y-94992791D01*
X141988077Y-94991423D01*
X141987529Y-94990875D01*
X141989167Y-94989237D01*
X141991503Y-94987028D01*
X141991877Y-94986548D01*
X142023553Y-94958240D01*
X142031857Y-94951433D01*
X142034567Y-94949398D01*
X142037866Y-94946921D01*
X142047415Y-94937570D01*
X142066628Y-94913066D01*
X142076688Y-94901716D01*
X142442999Y-94535405D01*
X142505311Y-94501379D01*
X142532094Y-94498500D01*
X142917072Y-94498500D01*
X142920318Y-94498163D01*
X142920322Y-94498163D01*
X143014235Y-94488419D01*
X143014239Y-94488418D01*
X143021093Y-94487707D01*
X143027629Y-94485526D01*
X143027631Y-94485526D01*
X143160395Y-94441232D01*
X143186107Y-94432654D01*
X143305971Y-94358480D01*
X143374423Y-94339642D01*
X143438390Y-94358364D01*
X143569063Y-94438912D01*
X143582241Y-94445056D01*
X143733766Y-94495315D01*
X143747132Y-94498181D01*
X143839770Y-94507672D01*
X143846185Y-94508000D01*
X143857885Y-94508000D01*
X143873124Y-94503525D01*
X143874329Y-94502135D01*
X143876000Y-94494452D01*
X143876000Y-93384500D01*
X143896002Y-93316379D01*
X143949658Y-93269886D01*
X144002000Y-93258500D01*
X144258000Y-93258500D01*
X144326121Y-93278502D01*
G37*
%TD.AperFunction*%
%TA.AperFunction,Conductor*%
G36*
X125717012Y-81672571D02*
G01*
X125723518Y-81678622D01*
X125816816Y-81771758D01*
X125816821Y-81771762D01*
X125821997Y-81776929D01*
X125828227Y-81780769D01*
X125828228Y-81780770D01*
X125959847Y-81861901D01*
X125970080Y-81868209D01*
X126135191Y-81922974D01*
X126142027Y-81923674D01*
X126142030Y-81923675D01*
X126192064Y-81928801D01*
X126237928Y-81933500D01*
X126386129Y-81933500D01*
X126454250Y-81953502D01*
X126502538Y-82011283D01*
X126553244Y-82133701D01*
X126557911Y-82147038D01*
X126615143Y-82345702D01*
X126618287Y-82359477D01*
X126652917Y-82563309D01*
X126654497Y-82577335D01*
X126664171Y-82749634D01*
X126664183Y-82749844D01*
X126663303Y-82773350D01*
X126661882Y-82784145D01*
X126665739Y-82819085D01*
X126666500Y-82832910D01*
X126666500Y-88235036D01*
X126646498Y-88303157D01*
X126606804Y-88342179D01*
X126595969Y-88348884D01*
X126590796Y-88354066D01*
X126478242Y-88466816D01*
X126478238Y-88466821D01*
X126473071Y-88471997D01*
X126469231Y-88478227D01*
X126469230Y-88478228D01*
X126438730Y-88527709D01*
X126381791Y-88620080D01*
X126327026Y-88785191D01*
X126316500Y-88887928D01*
X126316500Y-89587072D01*
X126316837Y-89590318D01*
X126316837Y-89590322D01*
X126325638Y-89675141D01*
X126327293Y-89691093D01*
X126329474Y-89697629D01*
X126329474Y-89697631D01*
X126342809Y-89737601D01*
X126382346Y-89856107D01*
X126473884Y-90004031D01*
X126479065Y-90009203D01*
X126481139Y-90011273D01*
X126482105Y-90013038D01*
X126483613Y-90014941D01*
X126483287Y-90015199D01*
X126515219Y-90073554D01*
X126510218Y-90144375D01*
X126481292Y-90189470D01*
X126478636Y-90192131D01*
X126469625Y-90203540D01*
X126386088Y-90339063D01*
X126379944Y-90352241D01*
X126329685Y-90503766D01*
X126326819Y-90517132D01*
X126317328Y-90609770D01*
X126317000Y-90616185D01*
X126317000Y-90690385D01*
X126321475Y-90705624D01*
X126322865Y-90706829D01*
X126330548Y-90708500D01*
X127428000Y-90708500D01*
X127496121Y-90728502D01*
X127542614Y-90782158D01*
X127554000Y-90834500D01*
X127554000Y-91989885D01*
X127558475Y-92005124D01*
X127559865Y-92006329D01*
X127567548Y-92008000D01*
X127583766Y-92008000D01*
X127590282Y-92007663D01*
X127684132Y-91997925D01*
X127697528Y-91995032D01*
X127848953Y-91944512D01*
X127862111Y-91938349D01*
X127998085Y-91854206D01*
X128066537Y-91835369D01*
X128130504Y-91854091D01*
X128267929Y-91938801D01*
X128275080Y-91943209D01*
X128440191Y-91997974D01*
X128447027Y-91998674D01*
X128447030Y-91998675D01*
X128494370Y-92003525D01*
X128542928Y-92008500D01*
X129117072Y-92008500D01*
X129120318Y-92008163D01*
X129120322Y-92008163D01*
X129214235Y-91998419D01*
X129214239Y-91998418D01*
X129221093Y-91997707D01*
X129227629Y-91995526D01*
X129227631Y-91995526D01*
X129360395Y-91951232D01*
X129386107Y-91942654D01*
X129528563Y-91854500D01*
X129597015Y-91835663D01*
X129660981Y-91854385D01*
X129751205Y-91910000D01*
X129795506Y-91956564D01*
X129797529Y-91960245D01*
X129800448Y-91967617D01*
X129805104Y-91974026D01*
X129805106Y-91974029D01*
X129826436Y-92003387D01*
X129832952Y-92013307D01*
X129855458Y-92051362D01*
X129869779Y-92065683D01*
X129882619Y-92080716D01*
X129894528Y-92097107D01*
X129900634Y-92102158D01*
X129928605Y-92125298D01*
X129937384Y-92133288D01*
X130113962Y-92309866D01*
X130147988Y-92372178D01*
X130142923Y-92442993D01*
X130100376Y-92499829D01*
X130037870Y-92524288D01*
X130033879Y-92524702D01*
X130015765Y-92526581D01*
X130015761Y-92526582D01*
X130008907Y-92527293D01*
X130002371Y-92529474D01*
X130002369Y-92529474D01*
X129930502Y-92553451D01*
X129843893Y-92582346D01*
X129695969Y-92673884D01*
X129690796Y-92679066D01*
X129589253Y-92780786D01*
X129526970Y-92814865D01*
X129456150Y-92809862D01*
X129411063Y-92780941D01*
X129308188Y-92678246D01*
X129308183Y-92678242D01*
X129303003Y-92673071D01*
X129296772Y-92669230D01*
X129161150Y-92585631D01*
X129161148Y-92585630D01*
X129154920Y-92581791D01*
X128989809Y-92527026D01*
X128982973Y-92526326D01*
X128982970Y-92526325D01*
X128931474Y-92521049D01*
X128887072Y-92516500D01*
X128287928Y-92516500D01*
X128284682Y-92516837D01*
X128284678Y-92516837D01*
X128190765Y-92526581D01*
X128190761Y-92526582D01*
X128183907Y-92527293D01*
X128177371Y-92529474D01*
X128177369Y-92529474D01*
X128105502Y-92553451D01*
X128018893Y-92582346D01*
X127870969Y-92673884D01*
X127748071Y-92796997D01*
X127738858Y-92811942D01*
X127686089Y-92859434D01*
X127639208Y-92871595D01*
X127497860Y-92880145D01*
X127497856Y-92880146D01*
X127494062Y-92880375D01*
X127192585Y-92935622D01*
X127188953Y-92936754D01*
X127188952Y-92936754D01*
X127039925Y-92983193D01*
X126899966Y-93026806D01*
X126896496Y-93028368D01*
X126896490Y-93028370D01*
X126719317Y-93108110D01*
X126620472Y-93152597D01*
X126617209Y-93154569D01*
X126617210Y-93154569D01*
X126399516Y-93286169D01*
X126358177Y-93311159D01*
X126116908Y-93500182D01*
X125900182Y-93716908D01*
X125897832Y-93719908D01*
X125897829Y-93719911D01*
X125733685Y-93929425D01*
X125675928Y-93970713D01*
X125605018Y-93974220D01*
X125543469Y-93938835D01*
X125510821Y-93875790D01*
X125508500Y-93851718D01*
X125508500Y-91308766D01*
X126317000Y-91308766D01*
X126317337Y-91315282D01*
X126327075Y-91409132D01*
X126329968Y-91422528D01*
X126380488Y-91573953D01*
X126386653Y-91587115D01*
X126470426Y-91722492D01*
X126479460Y-91733890D01*
X126592129Y-91846363D01*
X126603540Y-91855375D01*
X126739063Y-91938912D01*
X126752241Y-91945056D01*
X126903766Y-91995315D01*
X126917132Y-91998181D01*
X127009770Y-92007672D01*
X127016185Y-92008000D01*
X127027885Y-92008000D01*
X127043124Y-92003525D01*
X127044329Y-92002135D01*
X127046000Y-91994452D01*
X127046000Y-91234615D01*
X127041525Y-91219376D01*
X127040135Y-91218171D01*
X127032452Y-91216500D01*
X126335115Y-91216500D01*
X126319876Y-91220975D01*
X126318671Y-91222365D01*
X126317000Y-91230048D01*
X126317000Y-91308766D01*
X125508500Y-91308766D01*
X125508500Y-81767795D01*
X125528502Y-81699674D01*
X125582158Y-81653181D01*
X125652432Y-81643077D01*
X125717012Y-81672571D01*
G37*
%TD.AperFunction*%
%TA.AperFunction,Conductor*%
G36*
X131545008Y-89475539D02*
G01*
X131568810Y-89493357D01*
X131761334Y-89598484D01*
X131857645Y-89634406D01*
X131962642Y-89673568D01*
X131962645Y-89673569D01*
X131966860Y-89675141D01*
X131971250Y-89676096D01*
X131971257Y-89676098D01*
X132128618Y-89710329D01*
X132181203Y-89721768D01*
X132185689Y-89722089D01*
X132185690Y-89722089D01*
X132301868Y-89730399D01*
X132308668Y-89731071D01*
X132312292Y-89731529D01*
X132319970Y-89733500D01*
X132340727Y-89733500D01*
X132349714Y-89733821D01*
X132360300Y-89734578D01*
X132360328Y-89734580D01*
X132369087Y-89735516D01*
X132381506Y-89737283D01*
X132386636Y-89738013D01*
X132393797Y-89738088D01*
X132395880Y-89738110D01*
X132395882Y-89738110D01*
X132400000Y-89738153D01*
X132404090Y-89737658D01*
X132404091Y-89737658D01*
X132411747Y-89736731D01*
X132430907Y-89734413D01*
X132446042Y-89733500D01*
X141849982Y-89733500D01*
X141866428Y-89734578D01*
X141885786Y-89737127D01*
X141885790Y-89737127D01*
X141893317Y-89738118D01*
X141900874Y-89737284D01*
X141900881Y-89737283D01*
X141931150Y-89737601D01*
X141978409Y-89743823D01*
X142010179Y-89752336D01*
X142067926Y-89776255D01*
X142096410Y-89792700D01*
X142145994Y-89830746D01*
X142169252Y-89854004D01*
X142182618Y-89871422D01*
X142207299Y-89903588D01*
X142223745Y-89932074D01*
X142247664Y-89989821D01*
X142256177Y-90021592D01*
X142261838Y-90064592D01*
X142262909Y-90082356D01*
X142262873Y-90085789D01*
X142261882Y-90093317D01*
X142262715Y-90100862D01*
X142262715Y-90100866D01*
X142265739Y-90128253D01*
X142266500Y-90142080D01*
X142266500Y-90592296D01*
X142246498Y-90660417D01*
X142192842Y-90706910D01*
X142180377Y-90711819D01*
X142080846Y-90745026D01*
X142080844Y-90745027D01*
X142073893Y-90747346D01*
X141985737Y-90801899D01*
X141935953Y-90832706D01*
X141867501Y-90851544D01*
X141803534Y-90832822D01*
X141670937Y-90751088D01*
X141657759Y-90744944D01*
X141506234Y-90694685D01*
X141492868Y-90691819D01*
X141400230Y-90682328D01*
X141393815Y-90682000D01*
X141382115Y-90682000D01*
X141366876Y-90686475D01*
X141365671Y-90687865D01*
X141364000Y-90695548D01*
X141364000Y-91805500D01*
X141343998Y-91873621D01*
X141290342Y-91920114D01*
X141238000Y-91931500D01*
X140982000Y-91931500D01*
X140913879Y-91911498D01*
X140867386Y-91857842D01*
X140856000Y-91805500D01*
X140856000Y-90700115D01*
X140851525Y-90684876D01*
X140850135Y-90683671D01*
X140842452Y-90682000D01*
X140826234Y-90682000D01*
X140819718Y-90682337D01*
X140725868Y-90692075D01*
X140712472Y-90694968D01*
X140561047Y-90745488D01*
X140547885Y-90751653D01*
X140429990Y-90824608D01*
X140361538Y-90843445D01*
X140297572Y-90824723D01*
X140161150Y-90740631D01*
X140161148Y-90740630D01*
X140154920Y-90736791D01*
X139989809Y-90682026D01*
X139982973Y-90681326D01*
X139982970Y-90681325D01*
X139931474Y-90676049D01*
X139887072Y-90671500D01*
X139312928Y-90671500D01*
X139309682Y-90671837D01*
X139309678Y-90671837D01*
X139215765Y-90681581D01*
X139215761Y-90681582D01*
X139208907Y-90682293D01*
X139202371Y-90684474D01*
X139202369Y-90684474D01*
X139109430Y-90715481D01*
X139043893Y-90737346D01*
X138895969Y-90828884D01*
X138894899Y-90827155D01*
X138838528Y-90849974D01*
X138768763Y-90836807D01*
X138720276Y-90793032D01*
X138622575Y-90642009D01*
X138622570Y-90642003D01*
X138619764Y-90637665D01*
X138616085Y-90633621D01*
X138554099Y-90565500D01*
X138463887Y-90466358D01*
X138459836Y-90463159D01*
X138459832Y-90463155D01*
X138286177Y-90326011D01*
X138286172Y-90326008D01*
X138282123Y-90322810D01*
X138277607Y-90320317D01*
X138277604Y-90320315D01*
X138083879Y-90213373D01*
X138083875Y-90213371D01*
X138079355Y-90210876D01*
X138074486Y-90209152D01*
X138074482Y-90209150D01*
X137865903Y-90135288D01*
X137865899Y-90135287D01*
X137861028Y-90133562D01*
X137855935Y-90132655D01*
X137855932Y-90132654D01*
X137638095Y-90093851D01*
X137638089Y-90093850D01*
X137633006Y-90092945D01*
X137555644Y-90092000D01*
X137406581Y-90090179D01*
X137406579Y-90090179D01*
X137401411Y-90090116D01*
X137172464Y-90125150D01*
X136952314Y-90197106D01*
X136947726Y-90199494D01*
X136947722Y-90199496D01*
X136751461Y-90301663D01*
X136746872Y-90304052D01*
X136742739Y-90307155D01*
X136742736Y-90307157D01*
X136565790Y-90440012D01*
X136561655Y-90443117D01*
X136401639Y-90610564D01*
X136354836Y-90679174D01*
X136299927Y-90724175D01*
X136229402Y-90732346D01*
X136165655Y-90701092D01*
X136144959Y-90676609D01*
X136122577Y-90642013D01*
X136122574Y-90642009D01*
X136119764Y-90637665D01*
X136116085Y-90633621D01*
X136054099Y-90565500D01*
X135963887Y-90466358D01*
X135959836Y-90463159D01*
X135959832Y-90463155D01*
X135786177Y-90326011D01*
X135786172Y-90326008D01*
X135782123Y-90322810D01*
X135777607Y-90320317D01*
X135777604Y-90320315D01*
X135583879Y-90213373D01*
X135583875Y-90213371D01*
X135579355Y-90210876D01*
X135574486Y-90209152D01*
X135574482Y-90209150D01*
X135365903Y-90135288D01*
X135365899Y-90135287D01*
X135361028Y-90133562D01*
X135355935Y-90132655D01*
X135355932Y-90132654D01*
X135138095Y-90093851D01*
X135138089Y-90093850D01*
X135133006Y-90092945D01*
X135055644Y-90092000D01*
X134906581Y-90090179D01*
X134906579Y-90090179D01*
X134901411Y-90090116D01*
X134672464Y-90125150D01*
X134452314Y-90197106D01*
X134447726Y-90199494D01*
X134447722Y-90199496D01*
X134251461Y-90301663D01*
X134246872Y-90304052D01*
X134242739Y-90307155D01*
X134242736Y-90307157D01*
X134065790Y-90440012D01*
X134061655Y-90443117D01*
X134061066Y-90442333D01*
X134001346Y-90470484D01*
X133930955Y-90461231D01*
X133876741Y-90415391D01*
X133863925Y-90390224D01*
X133853323Y-90361944D01*
X133844786Y-90346351D01*
X133768285Y-90244276D01*
X133755724Y-90231715D01*
X133653649Y-90155214D01*
X133638054Y-90146676D01*
X133517606Y-90101522D01*
X133502351Y-90097895D01*
X133451486Y-90092369D01*
X133444672Y-90092000D01*
X132772115Y-90092000D01*
X132756876Y-90096475D01*
X132755671Y-90097865D01*
X132754000Y-90105548D01*
X132754000Y-91628000D01*
X132733998Y-91696121D01*
X132680342Y-91742614D01*
X132628000Y-91754000D01*
X132372000Y-91754000D01*
X132303879Y-91733998D01*
X132257386Y-91680342D01*
X132246000Y-91628000D01*
X132246000Y-90110116D01*
X132241525Y-90094877D01*
X132240135Y-90093672D01*
X132232452Y-90092001D01*
X131555331Y-90092001D01*
X131548510Y-90092371D01*
X131497648Y-90097895D01*
X131482397Y-90101521D01*
X131363756Y-90145998D01*
X131292949Y-90151181D01*
X131230580Y-90117261D01*
X131196451Y-90055005D01*
X131201397Y-89984181D01*
X131212266Y-89961900D01*
X131274369Y-89861150D01*
X131274370Y-89861148D01*
X131278209Y-89854920D01*
X131332974Y-89689809D01*
X131343500Y-89587072D01*
X131343500Y-89576408D01*
X131363502Y-89508287D01*
X131417158Y-89461794D01*
X131487432Y-89451690D01*
X131545008Y-89475539D01*
G37*
%TD.AperFunction*%
%TA.AperFunction,Conductor*%
G36*
X144441522Y-86157201D02*
G01*
X144483779Y-86214253D01*
X144491500Y-86257683D01*
X144491500Y-90565500D01*
X144471498Y-90633621D01*
X144417842Y-90680114D01*
X144365500Y-90691500D01*
X143842928Y-90691500D01*
X143839682Y-90691837D01*
X143839678Y-90691837D01*
X143745765Y-90701581D01*
X143745761Y-90701582D01*
X143738907Y-90702293D01*
X143732372Y-90704473D01*
X143732364Y-90704475D01*
X143699377Y-90715481D01*
X143628428Y-90718067D01*
X143567344Y-90681883D01*
X143535518Y-90618420D01*
X143533500Y-90595958D01*
X143533500Y-90153995D01*
X143534757Y-90136241D01*
X143535138Y-90133562D01*
X143538013Y-90113364D01*
X143538153Y-90100000D01*
X143537351Y-90093371D01*
X143536758Y-90087214D01*
X143534455Y-90055005D01*
X143521004Y-89866935D01*
X143471336Y-89638614D01*
X143469769Y-89634412D01*
X143469767Y-89634406D01*
X143391249Y-89423892D01*
X143391248Y-89423889D01*
X143389680Y-89419686D01*
X143358128Y-89361902D01*
X143279857Y-89218561D01*
X143277698Y-89214607D01*
X143137671Y-89027552D01*
X142972448Y-88862329D01*
X142785393Y-88722302D01*
X142726024Y-88689884D01*
X142584259Y-88612474D01*
X142584257Y-88612473D01*
X142580314Y-88610320D01*
X142576111Y-88608752D01*
X142576108Y-88608751D01*
X142365594Y-88530233D01*
X142365588Y-88530231D01*
X142361386Y-88528664D01*
X142357000Y-88527710D01*
X142356997Y-88527709D01*
X142293856Y-88513974D01*
X142133065Y-88478996D01*
X142128581Y-88478675D01*
X142128579Y-88478675D01*
X141993467Y-88469012D01*
X141987523Y-88468424D01*
X141980030Y-88466500D01*
X141962845Y-88466500D01*
X141953858Y-88466179D01*
X141936070Y-88464907D01*
X141927309Y-88463972D01*
X141913364Y-88461987D01*
X141906452Y-88461915D01*
X141904120Y-88461890D01*
X141904118Y-88461890D01*
X141900000Y-88461847D01*
X141895910Y-88462342D01*
X141895909Y-88462342D01*
X141888253Y-88463269D01*
X141869093Y-88465587D01*
X141853958Y-88466500D01*
X132450018Y-88466500D01*
X132433572Y-88465422D01*
X132414214Y-88462873D01*
X132414210Y-88462873D01*
X132406683Y-88461882D01*
X132399135Y-88462715D01*
X132391535Y-88462636D01*
X132391541Y-88462101D01*
X132368849Y-88461566D01*
X132337360Y-88456579D01*
X132299866Y-88444397D01*
X132261134Y-88424662D01*
X132229242Y-88401490D01*
X132198510Y-88370758D01*
X132175338Y-88338866D01*
X132155603Y-88300134D01*
X132143421Y-88262641D01*
X132143103Y-88260631D01*
X132139359Y-88236991D01*
X132138401Y-88213368D01*
X132138013Y-88213364D01*
X132138110Y-88204120D01*
X132138110Y-88204118D01*
X132138153Y-88200000D01*
X132134413Y-88169093D01*
X132133500Y-88153958D01*
X132133500Y-88037883D01*
X132153502Y-87969762D01*
X132207158Y-87923269D01*
X132277432Y-87913165D01*
X132325616Y-87930623D01*
X132339063Y-87938912D01*
X132352241Y-87945056D01*
X132503766Y-87995315D01*
X132517132Y-87998181D01*
X132609770Y-88007672D01*
X132616185Y-88008000D01*
X132627885Y-88008000D01*
X132643124Y-88003525D01*
X132644329Y-88002135D01*
X132646000Y-87994452D01*
X132646000Y-86834500D01*
X132666002Y-86766379D01*
X132719658Y-86719886D01*
X132772000Y-86708500D01*
X133028000Y-86708500D01*
X133096121Y-86728502D01*
X133142614Y-86782158D01*
X133154000Y-86834500D01*
X133154000Y-87989885D01*
X133158475Y-88005124D01*
X133159865Y-88006329D01*
X133167548Y-88008000D01*
X133183766Y-88008000D01*
X133190282Y-88007663D01*
X133284132Y-87997925D01*
X133297528Y-87995032D01*
X133448953Y-87944512D01*
X133462111Y-87938349D01*
X133583114Y-87863470D01*
X133651566Y-87844633D01*
X133715533Y-87863355D01*
X133837196Y-87938349D01*
X133845080Y-87943209D01*
X134010191Y-87997974D01*
X134017027Y-87998674D01*
X134017030Y-87998675D01*
X134064370Y-88003525D01*
X134112928Y-88008500D01*
X134687072Y-88008500D01*
X134690318Y-88008163D01*
X134690322Y-88008163D01*
X134784235Y-87998419D01*
X134784239Y-87998418D01*
X134791093Y-87997707D01*
X134797629Y-87995526D01*
X134797631Y-87995526D01*
X134930395Y-87951232D01*
X134956107Y-87942654D01*
X135083593Y-87863763D01*
X135152043Y-87844927D01*
X135216010Y-87863649D01*
X135337196Y-87938349D01*
X135345080Y-87943209D01*
X135510191Y-87997974D01*
X135517027Y-87998674D01*
X135517030Y-87998675D01*
X135564370Y-88003525D01*
X135612928Y-88008500D01*
X136187072Y-88008500D01*
X136190318Y-88008163D01*
X136190322Y-88008163D01*
X136284235Y-87998419D01*
X136284239Y-87998418D01*
X136291093Y-87997707D01*
X136297629Y-87995526D01*
X136297631Y-87995526D01*
X136430395Y-87951232D01*
X136456107Y-87942654D01*
X136583593Y-87863763D01*
X136652043Y-87844927D01*
X136716010Y-87863649D01*
X136837196Y-87938349D01*
X136845080Y-87943209D01*
X137010191Y-87997974D01*
X137017027Y-87998674D01*
X137017030Y-87998675D01*
X137064370Y-88003525D01*
X137112928Y-88008500D01*
X137687072Y-88008500D01*
X137690318Y-88008163D01*
X137690322Y-88008163D01*
X137784235Y-87998419D01*
X137784239Y-87998418D01*
X137791093Y-87997707D01*
X137797629Y-87995526D01*
X137797631Y-87995526D01*
X137930395Y-87951232D01*
X137956107Y-87942654D01*
X138104031Y-87851116D01*
X138226929Y-87728003D01*
X138240564Y-87705884D01*
X138293336Y-87658391D01*
X138347824Y-87646000D01*
X141847869Y-87646000D01*
X141865625Y-87647257D01*
X141884422Y-87649933D01*
X141884429Y-87649934D01*
X141888500Y-87650513D01*
X141894916Y-87650580D01*
X141897738Y-87650610D01*
X141897741Y-87650610D01*
X141901864Y-87650653D01*
X141905959Y-87650157D01*
X141906259Y-87650141D01*
X141913716Y-87649482D01*
X142083602Y-87639943D01*
X142196980Y-87633577D01*
X142331957Y-87610645D01*
X142484907Y-87584660D01*
X142484912Y-87584659D01*
X142488384Y-87584069D01*
X142772413Y-87502244D01*
X142775680Y-87500891D01*
X142775688Y-87500888D01*
X142908953Y-87445689D01*
X143045494Y-87389133D01*
X143075659Y-87372462D01*
X143301096Y-87247868D01*
X143301101Y-87247865D01*
X143304193Y-87246156D01*
X143545257Y-87075113D01*
X143765655Y-86878155D01*
X143962613Y-86657757D01*
X144133656Y-86416693D01*
X144156449Y-86375453D01*
X144255222Y-86196735D01*
X144305679Y-86146789D01*
X144375129Y-86132051D01*
X144441522Y-86157201D01*
G37*
%TD.AperFunction*%
%TA.AperFunction,Conductor*%
G36*
X144433621Y-58028502D02*
G01*
X144480114Y-58082158D01*
X144491500Y-58134500D01*
X144491500Y-67994909D01*
X144471498Y-68063030D01*
X144417842Y-68109523D01*
X144347568Y-68119627D01*
X144325834Y-68114503D01*
X144296229Y-68104684D01*
X144282868Y-68101819D01*
X144190230Y-68092328D01*
X144183815Y-68092000D01*
X144172115Y-68092000D01*
X144156876Y-68096475D01*
X144155671Y-68097865D01*
X144154000Y-68105548D01*
X144154000Y-69265500D01*
X144133998Y-69333621D01*
X144080342Y-69380114D01*
X144028000Y-69391500D01*
X143772000Y-69391500D01*
X143703879Y-69371498D01*
X143657386Y-69317842D01*
X143646000Y-69265500D01*
X143646000Y-68110115D01*
X143641525Y-68094876D01*
X143640135Y-68093671D01*
X143632452Y-68092000D01*
X143616234Y-68092000D01*
X143609718Y-68092337D01*
X143515868Y-68102075D01*
X143502472Y-68104968D01*
X143351047Y-68155488D01*
X143337885Y-68161653D01*
X143202508Y-68245426D01*
X143191106Y-68254464D01*
X143189433Y-68256139D01*
X143188007Y-68256919D01*
X143185373Y-68259007D01*
X143185016Y-68258556D01*
X143127151Y-68290219D01*
X143056331Y-68285216D01*
X143011246Y-68256299D01*
X143008185Y-68253244D01*
X143003003Y-68248071D01*
X142979514Y-68233592D01*
X142861150Y-68160631D01*
X142861148Y-68160630D01*
X142854920Y-68156791D01*
X142689809Y-68102026D01*
X142682973Y-68101326D01*
X142682970Y-68101325D01*
X142631474Y-68096049D01*
X142587072Y-68091500D01*
X142012928Y-68091500D01*
X142009682Y-68091837D01*
X142009678Y-68091837D01*
X141915765Y-68101581D01*
X141915761Y-68101582D01*
X141908907Y-68102293D01*
X141902371Y-68104474D01*
X141902369Y-68104474D01*
X141778060Y-68145947D01*
X141743893Y-68157346D01*
X141595969Y-68248884D01*
X141590796Y-68254066D01*
X141478242Y-68366816D01*
X141478238Y-68366821D01*
X141473071Y-68371997D01*
X141469231Y-68378227D01*
X141469230Y-68378228D01*
X141386807Y-68511943D01*
X141381791Y-68520080D01*
X141364455Y-68572346D01*
X141328539Y-68680629D01*
X141288108Y-68738989D01*
X141222544Y-68766226D01*
X141152662Y-68753692D01*
X141100651Y-68705368D01*
X141086722Y-68671576D01*
X141031443Y-68450880D01*
X141031443Y-68450879D01*
X141030690Y-68447874D01*
X140907898Y-68104684D01*
X140907074Y-68102382D01*
X140906031Y-68099467D01*
X140747822Y-67764956D01*
X140602637Y-67522726D01*
X140559182Y-67450224D01*
X140559181Y-67450223D01*
X140557587Y-67447563D01*
X140337158Y-67150345D01*
X140088658Y-66876165D01*
X139814479Y-66627662D01*
X139517263Y-66407230D01*
X139395070Y-66333990D01*
X139346924Y-66281812D01*
X139334630Y-66211888D01*
X139362092Y-66146418D01*
X139420590Y-66106187D01*
X139484212Y-66102294D01*
X139567203Y-66118651D01*
X139571678Y-66119533D01*
X139576232Y-66119760D01*
X139576234Y-66119760D01*
X139837936Y-66132789D01*
X139837942Y-66132789D01*
X139842505Y-66133016D01*
X140112441Y-66107262D01*
X140116870Y-66106178D01*
X140116877Y-66106177D01*
X140276584Y-66067096D01*
X140375832Y-66042810D01*
X140432106Y-66020017D01*
X140622931Y-65942725D01*
X140622932Y-65942725D01*
X140627160Y-65941012D01*
X140861161Y-65803999D01*
X141072932Y-65634641D01*
X141111421Y-65593439D01*
X141254921Y-65439824D01*
X141254923Y-65439821D01*
X141258037Y-65436488D01*
X141412598Y-65213688D01*
X141494624Y-65048810D01*
X141531346Y-64974997D01*
X141531347Y-64974994D01*
X141533379Y-64970910D01*
X141617847Y-64713240D01*
X141664235Y-64446075D01*
X141668500Y-64360400D01*
X141668500Y-63671116D01*
X141666328Y-63641170D01*
X141654205Y-63474100D01*
X141653875Y-63469549D01*
X141652891Y-63465091D01*
X141596400Y-63209223D01*
X141596399Y-63209219D01*
X141595415Y-63204763D01*
X141499345Y-62951190D01*
X141367676Y-62714141D01*
X141203167Y-62498583D01*
X141009264Y-62309030D01*
X140790028Y-62149453D01*
X140550053Y-62023196D01*
X140545752Y-62021677D01*
X140545747Y-62021675D01*
X140367998Y-61958906D01*
X140294366Y-61932904D01*
X140196347Y-61913585D01*
X140032794Y-61881348D01*
X140032788Y-61881347D01*
X140028322Y-61880467D01*
X140023768Y-61880240D01*
X140023766Y-61880240D01*
X139762064Y-61867211D01*
X139762058Y-61867211D01*
X139757495Y-61866984D01*
X139487559Y-61892738D01*
X139483130Y-61893822D01*
X139483123Y-61893823D01*
X139353069Y-61925648D01*
X139224168Y-61957190D01*
X139219933Y-61958905D01*
X139219931Y-61958906D01*
X138977069Y-62057275D01*
X138972840Y-62058988D01*
X138738839Y-62196001D01*
X138527068Y-62365359D01*
X138523947Y-62368700D01*
X138399224Y-62502215D01*
X138341963Y-62563512D01*
X138187402Y-62786312D01*
X138185374Y-62790388D01*
X138185373Y-62790390D01*
X138103252Y-62955460D01*
X138066621Y-63029090D01*
X137982153Y-63286760D01*
X137935765Y-63553925D01*
X137931500Y-63639600D01*
X137931500Y-64328884D01*
X137931665Y-64331152D01*
X137931665Y-64331164D01*
X137939725Y-64442238D01*
X137946125Y-64530451D01*
X137947109Y-64534906D01*
X137947109Y-64534909D01*
X137986482Y-64713240D01*
X138004585Y-64795237D01*
X138100655Y-65048810D01*
X138232324Y-65285859D01*
X138235096Y-65289491D01*
X138287418Y-65358049D01*
X138312845Y-65424336D01*
X138298398Y-65493847D01*
X138248665Y-65544513D01*
X138179434Y-65560248D01*
X138121139Y-65541751D01*
X138046037Y-65495457D01*
X138046035Y-65495456D01*
X138039807Y-65491617D01*
X137874696Y-65436852D01*
X137867860Y-65436152D01*
X137867857Y-65436151D01*
X137816361Y-65430875D01*
X137771959Y-65426326D01*
X137072815Y-65426326D01*
X137069569Y-65426663D01*
X137069565Y-65426663D01*
X136975652Y-65436407D01*
X136975648Y-65436408D01*
X136968794Y-65437119D01*
X136962258Y-65439300D01*
X136962256Y-65439300D01*
X136829492Y-65483594D01*
X136803780Y-65492172D01*
X136655856Y-65583710D01*
X136650684Y-65588891D01*
X136648614Y-65590965D01*
X136646849Y-65591931D01*
X136644946Y-65593439D01*
X136644688Y-65593113D01*
X136586333Y-65625045D01*
X136515512Y-65620044D01*
X136470417Y-65591118D01*
X136467756Y-65588462D01*
X136456347Y-65579451D01*
X136320824Y-65495914D01*
X136307646Y-65489770D01*
X136156121Y-65439511D01*
X136142755Y-65436645D01*
X136050117Y-65427154D01*
X136043702Y-65426826D01*
X135969502Y-65426826D01*
X135954263Y-65431301D01*
X135953058Y-65432691D01*
X135951387Y-65440374D01*
X135951387Y-66908711D01*
X135966283Y-66959442D01*
X135971387Y-66994940D01*
X135971387Y-68077826D01*
X135951385Y-68145947D01*
X135897729Y-68192440D01*
X135845387Y-68203826D01*
X134690002Y-68203826D01*
X134674763Y-68208301D01*
X134673558Y-68209691D01*
X134671887Y-68217374D01*
X134671887Y-68233592D01*
X134672224Y-68240108D01*
X134681962Y-68333958D01*
X134684855Y-68347354D01*
X134735375Y-68498779D01*
X134741541Y-68511943D01*
X134828993Y-68653264D01*
X134847831Y-68721716D01*
X134827548Y-68786675D01*
X134828071Y-68786997D01*
X134825793Y-68790693D01*
X134750530Y-68912792D01*
X134736791Y-68935080D01*
X134682026Y-69100191D01*
X134671500Y-69202928D01*
X134671500Y-69777072D01*
X134671837Y-69780318D01*
X134671837Y-69780322D01*
X134672418Y-69785915D01*
X134682293Y-69881093D01*
X134684474Y-69887629D01*
X134684474Y-69887631D01*
X134714624Y-69978001D01*
X134717208Y-70048950D01*
X134681025Y-70110034D01*
X134634245Y-70137642D01*
X134452314Y-70197106D01*
X134447726Y-70199494D01*
X134447722Y-70199496D01*
X134347078Y-70251888D01*
X134246872Y-70304052D01*
X134242739Y-70307155D01*
X134242736Y-70307157D01*
X134065789Y-70440013D01*
X134061655Y-70443117D01*
X134061066Y-70442333D01*
X134001346Y-70470484D01*
X133930955Y-70461231D01*
X133876741Y-70415391D01*
X133863925Y-70390224D01*
X133853323Y-70361944D01*
X133844786Y-70346351D01*
X133768285Y-70244276D01*
X133755724Y-70231715D01*
X133653649Y-70155214D01*
X133638054Y-70146676D01*
X133517606Y-70101522D01*
X133502351Y-70097895D01*
X133451486Y-70092369D01*
X133444672Y-70092000D01*
X132772115Y-70092000D01*
X132756876Y-70096475D01*
X132755671Y-70097865D01*
X132754000Y-70105548D01*
X132754000Y-71628000D01*
X132733998Y-71696121D01*
X132680342Y-71742614D01*
X132628000Y-71754000D01*
X131110116Y-71754000D01*
X131094877Y-71758475D01*
X131093672Y-71759865D01*
X131092001Y-71767548D01*
X131092001Y-72215500D01*
X131071999Y-72283621D01*
X131018343Y-72330114D01*
X130966001Y-72341500D01*
X130870905Y-72341500D01*
X130802784Y-72321498D01*
X130763764Y-72281807D01*
X130726116Y-72220969D01*
X130642238Y-72137237D01*
X130608184Y-72103242D01*
X130608179Y-72103238D01*
X130603003Y-72098071D01*
X130454920Y-72006791D01*
X130289809Y-71952026D01*
X130282973Y-71951326D01*
X130282970Y-71951325D01*
X130231474Y-71946049D01*
X130187072Y-71941500D01*
X129612928Y-71941500D01*
X129609682Y-71941837D01*
X129609678Y-71941837D01*
X129515765Y-71951581D01*
X129515761Y-71951582D01*
X129508907Y-71952293D01*
X129502371Y-71954474D01*
X129502369Y-71954474D01*
X129369605Y-71998768D01*
X129343893Y-72007346D01*
X129195969Y-72098884D01*
X129190796Y-72104066D01*
X129078242Y-72216816D01*
X129078238Y-72216821D01*
X129073071Y-72221997D01*
X129069231Y-72228227D01*
X129069230Y-72228228D01*
X128992274Y-72353074D01*
X128981791Y-72370080D01*
X128927026Y-72535191D01*
X128916500Y-72637928D01*
X128916500Y-73337072D01*
X128927293Y-73441093D01*
X128982346Y-73606107D01*
X129073884Y-73754031D01*
X129079065Y-73759203D01*
X129081139Y-73761273D01*
X129082105Y-73763038D01*
X129083613Y-73764941D01*
X129083287Y-73765199D01*
X129115219Y-73823554D01*
X129110218Y-73894375D01*
X129081292Y-73939470D01*
X129078636Y-73942131D01*
X129069625Y-73953540D01*
X128986088Y-74089063D01*
X128979944Y-74102241D01*
X128929685Y-74253766D01*
X128926819Y-74267132D01*
X128917328Y-74359770D01*
X128917000Y-74366185D01*
X128917000Y-74440385D01*
X128921475Y-74455624D01*
X128922865Y-74456829D01*
X128930548Y-74458500D01*
X130028000Y-74458500D01*
X130096121Y-74478502D01*
X130142614Y-74532158D01*
X130154000Y-74584500D01*
X130154000Y-75739885D01*
X130158475Y-75755124D01*
X130159865Y-75756329D01*
X130167548Y-75758000D01*
X130183766Y-75758000D01*
X130190282Y-75757663D01*
X130284132Y-75747925D01*
X130297528Y-75745032D01*
X130448953Y-75694512D01*
X130468745Y-75685241D01*
X130469320Y-75686469D01*
X130530260Y-75669697D01*
X130598030Y-75690857D01*
X130643602Y-75745296D01*
X130652044Y-75772934D01*
X130652752Y-75776795D01*
X130653268Y-75782934D01*
X130654965Y-75788853D01*
X130654966Y-75788857D01*
X130666869Y-75830365D01*
X130707783Y-75973050D01*
X130798187Y-76148956D01*
X130921035Y-76303953D01*
X131071650Y-76432136D01*
X131244294Y-76528624D01*
X131432392Y-76589740D01*
X131628777Y-76613158D01*
X131634912Y-76612686D01*
X131634914Y-76612686D01*
X131819830Y-76598457D01*
X131819834Y-76598456D01*
X131825972Y-76597984D01*
X132016463Y-76544798D01*
X132021967Y-76542018D01*
X132021969Y-76542017D01*
X132187495Y-76458404D01*
X132187497Y-76458403D01*
X132192996Y-76455625D01*
X132348847Y-76333861D01*
X132478078Y-76184145D01*
X132575769Y-76012179D01*
X132638197Y-75824513D01*
X132662985Y-75628295D01*
X132663380Y-75600000D01*
X132658163Y-75546795D01*
X132671422Y-75477049D01*
X132720285Y-75425541D01*
X132783562Y-75408500D01*
X133151502Y-75408500D01*
X133153950Y-75408307D01*
X133153958Y-75408307D01*
X133182421Y-75406067D01*
X133182426Y-75406066D01*
X133188831Y-75405562D01*
X133288769Y-75376528D01*
X133340988Y-75361357D01*
X133340990Y-75361356D01*
X133348601Y-75359145D01*
X133491807Y-75274453D01*
X133494747Y-75271513D01*
X133559271Y-75246179D01*
X133628894Y-75260080D01*
X133647640Y-75272129D01*
X133655323Y-75278089D01*
X133784779Y-75354648D01*
X133799210Y-75360893D01*
X133933605Y-75399939D01*
X133947706Y-75399899D01*
X133951000Y-75392630D01*
X133951000Y-75386878D01*
X134459000Y-75386878D01*
X134462973Y-75400409D01*
X134470871Y-75401544D01*
X134610790Y-75360893D01*
X134625221Y-75354648D01*
X134754678Y-75278088D01*
X134762770Y-75271811D01*
X134828854Y-75245861D01*
X134898477Y-75259759D01*
X134917230Y-75271811D01*
X134925322Y-75278088D01*
X135054779Y-75354648D01*
X135069210Y-75360893D01*
X135203605Y-75399939D01*
X135217706Y-75399899D01*
X135221000Y-75392630D01*
X135221000Y-74372115D01*
X135216525Y-74356876D01*
X135215135Y-74355671D01*
X135207452Y-74354000D01*
X134477115Y-74354000D01*
X134461876Y-74358475D01*
X134460671Y-74359865D01*
X134459000Y-74367548D01*
X134459000Y-75386878D01*
X133951000Y-75386878D01*
X133951000Y-73972000D01*
X133971002Y-73903879D01*
X134024658Y-73857386D01*
X134077000Y-73846000D01*
X135603000Y-73846000D01*
X135671121Y-73866002D01*
X135717614Y-73919658D01*
X135729000Y-73972000D01*
X135729000Y-75386878D01*
X135732973Y-75400409D01*
X135740871Y-75401544D01*
X135880790Y-75360893D01*
X135895221Y-75354648D01*
X136024676Y-75278090D01*
X136032364Y-75272126D01*
X136098449Y-75246179D01*
X136168072Y-75260080D01*
X136184158Y-75270418D01*
X136188193Y-75274453D01*
X136331399Y-75359145D01*
X136339010Y-75361356D01*
X136339012Y-75361357D01*
X136391231Y-75376528D01*
X136491169Y-75405562D01*
X136497574Y-75406066D01*
X136497579Y-75406067D01*
X136526042Y-75408307D01*
X136526050Y-75408307D01*
X136528498Y-75408500D01*
X136961502Y-75408500D01*
X136963950Y-75408307D01*
X136963958Y-75408307D01*
X136992421Y-75406067D01*
X136992426Y-75406066D01*
X136998831Y-75405562D01*
X137098769Y-75376528D01*
X137150988Y-75361357D01*
X137150990Y-75361356D01*
X137158601Y-75359145D01*
X137301807Y-75274453D01*
X137304489Y-75271771D01*
X137368861Y-75246498D01*
X137438484Y-75260400D01*
X137454312Y-75270572D01*
X137458193Y-75274453D01*
X137601399Y-75359145D01*
X137609010Y-75361356D01*
X137609012Y-75361357D01*
X137661231Y-75376528D01*
X137761169Y-75405562D01*
X137767574Y-75406066D01*
X137767579Y-75406067D01*
X137796042Y-75408307D01*
X137796050Y-75408307D01*
X137798498Y-75408500D01*
X138231502Y-75408500D01*
X138233950Y-75408307D01*
X138233958Y-75408307D01*
X138262421Y-75406067D01*
X138262426Y-75406066D01*
X138268831Y-75405562D01*
X138368769Y-75376528D01*
X138420988Y-75361357D01*
X138420990Y-75361356D01*
X138428601Y-75359145D01*
X138571807Y-75274453D01*
X138574489Y-75271771D01*
X138638861Y-75246498D01*
X138708484Y-75260400D01*
X138724312Y-75270572D01*
X138728193Y-75274453D01*
X138871399Y-75359145D01*
X138879010Y-75361356D01*
X138879012Y-75361357D01*
X138931231Y-75376528D01*
X139031169Y-75405562D01*
X139037574Y-75406066D01*
X139037579Y-75406067D01*
X139066042Y-75408307D01*
X139066050Y-75408307D01*
X139068498Y-75408500D01*
X139168500Y-75408500D01*
X139236621Y-75428502D01*
X139283114Y-75482158D01*
X139293218Y-75552432D01*
X139263724Y-75617012D01*
X139223839Y-75647697D01*
X139018821Y-75747925D01*
X138989447Y-75762285D01*
X138987211Y-75763617D01*
X138987208Y-75763619D01*
X138601135Y-75993669D01*
X138601124Y-75993676D01*
X138598894Y-75995005D01*
X138596773Y-75996520D01*
X138596769Y-75996522D01*
X138333988Y-76184145D01*
X138228894Y-76259181D01*
X138086678Y-76379632D01*
X137906257Y-76532442D01*
X137881972Y-76553010D01*
X137560499Y-76874483D01*
X137266671Y-77221406D01*
X137002496Y-77591408D01*
X137001173Y-77593628D01*
X137001166Y-77593639D01*
X136800568Y-77930287D01*
X136769777Y-77981961D01*
X136768635Y-77984296D01*
X136768629Y-77984308D01*
X136611875Y-78304955D01*
X136570105Y-78390398D01*
X136404843Y-78813929D01*
X136275120Y-79249661D01*
X136274582Y-79252228D01*
X136256718Y-79337423D01*
X136223162Y-79399990D01*
X136197541Y-79420018D01*
X136195021Y-79421509D01*
X136188193Y-79425547D01*
X136185514Y-79428226D01*
X136121143Y-79453501D01*
X136051520Y-79439602D01*
X136035688Y-79429428D01*
X136031807Y-79425547D01*
X135888601Y-79340855D01*
X135880990Y-79338644D01*
X135880988Y-79338643D01*
X135828769Y-79323472D01*
X135728831Y-79294438D01*
X135722426Y-79293934D01*
X135722421Y-79293933D01*
X135693958Y-79291693D01*
X135693950Y-79291693D01*
X135691502Y-79291500D01*
X135258498Y-79291500D01*
X135256050Y-79291693D01*
X135256042Y-79291693D01*
X135227579Y-79293933D01*
X135227574Y-79293934D01*
X135221169Y-79294438D01*
X135121231Y-79323472D01*
X135069012Y-79338643D01*
X135069010Y-79338644D01*
X135061399Y-79340855D01*
X134918193Y-79425547D01*
X134915511Y-79428229D01*
X134851139Y-79453502D01*
X134781516Y-79439600D01*
X134765688Y-79429428D01*
X134761807Y-79425547D01*
X134618601Y-79340855D01*
X134610990Y-79338644D01*
X134610988Y-79338643D01*
X134558769Y-79323472D01*
X134458831Y-79294438D01*
X134452426Y-79293934D01*
X134452421Y-79293933D01*
X134423958Y-79291693D01*
X134423950Y-79291693D01*
X134421502Y-79291500D01*
X133988498Y-79291500D01*
X133986050Y-79291693D01*
X133986042Y-79291693D01*
X133957579Y-79293933D01*
X133957574Y-79293934D01*
X133951169Y-79294438D01*
X133851231Y-79323472D01*
X133799012Y-79338643D01*
X133799010Y-79338644D01*
X133791399Y-79340855D01*
X133648193Y-79425547D01*
X133645511Y-79428229D01*
X133581139Y-79453502D01*
X133511516Y-79439600D01*
X133495688Y-79429428D01*
X133491807Y-79425547D01*
X133348601Y-79340855D01*
X133340990Y-79338644D01*
X133340988Y-79338643D01*
X133288769Y-79323472D01*
X133188831Y-79294438D01*
X133161004Y-79292248D01*
X133094663Y-79266963D01*
X133076162Y-79249718D01*
X132957776Y-79114724D01*
X132751202Y-78933564D01*
X132522749Y-78780916D01*
X132276325Y-78659394D01*
X132272419Y-78658068D01*
X132020062Y-78572404D01*
X132020058Y-78572403D01*
X132016149Y-78571076D01*
X132012105Y-78570272D01*
X132012099Y-78570270D01*
X131750709Y-78518276D01*
X131750703Y-78518275D01*
X131746670Y-78517473D01*
X131742565Y-78517204D01*
X131742558Y-78517203D01*
X131556443Y-78505005D01*
X131556533Y-78503627D01*
X131552806Y-78504071D01*
X131552530Y-78504000D01*
X131544593Y-78504000D01*
X131544371Y-78503972D01*
X131536997Y-78503730D01*
X131529003Y-78503206D01*
X131502245Y-78501452D01*
X131492766Y-78500469D01*
X131485864Y-78499487D01*
X131478703Y-78499412D01*
X131476620Y-78499390D01*
X131476618Y-78499390D01*
X131472500Y-78499347D01*
X131468410Y-78499842D01*
X131468409Y-78499842D01*
X131466542Y-78500068D01*
X131441593Y-78503087D01*
X131426458Y-78504000D01*
X130878640Y-78504000D01*
X130810519Y-78483998D01*
X130771497Y-78444304D01*
X130726116Y-78370969D01*
X130700198Y-78345096D01*
X130608184Y-78253242D01*
X130608179Y-78253238D01*
X130603003Y-78248071D01*
X130596772Y-78244230D01*
X130461150Y-78160631D01*
X130461148Y-78160630D01*
X130454920Y-78156791D01*
X130289809Y-78102026D01*
X130282973Y-78101326D01*
X130282970Y-78101325D01*
X130230993Y-78096000D01*
X130187072Y-78091500D01*
X129612928Y-78091500D01*
X129609682Y-78091837D01*
X129609678Y-78091837D01*
X129515765Y-78101581D01*
X129515761Y-78101582D01*
X129508907Y-78102293D01*
X129502371Y-78104474D01*
X129502369Y-78104474D01*
X129468925Y-78115632D01*
X129343893Y-78157346D01*
X129228052Y-78229031D01*
X129207981Y-78241451D01*
X129139529Y-78260289D01*
X129075564Y-78241568D01*
X128955223Y-78167388D01*
X128936150Y-78155631D01*
X128936148Y-78155630D01*
X128929920Y-78151791D01*
X128764809Y-78097026D01*
X128757973Y-78096326D01*
X128757970Y-78096325D01*
X128706474Y-78091049D01*
X128662072Y-78086500D01*
X128062928Y-78086500D01*
X128059682Y-78086837D01*
X128059678Y-78086837D01*
X127965765Y-78096581D01*
X127965761Y-78096582D01*
X127958907Y-78097293D01*
X127952371Y-78099474D01*
X127952369Y-78099474D01*
X127903938Y-78115632D01*
X127793893Y-78152346D01*
X127645969Y-78243884D01*
X127640796Y-78249066D01*
X127539253Y-78350786D01*
X127476970Y-78384865D01*
X127406150Y-78379862D01*
X127361063Y-78350941D01*
X127258188Y-78248246D01*
X127258183Y-78248242D01*
X127253003Y-78243071D01*
X127230226Y-78229031D01*
X127111150Y-78155631D01*
X127111148Y-78155630D01*
X127104920Y-78151791D01*
X126939809Y-78097026D01*
X126932973Y-78096326D01*
X126932970Y-78096325D01*
X126881474Y-78091049D01*
X126837072Y-78086500D01*
X126237928Y-78086500D01*
X126234682Y-78086837D01*
X126234678Y-78086837D01*
X126140765Y-78096581D01*
X126140761Y-78096582D01*
X126133907Y-78097293D01*
X126127371Y-78099474D01*
X126127369Y-78099474D01*
X126078938Y-78115632D01*
X125968893Y-78152346D01*
X125820969Y-78243884D01*
X125815796Y-78249066D01*
X125723673Y-78341350D01*
X125661391Y-78375429D01*
X125590571Y-78370426D01*
X125533698Y-78327929D01*
X125508829Y-78261430D01*
X125508500Y-78252332D01*
X125508500Y-75058766D01*
X128917000Y-75058766D01*
X128917337Y-75065282D01*
X128927075Y-75159132D01*
X128929968Y-75172528D01*
X128980488Y-75323953D01*
X128986653Y-75337115D01*
X129070426Y-75472492D01*
X129079460Y-75483890D01*
X129192129Y-75596363D01*
X129203540Y-75605375D01*
X129339063Y-75688912D01*
X129352241Y-75695056D01*
X129503766Y-75745315D01*
X129517132Y-75748181D01*
X129609770Y-75757672D01*
X129616185Y-75758000D01*
X129627885Y-75758000D01*
X129643124Y-75753525D01*
X129644329Y-75752135D01*
X129646000Y-75744452D01*
X129646000Y-74984615D01*
X129641525Y-74969376D01*
X129640135Y-74968171D01*
X129632452Y-74966500D01*
X128935115Y-74966500D01*
X128919876Y-74970975D01*
X128918671Y-74972365D01*
X128917000Y-74980048D01*
X128917000Y-75058766D01*
X125508500Y-75058766D01*
X125508500Y-71227885D01*
X131092000Y-71227885D01*
X131096475Y-71243124D01*
X131097865Y-71244329D01*
X131105548Y-71246000D01*
X132227885Y-71246000D01*
X132243124Y-71241525D01*
X132244329Y-71240135D01*
X132246000Y-71232452D01*
X132246000Y-70110116D01*
X132241525Y-70094877D01*
X132240135Y-70093672D01*
X132232452Y-70092001D01*
X131555331Y-70092001D01*
X131548510Y-70092371D01*
X131497648Y-70097895D01*
X131482396Y-70101521D01*
X131361946Y-70146676D01*
X131346351Y-70155214D01*
X131244276Y-70231715D01*
X131231715Y-70244276D01*
X131155214Y-70346351D01*
X131146676Y-70361946D01*
X131101522Y-70482394D01*
X131097895Y-70497649D01*
X131092369Y-70548514D01*
X131092000Y-70555328D01*
X131092000Y-71227885D01*
X125508500Y-71227885D01*
X125508500Y-66693592D01*
X134651887Y-66693592D01*
X134652224Y-66700108D01*
X134661962Y-66793958D01*
X134664855Y-66807354D01*
X134715375Y-66958779D01*
X134721540Y-66971941D01*
X134805313Y-67107318D01*
X134811902Y-67115631D01*
X134838539Y-67181441D01*
X134825368Y-67251205D01*
X134820416Y-67260010D01*
X134740977Y-67388885D01*
X134734831Y-67402067D01*
X134684572Y-67553592D01*
X134681706Y-67566958D01*
X134672215Y-67659596D01*
X134671887Y-67666011D01*
X134671887Y-67677711D01*
X134676362Y-67692950D01*
X134677752Y-67694155D01*
X134685435Y-67695826D01*
X135445272Y-67695826D01*
X135460511Y-67691351D01*
X135461716Y-67689961D01*
X135463387Y-67682278D01*
X135463387Y-67450941D01*
X135448491Y-67400210D01*
X135443387Y-67364712D01*
X135443387Y-66681941D01*
X135438912Y-66666702D01*
X135437522Y-66665497D01*
X135429839Y-66663826D01*
X134670002Y-66663826D01*
X134654763Y-66668301D01*
X134653558Y-66669691D01*
X134651887Y-66677374D01*
X134651887Y-66693592D01*
X125508500Y-66693592D01*
X125508500Y-66137711D01*
X134651887Y-66137711D01*
X134656362Y-66152950D01*
X134657752Y-66154155D01*
X134665435Y-66155826D01*
X135425272Y-66155826D01*
X135440511Y-66151351D01*
X135441716Y-66149961D01*
X135443387Y-66142278D01*
X135443387Y-65444941D01*
X135438912Y-65429702D01*
X135437522Y-65428497D01*
X135429839Y-65426826D01*
X135351121Y-65426826D01*
X135344605Y-65427163D01*
X135250755Y-65436901D01*
X135237359Y-65439794D01*
X135085934Y-65490314D01*
X135072772Y-65496479D01*
X134937395Y-65580252D01*
X134925997Y-65589286D01*
X134813524Y-65701955D01*
X134804512Y-65713366D01*
X134720975Y-65848889D01*
X134714831Y-65862067D01*
X134664572Y-66013592D01*
X134661706Y-66026958D01*
X134652215Y-66119596D01*
X134651887Y-66126011D01*
X134651887Y-66137711D01*
X125508500Y-66137711D01*
X125508500Y-64328884D01*
X128331500Y-64328884D01*
X128331665Y-64331152D01*
X128331665Y-64331164D01*
X128339725Y-64442238D01*
X128346125Y-64530451D01*
X128347109Y-64534906D01*
X128347109Y-64534909D01*
X128386482Y-64713240D01*
X128404585Y-64795237D01*
X128500655Y-65048810D01*
X128632324Y-65285859D01*
X128635096Y-65289491D01*
X128787596Y-65489313D01*
X128796833Y-65501417D01*
X128800099Y-65504610D01*
X128800101Y-65504612D01*
X128889424Y-65591931D01*
X128990736Y-65690970D01*
X128994428Y-65693657D01*
X128994430Y-65693659D01*
X129021505Y-65713366D01*
X129209972Y-65850547D01*
X129449947Y-65976804D01*
X129454248Y-65978323D01*
X129454253Y-65978325D01*
X129554122Y-66013592D01*
X129705634Y-66067096D01*
X129803653Y-66086415D01*
X129967206Y-66118652D01*
X129967212Y-66118653D01*
X129971678Y-66119533D01*
X129976232Y-66119760D01*
X129976234Y-66119760D01*
X130237936Y-66132789D01*
X130237942Y-66132789D01*
X130242505Y-66133016D01*
X130512441Y-66107262D01*
X130516870Y-66106178D01*
X130516877Y-66106177D01*
X130676584Y-66067096D01*
X130775832Y-66042810D01*
X130832106Y-66020017D01*
X131022931Y-65942725D01*
X131022932Y-65942725D01*
X131027160Y-65941012D01*
X131261161Y-65803999D01*
X131472932Y-65634641D01*
X131511421Y-65593439D01*
X131654921Y-65439824D01*
X131654923Y-65439821D01*
X131658037Y-65436488D01*
X131812598Y-65213688D01*
X131894624Y-65048810D01*
X131931346Y-64974997D01*
X131931347Y-64974994D01*
X131933379Y-64970910D01*
X132017847Y-64713240D01*
X132064235Y-64446075D01*
X132068500Y-64360400D01*
X132068500Y-63671116D01*
X132066328Y-63641170D01*
X132054205Y-63474100D01*
X132053875Y-63469549D01*
X132052891Y-63465091D01*
X131996400Y-63209223D01*
X131996399Y-63209219D01*
X131995415Y-63204763D01*
X131899345Y-62951190D01*
X131767676Y-62714141D01*
X131603167Y-62498583D01*
X131409264Y-62309030D01*
X131190028Y-62149453D01*
X130950053Y-62023196D01*
X130945752Y-62021677D01*
X130945747Y-62021675D01*
X130767998Y-61958906D01*
X130694366Y-61932904D01*
X130596347Y-61913585D01*
X130432794Y-61881348D01*
X130432788Y-61881347D01*
X130428322Y-61880467D01*
X130423768Y-61880240D01*
X130423766Y-61880240D01*
X130162064Y-61867211D01*
X130162058Y-61867211D01*
X130157495Y-61866984D01*
X129887559Y-61892738D01*
X129883130Y-61893822D01*
X129883123Y-61893823D01*
X129753069Y-61925648D01*
X129624168Y-61957190D01*
X129619933Y-61958905D01*
X129619931Y-61958906D01*
X129377069Y-62057275D01*
X129372840Y-62058988D01*
X129138839Y-62196001D01*
X128927068Y-62365359D01*
X128923947Y-62368700D01*
X128799224Y-62502215D01*
X128741963Y-62563512D01*
X128587402Y-62786312D01*
X128585374Y-62790388D01*
X128585373Y-62790390D01*
X128503252Y-62955460D01*
X128466621Y-63029090D01*
X128382153Y-63286760D01*
X128335765Y-63553925D01*
X128331500Y-63639600D01*
X128331500Y-64328884D01*
X125508500Y-64328884D01*
X125508500Y-58134500D01*
X125528502Y-58066379D01*
X125582158Y-58019886D01*
X125634500Y-58008500D01*
X144365500Y-58008500D01*
X144433621Y-58028502D01*
G37*
%TD.AperFunction*%
%TD*%
M02*
